M48
; DRILL file {KiCad 5.1.5+dfsg1-2build2} date Tue 18 Oct 2022 04:05:02 PM EDT
; FORMAT={-:-/ absolute / metric / decimal}
; #@! TF.CreationDate,2022-10-18T16:05:02-04:00
; #@! TF.GenerationSoftware,Kicad,Pcbnew,5.1.5+dfsg1-2build2
; #@! TF.FileFunction,Plated,1,2,PTH
FMAT,2
METRIC
T1C0.400
T2C0.600
T3C0.800
T4C1.000
T5C1.100
T6C1.118
T7C1.300
T8C1.500
T9C2.200
%
G90
G05
T1
X57.5Y-92.5
X62.4Y-57.9
X62.5Y-65.5
X63.5Y-94.0
X63.5Y-96.0
X71.0Y-99.5
X76.0Y-100.5
X82.0Y-75.5
X83.5Y-56.5
X83.5Y-74.0
X88.0Y-61.5
X89.0Y-68.0
X94.0Y-56.5
X95.5Y-67.0
X101.375Y-64.875
X102.0Y-59.5
X103.0Y-63.5
X103.5Y-70.0
X106.5Y-62.0
X108.0Y-50.5
X110.0Y-31.0
X111.0Y-86.0
X113.5Y-58.345
X114.0Y-60.885
X114.5Y-62.755
X114.5Y-93.5
X114.885Y-59.615
X116.61Y-95.11
X119.0Y-93.5
X121.5Y-51.0
X123.5Y-88.5
X125.0Y-58.0
X125.5Y-63.5
X126.5Y-59.0
X126.5Y-70.5
X126.5Y-74.0
X127.0Y-60.5
X129.5Y-84.0
X137.5Y-81.0
X146.0Y-43.0
X148.5Y-58.5
T2
X99.19Y-41.77
X99.19Y-44.31
X106.81Y-36.69
X106.81Y-39.23
X121.38Y-41.62
X121.38Y-44.16
X121.38Y-46.7
X129.0Y-34.0
X129.0Y-36.54
X129.0Y-39.08
X108.19Y-28.69
X115.81Y-36.31
X72.0Y-41.77
X72.0Y-44.31
X79.62Y-36.69
X79.62Y-39.23
T3
X57.58Y-39.08
X57.58Y-41.62
T4
X51.0Y-81.5
X51.0Y-96.0
X53.5Y-96.0
X56.0Y-81.5
X56.0Y-96.0
X84.0Y-37.5
X84.0Y-42.5
X104.76Y-97.5
X107.3Y-97.5
X109.84Y-97.5
X112.38Y-97.5
X114.92Y-97.5
X117.46Y-97.5
X120.0Y-97.5
X149.0Y-37.83
X149.0Y-40.37
X149.0Y-42.91
X149.0Y-45.45
X149.0Y-47.99
X149.0Y-50.53
X149.0Y-53.07
X96.0Y-37.5
X96.0Y-42.5
X63.5Y-69.5
X63.5Y-72.04
X63.5Y-74.58
X63.5Y-77.12
T5
X102.5Y-83.0
X102.5Y-89.5
X107.0Y-83.0
X107.0Y-89.5
T6
X147.0Y-66.0
X147.0Y-71.0
T7
X50.0Y-63.0
X55.0Y-57.9
X55.0Y-60.5
X55.0Y-65.5
X55.0Y-68.1
T9
X52.5Y-34.0
X52.5Y-44.16
T8
X47.9Y-89.15G85X47.9Y-87.85
G05
X59.1Y-89.15G85X59.1Y-87.85
G05
T0
M30
