G04 #@! TF.GenerationSoftware,KiCad,Pcbnew,5.1.5+dfsg1-2build2*
G04 #@! TF.CreationDate,2022-10-18T15:56:32-04:00*
G04 #@! TF.ProjectId,Tayloe-Mixer-v3,5461796c-6f65-42d4-9d69-7865722d7633,rev?*
G04 #@! TF.SameCoordinates,Original*
G04 #@! TF.FileFunction,Soldermask,Bot*
G04 #@! TF.FilePolarity,Negative*
%FSLAX46Y46*%
G04 Gerber Fmt 4.6, Leading zero omitted, Abs format (unit mm)*
G04 Created by KiCad (PCBNEW 5.1.5+dfsg1-2build2) date 2022-10-18 15:56:32*
%MOMM*%
%LPD*%
G04 APERTURE LIST*
%ADD10C,1.219200*%
%ADD11C,0.100000*%
G04 APERTURE END LIST*
D10*
X55609600Y-65500000D02*
G75*
G03X55609600Y-65500000I-609600J0D01*
G01*
X55609600Y-57900000D02*
G75*
G03X55609600Y-57900000I-609600J0D01*
G01*
X55609600Y-68100000D02*
G75*
G03X55609600Y-68100000I-609600J0D01*
G01*
X50609600Y-63000000D02*
G75*
G03X50609600Y-63000000I-609600J0D01*
G01*
X55609600Y-60500000D02*
G75*
G03X55609600Y-60500000I-609600J0D01*
G01*
D11*
G36*
X120901000Y-98401000D02*
G01*
X119099000Y-98401000D01*
X119099000Y-96599000D01*
X120901000Y-96599000D01*
X120901000Y-98401000D01*
G37*
G36*
X117573512Y-96603927D02*
G01*
X117722812Y-96633624D01*
X117886784Y-96701544D01*
X118034354Y-96800147D01*
X118159853Y-96925646D01*
X118258456Y-97073216D01*
X118326376Y-97237188D01*
X118361000Y-97411259D01*
X118361000Y-97588741D01*
X118326376Y-97762812D01*
X118258456Y-97926784D01*
X118159853Y-98074354D01*
X118034354Y-98199853D01*
X117886784Y-98298456D01*
X117722812Y-98366376D01*
X117573512Y-98396073D01*
X117548742Y-98401000D01*
X117371258Y-98401000D01*
X117346488Y-98396073D01*
X117197188Y-98366376D01*
X117033216Y-98298456D01*
X116885646Y-98199853D01*
X116760147Y-98074354D01*
X116661544Y-97926784D01*
X116593624Y-97762812D01*
X116559000Y-97588741D01*
X116559000Y-97411259D01*
X116593624Y-97237188D01*
X116661544Y-97073216D01*
X116760147Y-96925646D01*
X116885646Y-96800147D01*
X117033216Y-96701544D01*
X117197188Y-96633624D01*
X117346488Y-96603927D01*
X117371258Y-96599000D01*
X117548742Y-96599000D01*
X117573512Y-96603927D01*
G37*
G36*
X115033512Y-96603927D02*
G01*
X115182812Y-96633624D01*
X115346784Y-96701544D01*
X115494354Y-96800147D01*
X115619853Y-96925646D01*
X115718456Y-97073216D01*
X115786376Y-97237188D01*
X115821000Y-97411259D01*
X115821000Y-97588741D01*
X115786376Y-97762812D01*
X115718456Y-97926784D01*
X115619853Y-98074354D01*
X115494354Y-98199853D01*
X115346784Y-98298456D01*
X115182812Y-98366376D01*
X115033512Y-98396073D01*
X115008742Y-98401000D01*
X114831258Y-98401000D01*
X114806488Y-98396073D01*
X114657188Y-98366376D01*
X114493216Y-98298456D01*
X114345646Y-98199853D01*
X114220147Y-98074354D01*
X114121544Y-97926784D01*
X114053624Y-97762812D01*
X114019000Y-97588741D01*
X114019000Y-97411259D01*
X114053624Y-97237188D01*
X114121544Y-97073216D01*
X114220147Y-96925646D01*
X114345646Y-96800147D01*
X114493216Y-96701544D01*
X114657188Y-96633624D01*
X114806488Y-96603927D01*
X114831258Y-96599000D01*
X115008742Y-96599000D01*
X115033512Y-96603927D01*
G37*
G36*
X112493512Y-96603927D02*
G01*
X112642812Y-96633624D01*
X112806784Y-96701544D01*
X112954354Y-96800147D01*
X113079853Y-96925646D01*
X113178456Y-97073216D01*
X113246376Y-97237188D01*
X113281000Y-97411259D01*
X113281000Y-97588741D01*
X113246376Y-97762812D01*
X113178456Y-97926784D01*
X113079853Y-98074354D01*
X112954354Y-98199853D01*
X112806784Y-98298456D01*
X112642812Y-98366376D01*
X112493512Y-98396073D01*
X112468742Y-98401000D01*
X112291258Y-98401000D01*
X112266488Y-98396073D01*
X112117188Y-98366376D01*
X111953216Y-98298456D01*
X111805646Y-98199853D01*
X111680147Y-98074354D01*
X111581544Y-97926784D01*
X111513624Y-97762812D01*
X111479000Y-97588741D01*
X111479000Y-97411259D01*
X111513624Y-97237188D01*
X111581544Y-97073216D01*
X111680147Y-96925646D01*
X111805646Y-96800147D01*
X111953216Y-96701544D01*
X112117188Y-96633624D01*
X112266488Y-96603927D01*
X112291258Y-96599000D01*
X112468742Y-96599000D01*
X112493512Y-96603927D01*
G37*
G36*
X107413512Y-96603927D02*
G01*
X107562812Y-96633624D01*
X107726784Y-96701544D01*
X107874354Y-96800147D01*
X107999853Y-96925646D01*
X108098456Y-97073216D01*
X108166376Y-97237188D01*
X108201000Y-97411259D01*
X108201000Y-97588741D01*
X108166376Y-97762812D01*
X108098456Y-97926784D01*
X107999853Y-98074354D01*
X107874354Y-98199853D01*
X107726784Y-98298456D01*
X107562812Y-98366376D01*
X107413512Y-98396073D01*
X107388742Y-98401000D01*
X107211258Y-98401000D01*
X107186488Y-98396073D01*
X107037188Y-98366376D01*
X106873216Y-98298456D01*
X106725646Y-98199853D01*
X106600147Y-98074354D01*
X106501544Y-97926784D01*
X106433624Y-97762812D01*
X106399000Y-97588741D01*
X106399000Y-97411259D01*
X106433624Y-97237188D01*
X106501544Y-97073216D01*
X106600147Y-96925646D01*
X106725646Y-96800147D01*
X106873216Y-96701544D01*
X107037188Y-96633624D01*
X107186488Y-96603927D01*
X107211258Y-96599000D01*
X107388742Y-96599000D01*
X107413512Y-96603927D01*
G37*
G36*
X104873512Y-96603927D02*
G01*
X105022812Y-96633624D01*
X105186784Y-96701544D01*
X105334354Y-96800147D01*
X105459853Y-96925646D01*
X105558456Y-97073216D01*
X105626376Y-97237188D01*
X105661000Y-97411259D01*
X105661000Y-97588741D01*
X105626376Y-97762812D01*
X105558456Y-97926784D01*
X105459853Y-98074354D01*
X105334354Y-98199853D01*
X105186784Y-98298456D01*
X105022812Y-98366376D01*
X104873512Y-98396073D01*
X104848742Y-98401000D01*
X104671258Y-98401000D01*
X104646488Y-98396073D01*
X104497188Y-98366376D01*
X104333216Y-98298456D01*
X104185646Y-98199853D01*
X104060147Y-98074354D01*
X103961544Y-97926784D01*
X103893624Y-97762812D01*
X103859000Y-97588741D01*
X103859000Y-97411259D01*
X103893624Y-97237188D01*
X103961544Y-97073216D01*
X104060147Y-96925646D01*
X104185646Y-96800147D01*
X104333216Y-96701544D01*
X104497188Y-96633624D01*
X104646488Y-96603927D01*
X104671258Y-96599000D01*
X104848742Y-96599000D01*
X104873512Y-96603927D01*
G37*
G36*
X109953512Y-96603927D02*
G01*
X110102812Y-96633624D01*
X110266784Y-96701544D01*
X110414354Y-96800147D01*
X110539853Y-96925646D01*
X110638456Y-97073216D01*
X110706376Y-97237188D01*
X110741000Y-97411259D01*
X110741000Y-97588741D01*
X110706376Y-97762812D01*
X110638456Y-97926784D01*
X110539853Y-98074354D01*
X110414354Y-98199853D01*
X110266784Y-98298456D01*
X110102812Y-98366376D01*
X109953512Y-98396073D01*
X109928742Y-98401000D01*
X109751258Y-98401000D01*
X109726488Y-98396073D01*
X109577188Y-98366376D01*
X109413216Y-98298456D01*
X109265646Y-98199853D01*
X109140147Y-98074354D01*
X109041544Y-97926784D01*
X108973624Y-97762812D01*
X108939000Y-97588741D01*
X108939000Y-97411259D01*
X108973624Y-97237188D01*
X109041544Y-97073216D01*
X109140147Y-96925646D01*
X109265646Y-96800147D01*
X109413216Y-96701544D01*
X109577188Y-96633624D01*
X109726488Y-96603927D01*
X109751258Y-96599000D01*
X109928742Y-96599000D01*
X109953512Y-96603927D01*
G37*
G36*
X53806564Y-94989389D02*
G01*
X53997833Y-95068615D01*
X53997835Y-95068616D01*
X54169973Y-95183635D01*
X54316365Y-95330027D01*
X54431385Y-95502167D01*
X54510611Y-95693436D01*
X54551000Y-95896484D01*
X54551000Y-96103516D01*
X54510611Y-96306564D01*
X54431385Y-96497833D01*
X54431384Y-96497835D01*
X54316365Y-96669973D01*
X54169973Y-96816365D01*
X53997835Y-96931384D01*
X53997834Y-96931385D01*
X53997833Y-96931385D01*
X53806564Y-97010611D01*
X53603516Y-97051000D01*
X53396484Y-97051000D01*
X53193436Y-97010611D01*
X53002167Y-96931385D01*
X53002166Y-96931385D01*
X53002165Y-96931384D01*
X52830027Y-96816365D01*
X52683635Y-96669973D01*
X52568616Y-96497835D01*
X52568615Y-96497833D01*
X52489389Y-96306564D01*
X52449000Y-96103516D01*
X52449000Y-95896484D01*
X52489389Y-95693436D01*
X52568615Y-95502167D01*
X52683635Y-95330027D01*
X52830027Y-95183635D01*
X53002165Y-95068616D01*
X53002167Y-95068615D01*
X53193436Y-94989389D01*
X53396484Y-94949000D01*
X53603516Y-94949000D01*
X53806564Y-94989389D01*
G37*
G36*
X52051000Y-97051000D02*
G01*
X49949000Y-97051000D01*
X49949000Y-94949000D01*
X52051000Y-94949000D01*
X52051000Y-97051000D01*
G37*
G36*
X56306564Y-94989389D02*
G01*
X56497833Y-95068615D01*
X56497835Y-95068616D01*
X56669973Y-95183635D01*
X56816365Y-95330027D01*
X56931385Y-95502167D01*
X57010611Y-95693436D01*
X57051000Y-95896484D01*
X57051000Y-96103516D01*
X57010611Y-96306564D01*
X56931385Y-96497833D01*
X56931384Y-96497835D01*
X56816365Y-96669973D01*
X56669973Y-96816365D01*
X56497835Y-96931384D01*
X56497834Y-96931385D01*
X56497833Y-96931385D01*
X56306564Y-97010611D01*
X56103516Y-97051000D01*
X55896484Y-97051000D01*
X55693436Y-97010611D01*
X55502167Y-96931385D01*
X55502166Y-96931385D01*
X55502165Y-96931384D01*
X55330027Y-96816365D01*
X55183635Y-96669973D01*
X55068616Y-96497835D01*
X55068615Y-96497833D01*
X54989389Y-96306564D01*
X54949000Y-96103516D01*
X54949000Y-95896484D01*
X54989389Y-95693436D01*
X55068615Y-95502167D01*
X55183635Y-95330027D01*
X55330027Y-95183635D01*
X55502165Y-95068616D01*
X55502167Y-95068615D01*
X55693436Y-94989389D01*
X55896484Y-94949000D01*
X56103516Y-94949000D01*
X56306564Y-94989389D01*
G37*
G36*
X107306564Y-88489389D02*
G01*
X107497833Y-88568615D01*
X107497835Y-88568616D01*
X107669973Y-88683635D01*
X107816365Y-88830027D01*
X107931385Y-89002167D01*
X108010611Y-89193436D01*
X108051000Y-89396484D01*
X108051000Y-89603516D01*
X108010611Y-89806564D01*
X107931385Y-89997833D01*
X107931384Y-89997835D01*
X107816365Y-90169973D01*
X107669973Y-90316365D01*
X107497835Y-90431384D01*
X107497834Y-90431385D01*
X107497833Y-90431385D01*
X107306564Y-90510611D01*
X107103516Y-90551000D01*
X106896484Y-90551000D01*
X106693436Y-90510611D01*
X106502167Y-90431385D01*
X106502166Y-90431385D01*
X106502165Y-90431384D01*
X106330027Y-90316365D01*
X106183635Y-90169973D01*
X106068616Y-89997835D01*
X106068615Y-89997833D01*
X105989389Y-89806564D01*
X105949000Y-89603516D01*
X105949000Y-89396484D01*
X105989389Y-89193436D01*
X106068615Y-89002167D01*
X106183635Y-88830027D01*
X106330027Y-88683635D01*
X106502165Y-88568616D01*
X106502167Y-88568615D01*
X106693436Y-88489389D01*
X106896484Y-88449000D01*
X107103516Y-88449000D01*
X107306564Y-88489389D01*
G37*
G36*
X102806564Y-88489389D02*
G01*
X102997833Y-88568615D01*
X102997835Y-88568616D01*
X103169973Y-88683635D01*
X103316365Y-88830027D01*
X103431385Y-89002167D01*
X103510611Y-89193436D01*
X103551000Y-89396484D01*
X103551000Y-89603516D01*
X103510611Y-89806564D01*
X103431385Y-89997833D01*
X103431384Y-89997835D01*
X103316365Y-90169973D01*
X103169973Y-90316365D01*
X102997835Y-90431384D01*
X102997834Y-90431385D01*
X102997833Y-90431385D01*
X102806564Y-90510611D01*
X102603516Y-90551000D01*
X102396484Y-90551000D01*
X102193436Y-90510611D01*
X102002167Y-90431385D01*
X102002166Y-90431385D01*
X102002165Y-90431384D01*
X101830027Y-90316365D01*
X101683635Y-90169973D01*
X101568616Y-89997835D01*
X101568615Y-89997833D01*
X101489389Y-89806564D01*
X101449000Y-89603516D01*
X101449000Y-89396484D01*
X101489389Y-89193436D01*
X101568615Y-89002167D01*
X101683635Y-88830027D01*
X101830027Y-88683635D01*
X102002165Y-88568616D01*
X102002167Y-88568615D01*
X102193436Y-88489389D01*
X102396484Y-88449000D01*
X102603516Y-88449000D01*
X102806564Y-88489389D01*
G37*
G36*
X60151000Y-90151000D02*
G01*
X58049000Y-90151000D01*
X58049000Y-86849000D01*
X60151000Y-86849000D01*
X60151000Y-90151000D01*
G37*
G36*
X48951000Y-90151000D02*
G01*
X46849000Y-90151000D01*
X46849000Y-86849000D01*
X48951000Y-86849000D01*
X48951000Y-90151000D01*
G37*
G36*
X107306564Y-81989389D02*
G01*
X107497833Y-82068615D01*
X107497835Y-82068616D01*
X107669973Y-82183635D01*
X107816365Y-82330027D01*
X107884090Y-82431384D01*
X107931385Y-82502167D01*
X108010611Y-82693436D01*
X108051000Y-82896484D01*
X108051000Y-83103516D01*
X108010611Y-83306564D01*
X107931385Y-83497833D01*
X107931384Y-83497835D01*
X107816365Y-83669973D01*
X107669973Y-83816365D01*
X107497835Y-83931384D01*
X107497834Y-83931385D01*
X107497833Y-83931385D01*
X107306564Y-84010611D01*
X107103516Y-84051000D01*
X106896484Y-84051000D01*
X106693436Y-84010611D01*
X106502167Y-83931385D01*
X106502166Y-83931385D01*
X106502165Y-83931384D01*
X106330027Y-83816365D01*
X106183635Y-83669973D01*
X106068616Y-83497835D01*
X106068615Y-83497833D01*
X105989389Y-83306564D01*
X105949000Y-83103516D01*
X105949000Y-82896484D01*
X105989389Y-82693436D01*
X106068615Y-82502167D01*
X106115911Y-82431384D01*
X106183635Y-82330027D01*
X106330027Y-82183635D01*
X106502165Y-82068616D01*
X106502167Y-82068615D01*
X106693436Y-81989389D01*
X106896484Y-81949000D01*
X107103516Y-81949000D01*
X107306564Y-81989389D01*
G37*
G36*
X102806564Y-81989389D02*
G01*
X102997833Y-82068615D01*
X102997835Y-82068616D01*
X103169973Y-82183635D01*
X103316365Y-82330027D01*
X103384090Y-82431384D01*
X103431385Y-82502167D01*
X103510611Y-82693436D01*
X103551000Y-82896484D01*
X103551000Y-83103516D01*
X103510611Y-83306564D01*
X103431385Y-83497833D01*
X103431384Y-83497835D01*
X103316365Y-83669973D01*
X103169973Y-83816365D01*
X102997835Y-83931384D01*
X102997834Y-83931385D01*
X102997833Y-83931385D01*
X102806564Y-84010611D01*
X102603516Y-84051000D01*
X102396484Y-84051000D01*
X102193436Y-84010611D01*
X102002167Y-83931385D01*
X102002166Y-83931385D01*
X102002165Y-83931384D01*
X101830027Y-83816365D01*
X101683635Y-83669973D01*
X101568616Y-83497835D01*
X101568615Y-83497833D01*
X101489389Y-83306564D01*
X101449000Y-83103516D01*
X101449000Y-82896484D01*
X101489389Y-82693436D01*
X101568615Y-82502167D01*
X101615911Y-82431384D01*
X101683635Y-82330027D01*
X101830027Y-82183635D01*
X102002165Y-82068616D01*
X102002167Y-82068615D01*
X102193436Y-81989389D01*
X102396484Y-81949000D01*
X102603516Y-81949000D01*
X102806564Y-81989389D01*
G37*
G36*
X56306564Y-80489389D02*
G01*
X56497833Y-80568615D01*
X56497835Y-80568616D01*
X56669973Y-80683635D01*
X56816365Y-80830027D01*
X56931385Y-81002167D01*
X57010611Y-81193436D01*
X57051000Y-81396484D01*
X57051000Y-81603516D01*
X57010611Y-81806564D01*
X56934882Y-81989390D01*
X56931384Y-81997835D01*
X56816365Y-82169973D01*
X56669973Y-82316365D01*
X56497835Y-82431384D01*
X56497834Y-82431385D01*
X56497833Y-82431385D01*
X56306564Y-82510611D01*
X56103516Y-82551000D01*
X55896484Y-82551000D01*
X55693436Y-82510611D01*
X55502167Y-82431385D01*
X55502166Y-82431385D01*
X55502165Y-82431384D01*
X55330027Y-82316365D01*
X55183635Y-82169973D01*
X55068616Y-81997835D01*
X55065118Y-81989390D01*
X54989389Y-81806564D01*
X54949000Y-81603516D01*
X54949000Y-81396484D01*
X54989389Y-81193436D01*
X55068615Y-81002167D01*
X55183635Y-80830027D01*
X55330027Y-80683635D01*
X55502165Y-80568616D01*
X55502167Y-80568615D01*
X55693436Y-80489389D01*
X55896484Y-80449000D01*
X56103516Y-80449000D01*
X56306564Y-80489389D01*
G37*
G36*
X51306564Y-80489389D02*
G01*
X51497833Y-80568615D01*
X51497835Y-80568616D01*
X51669973Y-80683635D01*
X51816365Y-80830027D01*
X51931385Y-81002167D01*
X52010611Y-81193436D01*
X52051000Y-81396484D01*
X52051000Y-81603516D01*
X52010611Y-81806564D01*
X51934882Y-81989390D01*
X51931384Y-81997835D01*
X51816365Y-82169973D01*
X51669973Y-82316365D01*
X51497835Y-82431384D01*
X51497834Y-82431385D01*
X51497833Y-82431385D01*
X51306564Y-82510611D01*
X51103516Y-82551000D01*
X50896484Y-82551000D01*
X50693436Y-82510611D01*
X50502167Y-82431385D01*
X50502166Y-82431385D01*
X50502165Y-82431384D01*
X50330027Y-82316365D01*
X50183635Y-82169973D01*
X50068616Y-81997835D01*
X50065118Y-81989390D01*
X49989389Y-81806564D01*
X49949000Y-81603516D01*
X49949000Y-81396484D01*
X49989389Y-81193436D01*
X50068615Y-81002167D01*
X50183635Y-80830027D01*
X50330027Y-80683635D01*
X50502165Y-80568616D01*
X50502167Y-80568615D01*
X50693436Y-80489389D01*
X50896484Y-80449000D01*
X51103516Y-80449000D01*
X51306564Y-80489389D01*
G37*
G36*
X63613512Y-76223927D02*
G01*
X63762812Y-76253624D01*
X63926784Y-76321544D01*
X64074354Y-76420147D01*
X64199853Y-76545646D01*
X64298456Y-76693216D01*
X64366376Y-76857188D01*
X64401000Y-77031259D01*
X64401000Y-77208741D01*
X64366376Y-77382812D01*
X64298456Y-77546784D01*
X64199853Y-77694354D01*
X64074354Y-77819853D01*
X63926784Y-77918456D01*
X63762812Y-77986376D01*
X63613512Y-78016073D01*
X63588742Y-78021000D01*
X63411258Y-78021000D01*
X63386488Y-78016073D01*
X63237188Y-77986376D01*
X63073216Y-77918456D01*
X62925646Y-77819853D01*
X62800147Y-77694354D01*
X62701544Y-77546784D01*
X62633624Y-77382812D01*
X62599000Y-77208741D01*
X62599000Y-77031259D01*
X62633624Y-76857188D01*
X62701544Y-76693216D01*
X62800147Y-76545646D01*
X62925646Y-76420147D01*
X63073216Y-76321544D01*
X63237188Y-76253624D01*
X63386488Y-76223927D01*
X63411258Y-76219000D01*
X63588742Y-76219000D01*
X63613512Y-76223927D01*
G37*
G36*
X63613512Y-73683927D02*
G01*
X63762812Y-73713624D01*
X63926784Y-73781544D01*
X64074354Y-73880147D01*
X64199853Y-74005646D01*
X64298456Y-74153216D01*
X64366376Y-74317188D01*
X64401000Y-74491259D01*
X64401000Y-74668741D01*
X64366376Y-74842812D01*
X64298456Y-75006784D01*
X64199853Y-75154354D01*
X64074354Y-75279853D01*
X63926784Y-75378456D01*
X63762812Y-75446376D01*
X63613512Y-75476073D01*
X63588742Y-75481000D01*
X63411258Y-75481000D01*
X63386488Y-75476073D01*
X63237188Y-75446376D01*
X63073216Y-75378456D01*
X62925646Y-75279853D01*
X62800147Y-75154354D01*
X62701544Y-75006784D01*
X62633624Y-74842812D01*
X62599000Y-74668741D01*
X62599000Y-74491259D01*
X62633624Y-74317188D01*
X62701544Y-74153216D01*
X62800147Y-74005646D01*
X62925646Y-73880147D01*
X63073216Y-73781544D01*
X63237188Y-73713624D01*
X63386488Y-73683927D01*
X63411258Y-73679000D01*
X63588742Y-73679000D01*
X63613512Y-73683927D01*
G37*
G36*
X63613512Y-71143927D02*
G01*
X63762812Y-71173624D01*
X63926784Y-71241544D01*
X64074354Y-71340147D01*
X64199853Y-71465646D01*
X64298456Y-71613216D01*
X64366376Y-71777188D01*
X64401000Y-71951259D01*
X64401000Y-72128741D01*
X64366376Y-72302812D01*
X64298456Y-72466784D01*
X64199853Y-72614354D01*
X64074354Y-72739853D01*
X63926784Y-72838456D01*
X63762812Y-72906376D01*
X63613512Y-72936073D01*
X63588742Y-72941000D01*
X63411258Y-72941000D01*
X63386488Y-72936073D01*
X63237188Y-72906376D01*
X63073216Y-72838456D01*
X62925646Y-72739853D01*
X62800147Y-72614354D01*
X62701544Y-72466784D01*
X62633624Y-72302812D01*
X62599000Y-72128741D01*
X62599000Y-71951259D01*
X62633624Y-71777188D01*
X62701544Y-71613216D01*
X62800147Y-71465646D01*
X62925646Y-71340147D01*
X63073216Y-71241544D01*
X63237188Y-71173624D01*
X63386488Y-71143927D01*
X63411258Y-71139000D01*
X63588742Y-71139000D01*
X63613512Y-71143927D01*
G37*
G36*
X147172800Y-69635901D02*
G01*
X147400081Y-69681109D01*
X147649696Y-69784503D01*
X147874344Y-69934608D01*
X148065392Y-70125656D01*
X148215497Y-70350304D01*
X148318891Y-70599919D01*
X148364099Y-70827200D01*
X148371600Y-70864908D01*
X148371600Y-71135092D01*
X148364099Y-71172800D01*
X148318891Y-71400081D01*
X148215497Y-71649696D01*
X148065392Y-71874344D01*
X147874344Y-72065392D01*
X147649696Y-72215497D01*
X147400081Y-72318891D01*
X147172800Y-72364099D01*
X147135092Y-72371600D01*
X146864908Y-72371600D01*
X146827200Y-72364099D01*
X146599919Y-72318891D01*
X146350304Y-72215497D01*
X146125656Y-72065392D01*
X145934608Y-71874344D01*
X145784503Y-71649696D01*
X145681109Y-71400081D01*
X145635901Y-71172800D01*
X145628400Y-71135092D01*
X145628400Y-70864908D01*
X145635901Y-70827200D01*
X145681109Y-70599919D01*
X145784503Y-70350304D01*
X145934608Y-70125656D01*
X146125656Y-69934608D01*
X146350304Y-69784503D01*
X146599919Y-69681109D01*
X146827200Y-69635901D01*
X146864908Y-69628400D01*
X147135092Y-69628400D01*
X147172800Y-69635901D01*
G37*
G36*
X64401000Y-70401000D02*
G01*
X62599000Y-70401000D01*
X62599000Y-68599000D01*
X64401000Y-68599000D01*
X64401000Y-70401000D01*
G37*
G36*
X55139360Y-64251600D02*
G01*
X55365078Y-64296498D01*
X55592855Y-64390846D01*
X55797849Y-64527819D01*
X55972181Y-64702151D01*
X56109154Y-64907145D01*
X56199664Y-65125657D01*
X56203502Y-65134923D01*
X56246345Y-65350306D01*
X56251600Y-65376728D01*
X56251600Y-65623272D01*
X56203502Y-65865078D01*
X56109154Y-66092855D01*
X55972181Y-66297849D01*
X55797849Y-66472181D01*
X55592855Y-66609154D01*
X55410914Y-66684516D01*
X55389303Y-66696067D01*
X55370361Y-66711612D01*
X55354816Y-66730554D01*
X55343265Y-66752165D01*
X55336152Y-66775614D01*
X55333750Y-66800000D01*
X55336152Y-66824386D01*
X55343265Y-66847835D01*
X55354816Y-66869446D01*
X55370361Y-66888388D01*
X55389303Y-66903933D01*
X55410913Y-66915483D01*
X55592855Y-66990846D01*
X55797849Y-67127819D01*
X55972181Y-67302151D01*
X56109154Y-67507145D01*
X56203502Y-67734922D01*
X56251600Y-67976728D01*
X56251600Y-68223272D01*
X56203502Y-68465078D01*
X56109154Y-68692855D01*
X55972181Y-68897849D01*
X55797849Y-69072181D01*
X55592855Y-69209154D01*
X55365078Y-69303502D01*
X55244175Y-69327551D01*
X55123273Y-69351600D01*
X54876727Y-69351600D01*
X54755825Y-69327551D01*
X54634922Y-69303502D01*
X54407145Y-69209154D01*
X54202151Y-69072181D01*
X54027819Y-68897849D01*
X53890846Y-68692855D01*
X53796498Y-68465078D01*
X53748400Y-68223272D01*
X53748400Y-67976728D01*
X53796498Y-67734922D01*
X53890846Y-67507145D01*
X54027819Y-67302151D01*
X54202151Y-67127819D01*
X54407145Y-66990846D01*
X54589087Y-66915483D01*
X54610697Y-66903933D01*
X54629639Y-66888388D01*
X54645184Y-66869446D01*
X54656735Y-66847835D01*
X54663848Y-66824386D01*
X54666250Y-66800000D01*
X54663848Y-66775614D01*
X54656735Y-66752165D01*
X54645184Y-66730554D01*
X54629639Y-66711612D01*
X54610697Y-66696067D01*
X54589086Y-66684516D01*
X54407145Y-66609154D01*
X54202151Y-66472181D01*
X54027819Y-66297849D01*
X53890846Y-66092855D01*
X53796498Y-65865078D01*
X53748400Y-65623272D01*
X53748400Y-65376728D01*
X53753656Y-65350306D01*
X53796498Y-65134923D01*
X53800336Y-65125657D01*
X53890846Y-64907145D01*
X54027819Y-64702151D01*
X54202151Y-64527819D01*
X54407145Y-64390846D01*
X54634922Y-64296498D01*
X54860640Y-64251600D01*
X54876727Y-64248400D01*
X55123273Y-64248400D01*
X55139360Y-64251600D01*
G37*
G36*
X47677739Y-67371600D02*
G01*
X47689890Y-67374017D01*
X47808364Y-67423091D01*
X47914988Y-67494335D01*
X48005665Y-67585012D01*
X48076909Y-67691636D01*
X48125983Y-67810110D01*
X48151000Y-67935882D01*
X48151000Y-68064118D01*
X48125983Y-68189890D01*
X48076909Y-68308364D01*
X48005665Y-68414988D01*
X47914988Y-68505665D01*
X47808364Y-68576909D01*
X47808363Y-68576910D01*
X47808362Y-68576910D01*
X47689890Y-68625983D01*
X47564119Y-68651000D01*
X47435881Y-68651000D01*
X47310110Y-68625983D01*
X47191638Y-68576910D01*
X47191637Y-68576910D01*
X47191636Y-68576909D01*
X47085012Y-68505665D01*
X46994335Y-68414988D01*
X46923091Y-68308364D01*
X46874017Y-68189890D01*
X46849000Y-68064118D01*
X46849000Y-67935882D01*
X46874017Y-67810110D01*
X46923091Y-67691636D01*
X46994335Y-67585012D01*
X47085012Y-67494335D01*
X47191636Y-67423091D01*
X47310110Y-67374017D01*
X47322261Y-67371600D01*
X47435881Y-67349000D01*
X47564119Y-67349000D01*
X47677739Y-67371600D01*
G37*
G36*
X50177739Y-67371600D02*
G01*
X50189890Y-67374017D01*
X50308364Y-67423091D01*
X50414988Y-67494335D01*
X50505665Y-67585012D01*
X50576909Y-67691636D01*
X50625983Y-67810110D01*
X50651000Y-67935882D01*
X50651000Y-68064118D01*
X50625983Y-68189890D01*
X50576909Y-68308364D01*
X50505665Y-68414988D01*
X50414988Y-68505665D01*
X50308364Y-68576909D01*
X50308363Y-68576910D01*
X50308362Y-68576910D01*
X50189890Y-68625983D01*
X50064119Y-68651000D01*
X49935881Y-68651000D01*
X49810110Y-68625983D01*
X49691638Y-68576910D01*
X49691637Y-68576910D01*
X49691636Y-68576909D01*
X49585012Y-68505665D01*
X49494335Y-68414988D01*
X49423091Y-68308364D01*
X49374017Y-68189890D01*
X49349000Y-68064118D01*
X49349000Y-67935882D01*
X49374017Y-67810110D01*
X49423091Y-67691636D01*
X49494335Y-67585012D01*
X49585012Y-67494335D01*
X49691636Y-67423091D01*
X49810110Y-67374017D01*
X49822261Y-67371600D01*
X49935881Y-67349000D01*
X50064119Y-67349000D01*
X50177739Y-67371600D01*
G37*
G36*
X147172800Y-64635901D02*
G01*
X147400081Y-64681109D01*
X147649696Y-64784503D01*
X147874344Y-64934608D01*
X148065392Y-65125656D01*
X148215497Y-65350304D01*
X148318891Y-65599919D01*
X148371600Y-65864909D01*
X148371600Y-66135091D01*
X148318891Y-66400081D01*
X148215497Y-66649696D01*
X148065392Y-66874344D01*
X147874344Y-67065392D01*
X147649696Y-67215497D01*
X147400081Y-67318891D01*
X147172800Y-67364099D01*
X147135092Y-67371600D01*
X146864908Y-67371600D01*
X146827200Y-67364099D01*
X146599919Y-67318891D01*
X146350304Y-67215497D01*
X146125656Y-67065392D01*
X145934608Y-66874344D01*
X145784503Y-66649696D01*
X145681109Y-66400081D01*
X145628400Y-66135091D01*
X145628400Y-65864909D01*
X145681109Y-65599919D01*
X145784503Y-65350304D01*
X145934608Y-65125656D01*
X146125656Y-64934608D01*
X146350304Y-64784503D01*
X146599919Y-64681109D01*
X146827200Y-64635901D01*
X146864908Y-64628400D01*
X147135092Y-64628400D01*
X147172800Y-64635901D01*
G37*
G36*
X50139360Y-61751600D02*
G01*
X50365078Y-61796498D01*
X50592855Y-61890846D01*
X50797849Y-62027819D01*
X50972181Y-62202151D01*
X51109154Y-62407145D01*
X51203502Y-62634922D01*
X51251600Y-62876728D01*
X51251600Y-63123272D01*
X51203502Y-63365078D01*
X51109154Y-63592855D01*
X50972181Y-63797849D01*
X50797849Y-63972181D01*
X50592855Y-64109154D01*
X50365078Y-64203502D01*
X50244175Y-64227551D01*
X50123273Y-64251600D01*
X49876727Y-64251600D01*
X49755825Y-64227551D01*
X49634922Y-64203502D01*
X49407145Y-64109154D01*
X49202151Y-63972181D01*
X49027819Y-63797849D01*
X48890846Y-63592855D01*
X48796498Y-63365078D01*
X48748400Y-63123272D01*
X48748400Y-62876728D01*
X48796498Y-62634922D01*
X48890846Y-62407145D01*
X49027819Y-62202151D01*
X49202151Y-62027819D01*
X49407145Y-61890846D01*
X49634922Y-61796498D01*
X49860640Y-61751600D01*
X49876727Y-61748400D01*
X50123273Y-61748400D01*
X50139360Y-61751600D01*
G37*
G36*
X55189890Y-62374017D02*
G01*
X55269868Y-62407145D01*
X55308364Y-62423091D01*
X55414988Y-62494335D01*
X55505665Y-62585012D01*
X55576909Y-62691636D01*
X55625983Y-62810110D01*
X55651000Y-62935882D01*
X55651000Y-63064118D01*
X55625983Y-63189890D01*
X55576909Y-63308364D01*
X55505665Y-63414988D01*
X55414988Y-63505665D01*
X55308364Y-63576909D01*
X55308363Y-63576910D01*
X55308362Y-63576910D01*
X55189890Y-63625983D01*
X55064119Y-63651000D01*
X54935881Y-63651000D01*
X54810110Y-63625983D01*
X54691638Y-63576910D01*
X54691637Y-63576910D01*
X54691636Y-63576909D01*
X54585012Y-63505665D01*
X54494335Y-63414988D01*
X54423091Y-63308364D01*
X54374017Y-63189890D01*
X54349000Y-63064118D01*
X54349000Y-62935882D01*
X54374017Y-62810110D01*
X54423091Y-62691636D01*
X54494335Y-62585012D01*
X54585012Y-62494335D01*
X54691636Y-62423091D01*
X54730133Y-62407145D01*
X54810110Y-62374017D01*
X54935881Y-62349000D01*
X55064119Y-62349000D01*
X55189890Y-62374017D01*
G37*
G36*
X55244175Y-56672449D02*
G01*
X55365078Y-56696498D01*
X55592855Y-56790846D01*
X55797849Y-56927819D01*
X55972181Y-57102151D01*
X56109154Y-57307145D01*
X56203502Y-57534922D01*
X56251600Y-57776728D01*
X56251600Y-58023272D01*
X56203502Y-58265078D01*
X56109154Y-58492855D01*
X55972181Y-58697849D01*
X55797849Y-58872181D01*
X55592855Y-59009154D01*
X55410914Y-59084516D01*
X55389303Y-59096067D01*
X55370361Y-59111612D01*
X55354816Y-59130554D01*
X55343265Y-59152165D01*
X55336152Y-59175614D01*
X55333750Y-59200000D01*
X55336152Y-59224386D01*
X55343265Y-59247835D01*
X55354816Y-59269446D01*
X55370361Y-59288388D01*
X55389303Y-59303933D01*
X55410913Y-59315483D01*
X55592855Y-59390846D01*
X55797849Y-59527819D01*
X55972181Y-59702151D01*
X56109154Y-59907145D01*
X56203502Y-60134922D01*
X56251600Y-60376728D01*
X56251600Y-60623272D01*
X56203502Y-60865078D01*
X56109154Y-61092855D01*
X55972181Y-61297849D01*
X55797849Y-61472181D01*
X55592855Y-61609154D01*
X55365078Y-61703502D01*
X55244175Y-61727551D01*
X55123273Y-61751600D01*
X54876727Y-61751600D01*
X54755825Y-61727551D01*
X54634922Y-61703502D01*
X54407145Y-61609154D01*
X54202151Y-61472181D01*
X54027819Y-61297849D01*
X53890846Y-61092855D01*
X53796498Y-60865078D01*
X53748400Y-60623272D01*
X53748400Y-60376728D01*
X53796498Y-60134922D01*
X53890846Y-59907145D01*
X54027819Y-59702151D01*
X54202151Y-59527819D01*
X54407145Y-59390846D01*
X54589087Y-59315483D01*
X54610697Y-59303933D01*
X54629639Y-59288388D01*
X54645184Y-59269446D01*
X54656735Y-59247835D01*
X54663848Y-59224386D01*
X54666250Y-59200000D01*
X54663848Y-59175614D01*
X54656735Y-59152165D01*
X54645184Y-59130554D01*
X54629639Y-59111612D01*
X54610697Y-59096067D01*
X54589086Y-59084516D01*
X54407145Y-59009154D01*
X54202151Y-58872181D01*
X54027819Y-58697849D01*
X53890846Y-58492855D01*
X53796498Y-58265078D01*
X53748400Y-58023272D01*
X53748400Y-57776728D01*
X53796498Y-57534922D01*
X53890846Y-57307145D01*
X54027819Y-57102151D01*
X54202151Y-56927819D01*
X54407145Y-56790846D01*
X54634922Y-56696498D01*
X54755825Y-56672449D01*
X54876727Y-56648400D01*
X55123273Y-56648400D01*
X55244175Y-56672449D01*
G37*
G36*
X50189890Y-57374017D02*
G01*
X50308364Y-57423091D01*
X50414988Y-57494335D01*
X50505665Y-57585012D01*
X50576909Y-57691636D01*
X50625983Y-57810110D01*
X50651000Y-57935882D01*
X50651000Y-58064118D01*
X50625983Y-58189890D01*
X50576909Y-58308364D01*
X50505665Y-58414988D01*
X50414988Y-58505665D01*
X50308364Y-58576909D01*
X50308363Y-58576910D01*
X50308362Y-58576910D01*
X50189890Y-58625983D01*
X50064119Y-58651000D01*
X49935881Y-58651000D01*
X49810110Y-58625983D01*
X49691638Y-58576910D01*
X49691637Y-58576910D01*
X49691636Y-58576909D01*
X49585012Y-58505665D01*
X49494335Y-58414988D01*
X49423091Y-58308364D01*
X49374017Y-58189890D01*
X49349000Y-58064118D01*
X49349000Y-57935882D01*
X49374017Y-57810110D01*
X49423091Y-57691636D01*
X49494335Y-57585012D01*
X49585012Y-57494335D01*
X49691636Y-57423091D01*
X49810110Y-57374017D01*
X49935881Y-57349000D01*
X50064119Y-57349000D01*
X50189890Y-57374017D01*
G37*
G36*
X47689890Y-57374017D02*
G01*
X47808364Y-57423091D01*
X47914988Y-57494335D01*
X48005665Y-57585012D01*
X48076909Y-57691636D01*
X48125983Y-57810110D01*
X48151000Y-57935882D01*
X48151000Y-58064118D01*
X48125983Y-58189890D01*
X48076909Y-58308364D01*
X48005665Y-58414988D01*
X47914988Y-58505665D01*
X47808364Y-58576909D01*
X47808363Y-58576910D01*
X47808362Y-58576910D01*
X47689890Y-58625983D01*
X47564119Y-58651000D01*
X47435881Y-58651000D01*
X47310110Y-58625983D01*
X47191638Y-58576910D01*
X47191637Y-58576910D01*
X47191636Y-58576909D01*
X47085012Y-58505665D01*
X46994335Y-58414988D01*
X46923091Y-58308364D01*
X46874017Y-58189890D01*
X46849000Y-58064118D01*
X46849000Y-57935882D01*
X46874017Y-57810110D01*
X46923091Y-57691636D01*
X46994335Y-57585012D01*
X47085012Y-57494335D01*
X47191636Y-57423091D01*
X47310110Y-57374017D01*
X47435881Y-57349000D01*
X47564119Y-57349000D01*
X47689890Y-57374017D01*
G37*
G36*
X149113512Y-52173927D02*
G01*
X149262812Y-52203624D01*
X149426784Y-52271544D01*
X149574354Y-52370147D01*
X149699853Y-52495646D01*
X149798456Y-52643216D01*
X149866376Y-52807188D01*
X149901000Y-52981259D01*
X149901000Y-53158741D01*
X149866376Y-53332812D01*
X149798456Y-53496784D01*
X149699853Y-53644354D01*
X149574354Y-53769853D01*
X149426784Y-53868456D01*
X149262812Y-53936376D01*
X149113512Y-53966073D01*
X149088742Y-53971000D01*
X148911258Y-53971000D01*
X148886488Y-53966073D01*
X148737188Y-53936376D01*
X148573216Y-53868456D01*
X148425646Y-53769853D01*
X148300147Y-53644354D01*
X148201544Y-53496784D01*
X148133624Y-53332812D01*
X148099000Y-53158741D01*
X148099000Y-52981259D01*
X148133624Y-52807188D01*
X148201544Y-52643216D01*
X148300147Y-52495646D01*
X148425646Y-52370147D01*
X148573216Y-52271544D01*
X148737188Y-52203624D01*
X148886488Y-52173927D01*
X148911258Y-52169000D01*
X149088742Y-52169000D01*
X149113512Y-52173927D01*
G37*
G36*
X149113512Y-49633927D02*
G01*
X149262812Y-49663624D01*
X149426784Y-49731544D01*
X149574354Y-49830147D01*
X149699853Y-49955646D01*
X149798456Y-50103216D01*
X149866376Y-50267188D01*
X149901000Y-50441259D01*
X149901000Y-50618741D01*
X149866376Y-50792812D01*
X149798456Y-50956784D01*
X149699853Y-51104354D01*
X149574354Y-51229853D01*
X149426784Y-51328456D01*
X149262812Y-51396376D01*
X149113512Y-51426073D01*
X149088742Y-51431000D01*
X148911258Y-51431000D01*
X148886488Y-51426073D01*
X148737188Y-51396376D01*
X148573216Y-51328456D01*
X148425646Y-51229853D01*
X148300147Y-51104354D01*
X148201544Y-50956784D01*
X148133624Y-50792812D01*
X148099000Y-50618741D01*
X148099000Y-50441259D01*
X148133624Y-50267188D01*
X148201544Y-50103216D01*
X148300147Y-49955646D01*
X148425646Y-49830147D01*
X148573216Y-49731544D01*
X148737188Y-49663624D01*
X148886488Y-49633927D01*
X148911258Y-49629000D01*
X149088742Y-49629000D01*
X149113512Y-49633927D01*
G37*
G36*
X149113512Y-47093927D02*
G01*
X149262812Y-47123624D01*
X149426784Y-47191544D01*
X149574354Y-47290147D01*
X149699853Y-47415646D01*
X149798456Y-47563216D01*
X149866376Y-47727188D01*
X149901000Y-47901259D01*
X149901000Y-48078741D01*
X149866376Y-48252812D01*
X149798456Y-48416784D01*
X149699853Y-48564354D01*
X149574354Y-48689853D01*
X149426784Y-48788456D01*
X149262812Y-48856376D01*
X149113512Y-48886073D01*
X149088742Y-48891000D01*
X148911258Y-48891000D01*
X148886488Y-48886073D01*
X148737188Y-48856376D01*
X148573216Y-48788456D01*
X148425646Y-48689853D01*
X148300147Y-48564354D01*
X148201544Y-48416784D01*
X148133624Y-48252812D01*
X148099000Y-48078741D01*
X148099000Y-47901259D01*
X148133624Y-47727188D01*
X148201544Y-47563216D01*
X148300147Y-47415646D01*
X148425646Y-47290147D01*
X148573216Y-47191544D01*
X148737188Y-47123624D01*
X148886488Y-47093927D01*
X148911258Y-47089000D01*
X149088742Y-47089000D01*
X149113512Y-47093927D01*
G37*
G36*
X121573256Y-45728434D02*
G01*
X121668947Y-45747468D01*
X121849225Y-45822142D01*
X122011471Y-45930551D01*
X122149449Y-46068529D01*
X122257858Y-46230775D01*
X122332532Y-46411053D01*
X122370600Y-46602434D01*
X122370600Y-46797566D01*
X122332532Y-46988947D01*
X122257858Y-47169225D01*
X122149449Y-47331471D01*
X122011471Y-47469449D01*
X121849225Y-47577858D01*
X121668947Y-47652532D01*
X121573256Y-47671566D01*
X121477567Y-47690600D01*
X121282433Y-47690600D01*
X121186744Y-47671566D01*
X121091053Y-47652532D01*
X120910775Y-47577858D01*
X120748529Y-47469449D01*
X120610551Y-47331471D01*
X120502142Y-47169225D01*
X120427468Y-46988947D01*
X120389400Y-46797566D01*
X120389400Y-46602434D01*
X120427468Y-46411053D01*
X120502142Y-46230775D01*
X120610551Y-46068529D01*
X120748529Y-45930551D01*
X120910775Y-45822142D01*
X121091053Y-45747468D01*
X121186744Y-45728434D01*
X121282433Y-45709400D01*
X121477567Y-45709400D01*
X121573256Y-45728434D01*
G37*
G36*
X149113512Y-44553927D02*
G01*
X149262812Y-44583624D01*
X149426784Y-44651544D01*
X149574354Y-44750147D01*
X149699853Y-44875646D01*
X149798456Y-45023216D01*
X149866376Y-45187188D01*
X149901000Y-45361259D01*
X149901000Y-45538741D01*
X149866376Y-45712812D01*
X149798456Y-45876784D01*
X149699853Y-46024354D01*
X149574354Y-46149853D01*
X149426784Y-46248456D01*
X149262812Y-46316376D01*
X149113512Y-46346073D01*
X149088742Y-46351000D01*
X148911258Y-46351000D01*
X148886488Y-46346073D01*
X148737188Y-46316376D01*
X148573216Y-46248456D01*
X148425646Y-46149853D01*
X148300147Y-46024354D01*
X148201544Y-45876784D01*
X148133624Y-45712812D01*
X148099000Y-45538741D01*
X148099000Y-45361259D01*
X148133624Y-45187188D01*
X148201544Y-45023216D01*
X148300147Y-44875646D01*
X148425646Y-44750147D01*
X148573216Y-44651544D01*
X148737188Y-44583624D01*
X148886488Y-44553927D01*
X148911258Y-44549000D01*
X149088742Y-44549000D01*
X149113512Y-44553927D01*
G37*
G36*
X52998671Y-42516098D02*
G01*
X53309798Y-42644971D01*
X53589805Y-42832066D01*
X53827934Y-43070195D01*
X54015029Y-43350202D01*
X54143902Y-43661329D01*
X54209600Y-43991618D01*
X54209600Y-44328382D01*
X54143902Y-44658671D01*
X54015029Y-44969798D01*
X53827934Y-45249805D01*
X53589805Y-45487934D01*
X53309798Y-45675029D01*
X52998671Y-45803902D01*
X52668382Y-45869600D01*
X52331618Y-45869600D01*
X52001329Y-45803902D01*
X51690202Y-45675029D01*
X51410195Y-45487934D01*
X51172066Y-45249805D01*
X50984971Y-44969798D01*
X50856098Y-44658671D01*
X50790400Y-44328382D01*
X50790400Y-43991618D01*
X50856098Y-43661329D01*
X50984971Y-43350202D01*
X51172066Y-43070195D01*
X51410195Y-42832066D01*
X51690202Y-42644971D01*
X52001329Y-42516098D01*
X52331618Y-42450400D01*
X52668382Y-42450400D01*
X52998671Y-42516098D01*
G37*
G36*
X72184951Y-43336782D02*
G01*
X72288947Y-43357468D01*
X72469225Y-43432142D01*
X72631471Y-43540551D01*
X72769449Y-43678529D01*
X72877858Y-43840775D01*
X72952532Y-44021053D01*
X72990600Y-44212434D01*
X72990600Y-44407566D01*
X72952532Y-44598947D01*
X72877858Y-44779225D01*
X72769449Y-44941471D01*
X72631471Y-45079449D01*
X72469225Y-45187858D01*
X72288947Y-45262532D01*
X72097567Y-45300600D01*
X71902433Y-45300600D01*
X71711053Y-45262532D01*
X71530775Y-45187858D01*
X71368529Y-45079449D01*
X71230551Y-44941471D01*
X71122142Y-44779225D01*
X71047468Y-44598947D01*
X71009400Y-44407566D01*
X71009400Y-44212434D01*
X71047468Y-44021053D01*
X71122142Y-43840775D01*
X71230551Y-43678529D01*
X71368529Y-43540551D01*
X71530775Y-43432142D01*
X71711053Y-43357468D01*
X71815049Y-43336782D01*
X71902433Y-43319400D01*
X72097567Y-43319400D01*
X72184951Y-43336782D01*
G37*
G36*
X99374951Y-43336782D02*
G01*
X99478947Y-43357468D01*
X99659225Y-43432142D01*
X99821471Y-43540551D01*
X99959449Y-43678529D01*
X100067858Y-43840775D01*
X100142532Y-44021053D01*
X100180600Y-44212434D01*
X100180600Y-44407566D01*
X100142532Y-44598947D01*
X100067858Y-44779225D01*
X99959449Y-44941471D01*
X99821471Y-45079449D01*
X99659225Y-45187858D01*
X99478947Y-45262532D01*
X99287567Y-45300600D01*
X99092433Y-45300600D01*
X98901053Y-45262532D01*
X98720775Y-45187858D01*
X98558529Y-45079449D01*
X98420551Y-44941471D01*
X98312142Y-44779225D01*
X98237468Y-44598947D01*
X98199400Y-44407566D01*
X98199400Y-44212434D01*
X98237468Y-44021053D01*
X98312142Y-43840775D01*
X98420551Y-43678529D01*
X98558529Y-43540551D01*
X98720775Y-43432142D01*
X98901053Y-43357468D01*
X99005049Y-43336782D01*
X99092433Y-43319400D01*
X99287567Y-43319400D01*
X99374951Y-43336782D01*
G37*
G36*
X121573256Y-43188434D02*
G01*
X121668947Y-43207468D01*
X121849225Y-43282142D01*
X122011471Y-43390551D01*
X122149449Y-43528529D01*
X122257858Y-43690775D01*
X122332532Y-43871053D01*
X122370600Y-44062434D01*
X122370600Y-44257566D01*
X122332532Y-44448947D01*
X122257858Y-44629225D01*
X122149449Y-44791471D01*
X122011471Y-44929449D01*
X121849225Y-45037858D01*
X121668947Y-45112532D01*
X121477567Y-45150600D01*
X121282433Y-45150600D01*
X121091053Y-45112532D01*
X120910775Y-45037858D01*
X120748529Y-44929449D01*
X120610551Y-44791471D01*
X120502142Y-44629225D01*
X120427468Y-44448947D01*
X120389400Y-44257566D01*
X120389400Y-44062434D01*
X120427468Y-43871053D01*
X120502142Y-43690775D01*
X120610551Y-43528529D01*
X120748529Y-43390551D01*
X120910775Y-43282142D01*
X121091053Y-43207468D01*
X121186744Y-43188434D01*
X121282433Y-43169400D01*
X121477567Y-43169400D01*
X121573256Y-43188434D01*
G37*
G36*
X84172800Y-41135901D02*
G01*
X84400081Y-41181109D01*
X84649696Y-41284503D01*
X84874344Y-41434608D01*
X85065392Y-41625656D01*
X85215497Y-41850304D01*
X85318891Y-42099919D01*
X85371600Y-42364909D01*
X85371600Y-42635091D01*
X85318891Y-42900081D01*
X85215497Y-43149696D01*
X85065392Y-43374344D01*
X84874344Y-43565392D01*
X84649696Y-43715497D01*
X84400081Y-43818891D01*
X84172800Y-43864099D01*
X84135092Y-43871600D01*
X83864908Y-43871600D01*
X83827200Y-43864099D01*
X83599919Y-43818891D01*
X83350304Y-43715497D01*
X83125656Y-43565392D01*
X82934608Y-43374344D01*
X82784503Y-43149696D01*
X82681109Y-42900081D01*
X82628400Y-42635091D01*
X82628400Y-42364909D01*
X82681109Y-42099919D01*
X82784503Y-41850304D01*
X82934608Y-41625656D01*
X83125656Y-41434608D01*
X83350304Y-41284503D01*
X83599919Y-41181109D01*
X83827200Y-41135901D01*
X83864908Y-41128400D01*
X84135092Y-41128400D01*
X84172800Y-41135901D01*
G37*
G36*
X96172800Y-41135901D02*
G01*
X96400081Y-41181109D01*
X96649696Y-41284503D01*
X96874344Y-41434608D01*
X97065392Y-41625656D01*
X97215497Y-41850304D01*
X97318891Y-42099919D01*
X97371600Y-42364909D01*
X97371600Y-42635091D01*
X97318891Y-42900081D01*
X97215497Y-43149696D01*
X97065392Y-43374344D01*
X96874344Y-43565392D01*
X96649696Y-43715497D01*
X96400081Y-43818891D01*
X96172800Y-43864099D01*
X96135092Y-43871600D01*
X95864908Y-43871600D01*
X95827200Y-43864099D01*
X95599919Y-43818891D01*
X95350304Y-43715497D01*
X95125656Y-43565392D01*
X94934608Y-43374344D01*
X94784503Y-43149696D01*
X94681109Y-42900081D01*
X94628400Y-42635091D01*
X94628400Y-42364909D01*
X94681109Y-42099919D01*
X94784503Y-41850304D01*
X94934608Y-41625656D01*
X95125656Y-41434608D01*
X95350304Y-41284503D01*
X95599919Y-41181109D01*
X95827200Y-41135901D01*
X95864908Y-41128400D01*
X96135092Y-41128400D01*
X96172800Y-41135901D01*
G37*
G36*
X149113512Y-42013927D02*
G01*
X149262812Y-42043624D01*
X149426784Y-42111544D01*
X149574354Y-42210147D01*
X149699853Y-42335646D01*
X149798456Y-42483216D01*
X149866376Y-42647188D01*
X149901000Y-42821259D01*
X149901000Y-42998741D01*
X149866376Y-43172812D01*
X149798456Y-43336784D01*
X149699853Y-43484354D01*
X149574354Y-43609853D01*
X149426784Y-43708456D01*
X149262812Y-43776376D01*
X149113512Y-43806073D01*
X149088742Y-43811000D01*
X148911258Y-43811000D01*
X148886488Y-43806073D01*
X148737188Y-43776376D01*
X148573216Y-43708456D01*
X148425646Y-43609853D01*
X148300147Y-43484354D01*
X148201544Y-43336784D01*
X148133624Y-43172812D01*
X148099000Y-42998741D01*
X148099000Y-42821259D01*
X148133624Y-42647188D01*
X148201544Y-42483216D01*
X148300147Y-42335646D01*
X148425646Y-42210147D01*
X148573216Y-42111544D01*
X148737188Y-42043624D01*
X148886488Y-42013927D01*
X148911258Y-42009000D01*
X149088742Y-42009000D01*
X149113512Y-42013927D01*
G37*
G36*
X72184951Y-40796782D02*
G01*
X72288947Y-40817468D01*
X72469225Y-40892142D01*
X72631471Y-41000551D01*
X72769449Y-41138529D01*
X72877858Y-41300775D01*
X72933294Y-41434608D01*
X72952532Y-41481054D01*
X72981296Y-41625657D01*
X72990600Y-41672434D01*
X72990600Y-41867566D01*
X72952532Y-42058947D01*
X72877858Y-42239225D01*
X72769449Y-42401471D01*
X72631471Y-42539449D01*
X72469225Y-42647858D01*
X72288947Y-42722532D01*
X72193256Y-42741566D01*
X72097567Y-42760600D01*
X71902433Y-42760600D01*
X71711053Y-42722532D01*
X71530775Y-42647858D01*
X71368529Y-42539449D01*
X71230551Y-42401471D01*
X71122142Y-42239225D01*
X71047468Y-42058947D01*
X71009400Y-41867566D01*
X71009400Y-41672434D01*
X71018705Y-41625657D01*
X71047468Y-41481054D01*
X71066707Y-41434608D01*
X71122142Y-41300775D01*
X71230551Y-41138529D01*
X71368529Y-41000551D01*
X71530775Y-40892142D01*
X71711053Y-40817468D01*
X71815049Y-40796782D01*
X71902433Y-40779400D01*
X72097567Y-40779400D01*
X72184951Y-40796782D01*
G37*
G36*
X99374951Y-40796782D02*
G01*
X99478947Y-40817468D01*
X99659225Y-40892142D01*
X99821471Y-41000551D01*
X99959449Y-41138529D01*
X100067858Y-41300775D01*
X100123294Y-41434608D01*
X100142532Y-41481054D01*
X100171296Y-41625657D01*
X100180600Y-41672434D01*
X100180600Y-41867566D01*
X100142532Y-42058947D01*
X100067858Y-42239225D01*
X99959449Y-42401471D01*
X99821471Y-42539449D01*
X99659225Y-42647858D01*
X99478947Y-42722532D01*
X99383256Y-42741566D01*
X99287567Y-42760600D01*
X99092433Y-42760600D01*
X98901053Y-42722532D01*
X98720775Y-42647858D01*
X98558529Y-42539449D01*
X98420551Y-42401471D01*
X98312142Y-42239225D01*
X98237468Y-42058947D01*
X98199400Y-41867566D01*
X98199400Y-41672434D01*
X98208705Y-41625657D01*
X98237468Y-41481054D01*
X98256707Y-41434608D01*
X98312142Y-41300775D01*
X98420551Y-41138529D01*
X98558529Y-41000551D01*
X98720775Y-40892142D01*
X98901053Y-40817468D01*
X99005049Y-40796782D01*
X99092433Y-40779400D01*
X99287567Y-40779400D01*
X99374951Y-40796782D01*
G37*
G36*
X121573256Y-40648434D02*
G01*
X121668947Y-40667468D01*
X121849225Y-40742142D01*
X122011471Y-40850551D01*
X122149449Y-40988529D01*
X122257858Y-41150775D01*
X122332532Y-41331053D01*
X122370600Y-41522434D01*
X122370600Y-41717566D01*
X122332532Y-41908947D01*
X122257858Y-42089225D01*
X122149449Y-42251471D01*
X122011471Y-42389449D01*
X121849225Y-42497858D01*
X121668947Y-42572532D01*
X121477567Y-42610600D01*
X121282433Y-42610600D01*
X121186744Y-42591566D01*
X121091053Y-42572532D01*
X120910775Y-42497858D01*
X120748529Y-42389449D01*
X120610551Y-42251471D01*
X120502142Y-42089225D01*
X120427468Y-41908947D01*
X120389400Y-41717566D01*
X120389400Y-41522434D01*
X120427468Y-41331053D01*
X120502142Y-41150775D01*
X120610551Y-40988529D01*
X120748529Y-40850551D01*
X120910775Y-40742142D01*
X121091053Y-40667468D01*
X121186744Y-40648434D01*
X121282433Y-40629400D01*
X121477567Y-40629400D01*
X121573256Y-40648434D01*
G37*
G36*
X58382123Y-40875333D02*
G01*
X58524555Y-40918539D01*
X58655820Y-40988702D01*
X58770875Y-41083125D01*
X58865298Y-41198180D01*
X58935461Y-41329445D01*
X58978667Y-41471877D01*
X58993256Y-41620000D01*
X58978667Y-41768123D01*
X58935461Y-41910555D01*
X58865298Y-42041820D01*
X58770875Y-42156875D01*
X58655820Y-42251298D01*
X58524555Y-42321461D01*
X58382123Y-42364667D01*
X58271120Y-42375600D01*
X56888880Y-42375600D01*
X56777877Y-42364667D01*
X56635445Y-42321461D01*
X56504180Y-42251298D01*
X56389125Y-42156875D01*
X56294702Y-42041820D01*
X56224539Y-41910555D01*
X56181333Y-41768123D01*
X56166744Y-41620000D01*
X56181333Y-41471877D01*
X56224539Y-41329445D01*
X56294702Y-41198180D01*
X56389125Y-41083125D01*
X56504180Y-40988702D01*
X56635445Y-40918539D01*
X56777877Y-40875333D01*
X56888880Y-40864400D01*
X58271120Y-40864400D01*
X58382123Y-40875333D01*
G37*
G36*
X149113512Y-39473927D02*
G01*
X149262812Y-39503624D01*
X149426784Y-39571544D01*
X149574354Y-39670147D01*
X149699853Y-39795646D01*
X149798456Y-39943216D01*
X149866376Y-40107188D01*
X149901000Y-40281259D01*
X149901000Y-40458741D01*
X149866376Y-40632812D01*
X149798456Y-40796784D01*
X149699853Y-40944354D01*
X149574354Y-41069853D01*
X149426784Y-41168456D01*
X149262812Y-41236376D01*
X149113512Y-41266073D01*
X149088742Y-41271000D01*
X148911258Y-41271000D01*
X148886488Y-41266073D01*
X148737188Y-41236376D01*
X148573216Y-41168456D01*
X148425646Y-41069853D01*
X148300147Y-40944354D01*
X148201544Y-40796784D01*
X148133624Y-40632812D01*
X148099000Y-40458741D01*
X148099000Y-40281259D01*
X148133624Y-40107188D01*
X148201544Y-39943216D01*
X148300147Y-39795646D01*
X148425646Y-39670147D01*
X148573216Y-39571544D01*
X148737188Y-39503624D01*
X148886488Y-39473927D01*
X148911258Y-39469000D01*
X149088742Y-39469000D01*
X149113512Y-39473927D01*
G37*
G36*
X107098947Y-38277468D02*
G01*
X107279225Y-38352142D01*
X107441471Y-38460551D01*
X107579449Y-38598529D01*
X107687858Y-38760775D01*
X107762532Y-38941053D01*
X107800600Y-39132434D01*
X107800600Y-39327566D01*
X107762532Y-39518947D01*
X107687858Y-39699225D01*
X107579449Y-39861471D01*
X107441471Y-39999449D01*
X107279225Y-40107858D01*
X107098947Y-40182532D01*
X107003256Y-40201566D01*
X106907567Y-40220600D01*
X106712433Y-40220600D01*
X106521053Y-40182532D01*
X106340775Y-40107858D01*
X106178529Y-39999449D01*
X106040551Y-39861471D01*
X105932142Y-39699225D01*
X105857468Y-39518947D01*
X105819400Y-39327566D01*
X105819400Y-39132434D01*
X105857468Y-38941053D01*
X105932142Y-38760775D01*
X106040551Y-38598529D01*
X106178529Y-38460551D01*
X106340775Y-38352142D01*
X106521053Y-38277468D01*
X106616744Y-38258434D01*
X106712433Y-38239400D01*
X106907567Y-38239400D01*
X107098947Y-38277468D01*
G37*
G36*
X79908947Y-38277468D02*
G01*
X80089225Y-38352142D01*
X80251471Y-38460551D01*
X80389449Y-38598529D01*
X80497858Y-38760775D01*
X80572532Y-38941053D01*
X80610600Y-39132434D01*
X80610600Y-39327566D01*
X80572532Y-39518947D01*
X80497858Y-39699225D01*
X80389449Y-39861471D01*
X80251471Y-39999449D01*
X80089225Y-40107858D01*
X79908947Y-40182532D01*
X79813256Y-40201566D01*
X79717567Y-40220600D01*
X79522433Y-40220600D01*
X79331053Y-40182532D01*
X79150775Y-40107858D01*
X78988529Y-39999449D01*
X78850551Y-39861471D01*
X78742142Y-39699225D01*
X78667468Y-39518947D01*
X78629400Y-39327566D01*
X78629400Y-39132434D01*
X78667468Y-38941053D01*
X78742142Y-38760775D01*
X78850551Y-38598529D01*
X78988529Y-38460551D01*
X79150775Y-38352142D01*
X79331053Y-38277468D01*
X79426744Y-38258434D01*
X79522433Y-38239400D01*
X79717567Y-38239400D01*
X79908947Y-38277468D01*
G37*
G36*
X129193256Y-38108434D02*
G01*
X129288947Y-38127468D01*
X129469225Y-38202142D01*
X129631471Y-38310551D01*
X129769449Y-38448529D01*
X129877858Y-38610775D01*
X129952532Y-38791053D01*
X129990600Y-38982434D01*
X129990600Y-39177566D01*
X129952532Y-39368947D01*
X129877858Y-39549225D01*
X129769449Y-39711471D01*
X129631471Y-39849449D01*
X129469225Y-39957858D01*
X129288947Y-40032532D01*
X129097567Y-40070600D01*
X128902433Y-40070600D01*
X128806744Y-40051566D01*
X128711053Y-40032532D01*
X128530775Y-39957858D01*
X128368529Y-39849449D01*
X128230551Y-39711471D01*
X128122142Y-39549225D01*
X128047468Y-39368947D01*
X128009400Y-39177566D01*
X128009400Y-38982434D01*
X128047468Y-38791053D01*
X128122142Y-38610775D01*
X128230551Y-38448529D01*
X128368529Y-38310551D01*
X128530775Y-38202142D01*
X128711053Y-38127468D01*
X128902433Y-38089400D01*
X129097567Y-38089400D01*
X129193256Y-38108434D01*
G37*
G36*
X58382123Y-38335333D02*
G01*
X58524555Y-38378539D01*
X58655820Y-38448702D01*
X58770875Y-38543125D01*
X58865298Y-38658180D01*
X58935461Y-38789445D01*
X58978667Y-38931877D01*
X58993256Y-39080000D01*
X58978667Y-39228123D01*
X58935461Y-39370555D01*
X58865298Y-39501820D01*
X58770875Y-39616875D01*
X58655820Y-39711298D01*
X58524555Y-39781461D01*
X58382123Y-39824667D01*
X58271120Y-39835600D01*
X56888880Y-39835600D01*
X56777877Y-39824667D01*
X56635445Y-39781461D01*
X56504180Y-39711298D01*
X56389125Y-39616875D01*
X56294702Y-39501820D01*
X56224539Y-39370555D01*
X56181333Y-39228123D01*
X56166744Y-39080000D01*
X56181333Y-38931877D01*
X56224539Y-38789445D01*
X56294702Y-38658180D01*
X56389125Y-38543125D01*
X56504180Y-38448702D01*
X56635445Y-38378539D01*
X56777877Y-38335333D01*
X56888880Y-38324400D01*
X58271120Y-38324400D01*
X58382123Y-38335333D01*
G37*
G36*
X97371600Y-38871600D02*
G01*
X94628400Y-38871600D01*
X94628400Y-36128400D01*
X97371600Y-36128400D01*
X97371600Y-38871600D01*
G37*
G36*
X85371600Y-38871600D02*
G01*
X82628400Y-38871600D01*
X82628400Y-36128400D01*
X85371600Y-36128400D01*
X85371600Y-38871600D01*
G37*
G36*
X149901000Y-38731000D02*
G01*
X148099000Y-38731000D01*
X148099000Y-36929000D01*
X149901000Y-36929000D01*
X149901000Y-38731000D01*
G37*
G36*
X106958845Y-35709600D02*
G01*
X107098947Y-35737468D01*
X107279225Y-35812142D01*
X107441471Y-35920551D01*
X107579449Y-36058529D01*
X107687858Y-36220775D01*
X107762532Y-36401053D01*
X107800600Y-36592434D01*
X107800600Y-36787566D01*
X107762532Y-36978947D01*
X107687858Y-37159225D01*
X107579449Y-37321471D01*
X107441471Y-37459449D01*
X107279225Y-37567858D01*
X107098947Y-37642532D01*
X107003256Y-37661566D01*
X106907567Y-37680600D01*
X106712433Y-37680600D01*
X106521053Y-37642532D01*
X106340775Y-37567858D01*
X106178529Y-37459449D01*
X106040551Y-37321471D01*
X105932142Y-37159225D01*
X105857468Y-36978947D01*
X105819400Y-36787566D01*
X105819400Y-36592434D01*
X105857468Y-36401053D01*
X105932142Y-36220775D01*
X106040551Y-36058529D01*
X106178529Y-35920551D01*
X106340775Y-35812142D01*
X106521053Y-35737468D01*
X106661155Y-35709600D01*
X106712433Y-35699400D01*
X106907567Y-35699400D01*
X106958845Y-35709600D01*
G37*
G36*
X79768845Y-35709600D02*
G01*
X79908947Y-35737468D01*
X80089225Y-35812142D01*
X80251471Y-35920551D01*
X80389449Y-36058529D01*
X80497858Y-36220775D01*
X80572532Y-36401053D01*
X80610600Y-36592434D01*
X80610600Y-36787566D01*
X80572532Y-36978947D01*
X80497858Y-37159225D01*
X80389449Y-37321471D01*
X80251471Y-37459449D01*
X80089225Y-37567858D01*
X79908947Y-37642532D01*
X79813256Y-37661566D01*
X79717567Y-37680600D01*
X79522433Y-37680600D01*
X79331053Y-37642532D01*
X79150775Y-37567858D01*
X78988529Y-37459449D01*
X78850551Y-37321471D01*
X78742142Y-37159225D01*
X78667468Y-36978947D01*
X78629400Y-36787566D01*
X78629400Y-36592434D01*
X78667468Y-36401053D01*
X78742142Y-36220775D01*
X78850551Y-36058529D01*
X78988529Y-35920551D01*
X79150775Y-35812142D01*
X79331053Y-35737468D01*
X79471155Y-35709600D01*
X79522433Y-35699400D01*
X79717567Y-35699400D01*
X79768845Y-35709600D01*
G37*
G36*
X129288947Y-35587468D02*
G01*
X129469225Y-35662142D01*
X129631471Y-35770551D01*
X129769449Y-35908529D01*
X129877858Y-36070775D01*
X129952532Y-36251053D01*
X129990600Y-36442434D01*
X129990600Y-36637566D01*
X129952532Y-36828947D01*
X129877858Y-37009225D01*
X129769449Y-37171471D01*
X129631471Y-37309449D01*
X129469225Y-37417858D01*
X129288947Y-37492532D01*
X129097567Y-37530600D01*
X128902433Y-37530600D01*
X128711053Y-37492532D01*
X128530775Y-37417858D01*
X128368529Y-37309449D01*
X128230551Y-37171471D01*
X128122142Y-37009225D01*
X128047468Y-36828947D01*
X128009400Y-36637566D01*
X128009400Y-36442434D01*
X128047468Y-36251053D01*
X128122142Y-36070775D01*
X128230551Y-35908529D01*
X128368529Y-35770551D01*
X128530775Y-35662142D01*
X128711053Y-35587468D01*
X128902433Y-35549400D01*
X129097567Y-35549400D01*
X129288947Y-35587468D01*
G37*
G36*
X116098947Y-35357468D02*
G01*
X116279225Y-35432142D01*
X116441471Y-35540551D01*
X116579449Y-35678529D01*
X116687858Y-35840775D01*
X116762532Y-36021053D01*
X116800600Y-36212434D01*
X116800600Y-36407566D01*
X116762532Y-36598947D01*
X116687858Y-36779225D01*
X116579449Y-36941471D01*
X116441471Y-37079449D01*
X116279225Y-37187858D01*
X116098947Y-37262532D01*
X115907567Y-37300600D01*
X115712433Y-37300600D01*
X115616744Y-37281566D01*
X115521053Y-37262532D01*
X115340775Y-37187858D01*
X115178529Y-37079449D01*
X115040551Y-36941471D01*
X114932142Y-36779225D01*
X114857468Y-36598947D01*
X114819400Y-36407566D01*
X114819400Y-36212434D01*
X114857468Y-36021053D01*
X114932142Y-35840775D01*
X115040551Y-35678529D01*
X115178529Y-35540551D01*
X115340775Y-35432142D01*
X115521053Y-35357468D01*
X115712433Y-35319400D01*
X115907567Y-35319400D01*
X116098947Y-35357468D01*
G37*
G36*
X52998671Y-32356098D02*
G01*
X53309798Y-32484971D01*
X53589805Y-32672066D01*
X53827934Y-32910195D01*
X54015029Y-33190202D01*
X54143902Y-33501329D01*
X54209600Y-33831618D01*
X54209600Y-34168382D01*
X54143902Y-34498671D01*
X54015029Y-34809798D01*
X53827934Y-35089805D01*
X53589805Y-35327934D01*
X53309798Y-35515029D01*
X52998671Y-35643902D01*
X52668382Y-35709600D01*
X52331618Y-35709600D01*
X52001329Y-35643902D01*
X51690202Y-35515029D01*
X51410195Y-35327934D01*
X51172066Y-35089805D01*
X50984971Y-34809798D01*
X50856098Y-34498671D01*
X50790400Y-34168382D01*
X50790400Y-33831618D01*
X50856098Y-33501329D01*
X50984971Y-33190202D01*
X51172066Y-32910195D01*
X51410195Y-32672066D01*
X51690202Y-32484971D01*
X52001329Y-32356098D01*
X52331618Y-32290400D01*
X52668382Y-32290400D01*
X52998671Y-32356098D01*
G37*
G36*
X129288947Y-33047468D02*
G01*
X129469225Y-33122142D01*
X129631471Y-33230551D01*
X129769449Y-33368529D01*
X129877858Y-33530775D01*
X129952532Y-33711053D01*
X129990600Y-33902434D01*
X129990600Y-34097566D01*
X129952532Y-34288947D01*
X129877858Y-34469225D01*
X129769449Y-34631471D01*
X129631471Y-34769449D01*
X129469225Y-34877858D01*
X129288947Y-34952532D01*
X129097567Y-34990600D01*
X128902433Y-34990600D01*
X128806744Y-34971566D01*
X128711053Y-34952532D01*
X128530775Y-34877858D01*
X128368529Y-34769449D01*
X128230551Y-34631471D01*
X128122142Y-34469225D01*
X128047468Y-34288947D01*
X128009400Y-34097566D01*
X128009400Y-33902434D01*
X128047468Y-33711053D01*
X128122142Y-33530775D01*
X128230551Y-33368529D01*
X128368529Y-33230551D01*
X128530775Y-33122142D01*
X128711053Y-33047468D01*
X128902433Y-33009400D01*
X129097567Y-33009400D01*
X129288947Y-33047468D01*
G37*
G36*
X108478947Y-27737468D02*
G01*
X108659225Y-27812142D01*
X108821471Y-27920551D01*
X108959449Y-28058529D01*
X109067858Y-28220775D01*
X109142532Y-28401053D01*
X109180600Y-28592434D01*
X109180600Y-28787566D01*
X109142532Y-28978947D01*
X109067858Y-29159225D01*
X108959449Y-29321471D01*
X108821471Y-29459449D01*
X108659225Y-29567858D01*
X108478947Y-29642532D01*
X108287567Y-29680600D01*
X108092433Y-29680600D01*
X107901053Y-29642532D01*
X107720775Y-29567858D01*
X107558529Y-29459449D01*
X107420551Y-29321471D01*
X107312142Y-29159225D01*
X107237468Y-28978947D01*
X107199400Y-28787566D01*
X107199400Y-28592434D01*
X107237468Y-28401053D01*
X107312142Y-28220775D01*
X107420551Y-28058529D01*
X107558529Y-27920551D01*
X107720775Y-27812142D01*
X107901053Y-27737468D01*
X108092433Y-27699400D01*
X108287567Y-27699400D01*
X108478947Y-27737468D01*
G37*
M02*
