G04 #@! TF.GenerationSoftware,KiCad,Pcbnew,(5.1.5)-3*
G04 #@! TF.CreationDate,2022-10-29T16:27:40-04:00*
G04 #@! TF.ProjectId,Tayloe-Mixer-v3,5461796c-6f65-42d4-9d69-7865722d7633,rev?*
G04 #@! TF.SameCoordinates,Original*
G04 #@! TF.FileFunction,Copper,L2,Bot*
G04 #@! TF.FilePolarity,Positive*
%FSLAX46Y46*%
G04 Gerber Fmt 4.6, Leading zero omitted, Abs format (unit mm)*
G04 Created by KiCad (PCBNEW (5.1.5)-3) date 2022-10-29 16:27:40*
%MOMM*%
%LPD*%
G04 APERTURE LIST*
%ADD10C,2.540000*%
%ADD11O,1.700000X1.700000*%
%ADD12R,1.700000X1.700000*%
%ADD13R,2.540000X2.540000*%
%ADD14C,1.778000*%
%ADD15O,2.616000X1.308000*%
%ADD16C,3.216000*%
%ADD17R,2.000000X2.000000*%
%ADD18C,2.000000*%
%ADD19R,2.000000X3.200000*%
%ADD20C,2.300000*%
%ADD21C,1.200000*%
%ADD22C,0.750000*%
%ADD23C,1.000000*%
%ADD24C,0.254000*%
G04 APERTURE END LIST*
D10*
X147000000Y-66000000D03*
X147000000Y-71000000D03*
D11*
X63500000Y-77120000D03*
X63500000Y-74580000D03*
X63500000Y-72040000D03*
D12*
X63500000Y-69500000D03*
D11*
X104760000Y-97500000D03*
X107300000Y-97500000D03*
X109840000Y-97500000D03*
X112380000Y-97500000D03*
X114920000Y-97500000D03*
X117460000Y-97500000D03*
D12*
X120000000Y-97500000D03*
D13*
X94500000Y-37500000D03*
D10*
X94500000Y-42500000D03*
D13*
X82500000Y-37500000D03*
D10*
X82500000Y-42500000D03*
D11*
X149000000Y-47990000D03*
X149000000Y-42910000D03*
D12*
X149000000Y-37830000D03*
D11*
X149000000Y-45450000D03*
X149000000Y-50530000D03*
X149000000Y-40370000D03*
X149000000Y-53070000D03*
D14*
X121380000Y-44160000D03*
X121380000Y-46700000D03*
X129000000Y-36540000D03*
X121380000Y-41620000D03*
X129000000Y-34000000D03*
X129000000Y-39080000D03*
X106810000Y-39230000D03*
X99190000Y-44310000D03*
X106810000Y-36690000D03*
X99190000Y-41770000D03*
X77620000Y-39230000D03*
X70000000Y-44310000D03*
X77620000Y-36690000D03*
X70000000Y-41770000D03*
D15*
X57580000Y-39080000D03*
X57580000Y-41620000D03*
D16*
X52500000Y-44160000D03*
X52500000Y-34000000D03*
D17*
X51000000Y-96000000D03*
D18*
X53500000Y-96000000D03*
X56000000Y-96000000D03*
D19*
X47900000Y-88500000D03*
X59100000Y-88500000D03*
D18*
X51000000Y-81500000D03*
X56000000Y-81500000D03*
X102500000Y-83000000D03*
X107000000Y-83000000D03*
X102500000Y-89500000D03*
X107000000Y-89500000D03*
D14*
X108190000Y-28690000D03*
X115810000Y-36310000D03*
D20*
X55000000Y-57900000D03*
X50000000Y-63000000D03*
X55000000Y-68100000D03*
X55000000Y-65500000D03*
X55000000Y-60500000D03*
D21*
X128000000Y-86500000D03*
X89000000Y-68000000D03*
X121500000Y-51000000D03*
X102000000Y-59500000D03*
X103500000Y-70000000D03*
X126500000Y-74000000D03*
X126500000Y-70500000D03*
X83500000Y-56500000D03*
X94000000Y-56500000D03*
X110000000Y-31000000D03*
X137500000Y-81000000D03*
X76000000Y-100500000D03*
X95500000Y-67000000D03*
X103000000Y-63500000D03*
X62500000Y-65500000D03*
X62400000Y-57900000D03*
X83500000Y-74000000D03*
X148500000Y-58500000D03*
X146000000Y-43000000D03*
X82000000Y-75500000D03*
X111000000Y-86000000D03*
X119000000Y-93500000D03*
X63500000Y-94000000D03*
X63500000Y-96000000D03*
X57500000Y-92500000D03*
X114920000Y-95080000D03*
X116610001Y-93610001D03*
X126500000Y-59000000D03*
X114885000Y-59615000D03*
X127000000Y-60500000D03*
X113500000Y-58345000D03*
X125000000Y-58000000D03*
X114000000Y-60885000D03*
X88000000Y-61500000D03*
X106500000Y-62000000D03*
X101375000Y-64875000D03*
X108000000Y-50500000D03*
X114500000Y-62755000D03*
X125500000Y-63500000D03*
X71000000Y-99500000D03*
X123500000Y-88500000D03*
D22*
X126500000Y-70500000D02*
X126500000Y-74000000D01*
X124880000Y-72120000D02*
X126500000Y-70500000D01*
X64000000Y-72120000D02*
X124880000Y-72120000D01*
X94000000Y-56500000D02*
X94000000Y-56500000D01*
X110000000Y-31000000D02*
X110000000Y-31000000D01*
X110000000Y-31000000D02*
X88500000Y-31000000D01*
X87000000Y-32500000D02*
X87000000Y-53500000D01*
X87000000Y-53500000D02*
X87000000Y-56500000D01*
X87000000Y-56500000D02*
X94000000Y-56500000D01*
X83500000Y-56500000D02*
X87000000Y-56500000D01*
X88500000Y-31000000D02*
X87000000Y-32500000D01*
X137500000Y-81000000D02*
X137500000Y-81000000D01*
X153500000Y-79500000D02*
X153500000Y-39230000D01*
X152000000Y-81000000D02*
X153500000Y-79500000D01*
X137500000Y-81000000D02*
X152000000Y-81000000D01*
X137500000Y-81000000D02*
X137500000Y-98000000D01*
X137500000Y-98000000D02*
X137500000Y-98500000D01*
X137500000Y-98500000D02*
X135500000Y-100500000D01*
X135500000Y-100500000D02*
X76000000Y-100500000D01*
X76000000Y-100500000D02*
X76000000Y-100500000D01*
X152100000Y-37830000D02*
X153500000Y-39230000D01*
X149000000Y-37830000D02*
X152100000Y-37830000D01*
X99000000Y-63500000D02*
X95500000Y-67000000D01*
X99000000Y-63500000D02*
X103000000Y-63500000D01*
D23*
X55000000Y-68100000D02*
X55000000Y-65500000D01*
X55000000Y-65500000D02*
X62500000Y-65500000D01*
X62500000Y-65500000D02*
X62500000Y-65500000D01*
X55000000Y-60500000D02*
X55000000Y-57900000D01*
X55000000Y-57900000D02*
X62400000Y-57900000D01*
X62400000Y-57900000D02*
X62400000Y-57900000D01*
D22*
X83500000Y-74000000D02*
X83500000Y-74000000D01*
X64000000Y-74660000D02*
X65329077Y-74660000D01*
X65329077Y-74660000D02*
X65989077Y-74000000D01*
X65989077Y-74000000D02*
X83500000Y-74000000D01*
X83500000Y-74000000D02*
X124500000Y-74000000D01*
X124500000Y-74000000D02*
X127000000Y-76500000D01*
X127000000Y-76500000D02*
X149000000Y-76500000D01*
X149000000Y-76500000D02*
X150500000Y-75000000D01*
X150500000Y-75000000D02*
X150500000Y-60500000D01*
X150500000Y-60500000D02*
X148500000Y-58500000D01*
X148500000Y-58500000D02*
X148500000Y-58500000D01*
X148910000Y-43000000D02*
X149000000Y-42910000D01*
X146000000Y-43000000D02*
X148910000Y-43000000D01*
X82000000Y-75500000D02*
X82000000Y-75500000D01*
X64000000Y-77200000D02*
X65329077Y-77200000D01*
X65329077Y-77200000D02*
X67029077Y-75500000D01*
X67029077Y-75500000D02*
X82000000Y-75500000D01*
X152000000Y-48450000D02*
X149000000Y-45450000D01*
X152000000Y-76500000D02*
X152000000Y-48450000D01*
X150500000Y-78000000D02*
X152000000Y-76500000D01*
X126000000Y-78000000D02*
X150500000Y-78000000D01*
X123500000Y-75500000D02*
X126000000Y-78000000D01*
X82000000Y-75500000D02*
X123500000Y-75500000D01*
X111000000Y-91260000D02*
X111000000Y-86000000D01*
X104760000Y-97500000D02*
X111000000Y-91260000D01*
X120000000Y-94500000D02*
X119000000Y-93500000D01*
X120000000Y-97500000D02*
X120000000Y-94500000D01*
X51000000Y-94250000D02*
X51250000Y-94000000D01*
X51000000Y-96000000D02*
X51000000Y-94250000D01*
X51250000Y-94000000D02*
X63500000Y-94000000D01*
X63500000Y-94000000D02*
X63500000Y-94000000D01*
X56000000Y-96000000D02*
X63500000Y-96000000D01*
X63500000Y-96000000D02*
X63500000Y-96000000D01*
X51000000Y-81500000D02*
X51000000Y-86000000D01*
X51000000Y-86000000D02*
X57500000Y-92500000D01*
X57500000Y-92500000D02*
X57500000Y-92500000D01*
X114920000Y-97500000D02*
X114920000Y-95080000D01*
X114920000Y-95080000D02*
X114920000Y-95080000D01*
X117460000Y-97500000D02*
X116610001Y-96650001D01*
X116610001Y-96650001D02*
X116610001Y-95110001D01*
X116610001Y-95110001D02*
X116610001Y-95110001D01*
X116610001Y-95110001D02*
X116610001Y-93610001D01*
X116610001Y-93610001D02*
X116610001Y-93610001D01*
X114885000Y-59615000D02*
X118000000Y-56500000D01*
X118000000Y-56500000D02*
X127500000Y-56500000D01*
X127500000Y-56500000D02*
X128500000Y-57500000D01*
X128500000Y-57500000D02*
X128500000Y-58500000D01*
X128000000Y-59000000D02*
X126500000Y-59000000D01*
X128500000Y-58500000D02*
X128000000Y-59000000D01*
X114099999Y-57745001D02*
X114754999Y-57745001D01*
X113500000Y-58345000D02*
X114099999Y-57745001D01*
X114754999Y-57745001D02*
X117500000Y-55000000D01*
X117500000Y-55000000D02*
X128500000Y-55000000D01*
X128500000Y-55000000D02*
X130500000Y-57000000D01*
X130500000Y-57000000D02*
X130500000Y-60000000D01*
X130000000Y-60500000D02*
X127000000Y-60500000D01*
X130500000Y-60000000D02*
X130000000Y-60500000D01*
X122115000Y-60885000D02*
X125000000Y-58000000D01*
X114000000Y-60885000D02*
X122115000Y-60885000D01*
X88500000Y-62000000D02*
X88000000Y-61500000D01*
X106500000Y-62000000D02*
X88500000Y-62000000D01*
X108000000Y-50500000D02*
X108000000Y-63000000D01*
X106125000Y-64875000D02*
X101375000Y-64875000D01*
X108000000Y-63000000D02*
X106125000Y-64875000D01*
X57730000Y-39230000D02*
X57580000Y-39080000D01*
X77470000Y-39080000D02*
X77620000Y-39230000D01*
X57580000Y-39080000D02*
X77470000Y-39080000D01*
X112000000Y-50500000D02*
X112000000Y-62000000D01*
X112000000Y-62000000D02*
X112755000Y-62755000D01*
X113500000Y-49000000D02*
X112000000Y-50500000D01*
X147990000Y-49000000D02*
X113500000Y-49000000D01*
X112755000Y-62755000D02*
X114500000Y-62755000D01*
X149000000Y-47990000D02*
X147990000Y-49000000D01*
X149000000Y-53070000D02*
X149000000Y-55500000D01*
X149000000Y-55500000D02*
X137500000Y-67000000D01*
X137500000Y-67000000D02*
X129000000Y-67000000D01*
X129000000Y-67000000D02*
X125500000Y-63500000D01*
X125500000Y-63500000D02*
X125500000Y-63500000D01*
X71599999Y-98900001D02*
X71000000Y-99500000D01*
X102424999Y-97575001D02*
X72924999Y-97575001D01*
X109500000Y-90500000D02*
X102424999Y-97575001D01*
X109500000Y-85000000D02*
X109500000Y-90500000D01*
X72924999Y-97575001D02*
X71599999Y-98900001D01*
X109924999Y-84575001D02*
X109500000Y-85000000D01*
X122924999Y-84575001D02*
X109924999Y-84575001D01*
X123000000Y-84500000D02*
X122924999Y-84575001D01*
X123500000Y-85000000D02*
X123000000Y-84500000D01*
X123500000Y-88500000D02*
X123500000Y-85000000D01*
D24*
G36*
X155815001Y-102815000D02*
G01*
X45185000Y-102815000D01*
X45185000Y-99378363D01*
X69765000Y-99378363D01*
X69765000Y-99621637D01*
X69812460Y-99860236D01*
X69905557Y-100084992D01*
X70040713Y-100287267D01*
X70212733Y-100459287D01*
X70415008Y-100594443D01*
X70639764Y-100687540D01*
X70878363Y-100735000D01*
X71121637Y-100735000D01*
X71360236Y-100687540D01*
X71584992Y-100594443D01*
X71787267Y-100459287D01*
X71959287Y-100287267D01*
X72094443Y-100084992D01*
X72187540Y-99860236D01*
X72217192Y-99711163D01*
X72349255Y-99579100D01*
X73343355Y-98585001D01*
X102375391Y-98585001D01*
X102424999Y-98589887D01*
X102622993Y-98570386D01*
X102644572Y-98563840D01*
X102813379Y-98512633D01*
X102988839Y-98418848D01*
X103142632Y-98292634D01*
X103174260Y-98254095D01*
X103379847Y-98048508D01*
X103444010Y-98203411D01*
X103606525Y-98446632D01*
X103813368Y-98653475D01*
X104056589Y-98815990D01*
X104326842Y-98927932D01*
X104613740Y-98985000D01*
X104906260Y-98985000D01*
X105193158Y-98927932D01*
X105463411Y-98815990D01*
X105706632Y-98653475D01*
X105913475Y-98446632D01*
X106035195Y-98264466D01*
X106104822Y-98381355D01*
X106299731Y-98597588D01*
X106533080Y-98771641D01*
X106795901Y-98896825D01*
X106943110Y-98941476D01*
X107173000Y-98820155D01*
X107173000Y-97627000D01*
X107153000Y-97627000D01*
X107153000Y-97373000D01*
X107173000Y-97373000D01*
X107173000Y-97353000D01*
X107427000Y-97353000D01*
X107427000Y-97373000D01*
X107447000Y-97373000D01*
X107447000Y-97627000D01*
X107427000Y-97627000D01*
X107427000Y-98820155D01*
X107656890Y-98941476D01*
X107804099Y-98896825D01*
X108066920Y-98771641D01*
X108300269Y-98597588D01*
X108495178Y-98381355D01*
X108564805Y-98264466D01*
X108686525Y-98446632D01*
X108893368Y-98653475D01*
X109136589Y-98815990D01*
X109406842Y-98927932D01*
X109693740Y-98985000D01*
X109986260Y-98985000D01*
X110273158Y-98927932D01*
X110543411Y-98815990D01*
X110786632Y-98653475D01*
X110993475Y-98446632D01*
X111110000Y-98272240D01*
X111226525Y-98446632D01*
X111433368Y-98653475D01*
X111676589Y-98815990D01*
X111946842Y-98927932D01*
X112233740Y-98985000D01*
X112526260Y-98985000D01*
X112813158Y-98927932D01*
X113083411Y-98815990D01*
X113326632Y-98653475D01*
X113533475Y-98446632D01*
X113650000Y-98272240D01*
X113766525Y-98446632D01*
X113973368Y-98653475D01*
X114216589Y-98815990D01*
X114486842Y-98927932D01*
X114773740Y-98985000D01*
X115066260Y-98985000D01*
X115353158Y-98927932D01*
X115623411Y-98815990D01*
X115866632Y-98653475D01*
X116073475Y-98446632D01*
X116190000Y-98272240D01*
X116306525Y-98446632D01*
X116513368Y-98653475D01*
X116756589Y-98815990D01*
X117026842Y-98927932D01*
X117313740Y-98985000D01*
X117606260Y-98985000D01*
X117893158Y-98927932D01*
X118163411Y-98815990D01*
X118406632Y-98653475D01*
X118538487Y-98521620D01*
X118560498Y-98594180D01*
X118619463Y-98704494D01*
X118698815Y-98801185D01*
X118795506Y-98880537D01*
X118905820Y-98939502D01*
X119025518Y-98975812D01*
X119150000Y-98988072D01*
X120850000Y-98988072D01*
X120974482Y-98975812D01*
X121094180Y-98939502D01*
X121204494Y-98880537D01*
X121301185Y-98801185D01*
X121380537Y-98704494D01*
X121439502Y-98594180D01*
X121475812Y-98474482D01*
X121488072Y-98350000D01*
X121488072Y-96650000D01*
X121475812Y-96525518D01*
X121439502Y-96405820D01*
X121380537Y-96295506D01*
X121301185Y-96198815D01*
X121204494Y-96119463D01*
X121094180Y-96060498D01*
X121010000Y-96034962D01*
X121010000Y-94549608D01*
X121014886Y-94500000D01*
X120995385Y-94302005D01*
X120937632Y-94111620D01*
X120905768Y-94052006D01*
X120843847Y-93936160D01*
X120717633Y-93782367D01*
X120679099Y-93750743D01*
X120217192Y-93288837D01*
X120187540Y-93139764D01*
X120094443Y-92915008D01*
X119959287Y-92712733D01*
X119787267Y-92540713D01*
X119584992Y-92405557D01*
X119360236Y-92312460D01*
X119121637Y-92265000D01*
X118878363Y-92265000D01*
X118639764Y-92312460D01*
X118415008Y-92405557D01*
X118212733Y-92540713D01*
X118040713Y-92712733D01*
X117905557Y-92915008D01*
X117812460Y-93139764D01*
X117792838Y-93238411D01*
X117704444Y-93025009D01*
X117569288Y-92822734D01*
X117397268Y-92650714D01*
X117194993Y-92515558D01*
X116970237Y-92422461D01*
X116731638Y-92375001D01*
X116488364Y-92375001D01*
X116249765Y-92422461D01*
X116025009Y-92515558D01*
X115822734Y-92650714D01*
X115650714Y-92822734D01*
X115515558Y-93025009D01*
X115422461Y-93249765D01*
X115375001Y-93488364D01*
X115375001Y-93731638D01*
X115418372Y-93949678D01*
X115280236Y-93892460D01*
X115041637Y-93845000D01*
X114798363Y-93845000D01*
X114559764Y-93892460D01*
X114335008Y-93985557D01*
X114132733Y-94120713D01*
X113960713Y-94292733D01*
X113825557Y-94495008D01*
X113732460Y-94719764D01*
X113685000Y-94958363D01*
X113685000Y-95201637D01*
X113732460Y-95440236D01*
X113825557Y-95664992D01*
X113910001Y-95791371D01*
X113910000Y-96409893D01*
X113766525Y-96553368D01*
X113650000Y-96727760D01*
X113533475Y-96553368D01*
X113326632Y-96346525D01*
X113083411Y-96184010D01*
X112813158Y-96072068D01*
X112526260Y-96015000D01*
X112233740Y-96015000D01*
X111946842Y-96072068D01*
X111676589Y-96184010D01*
X111433368Y-96346525D01*
X111226525Y-96553368D01*
X111110000Y-96727760D01*
X110993475Y-96553368D01*
X110786632Y-96346525D01*
X110543411Y-96184010D01*
X110273158Y-96072068D01*
X109986260Y-96015000D01*
X109693740Y-96015000D01*
X109406842Y-96072068D01*
X109136589Y-96184010D01*
X108893368Y-96346525D01*
X108686525Y-96553368D01*
X108564805Y-96735534D01*
X108495178Y-96618645D01*
X108300269Y-96402412D01*
X108066920Y-96228359D01*
X107804099Y-96103175D01*
X107656890Y-96058524D01*
X107599595Y-96088761D01*
X111679100Y-92009256D01*
X111717633Y-91977633D01*
X111843847Y-91823840D01*
X111937632Y-91648380D01*
X111937632Y-91648379D01*
X111995385Y-91457995D01*
X112014886Y-91260000D01*
X112010000Y-91210392D01*
X112010000Y-86711370D01*
X112094443Y-86584992D01*
X112187540Y-86360236D01*
X112235000Y-86121637D01*
X112235000Y-85878363D01*
X112187540Y-85639764D01*
X112164856Y-85585001D01*
X122490001Y-85585001D01*
X122490000Y-87788630D01*
X122405557Y-87915008D01*
X122312460Y-88139764D01*
X122265000Y-88378363D01*
X122265000Y-88621637D01*
X122312460Y-88860236D01*
X122405557Y-89084992D01*
X122540713Y-89287267D01*
X122712733Y-89459287D01*
X122915008Y-89594443D01*
X123139764Y-89687540D01*
X123378363Y-89735000D01*
X123621637Y-89735000D01*
X123860236Y-89687540D01*
X124084992Y-89594443D01*
X124287267Y-89459287D01*
X124459287Y-89287267D01*
X124594443Y-89084992D01*
X124687540Y-88860236D01*
X124735000Y-88621637D01*
X124735000Y-88378363D01*
X124687540Y-88139764D01*
X124594443Y-87915008D01*
X124510000Y-87788630D01*
X124510000Y-85049608D01*
X124514886Y-85000000D01*
X124495385Y-84802005D01*
X124437632Y-84611620D01*
X124418059Y-84575001D01*
X124343847Y-84436160D01*
X124217633Y-84282367D01*
X124179094Y-84250739D01*
X123749252Y-83820897D01*
X123717632Y-83782368D01*
X123679103Y-83750748D01*
X123679099Y-83750744D01*
X123563840Y-83656154D01*
X123388379Y-83562368D01*
X123197994Y-83504615D01*
X123000000Y-83485114D01*
X122999999Y-83485114D01*
X122980498Y-83487035D01*
X122802006Y-83504615D01*
X122611621Y-83562368D01*
X122606695Y-83565001D01*
X109974603Y-83565001D01*
X109924998Y-83560115D01*
X109875393Y-83565001D01*
X109875391Y-83565001D01*
X109727005Y-83579616D01*
X109536619Y-83637369D01*
X109361159Y-83731154D01*
X109207366Y-83857368D01*
X109175734Y-83895912D01*
X108820907Y-84250738D01*
X108782367Y-84282367D01*
X108656153Y-84436160D01*
X108622030Y-84500001D01*
X108562368Y-84611621D01*
X108504615Y-84802006D01*
X108485114Y-85000000D01*
X108490000Y-85049608D01*
X108490001Y-88824719D01*
X108448918Y-88725537D01*
X108269987Y-88457748D01*
X108042252Y-88230013D01*
X107774463Y-88051082D01*
X107476912Y-87927832D01*
X107161033Y-87865000D01*
X106838967Y-87865000D01*
X106523088Y-87927832D01*
X106225537Y-88051082D01*
X105957748Y-88230013D01*
X105730013Y-88457748D01*
X105551082Y-88725537D01*
X105427832Y-89023088D01*
X105365000Y-89338967D01*
X105365000Y-89661033D01*
X105427832Y-89976912D01*
X105551082Y-90274463D01*
X105730013Y-90542252D01*
X105957748Y-90769987D01*
X106225537Y-90948918D01*
X106523088Y-91072168D01*
X106838967Y-91135000D01*
X107161033Y-91135000D01*
X107476912Y-91072168D01*
X107515433Y-91056212D01*
X102006644Y-96565001D01*
X72974607Y-96565001D01*
X72924999Y-96560115D01*
X72727004Y-96579616D01*
X72536619Y-96637369D01*
X72361159Y-96731154D01*
X72207366Y-96857368D01*
X72175742Y-96895902D01*
X70920900Y-98150745D01*
X70788837Y-98282808D01*
X70639764Y-98312460D01*
X70415008Y-98405557D01*
X70212733Y-98540713D01*
X70040713Y-98712733D01*
X69905557Y-98915008D01*
X69812460Y-99139764D01*
X69765000Y-99378363D01*
X45185000Y-99378363D01*
X45185000Y-95000000D01*
X49361928Y-95000000D01*
X49361928Y-97000000D01*
X49374188Y-97124482D01*
X49410498Y-97244180D01*
X49469463Y-97354494D01*
X49548815Y-97451185D01*
X49645506Y-97530537D01*
X49755820Y-97589502D01*
X49875518Y-97625812D01*
X50000000Y-97638072D01*
X52000000Y-97638072D01*
X52124482Y-97625812D01*
X52244180Y-97589502D01*
X52354494Y-97530537D01*
X52451185Y-97451185D01*
X52530537Y-97354494D01*
X52585976Y-97250777D01*
X52639956Y-97399814D01*
X52929571Y-97540704D01*
X53241108Y-97622384D01*
X53562595Y-97641718D01*
X53881675Y-97597961D01*
X54186088Y-97492795D01*
X54360044Y-97399814D01*
X54455808Y-97135413D01*
X53500000Y-96179605D01*
X53485858Y-96193748D01*
X53306253Y-96014143D01*
X53320395Y-96000000D01*
X53306253Y-95985858D01*
X53485858Y-95806253D01*
X53500000Y-95820395D01*
X53514143Y-95806253D01*
X53693748Y-95985858D01*
X53679605Y-96000000D01*
X54635413Y-96955808D01*
X54665075Y-96945065D01*
X54730013Y-97042252D01*
X54957748Y-97269987D01*
X55225537Y-97448918D01*
X55523088Y-97572168D01*
X55838967Y-97635000D01*
X56161033Y-97635000D01*
X56476912Y-97572168D01*
X56774463Y-97448918D01*
X57042252Y-97269987D01*
X57269987Y-97042252D01*
X57291537Y-97010000D01*
X62788630Y-97010000D01*
X62915008Y-97094443D01*
X63139764Y-97187540D01*
X63378363Y-97235000D01*
X63621637Y-97235000D01*
X63860236Y-97187540D01*
X64084992Y-97094443D01*
X64287267Y-96959287D01*
X64459287Y-96787267D01*
X64594443Y-96584992D01*
X64687540Y-96360236D01*
X64735000Y-96121637D01*
X64735000Y-95878363D01*
X64687540Y-95639764D01*
X64594443Y-95415008D01*
X64459287Y-95212733D01*
X64287267Y-95040713D01*
X64226336Y-95000000D01*
X64287267Y-94959287D01*
X64459287Y-94787267D01*
X64594443Y-94584992D01*
X64687540Y-94360236D01*
X64735000Y-94121637D01*
X64735000Y-93878363D01*
X64687540Y-93639764D01*
X64594443Y-93415008D01*
X64459287Y-93212733D01*
X64287267Y-93040713D01*
X64084992Y-92905557D01*
X63860236Y-92812460D01*
X63621637Y-92765000D01*
X63378363Y-92765000D01*
X63139764Y-92812460D01*
X62915008Y-92905557D01*
X62788630Y-92990000D01*
X58633790Y-92990000D01*
X58687540Y-92860236D01*
X58735000Y-92621637D01*
X58735000Y-92378363D01*
X58687540Y-92139764D01*
X58594443Y-91915008D01*
X58459287Y-91712733D01*
X58287267Y-91540713D01*
X58084992Y-91405557D01*
X57860236Y-91312460D01*
X57711163Y-91282808D01*
X53328355Y-86900000D01*
X57461928Y-86900000D01*
X57461928Y-90100000D01*
X57474188Y-90224482D01*
X57510498Y-90344180D01*
X57569463Y-90454494D01*
X57648815Y-90551185D01*
X57745506Y-90630537D01*
X57855820Y-90689502D01*
X57975518Y-90725812D01*
X58100000Y-90738072D01*
X60100000Y-90738072D01*
X60224482Y-90725812D01*
X60344180Y-90689502D01*
X60445371Y-90635413D01*
X101544192Y-90635413D01*
X101639956Y-90899814D01*
X101929571Y-91040704D01*
X102241108Y-91122384D01*
X102562595Y-91141718D01*
X102881675Y-91097961D01*
X103186088Y-90992795D01*
X103360044Y-90899814D01*
X103455808Y-90635413D01*
X102500000Y-89679605D01*
X101544192Y-90635413D01*
X60445371Y-90635413D01*
X60454494Y-90630537D01*
X60551185Y-90551185D01*
X60630537Y-90454494D01*
X60689502Y-90344180D01*
X60725812Y-90224482D01*
X60738072Y-90100000D01*
X60738072Y-89562595D01*
X100858282Y-89562595D01*
X100902039Y-89881675D01*
X101007205Y-90186088D01*
X101100186Y-90360044D01*
X101364587Y-90455808D01*
X102320395Y-89500000D01*
X102679605Y-89500000D01*
X103635413Y-90455808D01*
X103899814Y-90360044D01*
X104040704Y-90070429D01*
X104122384Y-89758892D01*
X104141718Y-89437405D01*
X104097961Y-89118325D01*
X103992795Y-88813912D01*
X103899814Y-88639956D01*
X103635413Y-88544192D01*
X102679605Y-89500000D01*
X102320395Y-89500000D01*
X101364587Y-88544192D01*
X101100186Y-88639956D01*
X100959296Y-88929571D01*
X100877616Y-89241108D01*
X100858282Y-89562595D01*
X60738072Y-89562595D01*
X60738072Y-88364587D01*
X101544192Y-88364587D01*
X102500000Y-89320395D01*
X103455808Y-88364587D01*
X103360044Y-88100186D01*
X103070429Y-87959296D01*
X102758892Y-87877616D01*
X102437405Y-87858282D01*
X102118325Y-87902039D01*
X101813912Y-88007205D01*
X101639956Y-88100186D01*
X101544192Y-88364587D01*
X60738072Y-88364587D01*
X60738072Y-86900000D01*
X60725812Y-86775518D01*
X60689502Y-86655820D01*
X60630537Y-86545506D01*
X60551185Y-86448815D01*
X60454494Y-86369463D01*
X60344180Y-86310498D01*
X60224482Y-86274188D01*
X60100000Y-86261928D01*
X58100000Y-86261928D01*
X57975518Y-86274188D01*
X57855820Y-86310498D01*
X57745506Y-86369463D01*
X57648815Y-86448815D01*
X57569463Y-86545506D01*
X57510498Y-86655820D01*
X57474188Y-86775518D01*
X57461928Y-86900000D01*
X53328355Y-86900000D01*
X52010000Y-85581645D01*
X52010000Y-84135413D01*
X101544192Y-84135413D01*
X101639956Y-84399814D01*
X101929571Y-84540704D01*
X102241108Y-84622384D01*
X102562595Y-84641718D01*
X102881675Y-84597961D01*
X103186088Y-84492795D01*
X103360044Y-84399814D01*
X103455808Y-84135413D01*
X102500000Y-83179605D01*
X101544192Y-84135413D01*
X52010000Y-84135413D01*
X52010000Y-82791537D01*
X52042252Y-82769987D01*
X52176826Y-82635413D01*
X55044192Y-82635413D01*
X55139956Y-82899814D01*
X55429571Y-83040704D01*
X55741108Y-83122384D01*
X56062595Y-83141718D01*
X56381675Y-83097961D01*
X56484045Y-83062595D01*
X100858282Y-83062595D01*
X100902039Y-83381675D01*
X101007205Y-83686088D01*
X101100186Y-83860044D01*
X101364587Y-83955808D01*
X102320395Y-83000000D01*
X102679605Y-83000000D01*
X103635413Y-83955808D01*
X103899814Y-83860044D01*
X104040704Y-83570429D01*
X104122384Y-83258892D01*
X104141718Y-82937405D01*
X104128219Y-82838967D01*
X105365000Y-82838967D01*
X105365000Y-83161033D01*
X105427832Y-83476912D01*
X105551082Y-83774463D01*
X105730013Y-84042252D01*
X105957748Y-84269987D01*
X106225537Y-84448918D01*
X106523088Y-84572168D01*
X106838967Y-84635000D01*
X107161033Y-84635000D01*
X107476912Y-84572168D01*
X107774463Y-84448918D01*
X108042252Y-84269987D01*
X108269987Y-84042252D01*
X108448918Y-83774463D01*
X108572168Y-83476912D01*
X108635000Y-83161033D01*
X108635000Y-82838967D01*
X108572168Y-82523088D01*
X108448918Y-82225537D01*
X108269987Y-81957748D01*
X108042252Y-81730013D01*
X107774463Y-81551082D01*
X107476912Y-81427832D01*
X107161033Y-81365000D01*
X106838967Y-81365000D01*
X106523088Y-81427832D01*
X106225537Y-81551082D01*
X105957748Y-81730013D01*
X105730013Y-81957748D01*
X105551082Y-82225537D01*
X105427832Y-82523088D01*
X105365000Y-82838967D01*
X104128219Y-82838967D01*
X104097961Y-82618325D01*
X103992795Y-82313912D01*
X103899814Y-82139956D01*
X103635413Y-82044192D01*
X102679605Y-83000000D01*
X102320395Y-83000000D01*
X101364587Y-82044192D01*
X101100186Y-82139956D01*
X100959296Y-82429571D01*
X100877616Y-82741108D01*
X100858282Y-83062595D01*
X56484045Y-83062595D01*
X56686088Y-82992795D01*
X56860044Y-82899814D01*
X56955808Y-82635413D01*
X56000000Y-81679605D01*
X55044192Y-82635413D01*
X52176826Y-82635413D01*
X52269987Y-82542252D01*
X52448918Y-82274463D01*
X52572168Y-81976912D01*
X52635000Y-81661033D01*
X52635000Y-81562595D01*
X54358282Y-81562595D01*
X54402039Y-81881675D01*
X54507205Y-82186088D01*
X54600186Y-82360044D01*
X54864587Y-82455808D01*
X55820395Y-81500000D01*
X56179605Y-81500000D01*
X57135413Y-82455808D01*
X57399814Y-82360044D01*
X57540704Y-82070429D01*
X57594672Y-81864587D01*
X101544192Y-81864587D01*
X102500000Y-82820395D01*
X103455808Y-81864587D01*
X103360044Y-81600186D01*
X103070429Y-81459296D01*
X102758892Y-81377616D01*
X102437405Y-81358282D01*
X102118325Y-81402039D01*
X101813912Y-81507205D01*
X101639956Y-81600186D01*
X101544192Y-81864587D01*
X57594672Y-81864587D01*
X57622384Y-81758892D01*
X57641718Y-81437405D01*
X57597961Y-81118325D01*
X57492795Y-80813912D01*
X57399814Y-80639956D01*
X57135413Y-80544192D01*
X56179605Y-81500000D01*
X55820395Y-81500000D01*
X54864587Y-80544192D01*
X54600186Y-80639956D01*
X54459296Y-80929571D01*
X54377616Y-81241108D01*
X54358282Y-81562595D01*
X52635000Y-81562595D01*
X52635000Y-81338967D01*
X52572168Y-81023088D01*
X52448918Y-80725537D01*
X52269987Y-80457748D01*
X52176826Y-80364587D01*
X55044192Y-80364587D01*
X56000000Y-81320395D01*
X56955808Y-80364587D01*
X56860044Y-80100186D01*
X56570429Y-79959296D01*
X56258892Y-79877616D01*
X55937405Y-79858282D01*
X55618325Y-79902039D01*
X55313912Y-80007205D01*
X55139956Y-80100186D01*
X55044192Y-80364587D01*
X52176826Y-80364587D01*
X52042252Y-80230013D01*
X51774463Y-80051082D01*
X51476912Y-79927832D01*
X51161033Y-79865000D01*
X50838967Y-79865000D01*
X50523088Y-79927832D01*
X50225537Y-80051082D01*
X49957748Y-80230013D01*
X49730013Y-80457748D01*
X49551082Y-80725537D01*
X49427832Y-81023088D01*
X49365000Y-81338967D01*
X49365000Y-81661033D01*
X49427832Y-81976912D01*
X49551082Y-82274463D01*
X49730013Y-82542252D01*
X49957748Y-82769987D01*
X49990000Y-82791537D01*
X49990001Y-85950382D01*
X49985114Y-86000000D01*
X50004615Y-86197994D01*
X50062368Y-86388379D01*
X50062369Y-86388380D01*
X50156154Y-86563840D01*
X50282368Y-86717633D01*
X50320901Y-86749256D01*
X56282808Y-92711163D01*
X56312460Y-92860236D01*
X56366210Y-92990000D01*
X51299604Y-92990000D01*
X51249999Y-92985114D01*
X51200394Y-92990000D01*
X51200392Y-92990000D01*
X51052006Y-93004615D01*
X50861620Y-93062368D01*
X50686160Y-93156153D01*
X50532367Y-93282367D01*
X50500736Y-93320910D01*
X50320903Y-93500743D01*
X50282368Y-93532367D01*
X50250745Y-93570900D01*
X50250744Y-93570901D01*
X50156154Y-93686160D01*
X50062368Y-93861621D01*
X50004615Y-94052006D01*
X49985114Y-94250000D01*
X49990001Y-94299617D01*
X49990001Y-94362913D01*
X49875518Y-94374188D01*
X49755820Y-94410498D01*
X49645506Y-94469463D01*
X49548815Y-94548815D01*
X49469463Y-94645506D01*
X49410498Y-94755820D01*
X49374188Y-94875518D01*
X49361928Y-95000000D01*
X45185000Y-95000000D01*
X45185000Y-86900000D01*
X46261928Y-86900000D01*
X46261928Y-90100000D01*
X46274188Y-90224482D01*
X46310498Y-90344180D01*
X46369463Y-90454494D01*
X46448815Y-90551185D01*
X46545506Y-90630537D01*
X46655820Y-90689502D01*
X46775518Y-90725812D01*
X46900000Y-90738072D01*
X48900000Y-90738072D01*
X49024482Y-90725812D01*
X49144180Y-90689502D01*
X49254494Y-90630537D01*
X49351185Y-90551185D01*
X49430537Y-90454494D01*
X49489502Y-90344180D01*
X49525812Y-90224482D01*
X49538072Y-90100000D01*
X49538072Y-86900000D01*
X49525812Y-86775518D01*
X49489502Y-86655820D01*
X49430537Y-86545506D01*
X49351185Y-86448815D01*
X49254494Y-86369463D01*
X49144180Y-86310498D01*
X49024482Y-86274188D01*
X48900000Y-86261928D01*
X46900000Y-86261928D01*
X46775518Y-86274188D01*
X46655820Y-86310498D01*
X46545506Y-86369463D01*
X46448815Y-86448815D01*
X46369463Y-86545506D01*
X46310498Y-86655820D01*
X46274188Y-86775518D01*
X46261928Y-86900000D01*
X45185000Y-86900000D01*
X45185000Y-70350000D01*
X62011928Y-70350000D01*
X62024188Y-70474482D01*
X62060498Y-70594180D01*
X62119463Y-70704494D01*
X62198815Y-70801185D01*
X62295506Y-70880537D01*
X62405820Y-70939502D01*
X62478380Y-70961513D01*
X62346525Y-71093368D01*
X62184010Y-71336589D01*
X62072068Y-71606842D01*
X62015000Y-71893740D01*
X62015000Y-72186260D01*
X62072068Y-72473158D01*
X62184010Y-72743411D01*
X62346525Y-72986632D01*
X62553368Y-73193475D01*
X62727760Y-73310000D01*
X62553368Y-73426525D01*
X62346525Y-73633368D01*
X62184010Y-73876589D01*
X62072068Y-74146842D01*
X62015000Y-74433740D01*
X62015000Y-74726260D01*
X62072068Y-75013158D01*
X62184010Y-75283411D01*
X62346525Y-75526632D01*
X62553368Y-75733475D01*
X62727760Y-75850000D01*
X62553368Y-75966525D01*
X62346525Y-76173368D01*
X62184010Y-76416589D01*
X62072068Y-76686842D01*
X62015000Y-76973740D01*
X62015000Y-77266260D01*
X62072068Y-77553158D01*
X62184010Y-77823411D01*
X62346525Y-78066632D01*
X62553368Y-78273475D01*
X62796589Y-78435990D01*
X63066842Y-78547932D01*
X63353740Y-78605000D01*
X63646260Y-78605000D01*
X63933158Y-78547932D01*
X64203411Y-78435990D01*
X64446632Y-78273475D01*
X64510107Y-78210000D01*
X65279469Y-78210000D01*
X65329077Y-78214886D01*
X65527071Y-78195385D01*
X65717457Y-78137632D01*
X65892917Y-78043847D01*
X66046710Y-77917633D01*
X66078338Y-77879094D01*
X67447432Y-76510000D01*
X81288630Y-76510000D01*
X81415008Y-76594443D01*
X81639764Y-76687540D01*
X81878363Y-76735000D01*
X82121637Y-76735000D01*
X82360236Y-76687540D01*
X82584992Y-76594443D01*
X82711370Y-76510000D01*
X123081645Y-76510000D01*
X125250744Y-78679100D01*
X125282367Y-78717633D01*
X125436160Y-78843847D01*
X125608866Y-78936160D01*
X125611620Y-78937632D01*
X125802005Y-78995385D01*
X126000000Y-79014886D01*
X126049608Y-79010000D01*
X150450392Y-79010000D01*
X150500000Y-79014886D01*
X150697994Y-78995385D01*
X150888380Y-78937632D01*
X151063840Y-78843847D01*
X151217633Y-78717633D01*
X151249261Y-78679094D01*
X152490000Y-77438355D01*
X152490000Y-79081645D01*
X151581645Y-79990000D01*
X138211370Y-79990000D01*
X138084992Y-79905557D01*
X137860236Y-79812460D01*
X137621637Y-79765000D01*
X137378363Y-79765000D01*
X137139764Y-79812460D01*
X136915008Y-79905557D01*
X136712733Y-80040713D01*
X136540713Y-80212733D01*
X136405557Y-80415008D01*
X136312460Y-80639764D01*
X136265000Y-80878363D01*
X136265000Y-81121637D01*
X136312460Y-81360236D01*
X136405557Y-81584992D01*
X136490000Y-81711370D01*
X136490001Y-97950383D01*
X136490000Y-97950393D01*
X136490000Y-98081645D01*
X135081645Y-99490000D01*
X76711370Y-99490000D01*
X76584992Y-99405557D01*
X76360236Y-99312460D01*
X76121637Y-99265000D01*
X75878363Y-99265000D01*
X75639764Y-99312460D01*
X75415008Y-99405557D01*
X75212733Y-99540713D01*
X75040713Y-99712733D01*
X74905557Y-99915008D01*
X74812460Y-100139764D01*
X74765000Y-100378363D01*
X74765000Y-100621637D01*
X74812460Y-100860236D01*
X74905557Y-101084992D01*
X75040713Y-101287267D01*
X75212733Y-101459287D01*
X75415008Y-101594443D01*
X75639764Y-101687540D01*
X75878363Y-101735000D01*
X76121637Y-101735000D01*
X76360236Y-101687540D01*
X76584992Y-101594443D01*
X76711370Y-101510000D01*
X135450392Y-101510000D01*
X135500000Y-101514886D01*
X135697994Y-101495385D01*
X135888380Y-101437632D01*
X136063840Y-101343847D01*
X136217633Y-101217633D01*
X136249261Y-101179094D01*
X138179094Y-99249261D01*
X138217633Y-99217633D01*
X138343847Y-99063840D01*
X138437632Y-98888380D01*
X138495385Y-98697993D01*
X138510000Y-98549607D01*
X138510000Y-98549606D01*
X138514886Y-98500001D01*
X138510000Y-98450396D01*
X138510000Y-82010000D01*
X151950392Y-82010000D01*
X152000000Y-82014886D01*
X152197994Y-81995385D01*
X152258891Y-81976912D01*
X152388380Y-81937632D01*
X152563840Y-81843847D01*
X152717633Y-81717633D01*
X152749261Y-81679094D01*
X154179094Y-80249261D01*
X154217633Y-80217633D01*
X154343847Y-80063840D01*
X154437632Y-79888380D01*
X154495385Y-79697994D01*
X154510000Y-79549608D01*
X154510000Y-79549606D01*
X154514886Y-79500001D01*
X154510000Y-79450396D01*
X154510000Y-39279608D01*
X154514886Y-39230000D01*
X154495385Y-39032005D01*
X154437632Y-38841620D01*
X154357456Y-38691621D01*
X154343847Y-38666160D01*
X154217633Y-38512367D01*
X154179099Y-38480743D01*
X152849261Y-37150906D01*
X152817633Y-37112367D01*
X152663840Y-36986153D01*
X152488380Y-36892368D01*
X152297994Y-36834615D01*
X152149608Y-36820000D01*
X152100000Y-36815114D01*
X152050392Y-36820000D01*
X150465038Y-36820000D01*
X150439502Y-36735820D01*
X150380537Y-36625506D01*
X150301185Y-36528815D01*
X150204494Y-36449463D01*
X150094180Y-36390498D01*
X149974482Y-36354188D01*
X149850000Y-36341928D01*
X148150000Y-36341928D01*
X148025518Y-36354188D01*
X147905820Y-36390498D01*
X147795506Y-36449463D01*
X147698815Y-36528815D01*
X147619463Y-36625506D01*
X147560498Y-36735820D01*
X147524188Y-36855518D01*
X147511928Y-36980000D01*
X147511928Y-38680000D01*
X147524188Y-38804482D01*
X147560498Y-38924180D01*
X147619463Y-39034494D01*
X147698815Y-39131185D01*
X147795506Y-39210537D01*
X147905820Y-39269502D01*
X147986466Y-39293966D01*
X147902412Y-39369731D01*
X147728359Y-39603080D01*
X147603175Y-39865901D01*
X147558524Y-40013110D01*
X147679845Y-40243000D01*
X148873000Y-40243000D01*
X148873000Y-40223000D01*
X149127000Y-40223000D01*
X149127000Y-40243000D01*
X150320155Y-40243000D01*
X150441476Y-40013110D01*
X150396825Y-39865901D01*
X150271641Y-39603080D01*
X150097588Y-39369731D01*
X150013534Y-39293966D01*
X150094180Y-39269502D01*
X150204494Y-39210537D01*
X150301185Y-39131185D01*
X150380537Y-39034494D01*
X150439502Y-38924180D01*
X150465038Y-38840000D01*
X151681645Y-38840000D01*
X152490001Y-39648357D01*
X152490001Y-47511645D01*
X150485000Y-45506645D01*
X150485000Y-45303740D01*
X150427932Y-45016842D01*
X150315990Y-44746589D01*
X150153475Y-44503368D01*
X149946632Y-44296525D01*
X149772240Y-44180000D01*
X149946632Y-44063475D01*
X150153475Y-43856632D01*
X150315990Y-43613411D01*
X150427932Y-43343158D01*
X150485000Y-43056260D01*
X150485000Y-42763740D01*
X150427932Y-42476842D01*
X150315990Y-42206589D01*
X150153475Y-41963368D01*
X149946632Y-41756525D01*
X149764466Y-41634805D01*
X149881355Y-41565178D01*
X150097588Y-41370269D01*
X150271641Y-41136920D01*
X150396825Y-40874099D01*
X150441476Y-40726890D01*
X150320155Y-40497000D01*
X149127000Y-40497000D01*
X149127000Y-40517000D01*
X148873000Y-40517000D01*
X148873000Y-40497000D01*
X147679845Y-40497000D01*
X147558524Y-40726890D01*
X147603175Y-40874099D01*
X147728359Y-41136920D01*
X147902412Y-41370269D01*
X148118645Y-41565178D01*
X148235534Y-41634805D01*
X148053368Y-41756525D01*
X147846525Y-41963368D01*
X147828730Y-41990000D01*
X146711370Y-41990000D01*
X146584992Y-41905557D01*
X146360236Y-41812460D01*
X146121637Y-41765000D01*
X145878363Y-41765000D01*
X145639764Y-41812460D01*
X145415008Y-41905557D01*
X145212733Y-42040713D01*
X145040713Y-42212733D01*
X144905557Y-42415008D01*
X144812460Y-42639764D01*
X144765000Y-42878363D01*
X144765000Y-43121637D01*
X144812460Y-43360236D01*
X144905557Y-43584992D01*
X145040713Y-43787267D01*
X145212733Y-43959287D01*
X145415008Y-44094443D01*
X145639764Y-44187540D01*
X145878363Y-44235000D01*
X146121637Y-44235000D01*
X146360236Y-44187540D01*
X146584992Y-44094443D01*
X146711370Y-44010000D01*
X147999893Y-44010000D01*
X148053368Y-44063475D01*
X148227760Y-44180000D01*
X148053368Y-44296525D01*
X147846525Y-44503368D01*
X147684010Y-44746589D01*
X147572068Y-45016842D01*
X147515000Y-45303740D01*
X147515000Y-45596260D01*
X147572068Y-45883158D01*
X147684010Y-46153411D01*
X147846525Y-46396632D01*
X148053368Y-46603475D01*
X148227760Y-46720000D01*
X148053368Y-46836525D01*
X147846525Y-47043368D01*
X147684010Y-47286589D01*
X147572068Y-47556842D01*
X147515000Y-47843740D01*
X147515000Y-47990000D01*
X122192506Y-47990000D01*
X122351493Y-47883768D01*
X122563768Y-47671493D01*
X122730551Y-47421885D01*
X122845434Y-47144534D01*
X122904000Y-46850101D01*
X122904000Y-46549899D01*
X122845434Y-46255466D01*
X122730551Y-45978115D01*
X122563768Y-45728507D01*
X122351493Y-45516232D01*
X122222438Y-45430000D01*
X122351493Y-45343768D01*
X122563768Y-45131493D01*
X122730551Y-44881885D01*
X122845434Y-44604534D01*
X122904000Y-44310101D01*
X122904000Y-44009899D01*
X122845434Y-43715466D01*
X122730551Y-43438115D01*
X122563768Y-43188507D01*
X122351493Y-42976232D01*
X122222438Y-42890000D01*
X122351493Y-42803768D01*
X122563768Y-42591493D01*
X122730551Y-42341885D01*
X122845434Y-42064534D01*
X122904000Y-41770101D01*
X122904000Y-41469899D01*
X122845434Y-41175466D01*
X122730551Y-40898115D01*
X122563768Y-40648507D01*
X122351493Y-40436232D01*
X122101885Y-40269449D01*
X121824534Y-40154566D01*
X121530101Y-40096000D01*
X121229899Y-40096000D01*
X120935466Y-40154566D01*
X120658115Y-40269449D01*
X120408507Y-40436232D01*
X120196232Y-40648507D01*
X120029449Y-40898115D01*
X119914566Y-41175466D01*
X119856000Y-41469899D01*
X119856000Y-41770101D01*
X119914566Y-42064534D01*
X120029449Y-42341885D01*
X120196232Y-42591493D01*
X120408507Y-42803768D01*
X120537562Y-42890000D01*
X120408507Y-42976232D01*
X120196232Y-43188507D01*
X120029449Y-43438115D01*
X119914566Y-43715466D01*
X119856000Y-44009899D01*
X119856000Y-44310101D01*
X119914566Y-44604534D01*
X120029449Y-44881885D01*
X120196232Y-45131493D01*
X120408507Y-45343768D01*
X120537562Y-45430000D01*
X120408507Y-45516232D01*
X120196232Y-45728507D01*
X120029449Y-45978115D01*
X119914566Y-46255466D01*
X119856000Y-46549899D01*
X119856000Y-46850101D01*
X119914566Y-47144534D01*
X120029449Y-47421885D01*
X120196232Y-47671493D01*
X120408507Y-47883768D01*
X120567494Y-47990000D01*
X113549604Y-47990000D01*
X113499999Y-47985114D01*
X113450394Y-47990000D01*
X113450392Y-47990000D01*
X113302006Y-48004615D01*
X113111620Y-48062368D01*
X112936160Y-48156153D01*
X112782367Y-48282367D01*
X112750739Y-48320906D01*
X111320906Y-49750739D01*
X111282367Y-49782367D01*
X111156153Y-49936160D01*
X111062369Y-50111620D01*
X111062368Y-50111621D01*
X111004615Y-50302006D01*
X110985114Y-50500000D01*
X110990000Y-50549608D01*
X110990001Y-61950382D01*
X110985114Y-62000000D01*
X111004615Y-62197994D01*
X111062368Y-62388379D01*
X111062369Y-62388380D01*
X111156154Y-62563840D01*
X111282368Y-62717633D01*
X111320901Y-62749256D01*
X112005739Y-63434094D01*
X112037367Y-63472633D01*
X112191160Y-63598847D01*
X112366620Y-63692632D01*
X112557006Y-63750385D01*
X112705392Y-63765000D01*
X112705394Y-63765000D01*
X112754999Y-63769886D01*
X112804604Y-63765000D01*
X113788630Y-63765000D01*
X113915008Y-63849443D01*
X114139764Y-63942540D01*
X114378363Y-63990000D01*
X114621637Y-63990000D01*
X114860236Y-63942540D01*
X115084992Y-63849443D01*
X115287267Y-63714287D01*
X115459287Y-63542267D01*
X115594443Y-63339992D01*
X115687540Y-63115236D01*
X115735000Y-62876637D01*
X115735000Y-62633363D01*
X115687540Y-62394764D01*
X115594443Y-62170008D01*
X115459287Y-61967733D01*
X115386554Y-61895000D01*
X122065392Y-61895000D01*
X122115000Y-61899886D01*
X122312994Y-61880385D01*
X122379416Y-61860236D01*
X122503380Y-61822632D01*
X122678840Y-61728847D01*
X122832633Y-61602633D01*
X122864261Y-61564094D01*
X125211163Y-59217192D01*
X125281235Y-59203254D01*
X125312460Y-59360236D01*
X125405557Y-59584992D01*
X125540713Y-59787267D01*
X125712733Y-59959287D01*
X125849393Y-60050600D01*
X125812460Y-60139764D01*
X125765000Y-60378363D01*
X125765000Y-60621637D01*
X125812460Y-60860236D01*
X125905557Y-61084992D01*
X126040713Y-61287267D01*
X126212733Y-61459287D01*
X126415008Y-61594443D01*
X126639764Y-61687540D01*
X126878363Y-61735000D01*
X127121637Y-61735000D01*
X127360236Y-61687540D01*
X127584992Y-61594443D01*
X127711370Y-61510000D01*
X129950392Y-61510000D01*
X130000000Y-61514886D01*
X130197994Y-61495385D01*
X130281703Y-61469992D01*
X130388380Y-61437632D01*
X130563840Y-61343847D01*
X130717633Y-61217633D01*
X130749261Y-61179094D01*
X131179094Y-60749261D01*
X131217633Y-60717633D01*
X131343847Y-60563840D01*
X131437632Y-60388380D01*
X131463834Y-60302005D01*
X131495385Y-60197995D01*
X131514886Y-60000000D01*
X131510000Y-59950392D01*
X131510000Y-57049604D01*
X131514886Y-56999999D01*
X131510000Y-56950392D01*
X131495385Y-56802006D01*
X131437632Y-56611620D01*
X131343847Y-56436160D01*
X131217633Y-56282367D01*
X131179094Y-56250739D01*
X129249261Y-54320906D01*
X129217633Y-54282367D01*
X129063840Y-54156153D01*
X128888380Y-54062368D01*
X128697994Y-54004615D01*
X128549608Y-53990000D01*
X128500000Y-53985114D01*
X128450392Y-53990000D01*
X117549608Y-53990000D01*
X117500000Y-53985114D01*
X117302005Y-54004615D01*
X117111620Y-54062368D01*
X116936160Y-54156153D01*
X116782367Y-54282367D01*
X116750744Y-54320900D01*
X114336644Y-56735001D01*
X114149607Y-56735001D01*
X114099999Y-56730115D01*
X113902004Y-56749616D01*
X113797151Y-56781423D01*
X113711619Y-56807369D01*
X113536159Y-56901154D01*
X113382366Y-57027368D01*
X113350738Y-57065907D01*
X113288837Y-57127808D01*
X113139764Y-57157460D01*
X113010000Y-57211210D01*
X113010000Y-50918355D01*
X113918355Y-50010000D01*
X147608039Y-50010000D01*
X147572068Y-50096842D01*
X147515000Y-50383740D01*
X147515000Y-50676260D01*
X147572068Y-50963158D01*
X147684010Y-51233411D01*
X147846525Y-51476632D01*
X148053368Y-51683475D01*
X148227760Y-51800000D01*
X148053368Y-51916525D01*
X147846525Y-52123368D01*
X147684010Y-52366589D01*
X147572068Y-52636842D01*
X147515000Y-52923740D01*
X147515000Y-53216260D01*
X147572068Y-53503158D01*
X147684010Y-53773411D01*
X147846525Y-54016632D01*
X147990000Y-54160107D01*
X147990001Y-55081643D01*
X137081645Y-65990000D01*
X129418356Y-65990000D01*
X126717192Y-63288837D01*
X126687540Y-63139764D01*
X126594443Y-62915008D01*
X126459287Y-62712733D01*
X126287267Y-62540713D01*
X126084992Y-62405557D01*
X125860236Y-62312460D01*
X125621637Y-62265000D01*
X125378363Y-62265000D01*
X125139764Y-62312460D01*
X124915008Y-62405557D01*
X124712733Y-62540713D01*
X124540713Y-62712733D01*
X124405557Y-62915008D01*
X124312460Y-63139764D01*
X124265000Y-63378363D01*
X124265000Y-63621637D01*
X124312460Y-63860236D01*
X124405557Y-64084992D01*
X124540713Y-64287267D01*
X124712733Y-64459287D01*
X124915008Y-64594443D01*
X125139764Y-64687540D01*
X125288837Y-64717192D01*
X128250744Y-67679100D01*
X128282367Y-67717633D01*
X128436160Y-67843847D01*
X128611620Y-67937632D01*
X128802006Y-67995385D01*
X128950392Y-68010000D01*
X128950401Y-68010000D01*
X128999999Y-68014885D01*
X129049597Y-68010000D01*
X137450392Y-68010000D01*
X137500000Y-68014886D01*
X137697994Y-67995385D01*
X137697997Y-67995384D01*
X137888380Y-67937632D01*
X138063840Y-67843847D01*
X138217633Y-67717633D01*
X138249261Y-67679094D01*
X138600503Y-67327852D01*
X145851753Y-67327852D01*
X145980076Y-67619871D01*
X146315695Y-67787723D01*
X146677611Y-67886874D01*
X147051916Y-67913514D01*
X147424227Y-67866618D01*
X147780235Y-67747988D01*
X148019924Y-67619871D01*
X148148247Y-67327852D01*
X147000000Y-66179605D01*
X145851753Y-67327852D01*
X138600503Y-67327852D01*
X139876439Y-66051916D01*
X145086486Y-66051916D01*
X145133382Y-66424227D01*
X145252012Y-66780235D01*
X145380129Y-67019924D01*
X145672148Y-67148247D01*
X146820395Y-66000000D01*
X147179605Y-66000000D01*
X148327852Y-67148247D01*
X148619871Y-67019924D01*
X148787723Y-66684305D01*
X148886874Y-66322389D01*
X148913514Y-65948084D01*
X148866618Y-65575773D01*
X148747988Y-65219765D01*
X148619871Y-64980076D01*
X148327852Y-64851753D01*
X147179605Y-66000000D01*
X146820395Y-66000000D01*
X145672148Y-64851753D01*
X145380129Y-64980076D01*
X145212277Y-65315695D01*
X145113126Y-65677611D01*
X145086486Y-66051916D01*
X139876439Y-66051916D01*
X141256207Y-64672148D01*
X145851753Y-64672148D01*
X147000000Y-65820395D01*
X148148247Y-64672148D01*
X148019924Y-64380129D01*
X147684305Y-64212277D01*
X147322389Y-64113126D01*
X146948084Y-64086486D01*
X146575773Y-64133382D01*
X146219765Y-64252012D01*
X145980076Y-64380129D01*
X145851753Y-64672148D01*
X141256207Y-64672148D01*
X147271922Y-58656434D01*
X147312460Y-58860236D01*
X147405557Y-59084992D01*
X147540713Y-59287267D01*
X147712733Y-59459287D01*
X147915008Y-59594443D01*
X148139764Y-59687540D01*
X148288837Y-59717192D01*
X149490001Y-60918356D01*
X149490000Y-74581645D01*
X148581645Y-75490000D01*
X127418356Y-75490000D01*
X127041015Y-75112659D01*
X127084992Y-75094443D01*
X127287267Y-74959287D01*
X127459287Y-74787267D01*
X127594443Y-74584992D01*
X127687540Y-74360236D01*
X127735000Y-74121637D01*
X127735000Y-73878363D01*
X127687540Y-73639764D01*
X127594443Y-73415008D01*
X127510000Y-73288630D01*
X127510000Y-71211370D01*
X127594443Y-71084992D01*
X127687540Y-70860236D01*
X127697060Y-70812374D01*
X145095000Y-70812374D01*
X145095000Y-71187626D01*
X145168209Y-71555668D01*
X145311811Y-71902356D01*
X145520290Y-72214366D01*
X145785634Y-72479710D01*
X146097644Y-72688189D01*
X146444332Y-72831791D01*
X146812374Y-72905000D01*
X147187626Y-72905000D01*
X147555668Y-72831791D01*
X147902356Y-72688189D01*
X148214366Y-72479710D01*
X148479710Y-72214366D01*
X148688189Y-71902356D01*
X148831791Y-71555668D01*
X148905000Y-71187626D01*
X148905000Y-70812374D01*
X148831791Y-70444332D01*
X148688189Y-70097644D01*
X148479710Y-69785634D01*
X148214366Y-69520290D01*
X147902356Y-69311811D01*
X147555668Y-69168209D01*
X147187626Y-69095000D01*
X146812374Y-69095000D01*
X146444332Y-69168209D01*
X146097644Y-69311811D01*
X145785634Y-69520290D01*
X145520290Y-69785634D01*
X145311811Y-70097644D01*
X145168209Y-70444332D01*
X145095000Y-70812374D01*
X127697060Y-70812374D01*
X127735000Y-70621637D01*
X127735000Y-70378363D01*
X127687540Y-70139764D01*
X127594443Y-69915008D01*
X127459287Y-69712733D01*
X127287267Y-69540713D01*
X127084992Y-69405557D01*
X126860236Y-69312460D01*
X126621637Y-69265000D01*
X126378363Y-69265000D01*
X126139764Y-69312460D01*
X125915008Y-69405557D01*
X125712733Y-69540713D01*
X125540713Y-69712733D01*
X125405557Y-69915008D01*
X125312460Y-70139764D01*
X125282808Y-70288836D01*
X124461645Y-71110000D01*
X64664588Y-71110000D01*
X64653475Y-71093368D01*
X64521620Y-70961513D01*
X64594180Y-70939502D01*
X64704494Y-70880537D01*
X64801185Y-70801185D01*
X64880537Y-70704494D01*
X64939502Y-70594180D01*
X64975812Y-70474482D01*
X64988072Y-70350000D01*
X64985000Y-69785750D01*
X64826250Y-69627000D01*
X63627000Y-69627000D01*
X63627000Y-69647000D01*
X63373000Y-69647000D01*
X63373000Y-69627000D01*
X62173750Y-69627000D01*
X62015000Y-69785750D01*
X62011928Y-70350000D01*
X45185000Y-70350000D01*
X45185000Y-67878363D01*
X46265000Y-67878363D01*
X46265000Y-68121637D01*
X46312460Y-68360236D01*
X46405557Y-68584992D01*
X46540713Y-68787267D01*
X46712733Y-68959287D01*
X46915008Y-69094443D01*
X47139764Y-69187540D01*
X47378363Y-69235000D01*
X47621637Y-69235000D01*
X47860236Y-69187540D01*
X48084992Y-69094443D01*
X48287267Y-68959287D01*
X48459287Y-68787267D01*
X48594443Y-68584992D01*
X48687540Y-68360236D01*
X48735000Y-68121637D01*
X48735000Y-67878363D01*
X48765000Y-67878363D01*
X48765000Y-68121637D01*
X48812460Y-68360236D01*
X48905557Y-68584992D01*
X49040713Y-68787267D01*
X49212733Y-68959287D01*
X49415008Y-69094443D01*
X49639764Y-69187540D01*
X49878363Y-69235000D01*
X50121637Y-69235000D01*
X50360236Y-69187540D01*
X50584992Y-69094443D01*
X50787267Y-68959287D01*
X50959287Y-68787267D01*
X51094443Y-68584992D01*
X51187540Y-68360236D01*
X51235000Y-68121637D01*
X51235000Y-67878363D01*
X51187540Y-67639764D01*
X51094443Y-67415008D01*
X50959287Y-67212733D01*
X50787267Y-67040713D01*
X50584992Y-66905557D01*
X50360236Y-66812460D01*
X50121637Y-66765000D01*
X49878363Y-66765000D01*
X49639764Y-66812460D01*
X49415008Y-66905557D01*
X49212733Y-67040713D01*
X49040713Y-67212733D01*
X48905557Y-67415008D01*
X48812460Y-67639764D01*
X48765000Y-67878363D01*
X48735000Y-67878363D01*
X48687540Y-67639764D01*
X48594443Y-67415008D01*
X48459287Y-67212733D01*
X48287267Y-67040713D01*
X48084992Y-66905557D01*
X47860236Y-66812460D01*
X47621637Y-66765000D01*
X47378363Y-66765000D01*
X47139764Y-66812460D01*
X46915008Y-66905557D01*
X46712733Y-67040713D01*
X46540713Y-67212733D01*
X46405557Y-67415008D01*
X46312460Y-67639764D01*
X46265000Y-67878363D01*
X45185000Y-67878363D01*
X45185000Y-64242349D01*
X48937256Y-64242349D01*
X49051118Y-64522090D01*
X49366296Y-64677961D01*
X49705826Y-64769349D01*
X50056661Y-64792741D01*
X50405319Y-64747240D01*
X50738400Y-64634594D01*
X50948882Y-64522090D01*
X51062744Y-64242349D01*
X50000000Y-63179605D01*
X48937256Y-64242349D01*
X45185000Y-64242349D01*
X45185000Y-63056661D01*
X48207259Y-63056661D01*
X48252760Y-63405319D01*
X48365406Y-63738400D01*
X48477910Y-63948882D01*
X48757651Y-64062744D01*
X49820395Y-63000000D01*
X50179605Y-63000000D01*
X51242349Y-64062744D01*
X51522090Y-63948882D01*
X51677961Y-63633704D01*
X51769349Y-63294174D01*
X51792741Y-62943339D01*
X51747240Y-62594681D01*
X51634594Y-62261600D01*
X51522090Y-62051118D01*
X51242349Y-61937256D01*
X50179605Y-63000000D01*
X49820395Y-63000000D01*
X48757651Y-61937256D01*
X48477910Y-62051118D01*
X48322039Y-62366296D01*
X48230651Y-62705826D01*
X48207259Y-63056661D01*
X45185000Y-63056661D01*
X45185000Y-61757651D01*
X48937256Y-61757651D01*
X50000000Y-62820395D01*
X51062744Y-61757651D01*
X50948882Y-61477910D01*
X50633704Y-61322039D01*
X50294174Y-61230651D01*
X49943339Y-61207259D01*
X49594681Y-61252760D01*
X49261600Y-61365406D01*
X49051118Y-61477910D01*
X48937256Y-61757651D01*
X45185000Y-61757651D01*
X45185000Y-57878363D01*
X46265000Y-57878363D01*
X46265000Y-58121637D01*
X46312460Y-58360236D01*
X46405557Y-58584992D01*
X46540713Y-58787267D01*
X46712733Y-58959287D01*
X46915008Y-59094443D01*
X47139764Y-59187540D01*
X47378363Y-59235000D01*
X47621637Y-59235000D01*
X47860236Y-59187540D01*
X48084992Y-59094443D01*
X48287267Y-58959287D01*
X48459287Y-58787267D01*
X48594443Y-58584992D01*
X48687540Y-58360236D01*
X48735000Y-58121637D01*
X48735000Y-57878363D01*
X48765000Y-57878363D01*
X48765000Y-58121637D01*
X48812460Y-58360236D01*
X48905557Y-58584992D01*
X49040713Y-58787267D01*
X49212733Y-58959287D01*
X49415008Y-59094443D01*
X49639764Y-59187540D01*
X49878363Y-59235000D01*
X50121637Y-59235000D01*
X50360236Y-59187540D01*
X50584992Y-59094443D01*
X50787267Y-58959287D01*
X50959287Y-58787267D01*
X51094443Y-58584992D01*
X51187540Y-58360236D01*
X51235000Y-58121637D01*
X51235000Y-57878363D01*
X51204334Y-57724193D01*
X53215000Y-57724193D01*
X53215000Y-58075807D01*
X53283596Y-58420665D01*
X53418153Y-58745515D01*
X53613500Y-59037871D01*
X53775629Y-59200000D01*
X53613500Y-59362129D01*
X53418153Y-59654485D01*
X53283596Y-59979335D01*
X53215000Y-60324193D01*
X53215000Y-60675807D01*
X53283596Y-61020665D01*
X53418153Y-61345515D01*
X53613500Y-61637871D01*
X53862129Y-61886500D01*
X54154485Y-62081847D01*
X54166586Y-62086860D01*
X54040713Y-62212733D01*
X53905557Y-62415008D01*
X53812460Y-62639764D01*
X53765000Y-62878363D01*
X53765000Y-63121637D01*
X53812460Y-63360236D01*
X53905557Y-63584992D01*
X54040713Y-63787267D01*
X54166586Y-63913140D01*
X54154485Y-63918153D01*
X53862129Y-64113500D01*
X53613500Y-64362129D01*
X53418153Y-64654485D01*
X53283596Y-64979335D01*
X53215000Y-65324193D01*
X53215000Y-65675807D01*
X53283596Y-66020665D01*
X53418153Y-66345515D01*
X53613500Y-66637871D01*
X53775629Y-66800000D01*
X53613500Y-66962129D01*
X53418153Y-67254485D01*
X53283596Y-67579335D01*
X53215000Y-67924193D01*
X53215000Y-68275807D01*
X53283596Y-68620665D01*
X53418153Y-68945515D01*
X53613500Y-69237871D01*
X53862129Y-69486500D01*
X54154485Y-69681847D01*
X54479335Y-69816404D01*
X54824193Y-69885000D01*
X55175807Y-69885000D01*
X55520665Y-69816404D01*
X55845515Y-69681847D01*
X56137871Y-69486500D01*
X56386500Y-69237871D01*
X56581847Y-68945515D01*
X56704253Y-68650000D01*
X62011928Y-68650000D01*
X62015000Y-69214250D01*
X62173750Y-69373000D01*
X63373000Y-69373000D01*
X63373000Y-68173750D01*
X63627000Y-68173750D01*
X63627000Y-69373000D01*
X64826250Y-69373000D01*
X64985000Y-69214250D01*
X64988072Y-68650000D01*
X64975812Y-68525518D01*
X64939502Y-68405820D01*
X64880537Y-68295506D01*
X64801185Y-68198815D01*
X64704494Y-68119463D01*
X64594180Y-68060498D01*
X64474482Y-68024188D01*
X64350000Y-68011928D01*
X63785750Y-68015000D01*
X63627000Y-68173750D01*
X63373000Y-68173750D01*
X63214250Y-68015000D01*
X62650000Y-68011928D01*
X62525518Y-68024188D01*
X62405820Y-68060498D01*
X62295506Y-68119463D01*
X62198815Y-68198815D01*
X62119463Y-68295506D01*
X62060498Y-68405820D01*
X62024188Y-68525518D01*
X62011928Y-68650000D01*
X56704253Y-68650000D01*
X56716404Y-68620665D01*
X56785000Y-68275807D01*
X56785000Y-67924193D01*
X56716404Y-67579335D01*
X56581847Y-67254485D01*
X56386500Y-66962129D01*
X56224371Y-66800000D01*
X56386500Y-66637871D01*
X56388418Y-66635000D01*
X62012921Y-66635000D01*
X62139764Y-66687540D01*
X62378363Y-66735000D01*
X62621637Y-66735000D01*
X62860236Y-66687540D01*
X63084992Y-66594443D01*
X63287267Y-66459287D01*
X63459287Y-66287267D01*
X63594443Y-66084992D01*
X63687540Y-65860236D01*
X63735000Y-65621637D01*
X63735000Y-65378363D01*
X63687540Y-65139764D01*
X63594443Y-64915008D01*
X63459287Y-64712733D01*
X63287267Y-64540713D01*
X63084992Y-64405557D01*
X62860236Y-64312460D01*
X62621637Y-64265000D01*
X62378363Y-64265000D01*
X62139764Y-64312460D01*
X62012921Y-64365000D01*
X56388418Y-64365000D01*
X56386500Y-64362129D01*
X56137871Y-64113500D01*
X55845515Y-63918153D01*
X55833414Y-63913140D01*
X55959287Y-63787267D01*
X56094443Y-63584992D01*
X56187540Y-63360236D01*
X56235000Y-63121637D01*
X56235000Y-62878363D01*
X56187540Y-62639764D01*
X56094443Y-62415008D01*
X55959287Y-62212733D01*
X55833414Y-62086860D01*
X55845515Y-62081847D01*
X56137871Y-61886500D01*
X56386500Y-61637871D01*
X56559898Y-61378363D01*
X86765000Y-61378363D01*
X86765000Y-61621637D01*
X86812460Y-61860236D01*
X86905557Y-62084992D01*
X87040713Y-62287267D01*
X87212733Y-62459287D01*
X87415008Y-62594443D01*
X87639764Y-62687540D01*
X87780673Y-62715568D01*
X87782367Y-62717633D01*
X87936160Y-62843847D01*
X88108866Y-62936160D01*
X88111620Y-62937632D01*
X88302005Y-62995385D01*
X88500000Y-63014886D01*
X88549608Y-63010000D01*
X98061644Y-63010000D01*
X95288837Y-65782808D01*
X95139764Y-65812460D01*
X94915008Y-65905557D01*
X94712733Y-66040713D01*
X94540713Y-66212733D01*
X94405557Y-66415008D01*
X94312460Y-66639764D01*
X94265000Y-66878363D01*
X94265000Y-67121637D01*
X94312460Y-67360236D01*
X94405557Y-67584992D01*
X94540713Y-67787267D01*
X94712733Y-67959287D01*
X94915008Y-68094443D01*
X95139764Y-68187540D01*
X95378363Y-68235000D01*
X95621637Y-68235000D01*
X95860236Y-68187540D01*
X96084992Y-68094443D01*
X96287267Y-67959287D01*
X96459287Y-67787267D01*
X96594443Y-67584992D01*
X96687540Y-67360236D01*
X96717192Y-67211163D01*
X99418356Y-64510000D01*
X100189433Y-64510000D01*
X100187460Y-64514764D01*
X100140000Y-64753363D01*
X100140000Y-64996637D01*
X100187460Y-65235236D01*
X100280557Y-65459992D01*
X100415713Y-65662267D01*
X100587733Y-65834287D01*
X100790008Y-65969443D01*
X101014764Y-66062540D01*
X101253363Y-66110000D01*
X101496637Y-66110000D01*
X101735236Y-66062540D01*
X101959992Y-65969443D01*
X102086370Y-65885000D01*
X106075392Y-65885000D01*
X106125000Y-65889886D01*
X106322994Y-65870385D01*
X106356451Y-65860236D01*
X106513380Y-65812632D01*
X106688840Y-65718847D01*
X106842633Y-65592633D01*
X106874261Y-65554094D01*
X108679094Y-63749261D01*
X108717633Y-63717633D01*
X108843847Y-63563840D01*
X108937632Y-63388380D01*
X108995385Y-63197994D01*
X109010000Y-63049608D01*
X109010000Y-63049606D01*
X109014886Y-63000001D01*
X109010000Y-62950396D01*
X109010000Y-51211370D01*
X109094443Y-51084992D01*
X109187540Y-50860236D01*
X109235000Y-50621637D01*
X109235000Y-50378363D01*
X109187540Y-50139764D01*
X109094443Y-49915008D01*
X108959287Y-49712733D01*
X108787267Y-49540713D01*
X108584992Y-49405557D01*
X108360236Y-49312460D01*
X108121637Y-49265000D01*
X107878363Y-49265000D01*
X107639764Y-49312460D01*
X107415008Y-49405557D01*
X107212733Y-49540713D01*
X107040713Y-49712733D01*
X106905557Y-49915008D01*
X106812460Y-50139764D01*
X106765000Y-50378363D01*
X106765000Y-50621637D01*
X106812460Y-50860236D01*
X106905557Y-51084992D01*
X106990000Y-51211370D01*
X106990001Y-60866210D01*
X106860236Y-60812460D01*
X106621637Y-60765000D01*
X106378363Y-60765000D01*
X106139764Y-60812460D01*
X105915008Y-60905557D01*
X105788630Y-60990000D01*
X89125506Y-60990000D01*
X89094443Y-60915008D01*
X88959287Y-60712733D01*
X88787267Y-60540713D01*
X88584992Y-60405557D01*
X88360236Y-60312460D01*
X88121637Y-60265000D01*
X87878363Y-60265000D01*
X87639764Y-60312460D01*
X87415008Y-60405557D01*
X87212733Y-60540713D01*
X87040713Y-60712733D01*
X86905557Y-60915008D01*
X86812460Y-61139764D01*
X86765000Y-61378363D01*
X56559898Y-61378363D01*
X56581847Y-61345515D01*
X56716404Y-61020665D01*
X56785000Y-60675807D01*
X56785000Y-60324193D01*
X56716404Y-59979335D01*
X56581847Y-59654485D01*
X56386500Y-59362129D01*
X56224371Y-59200000D01*
X56386500Y-59037871D01*
X56388418Y-59035000D01*
X61912921Y-59035000D01*
X62039764Y-59087540D01*
X62278363Y-59135000D01*
X62521637Y-59135000D01*
X62760236Y-59087540D01*
X62984992Y-58994443D01*
X63187267Y-58859287D01*
X63359287Y-58687267D01*
X63494443Y-58484992D01*
X63587540Y-58260236D01*
X63635000Y-58021637D01*
X63635000Y-57778363D01*
X63587540Y-57539764D01*
X63494443Y-57315008D01*
X63359287Y-57112733D01*
X63187267Y-56940713D01*
X62984992Y-56805557D01*
X62760236Y-56712460D01*
X62521637Y-56665000D01*
X62278363Y-56665000D01*
X62039764Y-56712460D01*
X61912921Y-56765000D01*
X56388418Y-56765000D01*
X56386500Y-56762129D01*
X56137871Y-56513500D01*
X55935626Y-56378363D01*
X82265000Y-56378363D01*
X82265000Y-56621637D01*
X82312460Y-56860236D01*
X82405557Y-57084992D01*
X82540713Y-57287267D01*
X82712733Y-57459287D01*
X82915008Y-57594443D01*
X83139764Y-57687540D01*
X83378363Y-57735000D01*
X83621637Y-57735000D01*
X83860236Y-57687540D01*
X84084992Y-57594443D01*
X84211370Y-57510000D01*
X86950393Y-57510000D01*
X87000000Y-57514886D01*
X87049608Y-57510000D01*
X93288630Y-57510000D01*
X93415008Y-57594443D01*
X93639764Y-57687540D01*
X93878363Y-57735000D01*
X94121637Y-57735000D01*
X94360236Y-57687540D01*
X94584992Y-57594443D01*
X94787267Y-57459287D01*
X94959287Y-57287267D01*
X95094443Y-57084992D01*
X95187540Y-56860236D01*
X95235000Y-56621637D01*
X95235000Y-56378363D01*
X95187540Y-56139764D01*
X95094443Y-55915008D01*
X94959287Y-55712733D01*
X94787267Y-55540713D01*
X94584992Y-55405557D01*
X94360236Y-55312460D01*
X94121637Y-55265000D01*
X93878363Y-55265000D01*
X93639764Y-55312460D01*
X93415008Y-55405557D01*
X93288630Y-55490000D01*
X88010000Y-55490000D01*
X88010000Y-45366231D01*
X98313374Y-45366231D01*
X98395727Y-45619289D01*
X98666418Y-45749086D01*
X98957230Y-45823580D01*
X99256988Y-45839908D01*
X99554171Y-45797443D01*
X99837359Y-45697816D01*
X99984273Y-45619289D01*
X100066626Y-45366231D01*
X99190000Y-44489605D01*
X98313374Y-45366231D01*
X88010000Y-45366231D01*
X88010000Y-43827852D01*
X93351753Y-43827852D01*
X93480076Y-44119871D01*
X93815695Y-44287723D01*
X94177611Y-44386874D01*
X94551916Y-44413514D01*
X94841898Y-44376988D01*
X97660092Y-44376988D01*
X97702557Y-44674171D01*
X97802184Y-44957359D01*
X97880711Y-45104273D01*
X98133769Y-45186626D01*
X99010395Y-44310000D01*
X99369605Y-44310000D01*
X100246231Y-45186626D01*
X100499289Y-45104273D01*
X100629086Y-44833582D01*
X100703580Y-44542770D01*
X100719908Y-44243012D01*
X100677443Y-43945829D01*
X100577816Y-43662641D01*
X100499289Y-43515727D01*
X100246231Y-43433374D01*
X99369605Y-44310000D01*
X99010395Y-44310000D01*
X98133769Y-43433374D01*
X97880711Y-43515727D01*
X97750914Y-43786418D01*
X97676420Y-44077230D01*
X97660092Y-44376988D01*
X94841898Y-44376988D01*
X94924227Y-44366618D01*
X95280235Y-44247988D01*
X95519924Y-44119871D01*
X95648247Y-43827852D01*
X94500000Y-42679605D01*
X93351753Y-43827852D01*
X88010000Y-43827852D01*
X88010000Y-42551916D01*
X92586486Y-42551916D01*
X92633382Y-42924227D01*
X92752012Y-43280235D01*
X92880129Y-43519924D01*
X93172148Y-43648247D01*
X94320395Y-42500000D01*
X94679605Y-42500000D01*
X95827852Y-43648247D01*
X96119871Y-43519924D01*
X96287723Y-43184305D01*
X96385821Y-42826231D01*
X98313374Y-42826231D01*
X98382941Y-43040000D01*
X98313374Y-43253769D01*
X99190000Y-44130395D01*
X100066626Y-43253769D01*
X99997059Y-43040000D01*
X100066626Y-42826231D01*
X99190000Y-41949605D01*
X98313374Y-42826231D01*
X96385821Y-42826231D01*
X96386874Y-42822389D01*
X96413514Y-42448084D01*
X96366618Y-42075773D01*
X96287050Y-41836988D01*
X97660092Y-41836988D01*
X97702557Y-42134171D01*
X97802184Y-42417359D01*
X97880711Y-42564273D01*
X98133769Y-42646626D01*
X99010395Y-41770000D01*
X99369605Y-41770000D01*
X100246231Y-42646626D01*
X100499289Y-42564273D01*
X100629086Y-42293582D01*
X100703580Y-42002770D01*
X100719908Y-41703012D01*
X100677443Y-41405829D01*
X100577816Y-41122641D01*
X100499289Y-40975727D01*
X100246231Y-40893374D01*
X99369605Y-41770000D01*
X99010395Y-41770000D01*
X98133769Y-40893374D01*
X97880711Y-40975727D01*
X97750914Y-41246418D01*
X97676420Y-41537230D01*
X97660092Y-41836988D01*
X96287050Y-41836988D01*
X96247988Y-41719765D01*
X96119871Y-41480076D01*
X95827852Y-41351753D01*
X94679605Y-42500000D01*
X94320395Y-42500000D01*
X93172148Y-41351753D01*
X92880129Y-41480076D01*
X92712277Y-41815695D01*
X92613126Y-42177611D01*
X92586486Y-42551916D01*
X88010000Y-42551916D01*
X88010000Y-41172148D01*
X93351753Y-41172148D01*
X94500000Y-42320395D01*
X95648247Y-41172148D01*
X95519924Y-40880129D01*
X95187289Y-40713769D01*
X98313374Y-40713769D01*
X99190000Y-41590395D01*
X100066626Y-40713769D01*
X99984273Y-40460711D01*
X99713582Y-40330914D01*
X99422770Y-40256420D01*
X99123012Y-40240092D01*
X98825829Y-40282557D01*
X98542641Y-40382184D01*
X98395727Y-40460711D01*
X98313374Y-40713769D01*
X95187289Y-40713769D01*
X95184305Y-40712277D01*
X94822389Y-40613126D01*
X94448084Y-40586486D01*
X94075773Y-40633382D01*
X93719765Y-40752012D01*
X93480076Y-40880129D01*
X93351753Y-41172148D01*
X88010000Y-41172148D01*
X88010000Y-36230000D01*
X92591928Y-36230000D01*
X92591928Y-38770000D01*
X92604188Y-38894482D01*
X92640498Y-39014180D01*
X92699463Y-39124494D01*
X92778815Y-39221185D01*
X92875506Y-39300537D01*
X92985820Y-39359502D01*
X93105518Y-39395812D01*
X93230000Y-39408072D01*
X95770000Y-39408072D01*
X95894482Y-39395812D01*
X96014180Y-39359502D01*
X96124494Y-39300537D01*
X96221185Y-39221185D01*
X96300537Y-39124494D01*
X96359502Y-39014180D01*
X96395812Y-38894482D01*
X96408072Y-38770000D01*
X96408072Y-36539899D01*
X105286000Y-36539899D01*
X105286000Y-36840101D01*
X105344566Y-37134534D01*
X105459449Y-37411885D01*
X105626232Y-37661493D01*
X105838507Y-37873768D01*
X105967562Y-37960000D01*
X105838507Y-38046232D01*
X105626232Y-38258507D01*
X105459449Y-38508115D01*
X105344566Y-38785466D01*
X105286000Y-39079899D01*
X105286000Y-39380101D01*
X105344566Y-39674534D01*
X105459449Y-39951885D01*
X105626232Y-40201493D01*
X105838507Y-40413768D01*
X106088115Y-40580551D01*
X106365466Y-40695434D01*
X106659899Y-40754000D01*
X106960101Y-40754000D01*
X107254534Y-40695434D01*
X107531885Y-40580551D01*
X107781493Y-40413768D01*
X107993768Y-40201493D01*
X108160551Y-39951885D01*
X108275434Y-39674534D01*
X108334000Y-39380101D01*
X108334000Y-39079899D01*
X108275434Y-38785466D01*
X108160551Y-38508115D01*
X107993768Y-38258507D01*
X107781493Y-38046232D01*
X107652438Y-37960000D01*
X107781493Y-37873768D01*
X107993768Y-37661493D01*
X108160551Y-37411885D01*
X108275434Y-37134534D01*
X108334000Y-36840101D01*
X108334000Y-36539899D01*
X108275434Y-36245466D01*
X108239991Y-36159899D01*
X114286000Y-36159899D01*
X114286000Y-36460101D01*
X114344566Y-36754534D01*
X114459449Y-37031885D01*
X114626232Y-37281493D01*
X114838507Y-37493768D01*
X115088115Y-37660551D01*
X115365466Y-37775434D01*
X115659899Y-37834000D01*
X115960101Y-37834000D01*
X116254534Y-37775434D01*
X116531885Y-37660551D01*
X116781493Y-37493768D01*
X116993768Y-37281493D01*
X117160551Y-37031885D01*
X117275434Y-36754534D01*
X117334000Y-36460101D01*
X117334000Y-36389899D01*
X127476000Y-36389899D01*
X127476000Y-36690101D01*
X127534566Y-36984534D01*
X127649449Y-37261885D01*
X127816232Y-37511493D01*
X128028507Y-37723768D01*
X128157562Y-37810000D01*
X128028507Y-37896232D01*
X127816232Y-38108507D01*
X127649449Y-38358115D01*
X127534566Y-38635466D01*
X127476000Y-38929899D01*
X127476000Y-39230101D01*
X127534566Y-39524534D01*
X127649449Y-39801885D01*
X127816232Y-40051493D01*
X128028507Y-40263768D01*
X128278115Y-40430551D01*
X128555466Y-40545434D01*
X128849899Y-40604000D01*
X129150101Y-40604000D01*
X129444534Y-40545434D01*
X129721885Y-40430551D01*
X129971493Y-40263768D01*
X130183768Y-40051493D01*
X130350551Y-39801885D01*
X130465434Y-39524534D01*
X130524000Y-39230101D01*
X130524000Y-38929899D01*
X130465434Y-38635466D01*
X130350551Y-38358115D01*
X130183768Y-38108507D01*
X129971493Y-37896232D01*
X129842438Y-37810000D01*
X129971493Y-37723768D01*
X130183768Y-37511493D01*
X130350551Y-37261885D01*
X130465434Y-36984534D01*
X130524000Y-36690101D01*
X130524000Y-36389899D01*
X130465434Y-36095466D01*
X130350551Y-35818115D01*
X130183768Y-35568507D01*
X129971493Y-35356232D01*
X129813378Y-35250583D01*
X129876626Y-35056231D01*
X129000000Y-34179605D01*
X128123374Y-35056231D01*
X128186622Y-35250583D01*
X128028507Y-35356232D01*
X127816232Y-35568507D01*
X127649449Y-35818115D01*
X127534566Y-36095466D01*
X127476000Y-36389899D01*
X117334000Y-36389899D01*
X117334000Y-36159899D01*
X117275434Y-35865466D01*
X117160551Y-35588115D01*
X116993768Y-35338507D01*
X116781493Y-35126232D01*
X116531885Y-34959449D01*
X116254534Y-34844566D01*
X115960101Y-34786000D01*
X115659899Y-34786000D01*
X115365466Y-34844566D01*
X115088115Y-34959449D01*
X114838507Y-35126232D01*
X114626232Y-35338507D01*
X114459449Y-35588115D01*
X114344566Y-35865466D01*
X114286000Y-36159899D01*
X108239991Y-36159899D01*
X108160551Y-35968115D01*
X107993768Y-35718507D01*
X107781493Y-35506232D01*
X107531885Y-35339449D01*
X107254534Y-35224566D01*
X106960101Y-35166000D01*
X106659899Y-35166000D01*
X106365466Y-35224566D01*
X106088115Y-35339449D01*
X105838507Y-35506232D01*
X105626232Y-35718507D01*
X105459449Y-35968115D01*
X105344566Y-36245466D01*
X105286000Y-36539899D01*
X96408072Y-36539899D01*
X96408072Y-36230000D01*
X96395812Y-36105518D01*
X96359502Y-35985820D01*
X96300537Y-35875506D01*
X96221185Y-35778815D01*
X96124494Y-35699463D01*
X96014180Y-35640498D01*
X95894482Y-35604188D01*
X95770000Y-35591928D01*
X93230000Y-35591928D01*
X93105518Y-35604188D01*
X92985820Y-35640498D01*
X92875506Y-35699463D01*
X92778815Y-35778815D01*
X92699463Y-35875506D01*
X92640498Y-35985820D01*
X92604188Y-36105518D01*
X92591928Y-36230000D01*
X88010000Y-36230000D01*
X88010000Y-34066988D01*
X127470092Y-34066988D01*
X127512557Y-34364171D01*
X127612184Y-34647359D01*
X127690711Y-34794273D01*
X127943769Y-34876626D01*
X128820395Y-34000000D01*
X129179605Y-34000000D01*
X130056231Y-34876626D01*
X130309289Y-34794273D01*
X130439086Y-34523582D01*
X130513580Y-34232770D01*
X130529908Y-33933012D01*
X130487443Y-33635829D01*
X130387816Y-33352641D01*
X130309289Y-33205727D01*
X130056231Y-33123374D01*
X129179605Y-34000000D01*
X128820395Y-34000000D01*
X127943769Y-33123374D01*
X127690711Y-33205727D01*
X127560914Y-33476418D01*
X127486420Y-33767230D01*
X127470092Y-34066988D01*
X88010000Y-34066988D01*
X88010000Y-32943769D01*
X128123374Y-32943769D01*
X129000000Y-33820395D01*
X129876626Y-32943769D01*
X129794273Y-32690711D01*
X129523582Y-32560914D01*
X129232770Y-32486420D01*
X128933012Y-32470092D01*
X128635829Y-32512557D01*
X128352641Y-32612184D01*
X128205727Y-32690711D01*
X128123374Y-32943769D01*
X88010000Y-32943769D01*
X88010000Y-32918355D01*
X88918355Y-32010000D01*
X109288630Y-32010000D01*
X109415008Y-32094443D01*
X109639764Y-32187540D01*
X109878363Y-32235000D01*
X110121637Y-32235000D01*
X110360236Y-32187540D01*
X110584992Y-32094443D01*
X110787267Y-31959287D01*
X110959287Y-31787267D01*
X111094443Y-31584992D01*
X111187540Y-31360236D01*
X111235000Y-31121637D01*
X111235000Y-30878363D01*
X111187540Y-30639764D01*
X111094443Y-30415008D01*
X110959287Y-30212733D01*
X110787267Y-30040713D01*
X110584992Y-29905557D01*
X110360236Y-29812460D01*
X110121637Y-29765000D01*
X109878363Y-29765000D01*
X109639764Y-29812460D01*
X109415008Y-29905557D01*
X109288630Y-29990000D01*
X108987540Y-29990000D01*
X109161493Y-29873768D01*
X109373768Y-29661493D01*
X109540551Y-29411885D01*
X109655434Y-29134534D01*
X109714000Y-28840101D01*
X109714000Y-28539899D01*
X109655434Y-28245466D01*
X109540551Y-27968115D01*
X109373768Y-27718507D01*
X109161493Y-27506232D01*
X108911885Y-27339449D01*
X108634534Y-27224566D01*
X108340101Y-27166000D01*
X108039899Y-27166000D01*
X107745466Y-27224566D01*
X107468115Y-27339449D01*
X107218507Y-27506232D01*
X107006232Y-27718507D01*
X106839449Y-27968115D01*
X106724566Y-28245466D01*
X106666000Y-28539899D01*
X106666000Y-28840101D01*
X106724566Y-29134534D01*
X106839449Y-29411885D01*
X107006232Y-29661493D01*
X107218507Y-29873768D01*
X107392460Y-29990000D01*
X88549604Y-29990000D01*
X88499999Y-29985114D01*
X88450394Y-29990000D01*
X88450392Y-29990000D01*
X88302006Y-30004615D01*
X88111620Y-30062368D01*
X87936160Y-30156153D01*
X87782367Y-30282367D01*
X87750739Y-30320906D01*
X86320906Y-31750739D01*
X86282367Y-31782367D01*
X86156153Y-31936160D01*
X86115467Y-32012279D01*
X86062368Y-32111621D01*
X86004615Y-32302006D01*
X85985114Y-32500000D01*
X85990000Y-32549608D01*
X85990001Y-53450383D01*
X85990000Y-53450393D01*
X85990001Y-55490000D01*
X84211370Y-55490000D01*
X84084992Y-55405557D01*
X83860236Y-55312460D01*
X83621637Y-55265000D01*
X83378363Y-55265000D01*
X83139764Y-55312460D01*
X82915008Y-55405557D01*
X82712733Y-55540713D01*
X82540713Y-55712733D01*
X82405557Y-55915008D01*
X82312460Y-56139764D01*
X82265000Y-56378363D01*
X55935626Y-56378363D01*
X55845515Y-56318153D01*
X55520665Y-56183596D01*
X55175807Y-56115000D01*
X54824193Y-56115000D01*
X54479335Y-56183596D01*
X54154485Y-56318153D01*
X53862129Y-56513500D01*
X53613500Y-56762129D01*
X53418153Y-57054485D01*
X53283596Y-57379335D01*
X53215000Y-57724193D01*
X51204334Y-57724193D01*
X51187540Y-57639764D01*
X51094443Y-57415008D01*
X50959287Y-57212733D01*
X50787267Y-57040713D01*
X50584992Y-56905557D01*
X50360236Y-56812460D01*
X50121637Y-56765000D01*
X49878363Y-56765000D01*
X49639764Y-56812460D01*
X49415008Y-56905557D01*
X49212733Y-57040713D01*
X49040713Y-57212733D01*
X48905557Y-57415008D01*
X48812460Y-57639764D01*
X48765000Y-57878363D01*
X48735000Y-57878363D01*
X48687540Y-57639764D01*
X48594443Y-57415008D01*
X48459287Y-57212733D01*
X48287267Y-57040713D01*
X48084992Y-56905557D01*
X47860236Y-56812460D01*
X47621637Y-56765000D01*
X47378363Y-56765000D01*
X47139764Y-56812460D01*
X46915008Y-56905557D01*
X46712733Y-57040713D01*
X46540713Y-57212733D01*
X46405557Y-57415008D01*
X46312460Y-57639764D01*
X46265000Y-57878363D01*
X45185000Y-57878363D01*
X45185000Y-43939084D01*
X50257000Y-43939084D01*
X50257000Y-44380916D01*
X50343197Y-44814259D01*
X50512279Y-45222459D01*
X50757748Y-45589829D01*
X51070171Y-45902252D01*
X51437541Y-46147721D01*
X51845741Y-46316803D01*
X52279084Y-46403000D01*
X52720916Y-46403000D01*
X53154259Y-46316803D01*
X53562459Y-46147721D01*
X53929829Y-45902252D01*
X54242252Y-45589829D01*
X54391655Y-45366231D01*
X69123374Y-45366231D01*
X69205727Y-45619289D01*
X69476418Y-45749086D01*
X69767230Y-45823580D01*
X70066988Y-45839908D01*
X70364171Y-45797443D01*
X70647359Y-45697816D01*
X70794273Y-45619289D01*
X70876626Y-45366231D01*
X70000000Y-44489605D01*
X69123374Y-45366231D01*
X54391655Y-45366231D01*
X54487721Y-45222459D01*
X54656803Y-44814259D01*
X54743000Y-44380916D01*
X54743000Y-44376988D01*
X68470092Y-44376988D01*
X68512557Y-44674171D01*
X68612184Y-44957359D01*
X68690711Y-45104273D01*
X68943769Y-45186626D01*
X69820395Y-44310000D01*
X70179605Y-44310000D01*
X71056231Y-45186626D01*
X71309289Y-45104273D01*
X71439086Y-44833582D01*
X71513580Y-44542770D01*
X71529908Y-44243012D01*
X71487443Y-43945829D01*
X71445939Y-43827852D01*
X81351753Y-43827852D01*
X81480076Y-44119871D01*
X81815695Y-44287723D01*
X82177611Y-44386874D01*
X82551916Y-44413514D01*
X82924227Y-44366618D01*
X83280235Y-44247988D01*
X83519924Y-44119871D01*
X83648247Y-43827852D01*
X82500000Y-42679605D01*
X81351753Y-43827852D01*
X71445939Y-43827852D01*
X71387816Y-43662641D01*
X71309289Y-43515727D01*
X71056231Y-43433374D01*
X70179605Y-44310000D01*
X69820395Y-44310000D01*
X68943769Y-43433374D01*
X68690711Y-43515727D01*
X68560914Y-43786418D01*
X68486420Y-44077230D01*
X68470092Y-44376988D01*
X54743000Y-44376988D01*
X54743000Y-43939084D01*
X54656803Y-43505741D01*
X54487721Y-43097541D01*
X54242252Y-42730171D01*
X53929829Y-42417748D01*
X53562459Y-42172279D01*
X53154259Y-42003197D01*
X52867208Y-41946099D01*
X55678932Y-41946099D01*
X55686517Y-41995946D01*
X55783677Y-42230533D01*
X55924736Y-42441658D01*
X56104273Y-42621207D01*
X56315388Y-42762280D01*
X56549969Y-42859456D01*
X56799000Y-42909000D01*
X57453000Y-42909000D01*
X57453000Y-41747000D01*
X57707000Y-41747000D01*
X57707000Y-42909000D01*
X58361000Y-42909000D01*
X58610031Y-42859456D01*
X58690235Y-42826231D01*
X69123374Y-42826231D01*
X69192941Y-43040000D01*
X69123374Y-43253769D01*
X70000000Y-44130395D01*
X70876626Y-43253769D01*
X70807059Y-43040000D01*
X70876626Y-42826231D01*
X70000000Y-41949605D01*
X69123374Y-42826231D01*
X58690235Y-42826231D01*
X58844612Y-42762280D01*
X59055727Y-42621207D01*
X59235264Y-42441658D01*
X59376323Y-42230533D01*
X59473483Y-41995946D01*
X59481068Y-41946099D01*
X59413127Y-41836988D01*
X68470092Y-41836988D01*
X68512557Y-42134171D01*
X68612184Y-42417359D01*
X68690711Y-42564273D01*
X68943769Y-42646626D01*
X69820395Y-41770000D01*
X70179605Y-41770000D01*
X71056231Y-42646626D01*
X71309289Y-42564273D01*
X71315214Y-42551916D01*
X80586486Y-42551916D01*
X80633382Y-42924227D01*
X80752012Y-43280235D01*
X80880129Y-43519924D01*
X81172148Y-43648247D01*
X82320395Y-42500000D01*
X82679605Y-42500000D01*
X83827852Y-43648247D01*
X84119871Y-43519924D01*
X84287723Y-43184305D01*
X84386874Y-42822389D01*
X84413514Y-42448084D01*
X84366618Y-42075773D01*
X84247988Y-41719765D01*
X84119871Y-41480076D01*
X83827852Y-41351753D01*
X82679605Y-42500000D01*
X82320395Y-42500000D01*
X81172148Y-41351753D01*
X80880129Y-41480076D01*
X80712277Y-41815695D01*
X80613126Y-42177611D01*
X80586486Y-42551916D01*
X71315214Y-42551916D01*
X71439086Y-42293582D01*
X71513580Y-42002770D01*
X71529908Y-41703012D01*
X71487443Y-41405829D01*
X71405233Y-41172148D01*
X81351753Y-41172148D01*
X82500000Y-42320395D01*
X83648247Y-41172148D01*
X83519924Y-40880129D01*
X83184305Y-40712277D01*
X82822389Y-40613126D01*
X82448084Y-40586486D01*
X82075773Y-40633382D01*
X81719765Y-40752012D01*
X81480076Y-40880129D01*
X81351753Y-41172148D01*
X71405233Y-41172148D01*
X71387816Y-41122641D01*
X71309289Y-40975727D01*
X71056231Y-40893374D01*
X70179605Y-41770000D01*
X69820395Y-41770000D01*
X68943769Y-40893374D01*
X68690711Y-40975727D01*
X68560914Y-41246418D01*
X68486420Y-41537230D01*
X68470092Y-41836988D01*
X59413127Y-41836988D01*
X59357092Y-41747000D01*
X57707000Y-41747000D01*
X57453000Y-41747000D01*
X55802908Y-41747000D01*
X55678932Y-41946099D01*
X52867208Y-41946099D01*
X52720916Y-41917000D01*
X52279084Y-41917000D01*
X51845741Y-42003197D01*
X51437541Y-42172279D01*
X51070171Y-42417748D01*
X50757748Y-42730171D01*
X50512279Y-43097541D01*
X50343197Y-43505741D01*
X50257000Y-43939084D01*
X45185000Y-43939084D01*
X45185000Y-39080000D01*
X55630764Y-39080000D01*
X55655652Y-39332688D01*
X55729358Y-39575665D01*
X55849051Y-39799595D01*
X56010130Y-39995870D01*
X56206405Y-40156949D01*
X56430335Y-40276642D01*
X56673312Y-40350348D01*
X56692332Y-40352221D01*
X56549969Y-40380544D01*
X56315388Y-40477720D01*
X56104273Y-40618793D01*
X55924736Y-40798342D01*
X55783677Y-41009467D01*
X55686517Y-41244054D01*
X55678932Y-41293901D01*
X55802908Y-41493000D01*
X57453000Y-41493000D01*
X57453000Y-41473000D01*
X57707000Y-41473000D01*
X57707000Y-41493000D01*
X59357092Y-41493000D01*
X59481068Y-41293901D01*
X59473483Y-41244054D01*
X59376323Y-41009467D01*
X59235264Y-40798342D01*
X59150697Y-40713769D01*
X69123374Y-40713769D01*
X70000000Y-41590395D01*
X70876626Y-40713769D01*
X70794273Y-40460711D01*
X70523582Y-40330914D01*
X70232770Y-40256420D01*
X69933012Y-40240092D01*
X69635829Y-40282557D01*
X69352641Y-40382184D01*
X69205727Y-40460711D01*
X69123374Y-40713769D01*
X59150697Y-40713769D01*
X59055727Y-40618793D01*
X58844612Y-40477720D01*
X58610031Y-40380544D01*
X58467668Y-40352221D01*
X58486688Y-40350348D01*
X58729665Y-40276642D01*
X58953595Y-40156949D01*
X59035172Y-40090000D01*
X76361735Y-40090000D01*
X76436232Y-40201493D01*
X76648507Y-40413768D01*
X76898115Y-40580551D01*
X77175466Y-40695434D01*
X77469899Y-40754000D01*
X77770101Y-40754000D01*
X78064534Y-40695434D01*
X78341885Y-40580551D01*
X78591493Y-40413768D01*
X78803768Y-40201493D01*
X78970551Y-39951885D01*
X79085434Y-39674534D01*
X79144000Y-39380101D01*
X79144000Y-39079899D01*
X79085434Y-38785466D01*
X78970551Y-38508115D01*
X78803768Y-38258507D01*
X78591493Y-38046232D01*
X78462438Y-37960000D01*
X78591493Y-37873768D01*
X78803768Y-37661493D01*
X78970551Y-37411885D01*
X79085434Y-37134534D01*
X79144000Y-36840101D01*
X79144000Y-36539899D01*
X79085434Y-36245466D01*
X79079028Y-36230000D01*
X80591928Y-36230000D01*
X80591928Y-38770000D01*
X80604188Y-38894482D01*
X80640498Y-39014180D01*
X80699463Y-39124494D01*
X80778815Y-39221185D01*
X80875506Y-39300537D01*
X80985820Y-39359502D01*
X81105518Y-39395812D01*
X81230000Y-39408072D01*
X83770000Y-39408072D01*
X83894482Y-39395812D01*
X84014180Y-39359502D01*
X84124494Y-39300537D01*
X84221185Y-39221185D01*
X84300537Y-39124494D01*
X84359502Y-39014180D01*
X84395812Y-38894482D01*
X84408072Y-38770000D01*
X84408072Y-36230000D01*
X84395812Y-36105518D01*
X84359502Y-35985820D01*
X84300537Y-35875506D01*
X84221185Y-35778815D01*
X84124494Y-35699463D01*
X84014180Y-35640498D01*
X83894482Y-35604188D01*
X83770000Y-35591928D01*
X81230000Y-35591928D01*
X81105518Y-35604188D01*
X80985820Y-35640498D01*
X80875506Y-35699463D01*
X80778815Y-35778815D01*
X80699463Y-35875506D01*
X80640498Y-35985820D01*
X80604188Y-36105518D01*
X80591928Y-36230000D01*
X79079028Y-36230000D01*
X78970551Y-35968115D01*
X78803768Y-35718507D01*
X78591493Y-35506232D01*
X78341885Y-35339449D01*
X78064534Y-35224566D01*
X77770101Y-35166000D01*
X77469899Y-35166000D01*
X77175466Y-35224566D01*
X76898115Y-35339449D01*
X76648507Y-35506232D01*
X76436232Y-35718507D01*
X76269449Y-35968115D01*
X76154566Y-36245466D01*
X76096000Y-36539899D01*
X76096000Y-36840101D01*
X76154566Y-37134534D01*
X76269449Y-37411885D01*
X76436232Y-37661493D01*
X76648507Y-37873768D01*
X76777562Y-37960000D01*
X76648507Y-38046232D01*
X76624739Y-38070000D01*
X59035172Y-38070000D01*
X58953595Y-38003051D01*
X58729665Y-37883358D01*
X58486688Y-37809652D01*
X58297314Y-37791000D01*
X56862686Y-37791000D01*
X56673312Y-37809652D01*
X56430335Y-37883358D01*
X56206405Y-38003051D01*
X56010130Y-38164130D01*
X55849051Y-38360405D01*
X55729358Y-38584335D01*
X55655652Y-38827312D01*
X55630764Y-39080000D01*
X45185000Y-39080000D01*
X45185000Y-33779084D01*
X50257000Y-33779084D01*
X50257000Y-34220916D01*
X50343197Y-34654259D01*
X50512279Y-35062459D01*
X50757748Y-35429829D01*
X51070171Y-35742252D01*
X51437541Y-35987721D01*
X51845741Y-36156803D01*
X52279084Y-36243000D01*
X52720916Y-36243000D01*
X53154259Y-36156803D01*
X53562459Y-35987721D01*
X53929829Y-35742252D01*
X54242252Y-35429829D01*
X54487721Y-35062459D01*
X54656803Y-34654259D01*
X54743000Y-34220916D01*
X54743000Y-33779084D01*
X54656803Y-33345741D01*
X54487721Y-32937541D01*
X54242252Y-32570171D01*
X53929829Y-32257748D01*
X53562459Y-32012279D01*
X53154259Y-31843197D01*
X52720916Y-31757000D01*
X52279084Y-31757000D01*
X51845741Y-31843197D01*
X51437541Y-32012279D01*
X51070171Y-32257748D01*
X50757748Y-32570171D01*
X50512279Y-32937541D01*
X50343197Y-33345741D01*
X50257000Y-33779084D01*
X45185000Y-33779084D01*
X45185000Y-25685000D01*
X155815000Y-25685000D01*
X155815001Y-102815000D01*
G37*
X155815001Y-102815000D02*
X45185000Y-102815000D01*
X45185000Y-99378363D01*
X69765000Y-99378363D01*
X69765000Y-99621637D01*
X69812460Y-99860236D01*
X69905557Y-100084992D01*
X70040713Y-100287267D01*
X70212733Y-100459287D01*
X70415008Y-100594443D01*
X70639764Y-100687540D01*
X70878363Y-100735000D01*
X71121637Y-100735000D01*
X71360236Y-100687540D01*
X71584992Y-100594443D01*
X71787267Y-100459287D01*
X71959287Y-100287267D01*
X72094443Y-100084992D01*
X72187540Y-99860236D01*
X72217192Y-99711163D01*
X72349255Y-99579100D01*
X73343355Y-98585001D01*
X102375391Y-98585001D01*
X102424999Y-98589887D01*
X102622993Y-98570386D01*
X102644572Y-98563840D01*
X102813379Y-98512633D01*
X102988839Y-98418848D01*
X103142632Y-98292634D01*
X103174260Y-98254095D01*
X103379847Y-98048508D01*
X103444010Y-98203411D01*
X103606525Y-98446632D01*
X103813368Y-98653475D01*
X104056589Y-98815990D01*
X104326842Y-98927932D01*
X104613740Y-98985000D01*
X104906260Y-98985000D01*
X105193158Y-98927932D01*
X105463411Y-98815990D01*
X105706632Y-98653475D01*
X105913475Y-98446632D01*
X106035195Y-98264466D01*
X106104822Y-98381355D01*
X106299731Y-98597588D01*
X106533080Y-98771641D01*
X106795901Y-98896825D01*
X106943110Y-98941476D01*
X107173000Y-98820155D01*
X107173000Y-97627000D01*
X107153000Y-97627000D01*
X107153000Y-97373000D01*
X107173000Y-97373000D01*
X107173000Y-97353000D01*
X107427000Y-97353000D01*
X107427000Y-97373000D01*
X107447000Y-97373000D01*
X107447000Y-97627000D01*
X107427000Y-97627000D01*
X107427000Y-98820155D01*
X107656890Y-98941476D01*
X107804099Y-98896825D01*
X108066920Y-98771641D01*
X108300269Y-98597588D01*
X108495178Y-98381355D01*
X108564805Y-98264466D01*
X108686525Y-98446632D01*
X108893368Y-98653475D01*
X109136589Y-98815990D01*
X109406842Y-98927932D01*
X109693740Y-98985000D01*
X109986260Y-98985000D01*
X110273158Y-98927932D01*
X110543411Y-98815990D01*
X110786632Y-98653475D01*
X110993475Y-98446632D01*
X111110000Y-98272240D01*
X111226525Y-98446632D01*
X111433368Y-98653475D01*
X111676589Y-98815990D01*
X111946842Y-98927932D01*
X112233740Y-98985000D01*
X112526260Y-98985000D01*
X112813158Y-98927932D01*
X113083411Y-98815990D01*
X113326632Y-98653475D01*
X113533475Y-98446632D01*
X113650000Y-98272240D01*
X113766525Y-98446632D01*
X113973368Y-98653475D01*
X114216589Y-98815990D01*
X114486842Y-98927932D01*
X114773740Y-98985000D01*
X115066260Y-98985000D01*
X115353158Y-98927932D01*
X115623411Y-98815990D01*
X115866632Y-98653475D01*
X116073475Y-98446632D01*
X116190000Y-98272240D01*
X116306525Y-98446632D01*
X116513368Y-98653475D01*
X116756589Y-98815990D01*
X117026842Y-98927932D01*
X117313740Y-98985000D01*
X117606260Y-98985000D01*
X117893158Y-98927932D01*
X118163411Y-98815990D01*
X118406632Y-98653475D01*
X118538487Y-98521620D01*
X118560498Y-98594180D01*
X118619463Y-98704494D01*
X118698815Y-98801185D01*
X118795506Y-98880537D01*
X118905820Y-98939502D01*
X119025518Y-98975812D01*
X119150000Y-98988072D01*
X120850000Y-98988072D01*
X120974482Y-98975812D01*
X121094180Y-98939502D01*
X121204494Y-98880537D01*
X121301185Y-98801185D01*
X121380537Y-98704494D01*
X121439502Y-98594180D01*
X121475812Y-98474482D01*
X121488072Y-98350000D01*
X121488072Y-96650000D01*
X121475812Y-96525518D01*
X121439502Y-96405820D01*
X121380537Y-96295506D01*
X121301185Y-96198815D01*
X121204494Y-96119463D01*
X121094180Y-96060498D01*
X121010000Y-96034962D01*
X121010000Y-94549608D01*
X121014886Y-94500000D01*
X120995385Y-94302005D01*
X120937632Y-94111620D01*
X120905768Y-94052006D01*
X120843847Y-93936160D01*
X120717633Y-93782367D01*
X120679099Y-93750743D01*
X120217192Y-93288837D01*
X120187540Y-93139764D01*
X120094443Y-92915008D01*
X119959287Y-92712733D01*
X119787267Y-92540713D01*
X119584992Y-92405557D01*
X119360236Y-92312460D01*
X119121637Y-92265000D01*
X118878363Y-92265000D01*
X118639764Y-92312460D01*
X118415008Y-92405557D01*
X118212733Y-92540713D01*
X118040713Y-92712733D01*
X117905557Y-92915008D01*
X117812460Y-93139764D01*
X117792838Y-93238411D01*
X117704444Y-93025009D01*
X117569288Y-92822734D01*
X117397268Y-92650714D01*
X117194993Y-92515558D01*
X116970237Y-92422461D01*
X116731638Y-92375001D01*
X116488364Y-92375001D01*
X116249765Y-92422461D01*
X116025009Y-92515558D01*
X115822734Y-92650714D01*
X115650714Y-92822734D01*
X115515558Y-93025009D01*
X115422461Y-93249765D01*
X115375001Y-93488364D01*
X115375001Y-93731638D01*
X115418372Y-93949678D01*
X115280236Y-93892460D01*
X115041637Y-93845000D01*
X114798363Y-93845000D01*
X114559764Y-93892460D01*
X114335008Y-93985557D01*
X114132733Y-94120713D01*
X113960713Y-94292733D01*
X113825557Y-94495008D01*
X113732460Y-94719764D01*
X113685000Y-94958363D01*
X113685000Y-95201637D01*
X113732460Y-95440236D01*
X113825557Y-95664992D01*
X113910001Y-95791371D01*
X113910000Y-96409893D01*
X113766525Y-96553368D01*
X113650000Y-96727760D01*
X113533475Y-96553368D01*
X113326632Y-96346525D01*
X113083411Y-96184010D01*
X112813158Y-96072068D01*
X112526260Y-96015000D01*
X112233740Y-96015000D01*
X111946842Y-96072068D01*
X111676589Y-96184010D01*
X111433368Y-96346525D01*
X111226525Y-96553368D01*
X111110000Y-96727760D01*
X110993475Y-96553368D01*
X110786632Y-96346525D01*
X110543411Y-96184010D01*
X110273158Y-96072068D01*
X109986260Y-96015000D01*
X109693740Y-96015000D01*
X109406842Y-96072068D01*
X109136589Y-96184010D01*
X108893368Y-96346525D01*
X108686525Y-96553368D01*
X108564805Y-96735534D01*
X108495178Y-96618645D01*
X108300269Y-96402412D01*
X108066920Y-96228359D01*
X107804099Y-96103175D01*
X107656890Y-96058524D01*
X107599595Y-96088761D01*
X111679100Y-92009256D01*
X111717633Y-91977633D01*
X111843847Y-91823840D01*
X111937632Y-91648380D01*
X111937632Y-91648379D01*
X111995385Y-91457995D01*
X112014886Y-91260000D01*
X112010000Y-91210392D01*
X112010000Y-86711370D01*
X112094443Y-86584992D01*
X112187540Y-86360236D01*
X112235000Y-86121637D01*
X112235000Y-85878363D01*
X112187540Y-85639764D01*
X112164856Y-85585001D01*
X122490001Y-85585001D01*
X122490000Y-87788630D01*
X122405557Y-87915008D01*
X122312460Y-88139764D01*
X122265000Y-88378363D01*
X122265000Y-88621637D01*
X122312460Y-88860236D01*
X122405557Y-89084992D01*
X122540713Y-89287267D01*
X122712733Y-89459287D01*
X122915008Y-89594443D01*
X123139764Y-89687540D01*
X123378363Y-89735000D01*
X123621637Y-89735000D01*
X123860236Y-89687540D01*
X124084992Y-89594443D01*
X124287267Y-89459287D01*
X124459287Y-89287267D01*
X124594443Y-89084992D01*
X124687540Y-88860236D01*
X124735000Y-88621637D01*
X124735000Y-88378363D01*
X124687540Y-88139764D01*
X124594443Y-87915008D01*
X124510000Y-87788630D01*
X124510000Y-85049608D01*
X124514886Y-85000000D01*
X124495385Y-84802005D01*
X124437632Y-84611620D01*
X124418059Y-84575001D01*
X124343847Y-84436160D01*
X124217633Y-84282367D01*
X124179094Y-84250739D01*
X123749252Y-83820897D01*
X123717632Y-83782368D01*
X123679103Y-83750748D01*
X123679099Y-83750744D01*
X123563840Y-83656154D01*
X123388379Y-83562368D01*
X123197994Y-83504615D01*
X123000000Y-83485114D01*
X122999999Y-83485114D01*
X122980498Y-83487035D01*
X122802006Y-83504615D01*
X122611621Y-83562368D01*
X122606695Y-83565001D01*
X109974603Y-83565001D01*
X109924998Y-83560115D01*
X109875393Y-83565001D01*
X109875391Y-83565001D01*
X109727005Y-83579616D01*
X109536619Y-83637369D01*
X109361159Y-83731154D01*
X109207366Y-83857368D01*
X109175734Y-83895912D01*
X108820907Y-84250738D01*
X108782367Y-84282367D01*
X108656153Y-84436160D01*
X108622030Y-84500001D01*
X108562368Y-84611621D01*
X108504615Y-84802006D01*
X108485114Y-85000000D01*
X108490000Y-85049608D01*
X108490001Y-88824719D01*
X108448918Y-88725537D01*
X108269987Y-88457748D01*
X108042252Y-88230013D01*
X107774463Y-88051082D01*
X107476912Y-87927832D01*
X107161033Y-87865000D01*
X106838967Y-87865000D01*
X106523088Y-87927832D01*
X106225537Y-88051082D01*
X105957748Y-88230013D01*
X105730013Y-88457748D01*
X105551082Y-88725537D01*
X105427832Y-89023088D01*
X105365000Y-89338967D01*
X105365000Y-89661033D01*
X105427832Y-89976912D01*
X105551082Y-90274463D01*
X105730013Y-90542252D01*
X105957748Y-90769987D01*
X106225537Y-90948918D01*
X106523088Y-91072168D01*
X106838967Y-91135000D01*
X107161033Y-91135000D01*
X107476912Y-91072168D01*
X107515433Y-91056212D01*
X102006644Y-96565001D01*
X72974607Y-96565001D01*
X72924999Y-96560115D01*
X72727004Y-96579616D01*
X72536619Y-96637369D01*
X72361159Y-96731154D01*
X72207366Y-96857368D01*
X72175742Y-96895902D01*
X70920900Y-98150745D01*
X70788837Y-98282808D01*
X70639764Y-98312460D01*
X70415008Y-98405557D01*
X70212733Y-98540713D01*
X70040713Y-98712733D01*
X69905557Y-98915008D01*
X69812460Y-99139764D01*
X69765000Y-99378363D01*
X45185000Y-99378363D01*
X45185000Y-95000000D01*
X49361928Y-95000000D01*
X49361928Y-97000000D01*
X49374188Y-97124482D01*
X49410498Y-97244180D01*
X49469463Y-97354494D01*
X49548815Y-97451185D01*
X49645506Y-97530537D01*
X49755820Y-97589502D01*
X49875518Y-97625812D01*
X50000000Y-97638072D01*
X52000000Y-97638072D01*
X52124482Y-97625812D01*
X52244180Y-97589502D01*
X52354494Y-97530537D01*
X52451185Y-97451185D01*
X52530537Y-97354494D01*
X52585976Y-97250777D01*
X52639956Y-97399814D01*
X52929571Y-97540704D01*
X53241108Y-97622384D01*
X53562595Y-97641718D01*
X53881675Y-97597961D01*
X54186088Y-97492795D01*
X54360044Y-97399814D01*
X54455808Y-97135413D01*
X53500000Y-96179605D01*
X53485858Y-96193748D01*
X53306253Y-96014143D01*
X53320395Y-96000000D01*
X53306253Y-95985858D01*
X53485858Y-95806253D01*
X53500000Y-95820395D01*
X53514143Y-95806253D01*
X53693748Y-95985858D01*
X53679605Y-96000000D01*
X54635413Y-96955808D01*
X54665075Y-96945065D01*
X54730013Y-97042252D01*
X54957748Y-97269987D01*
X55225537Y-97448918D01*
X55523088Y-97572168D01*
X55838967Y-97635000D01*
X56161033Y-97635000D01*
X56476912Y-97572168D01*
X56774463Y-97448918D01*
X57042252Y-97269987D01*
X57269987Y-97042252D01*
X57291537Y-97010000D01*
X62788630Y-97010000D01*
X62915008Y-97094443D01*
X63139764Y-97187540D01*
X63378363Y-97235000D01*
X63621637Y-97235000D01*
X63860236Y-97187540D01*
X64084992Y-97094443D01*
X64287267Y-96959287D01*
X64459287Y-96787267D01*
X64594443Y-96584992D01*
X64687540Y-96360236D01*
X64735000Y-96121637D01*
X64735000Y-95878363D01*
X64687540Y-95639764D01*
X64594443Y-95415008D01*
X64459287Y-95212733D01*
X64287267Y-95040713D01*
X64226336Y-95000000D01*
X64287267Y-94959287D01*
X64459287Y-94787267D01*
X64594443Y-94584992D01*
X64687540Y-94360236D01*
X64735000Y-94121637D01*
X64735000Y-93878363D01*
X64687540Y-93639764D01*
X64594443Y-93415008D01*
X64459287Y-93212733D01*
X64287267Y-93040713D01*
X64084992Y-92905557D01*
X63860236Y-92812460D01*
X63621637Y-92765000D01*
X63378363Y-92765000D01*
X63139764Y-92812460D01*
X62915008Y-92905557D01*
X62788630Y-92990000D01*
X58633790Y-92990000D01*
X58687540Y-92860236D01*
X58735000Y-92621637D01*
X58735000Y-92378363D01*
X58687540Y-92139764D01*
X58594443Y-91915008D01*
X58459287Y-91712733D01*
X58287267Y-91540713D01*
X58084992Y-91405557D01*
X57860236Y-91312460D01*
X57711163Y-91282808D01*
X53328355Y-86900000D01*
X57461928Y-86900000D01*
X57461928Y-90100000D01*
X57474188Y-90224482D01*
X57510498Y-90344180D01*
X57569463Y-90454494D01*
X57648815Y-90551185D01*
X57745506Y-90630537D01*
X57855820Y-90689502D01*
X57975518Y-90725812D01*
X58100000Y-90738072D01*
X60100000Y-90738072D01*
X60224482Y-90725812D01*
X60344180Y-90689502D01*
X60445371Y-90635413D01*
X101544192Y-90635413D01*
X101639956Y-90899814D01*
X101929571Y-91040704D01*
X102241108Y-91122384D01*
X102562595Y-91141718D01*
X102881675Y-91097961D01*
X103186088Y-90992795D01*
X103360044Y-90899814D01*
X103455808Y-90635413D01*
X102500000Y-89679605D01*
X101544192Y-90635413D01*
X60445371Y-90635413D01*
X60454494Y-90630537D01*
X60551185Y-90551185D01*
X60630537Y-90454494D01*
X60689502Y-90344180D01*
X60725812Y-90224482D01*
X60738072Y-90100000D01*
X60738072Y-89562595D01*
X100858282Y-89562595D01*
X100902039Y-89881675D01*
X101007205Y-90186088D01*
X101100186Y-90360044D01*
X101364587Y-90455808D01*
X102320395Y-89500000D01*
X102679605Y-89500000D01*
X103635413Y-90455808D01*
X103899814Y-90360044D01*
X104040704Y-90070429D01*
X104122384Y-89758892D01*
X104141718Y-89437405D01*
X104097961Y-89118325D01*
X103992795Y-88813912D01*
X103899814Y-88639956D01*
X103635413Y-88544192D01*
X102679605Y-89500000D01*
X102320395Y-89500000D01*
X101364587Y-88544192D01*
X101100186Y-88639956D01*
X100959296Y-88929571D01*
X100877616Y-89241108D01*
X100858282Y-89562595D01*
X60738072Y-89562595D01*
X60738072Y-88364587D01*
X101544192Y-88364587D01*
X102500000Y-89320395D01*
X103455808Y-88364587D01*
X103360044Y-88100186D01*
X103070429Y-87959296D01*
X102758892Y-87877616D01*
X102437405Y-87858282D01*
X102118325Y-87902039D01*
X101813912Y-88007205D01*
X101639956Y-88100186D01*
X101544192Y-88364587D01*
X60738072Y-88364587D01*
X60738072Y-86900000D01*
X60725812Y-86775518D01*
X60689502Y-86655820D01*
X60630537Y-86545506D01*
X60551185Y-86448815D01*
X60454494Y-86369463D01*
X60344180Y-86310498D01*
X60224482Y-86274188D01*
X60100000Y-86261928D01*
X58100000Y-86261928D01*
X57975518Y-86274188D01*
X57855820Y-86310498D01*
X57745506Y-86369463D01*
X57648815Y-86448815D01*
X57569463Y-86545506D01*
X57510498Y-86655820D01*
X57474188Y-86775518D01*
X57461928Y-86900000D01*
X53328355Y-86900000D01*
X52010000Y-85581645D01*
X52010000Y-84135413D01*
X101544192Y-84135413D01*
X101639956Y-84399814D01*
X101929571Y-84540704D01*
X102241108Y-84622384D01*
X102562595Y-84641718D01*
X102881675Y-84597961D01*
X103186088Y-84492795D01*
X103360044Y-84399814D01*
X103455808Y-84135413D01*
X102500000Y-83179605D01*
X101544192Y-84135413D01*
X52010000Y-84135413D01*
X52010000Y-82791537D01*
X52042252Y-82769987D01*
X52176826Y-82635413D01*
X55044192Y-82635413D01*
X55139956Y-82899814D01*
X55429571Y-83040704D01*
X55741108Y-83122384D01*
X56062595Y-83141718D01*
X56381675Y-83097961D01*
X56484045Y-83062595D01*
X100858282Y-83062595D01*
X100902039Y-83381675D01*
X101007205Y-83686088D01*
X101100186Y-83860044D01*
X101364587Y-83955808D01*
X102320395Y-83000000D01*
X102679605Y-83000000D01*
X103635413Y-83955808D01*
X103899814Y-83860044D01*
X104040704Y-83570429D01*
X104122384Y-83258892D01*
X104141718Y-82937405D01*
X104128219Y-82838967D01*
X105365000Y-82838967D01*
X105365000Y-83161033D01*
X105427832Y-83476912D01*
X105551082Y-83774463D01*
X105730013Y-84042252D01*
X105957748Y-84269987D01*
X106225537Y-84448918D01*
X106523088Y-84572168D01*
X106838967Y-84635000D01*
X107161033Y-84635000D01*
X107476912Y-84572168D01*
X107774463Y-84448918D01*
X108042252Y-84269987D01*
X108269987Y-84042252D01*
X108448918Y-83774463D01*
X108572168Y-83476912D01*
X108635000Y-83161033D01*
X108635000Y-82838967D01*
X108572168Y-82523088D01*
X108448918Y-82225537D01*
X108269987Y-81957748D01*
X108042252Y-81730013D01*
X107774463Y-81551082D01*
X107476912Y-81427832D01*
X107161033Y-81365000D01*
X106838967Y-81365000D01*
X106523088Y-81427832D01*
X106225537Y-81551082D01*
X105957748Y-81730013D01*
X105730013Y-81957748D01*
X105551082Y-82225537D01*
X105427832Y-82523088D01*
X105365000Y-82838967D01*
X104128219Y-82838967D01*
X104097961Y-82618325D01*
X103992795Y-82313912D01*
X103899814Y-82139956D01*
X103635413Y-82044192D01*
X102679605Y-83000000D01*
X102320395Y-83000000D01*
X101364587Y-82044192D01*
X101100186Y-82139956D01*
X100959296Y-82429571D01*
X100877616Y-82741108D01*
X100858282Y-83062595D01*
X56484045Y-83062595D01*
X56686088Y-82992795D01*
X56860044Y-82899814D01*
X56955808Y-82635413D01*
X56000000Y-81679605D01*
X55044192Y-82635413D01*
X52176826Y-82635413D01*
X52269987Y-82542252D01*
X52448918Y-82274463D01*
X52572168Y-81976912D01*
X52635000Y-81661033D01*
X52635000Y-81562595D01*
X54358282Y-81562595D01*
X54402039Y-81881675D01*
X54507205Y-82186088D01*
X54600186Y-82360044D01*
X54864587Y-82455808D01*
X55820395Y-81500000D01*
X56179605Y-81500000D01*
X57135413Y-82455808D01*
X57399814Y-82360044D01*
X57540704Y-82070429D01*
X57594672Y-81864587D01*
X101544192Y-81864587D01*
X102500000Y-82820395D01*
X103455808Y-81864587D01*
X103360044Y-81600186D01*
X103070429Y-81459296D01*
X102758892Y-81377616D01*
X102437405Y-81358282D01*
X102118325Y-81402039D01*
X101813912Y-81507205D01*
X101639956Y-81600186D01*
X101544192Y-81864587D01*
X57594672Y-81864587D01*
X57622384Y-81758892D01*
X57641718Y-81437405D01*
X57597961Y-81118325D01*
X57492795Y-80813912D01*
X57399814Y-80639956D01*
X57135413Y-80544192D01*
X56179605Y-81500000D01*
X55820395Y-81500000D01*
X54864587Y-80544192D01*
X54600186Y-80639956D01*
X54459296Y-80929571D01*
X54377616Y-81241108D01*
X54358282Y-81562595D01*
X52635000Y-81562595D01*
X52635000Y-81338967D01*
X52572168Y-81023088D01*
X52448918Y-80725537D01*
X52269987Y-80457748D01*
X52176826Y-80364587D01*
X55044192Y-80364587D01*
X56000000Y-81320395D01*
X56955808Y-80364587D01*
X56860044Y-80100186D01*
X56570429Y-79959296D01*
X56258892Y-79877616D01*
X55937405Y-79858282D01*
X55618325Y-79902039D01*
X55313912Y-80007205D01*
X55139956Y-80100186D01*
X55044192Y-80364587D01*
X52176826Y-80364587D01*
X52042252Y-80230013D01*
X51774463Y-80051082D01*
X51476912Y-79927832D01*
X51161033Y-79865000D01*
X50838967Y-79865000D01*
X50523088Y-79927832D01*
X50225537Y-80051082D01*
X49957748Y-80230013D01*
X49730013Y-80457748D01*
X49551082Y-80725537D01*
X49427832Y-81023088D01*
X49365000Y-81338967D01*
X49365000Y-81661033D01*
X49427832Y-81976912D01*
X49551082Y-82274463D01*
X49730013Y-82542252D01*
X49957748Y-82769987D01*
X49990000Y-82791537D01*
X49990001Y-85950382D01*
X49985114Y-86000000D01*
X50004615Y-86197994D01*
X50062368Y-86388379D01*
X50062369Y-86388380D01*
X50156154Y-86563840D01*
X50282368Y-86717633D01*
X50320901Y-86749256D01*
X56282808Y-92711163D01*
X56312460Y-92860236D01*
X56366210Y-92990000D01*
X51299604Y-92990000D01*
X51249999Y-92985114D01*
X51200394Y-92990000D01*
X51200392Y-92990000D01*
X51052006Y-93004615D01*
X50861620Y-93062368D01*
X50686160Y-93156153D01*
X50532367Y-93282367D01*
X50500736Y-93320910D01*
X50320903Y-93500743D01*
X50282368Y-93532367D01*
X50250745Y-93570900D01*
X50250744Y-93570901D01*
X50156154Y-93686160D01*
X50062368Y-93861621D01*
X50004615Y-94052006D01*
X49985114Y-94250000D01*
X49990001Y-94299617D01*
X49990001Y-94362913D01*
X49875518Y-94374188D01*
X49755820Y-94410498D01*
X49645506Y-94469463D01*
X49548815Y-94548815D01*
X49469463Y-94645506D01*
X49410498Y-94755820D01*
X49374188Y-94875518D01*
X49361928Y-95000000D01*
X45185000Y-95000000D01*
X45185000Y-86900000D01*
X46261928Y-86900000D01*
X46261928Y-90100000D01*
X46274188Y-90224482D01*
X46310498Y-90344180D01*
X46369463Y-90454494D01*
X46448815Y-90551185D01*
X46545506Y-90630537D01*
X46655820Y-90689502D01*
X46775518Y-90725812D01*
X46900000Y-90738072D01*
X48900000Y-90738072D01*
X49024482Y-90725812D01*
X49144180Y-90689502D01*
X49254494Y-90630537D01*
X49351185Y-90551185D01*
X49430537Y-90454494D01*
X49489502Y-90344180D01*
X49525812Y-90224482D01*
X49538072Y-90100000D01*
X49538072Y-86900000D01*
X49525812Y-86775518D01*
X49489502Y-86655820D01*
X49430537Y-86545506D01*
X49351185Y-86448815D01*
X49254494Y-86369463D01*
X49144180Y-86310498D01*
X49024482Y-86274188D01*
X48900000Y-86261928D01*
X46900000Y-86261928D01*
X46775518Y-86274188D01*
X46655820Y-86310498D01*
X46545506Y-86369463D01*
X46448815Y-86448815D01*
X46369463Y-86545506D01*
X46310498Y-86655820D01*
X46274188Y-86775518D01*
X46261928Y-86900000D01*
X45185000Y-86900000D01*
X45185000Y-70350000D01*
X62011928Y-70350000D01*
X62024188Y-70474482D01*
X62060498Y-70594180D01*
X62119463Y-70704494D01*
X62198815Y-70801185D01*
X62295506Y-70880537D01*
X62405820Y-70939502D01*
X62478380Y-70961513D01*
X62346525Y-71093368D01*
X62184010Y-71336589D01*
X62072068Y-71606842D01*
X62015000Y-71893740D01*
X62015000Y-72186260D01*
X62072068Y-72473158D01*
X62184010Y-72743411D01*
X62346525Y-72986632D01*
X62553368Y-73193475D01*
X62727760Y-73310000D01*
X62553368Y-73426525D01*
X62346525Y-73633368D01*
X62184010Y-73876589D01*
X62072068Y-74146842D01*
X62015000Y-74433740D01*
X62015000Y-74726260D01*
X62072068Y-75013158D01*
X62184010Y-75283411D01*
X62346525Y-75526632D01*
X62553368Y-75733475D01*
X62727760Y-75850000D01*
X62553368Y-75966525D01*
X62346525Y-76173368D01*
X62184010Y-76416589D01*
X62072068Y-76686842D01*
X62015000Y-76973740D01*
X62015000Y-77266260D01*
X62072068Y-77553158D01*
X62184010Y-77823411D01*
X62346525Y-78066632D01*
X62553368Y-78273475D01*
X62796589Y-78435990D01*
X63066842Y-78547932D01*
X63353740Y-78605000D01*
X63646260Y-78605000D01*
X63933158Y-78547932D01*
X64203411Y-78435990D01*
X64446632Y-78273475D01*
X64510107Y-78210000D01*
X65279469Y-78210000D01*
X65329077Y-78214886D01*
X65527071Y-78195385D01*
X65717457Y-78137632D01*
X65892917Y-78043847D01*
X66046710Y-77917633D01*
X66078338Y-77879094D01*
X67447432Y-76510000D01*
X81288630Y-76510000D01*
X81415008Y-76594443D01*
X81639764Y-76687540D01*
X81878363Y-76735000D01*
X82121637Y-76735000D01*
X82360236Y-76687540D01*
X82584992Y-76594443D01*
X82711370Y-76510000D01*
X123081645Y-76510000D01*
X125250744Y-78679100D01*
X125282367Y-78717633D01*
X125436160Y-78843847D01*
X125608866Y-78936160D01*
X125611620Y-78937632D01*
X125802005Y-78995385D01*
X126000000Y-79014886D01*
X126049608Y-79010000D01*
X150450392Y-79010000D01*
X150500000Y-79014886D01*
X150697994Y-78995385D01*
X150888380Y-78937632D01*
X151063840Y-78843847D01*
X151217633Y-78717633D01*
X151249261Y-78679094D01*
X152490000Y-77438355D01*
X152490000Y-79081645D01*
X151581645Y-79990000D01*
X138211370Y-79990000D01*
X138084992Y-79905557D01*
X137860236Y-79812460D01*
X137621637Y-79765000D01*
X137378363Y-79765000D01*
X137139764Y-79812460D01*
X136915008Y-79905557D01*
X136712733Y-80040713D01*
X136540713Y-80212733D01*
X136405557Y-80415008D01*
X136312460Y-80639764D01*
X136265000Y-80878363D01*
X136265000Y-81121637D01*
X136312460Y-81360236D01*
X136405557Y-81584992D01*
X136490000Y-81711370D01*
X136490001Y-97950383D01*
X136490000Y-97950393D01*
X136490000Y-98081645D01*
X135081645Y-99490000D01*
X76711370Y-99490000D01*
X76584992Y-99405557D01*
X76360236Y-99312460D01*
X76121637Y-99265000D01*
X75878363Y-99265000D01*
X75639764Y-99312460D01*
X75415008Y-99405557D01*
X75212733Y-99540713D01*
X75040713Y-99712733D01*
X74905557Y-99915008D01*
X74812460Y-100139764D01*
X74765000Y-100378363D01*
X74765000Y-100621637D01*
X74812460Y-100860236D01*
X74905557Y-101084992D01*
X75040713Y-101287267D01*
X75212733Y-101459287D01*
X75415008Y-101594443D01*
X75639764Y-101687540D01*
X75878363Y-101735000D01*
X76121637Y-101735000D01*
X76360236Y-101687540D01*
X76584992Y-101594443D01*
X76711370Y-101510000D01*
X135450392Y-101510000D01*
X135500000Y-101514886D01*
X135697994Y-101495385D01*
X135888380Y-101437632D01*
X136063840Y-101343847D01*
X136217633Y-101217633D01*
X136249261Y-101179094D01*
X138179094Y-99249261D01*
X138217633Y-99217633D01*
X138343847Y-99063840D01*
X138437632Y-98888380D01*
X138495385Y-98697993D01*
X138510000Y-98549607D01*
X138510000Y-98549606D01*
X138514886Y-98500001D01*
X138510000Y-98450396D01*
X138510000Y-82010000D01*
X151950392Y-82010000D01*
X152000000Y-82014886D01*
X152197994Y-81995385D01*
X152258891Y-81976912D01*
X152388380Y-81937632D01*
X152563840Y-81843847D01*
X152717633Y-81717633D01*
X152749261Y-81679094D01*
X154179094Y-80249261D01*
X154217633Y-80217633D01*
X154343847Y-80063840D01*
X154437632Y-79888380D01*
X154495385Y-79697994D01*
X154510000Y-79549608D01*
X154510000Y-79549606D01*
X154514886Y-79500001D01*
X154510000Y-79450396D01*
X154510000Y-39279608D01*
X154514886Y-39230000D01*
X154495385Y-39032005D01*
X154437632Y-38841620D01*
X154357456Y-38691621D01*
X154343847Y-38666160D01*
X154217633Y-38512367D01*
X154179099Y-38480743D01*
X152849261Y-37150906D01*
X152817633Y-37112367D01*
X152663840Y-36986153D01*
X152488380Y-36892368D01*
X152297994Y-36834615D01*
X152149608Y-36820000D01*
X152100000Y-36815114D01*
X152050392Y-36820000D01*
X150465038Y-36820000D01*
X150439502Y-36735820D01*
X150380537Y-36625506D01*
X150301185Y-36528815D01*
X150204494Y-36449463D01*
X150094180Y-36390498D01*
X149974482Y-36354188D01*
X149850000Y-36341928D01*
X148150000Y-36341928D01*
X148025518Y-36354188D01*
X147905820Y-36390498D01*
X147795506Y-36449463D01*
X147698815Y-36528815D01*
X147619463Y-36625506D01*
X147560498Y-36735820D01*
X147524188Y-36855518D01*
X147511928Y-36980000D01*
X147511928Y-38680000D01*
X147524188Y-38804482D01*
X147560498Y-38924180D01*
X147619463Y-39034494D01*
X147698815Y-39131185D01*
X147795506Y-39210537D01*
X147905820Y-39269502D01*
X147986466Y-39293966D01*
X147902412Y-39369731D01*
X147728359Y-39603080D01*
X147603175Y-39865901D01*
X147558524Y-40013110D01*
X147679845Y-40243000D01*
X148873000Y-40243000D01*
X148873000Y-40223000D01*
X149127000Y-40223000D01*
X149127000Y-40243000D01*
X150320155Y-40243000D01*
X150441476Y-40013110D01*
X150396825Y-39865901D01*
X150271641Y-39603080D01*
X150097588Y-39369731D01*
X150013534Y-39293966D01*
X150094180Y-39269502D01*
X150204494Y-39210537D01*
X150301185Y-39131185D01*
X150380537Y-39034494D01*
X150439502Y-38924180D01*
X150465038Y-38840000D01*
X151681645Y-38840000D01*
X152490001Y-39648357D01*
X152490001Y-47511645D01*
X150485000Y-45506645D01*
X150485000Y-45303740D01*
X150427932Y-45016842D01*
X150315990Y-44746589D01*
X150153475Y-44503368D01*
X149946632Y-44296525D01*
X149772240Y-44180000D01*
X149946632Y-44063475D01*
X150153475Y-43856632D01*
X150315990Y-43613411D01*
X150427932Y-43343158D01*
X150485000Y-43056260D01*
X150485000Y-42763740D01*
X150427932Y-42476842D01*
X150315990Y-42206589D01*
X150153475Y-41963368D01*
X149946632Y-41756525D01*
X149764466Y-41634805D01*
X149881355Y-41565178D01*
X150097588Y-41370269D01*
X150271641Y-41136920D01*
X150396825Y-40874099D01*
X150441476Y-40726890D01*
X150320155Y-40497000D01*
X149127000Y-40497000D01*
X149127000Y-40517000D01*
X148873000Y-40517000D01*
X148873000Y-40497000D01*
X147679845Y-40497000D01*
X147558524Y-40726890D01*
X147603175Y-40874099D01*
X147728359Y-41136920D01*
X147902412Y-41370269D01*
X148118645Y-41565178D01*
X148235534Y-41634805D01*
X148053368Y-41756525D01*
X147846525Y-41963368D01*
X147828730Y-41990000D01*
X146711370Y-41990000D01*
X146584992Y-41905557D01*
X146360236Y-41812460D01*
X146121637Y-41765000D01*
X145878363Y-41765000D01*
X145639764Y-41812460D01*
X145415008Y-41905557D01*
X145212733Y-42040713D01*
X145040713Y-42212733D01*
X144905557Y-42415008D01*
X144812460Y-42639764D01*
X144765000Y-42878363D01*
X144765000Y-43121637D01*
X144812460Y-43360236D01*
X144905557Y-43584992D01*
X145040713Y-43787267D01*
X145212733Y-43959287D01*
X145415008Y-44094443D01*
X145639764Y-44187540D01*
X145878363Y-44235000D01*
X146121637Y-44235000D01*
X146360236Y-44187540D01*
X146584992Y-44094443D01*
X146711370Y-44010000D01*
X147999893Y-44010000D01*
X148053368Y-44063475D01*
X148227760Y-44180000D01*
X148053368Y-44296525D01*
X147846525Y-44503368D01*
X147684010Y-44746589D01*
X147572068Y-45016842D01*
X147515000Y-45303740D01*
X147515000Y-45596260D01*
X147572068Y-45883158D01*
X147684010Y-46153411D01*
X147846525Y-46396632D01*
X148053368Y-46603475D01*
X148227760Y-46720000D01*
X148053368Y-46836525D01*
X147846525Y-47043368D01*
X147684010Y-47286589D01*
X147572068Y-47556842D01*
X147515000Y-47843740D01*
X147515000Y-47990000D01*
X122192506Y-47990000D01*
X122351493Y-47883768D01*
X122563768Y-47671493D01*
X122730551Y-47421885D01*
X122845434Y-47144534D01*
X122904000Y-46850101D01*
X122904000Y-46549899D01*
X122845434Y-46255466D01*
X122730551Y-45978115D01*
X122563768Y-45728507D01*
X122351493Y-45516232D01*
X122222438Y-45430000D01*
X122351493Y-45343768D01*
X122563768Y-45131493D01*
X122730551Y-44881885D01*
X122845434Y-44604534D01*
X122904000Y-44310101D01*
X122904000Y-44009899D01*
X122845434Y-43715466D01*
X122730551Y-43438115D01*
X122563768Y-43188507D01*
X122351493Y-42976232D01*
X122222438Y-42890000D01*
X122351493Y-42803768D01*
X122563768Y-42591493D01*
X122730551Y-42341885D01*
X122845434Y-42064534D01*
X122904000Y-41770101D01*
X122904000Y-41469899D01*
X122845434Y-41175466D01*
X122730551Y-40898115D01*
X122563768Y-40648507D01*
X122351493Y-40436232D01*
X122101885Y-40269449D01*
X121824534Y-40154566D01*
X121530101Y-40096000D01*
X121229899Y-40096000D01*
X120935466Y-40154566D01*
X120658115Y-40269449D01*
X120408507Y-40436232D01*
X120196232Y-40648507D01*
X120029449Y-40898115D01*
X119914566Y-41175466D01*
X119856000Y-41469899D01*
X119856000Y-41770101D01*
X119914566Y-42064534D01*
X120029449Y-42341885D01*
X120196232Y-42591493D01*
X120408507Y-42803768D01*
X120537562Y-42890000D01*
X120408507Y-42976232D01*
X120196232Y-43188507D01*
X120029449Y-43438115D01*
X119914566Y-43715466D01*
X119856000Y-44009899D01*
X119856000Y-44310101D01*
X119914566Y-44604534D01*
X120029449Y-44881885D01*
X120196232Y-45131493D01*
X120408507Y-45343768D01*
X120537562Y-45430000D01*
X120408507Y-45516232D01*
X120196232Y-45728507D01*
X120029449Y-45978115D01*
X119914566Y-46255466D01*
X119856000Y-46549899D01*
X119856000Y-46850101D01*
X119914566Y-47144534D01*
X120029449Y-47421885D01*
X120196232Y-47671493D01*
X120408507Y-47883768D01*
X120567494Y-47990000D01*
X113549604Y-47990000D01*
X113499999Y-47985114D01*
X113450394Y-47990000D01*
X113450392Y-47990000D01*
X113302006Y-48004615D01*
X113111620Y-48062368D01*
X112936160Y-48156153D01*
X112782367Y-48282367D01*
X112750739Y-48320906D01*
X111320906Y-49750739D01*
X111282367Y-49782367D01*
X111156153Y-49936160D01*
X111062369Y-50111620D01*
X111062368Y-50111621D01*
X111004615Y-50302006D01*
X110985114Y-50500000D01*
X110990000Y-50549608D01*
X110990001Y-61950382D01*
X110985114Y-62000000D01*
X111004615Y-62197994D01*
X111062368Y-62388379D01*
X111062369Y-62388380D01*
X111156154Y-62563840D01*
X111282368Y-62717633D01*
X111320901Y-62749256D01*
X112005739Y-63434094D01*
X112037367Y-63472633D01*
X112191160Y-63598847D01*
X112366620Y-63692632D01*
X112557006Y-63750385D01*
X112705392Y-63765000D01*
X112705394Y-63765000D01*
X112754999Y-63769886D01*
X112804604Y-63765000D01*
X113788630Y-63765000D01*
X113915008Y-63849443D01*
X114139764Y-63942540D01*
X114378363Y-63990000D01*
X114621637Y-63990000D01*
X114860236Y-63942540D01*
X115084992Y-63849443D01*
X115287267Y-63714287D01*
X115459287Y-63542267D01*
X115594443Y-63339992D01*
X115687540Y-63115236D01*
X115735000Y-62876637D01*
X115735000Y-62633363D01*
X115687540Y-62394764D01*
X115594443Y-62170008D01*
X115459287Y-61967733D01*
X115386554Y-61895000D01*
X122065392Y-61895000D01*
X122115000Y-61899886D01*
X122312994Y-61880385D01*
X122379416Y-61860236D01*
X122503380Y-61822632D01*
X122678840Y-61728847D01*
X122832633Y-61602633D01*
X122864261Y-61564094D01*
X125211163Y-59217192D01*
X125281235Y-59203254D01*
X125312460Y-59360236D01*
X125405557Y-59584992D01*
X125540713Y-59787267D01*
X125712733Y-59959287D01*
X125849393Y-60050600D01*
X125812460Y-60139764D01*
X125765000Y-60378363D01*
X125765000Y-60621637D01*
X125812460Y-60860236D01*
X125905557Y-61084992D01*
X126040713Y-61287267D01*
X126212733Y-61459287D01*
X126415008Y-61594443D01*
X126639764Y-61687540D01*
X126878363Y-61735000D01*
X127121637Y-61735000D01*
X127360236Y-61687540D01*
X127584992Y-61594443D01*
X127711370Y-61510000D01*
X129950392Y-61510000D01*
X130000000Y-61514886D01*
X130197994Y-61495385D01*
X130281703Y-61469992D01*
X130388380Y-61437632D01*
X130563840Y-61343847D01*
X130717633Y-61217633D01*
X130749261Y-61179094D01*
X131179094Y-60749261D01*
X131217633Y-60717633D01*
X131343847Y-60563840D01*
X131437632Y-60388380D01*
X131463834Y-60302005D01*
X131495385Y-60197995D01*
X131514886Y-60000000D01*
X131510000Y-59950392D01*
X131510000Y-57049604D01*
X131514886Y-56999999D01*
X131510000Y-56950392D01*
X131495385Y-56802006D01*
X131437632Y-56611620D01*
X131343847Y-56436160D01*
X131217633Y-56282367D01*
X131179094Y-56250739D01*
X129249261Y-54320906D01*
X129217633Y-54282367D01*
X129063840Y-54156153D01*
X128888380Y-54062368D01*
X128697994Y-54004615D01*
X128549608Y-53990000D01*
X128500000Y-53985114D01*
X128450392Y-53990000D01*
X117549608Y-53990000D01*
X117500000Y-53985114D01*
X117302005Y-54004615D01*
X117111620Y-54062368D01*
X116936160Y-54156153D01*
X116782367Y-54282367D01*
X116750744Y-54320900D01*
X114336644Y-56735001D01*
X114149607Y-56735001D01*
X114099999Y-56730115D01*
X113902004Y-56749616D01*
X113797151Y-56781423D01*
X113711619Y-56807369D01*
X113536159Y-56901154D01*
X113382366Y-57027368D01*
X113350738Y-57065907D01*
X113288837Y-57127808D01*
X113139764Y-57157460D01*
X113010000Y-57211210D01*
X113010000Y-50918355D01*
X113918355Y-50010000D01*
X147608039Y-50010000D01*
X147572068Y-50096842D01*
X147515000Y-50383740D01*
X147515000Y-50676260D01*
X147572068Y-50963158D01*
X147684010Y-51233411D01*
X147846525Y-51476632D01*
X148053368Y-51683475D01*
X148227760Y-51800000D01*
X148053368Y-51916525D01*
X147846525Y-52123368D01*
X147684010Y-52366589D01*
X147572068Y-52636842D01*
X147515000Y-52923740D01*
X147515000Y-53216260D01*
X147572068Y-53503158D01*
X147684010Y-53773411D01*
X147846525Y-54016632D01*
X147990000Y-54160107D01*
X147990001Y-55081643D01*
X137081645Y-65990000D01*
X129418356Y-65990000D01*
X126717192Y-63288837D01*
X126687540Y-63139764D01*
X126594443Y-62915008D01*
X126459287Y-62712733D01*
X126287267Y-62540713D01*
X126084992Y-62405557D01*
X125860236Y-62312460D01*
X125621637Y-62265000D01*
X125378363Y-62265000D01*
X125139764Y-62312460D01*
X124915008Y-62405557D01*
X124712733Y-62540713D01*
X124540713Y-62712733D01*
X124405557Y-62915008D01*
X124312460Y-63139764D01*
X124265000Y-63378363D01*
X124265000Y-63621637D01*
X124312460Y-63860236D01*
X124405557Y-64084992D01*
X124540713Y-64287267D01*
X124712733Y-64459287D01*
X124915008Y-64594443D01*
X125139764Y-64687540D01*
X125288837Y-64717192D01*
X128250744Y-67679100D01*
X128282367Y-67717633D01*
X128436160Y-67843847D01*
X128611620Y-67937632D01*
X128802006Y-67995385D01*
X128950392Y-68010000D01*
X128950401Y-68010000D01*
X128999999Y-68014885D01*
X129049597Y-68010000D01*
X137450392Y-68010000D01*
X137500000Y-68014886D01*
X137697994Y-67995385D01*
X137697997Y-67995384D01*
X137888380Y-67937632D01*
X138063840Y-67843847D01*
X138217633Y-67717633D01*
X138249261Y-67679094D01*
X138600503Y-67327852D01*
X145851753Y-67327852D01*
X145980076Y-67619871D01*
X146315695Y-67787723D01*
X146677611Y-67886874D01*
X147051916Y-67913514D01*
X147424227Y-67866618D01*
X147780235Y-67747988D01*
X148019924Y-67619871D01*
X148148247Y-67327852D01*
X147000000Y-66179605D01*
X145851753Y-67327852D01*
X138600503Y-67327852D01*
X139876439Y-66051916D01*
X145086486Y-66051916D01*
X145133382Y-66424227D01*
X145252012Y-66780235D01*
X145380129Y-67019924D01*
X145672148Y-67148247D01*
X146820395Y-66000000D01*
X147179605Y-66000000D01*
X148327852Y-67148247D01*
X148619871Y-67019924D01*
X148787723Y-66684305D01*
X148886874Y-66322389D01*
X148913514Y-65948084D01*
X148866618Y-65575773D01*
X148747988Y-65219765D01*
X148619871Y-64980076D01*
X148327852Y-64851753D01*
X147179605Y-66000000D01*
X146820395Y-66000000D01*
X145672148Y-64851753D01*
X145380129Y-64980076D01*
X145212277Y-65315695D01*
X145113126Y-65677611D01*
X145086486Y-66051916D01*
X139876439Y-66051916D01*
X141256207Y-64672148D01*
X145851753Y-64672148D01*
X147000000Y-65820395D01*
X148148247Y-64672148D01*
X148019924Y-64380129D01*
X147684305Y-64212277D01*
X147322389Y-64113126D01*
X146948084Y-64086486D01*
X146575773Y-64133382D01*
X146219765Y-64252012D01*
X145980076Y-64380129D01*
X145851753Y-64672148D01*
X141256207Y-64672148D01*
X147271922Y-58656434D01*
X147312460Y-58860236D01*
X147405557Y-59084992D01*
X147540713Y-59287267D01*
X147712733Y-59459287D01*
X147915008Y-59594443D01*
X148139764Y-59687540D01*
X148288837Y-59717192D01*
X149490001Y-60918356D01*
X149490000Y-74581645D01*
X148581645Y-75490000D01*
X127418356Y-75490000D01*
X127041015Y-75112659D01*
X127084992Y-75094443D01*
X127287267Y-74959287D01*
X127459287Y-74787267D01*
X127594443Y-74584992D01*
X127687540Y-74360236D01*
X127735000Y-74121637D01*
X127735000Y-73878363D01*
X127687540Y-73639764D01*
X127594443Y-73415008D01*
X127510000Y-73288630D01*
X127510000Y-71211370D01*
X127594443Y-71084992D01*
X127687540Y-70860236D01*
X127697060Y-70812374D01*
X145095000Y-70812374D01*
X145095000Y-71187626D01*
X145168209Y-71555668D01*
X145311811Y-71902356D01*
X145520290Y-72214366D01*
X145785634Y-72479710D01*
X146097644Y-72688189D01*
X146444332Y-72831791D01*
X146812374Y-72905000D01*
X147187626Y-72905000D01*
X147555668Y-72831791D01*
X147902356Y-72688189D01*
X148214366Y-72479710D01*
X148479710Y-72214366D01*
X148688189Y-71902356D01*
X148831791Y-71555668D01*
X148905000Y-71187626D01*
X148905000Y-70812374D01*
X148831791Y-70444332D01*
X148688189Y-70097644D01*
X148479710Y-69785634D01*
X148214366Y-69520290D01*
X147902356Y-69311811D01*
X147555668Y-69168209D01*
X147187626Y-69095000D01*
X146812374Y-69095000D01*
X146444332Y-69168209D01*
X146097644Y-69311811D01*
X145785634Y-69520290D01*
X145520290Y-69785634D01*
X145311811Y-70097644D01*
X145168209Y-70444332D01*
X145095000Y-70812374D01*
X127697060Y-70812374D01*
X127735000Y-70621637D01*
X127735000Y-70378363D01*
X127687540Y-70139764D01*
X127594443Y-69915008D01*
X127459287Y-69712733D01*
X127287267Y-69540713D01*
X127084992Y-69405557D01*
X126860236Y-69312460D01*
X126621637Y-69265000D01*
X126378363Y-69265000D01*
X126139764Y-69312460D01*
X125915008Y-69405557D01*
X125712733Y-69540713D01*
X125540713Y-69712733D01*
X125405557Y-69915008D01*
X125312460Y-70139764D01*
X125282808Y-70288836D01*
X124461645Y-71110000D01*
X64664588Y-71110000D01*
X64653475Y-71093368D01*
X64521620Y-70961513D01*
X64594180Y-70939502D01*
X64704494Y-70880537D01*
X64801185Y-70801185D01*
X64880537Y-70704494D01*
X64939502Y-70594180D01*
X64975812Y-70474482D01*
X64988072Y-70350000D01*
X64985000Y-69785750D01*
X64826250Y-69627000D01*
X63627000Y-69627000D01*
X63627000Y-69647000D01*
X63373000Y-69647000D01*
X63373000Y-69627000D01*
X62173750Y-69627000D01*
X62015000Y-69785750D01*
X62011928Y-70350000D01*
X45185000Y-70350000D01*
X45185000Y-67878363D01*
X46265000Y-67878363D01*
X46265000Y-68121637D01*
X46312460Y-68360236D01*
X46405557Y-68584992D01*
X46540713Y-68787267D01*
X46712733Y-68959287D01*
X46915008Y-69094443D01*
X47139764Y-69187540D01*
X47378363Y-69235000D01*
X47621637Y-69235000D01*
X47860236Y-69187540D01*
X48084992Y-69094443D01*
X48287267Y-68959287D01*
X48459287Y-68787267D01*
X48594443Y-68584992D01*
X48687540Y-68360236D01*
X48735000Y-68121637D01*
X48735000Y-67878363D01*
X48765000Y-67878363D01*
X48765000Y-68121637D01*
X48812460Y-68360236D01*
X48905557Y-68584992D01*
X49040713Y-68787267D01*
X49212733Y-68959287D01*
X49415008Y-69094443D01*
X49639764Y-69187540D01*
X49878363Y-69235000D01*
X50121637Y-69235000D01*
X50360236Y-69187540D01*
X50584992Y-69094443D01*
X50787267Y-68959287D01*
X50959287Y-68787267D01*
X51094443Y-68584992D01*
X51187540Y-68360236D01*
X51235000Y-68121637D01*
X51235000Y-67878363D01*
X51187540Y-67639764D01*
X51094443Y-67415008D01*
X50959287Y-67212733D01*
X50787267Y-67040713D01*
X50584992Y-66905557D01*
X50360236Y-66812460D01*
X50121637Y-66765000D01*
X49878363Y-66765000D01*
X49639764Y-66812460D01*
X49415008Y-66905557D01*
X49212733Y-67040713D01*
X49040713Y-67212733D01*
X48905557Y-67415008D01*
X48812460Y-67639764D01*
X48765000Y-67878363D01*
X48735000Y-67878363D01*
X48687540Y-67639764D01*
X48594443Y-67415008D01*
X48459287Y-67212733D01*
X48287267Y-67040713D01*
X48084992Y-66905557D01*
X47860236Y-66812460D01*
X47621637Y-66765000D01*
X47378363Y-66765000D01*
X47139764Y-66812460D01*
X46915008Y-66905557D01*
X46712733Y-67040713D01*
X46540713Y-67212733D01*
X46405557Y-67415008D01*
X46312460Y-67639764D01*
X46265000Y-67878363D01*
X45185000Y-67878363D01*
X45185000Y-64242349D01*
X48937256Y-64242349D01*
X49051118Y-64522090D01*
X49366296Y-64677961D01*
X49705826Y-64769349D01*
X50056661Y-64792741D01*
X50405319Y-64747240D01*
X50738400Y-64634594D01*
X50948882Y-64522090D01*
X51062744Y-64242349D01*
X50000000Y-63179605D01*
X48937256Y-64242349D01*
X45185000Y-64242349D01*
X45185000Y-63056661D01*
X48207259Y-63056661D01*
X48252760Y-63405319D01*
X48365406Y-63738400D01*
X48477910Y-63948882D01*
X48757651Y-64062744D01*
X49820395Y-63000000D01*
X50179605Y-63000000D01*
X51242349Y-64062744D01*
X51522090Y-63948882D01*
X51677961Y-63633704D01*
X51769349Y-63294174D01*
X51792741Y-62943339D01*
X51747240Y-62594681D01*
X51634594Y-62261600D01*
X51522090Y-62051118D01*
X51242349Y-61937256D01*
X50179605Y-63000000D01*
X49820395Y-63000000D01*
X48757651Y-61937256D01*
X48477910Y-62051118D01*
X48322039Y-62366296D01*
X48230651Y-62705826D01*
X48207259Y-63056661D01*
X45185000Y-63056661D01*
X45185000Y-61757651D01*
X48937256Y-61757651D01*
X50000000Y-62820395D01*
X51062744Y-61757651D01*
X50948882Y-61477910D01*
X50633704Y-61322039D01*
X50294174Y-61230651D01*
X49943339Y-61207259D01*
X49594681Y-61252760D01*
X49261600Y-61365406D01*
X49051118Y-61477910D01*
X48937256Y-61757651D01*
X45185000Y-61757651D01*
X45185000Y-57878363D01*
X46265000Y-57878363D01*
X46265000Y-58121637D01*
X46312460Y-58360236D01*
X46405557Y-58584992D01*
X46540713Y-58787267D01*
X46712733Y-58959287D01*
X46915008Y-59094443D01*
X47139764Y-59187540D01*
X47378363Y-59235000D01*
X47621637Y-59235000D01*
X47860236Y-59187540D01*
X48084992Y-59094443D01*
X48287267Y-58959287D01*
X48459287Y-58787267D01*
X48594443Y-58584992D01*
X48687540Y-58360236D01*
X48735000Y-58121637D01*
X48735000Y-57878363D01*
X48765000Y-57878363D01*
X48765000Y-58121637D01*
X48812460Y-58360236D01*
X48905557Y-58584992D01*
X49040713Y-58787267D01*
X49212733Y-58959287D01*
X49415008Y-59094443D01*
X49639764Y-59187540D01*
X49878363Y-59235000D01*
X50121637Y-59235000D01*
X50360236Y-59187540D01*
X50584992Y-59094443D01*
X50787267Y-58959287D01*
X50959287Y-58787267D01*
X51094443Y-58584992D01*
X51187540Y-58360236D01*
X51235000Y-58121637D01*
X51235000Y-57878363D01*
X51204334Y-57724193D01*
X53215000Y-57724193D01*
X53215000Y-58075807D01*
X53283596Y-58420665D01*
X53418153Y-58745515D01*
X53613500Y-59037871D01*
X53775629Y-59200000D01*
X53613500Y-59362129D01*
X53418153Y-59654485D01*
X53283596Y-59979335D01*
X53215000Y-60324193D01*
X53215000Y-60675807D01*
X53283596Y-61020665D01*
X53418153Y-61345515D01*
X53613500Y-61637871D01*
X53862129Y-61886500D01*
X54154485Y-62081847D01*
X54166586Y-62086860D01*
X54040713Y-62212733D01*
X53905557Y-62415008D01*
X53812460Y-62639764D01*
X53765000Y-62878363D01*
X53765000Y-63121637D01*
X53812460Y-63360236D01*
X53905557Y-63584992D01*
X54040713Y-63787267D01*
X54166586Y-63913140D01*
X54154485Y-63918153D01*
X53862129Y-64113500D01*
X53613500Y-64362129D01*
X53418153Y-64654485D01*
X53283596Y-64979335D01*
X53215000Y-65324193D01*
X53215000Y-65675807D01*
X53283596Y-66020665D01*
X53418153Y-66345515D01*
X53613500Y-66637871D01*
X53775629Y-66800000D01*
X53613500Y-66962129D01*
X53418153Y-67254485D01*
X53283596Y-67579335D01*
X53215000Y-67924193D01*
X53215000Y-68275807D01*
X53283596Y-68620665D01*
X53418153Y-68945515D01*
X53613500Y-69237871D01*
X53862129Y-69486500D01*
X54154485Y-69681847D01*
X54479335Y-69816404D01*
X54824193Y-69885000D01*
X55175807Y-69885000D01*
X55520665Y-69816404D01*
X55845515Y-69681847D01*
X56137871Y-69486500D01*
X56386500Y-69237871D01*
X56581847Y-68945515D01*
X56704253Y-68650000D01*
X62011928Y-68650000D01*
X62015000Y-69214250D01*
X62173750Y-69373000D01*
X63373000Y-69373000D01*
X63373000Y-68173750D01*
X63627000Y-68173750D01*
X63627000Y-69373000D01*
X64826250Y-69373000D01*
X64985000Y-69214250D01*
X64988072Y-68650000D01*
X64975812Y-68525518D01*
X64939502Y-68405820D01*
X64880537Y-68295506D01*
X64801185Y-68198815D01*
X64704494Y-68119463D01*
X64594180Y-68060498D01*
X64474482Y-68024188D01*
X64350000Y-68011928D01*
X63785750Y-68015000D01*
X63627000Y-68173750D01*
X63373000Y-68173750D01*
X63214250Y-68015000D01*
X62650000Y-68011928D01*
X62525518Y-68024188D01*
X62405820Y-68060498D01*
X62295506Y-68119463D01*
X62198815Y-68198815D01*
X62119463Y-68295506D01*
X62060498Y-68405820D01*
X62024188Y-68525518D01*
X62011928Y-68650000D01*
X56704253Y-68650000D01*
X56716404Y-68620665D01*
X56785000Y-68275807D01*
X56785000Y-67924193D01*
X56716404Y-67579335D01*
X56581847Y-67254485D01*
X56386500Y-66962129D01*
X56224371Y-66800000D01*
X56386500Y-66637871D01*
X56388418Y-66635000D01*
X62012921Y-66635000D01*
X62139764Y-66687540D01*
X62378363Y-66735000D01*
X62621637Y-66735000D01*
X62860236Y-66687540D01*
X63084992Y-66594443D01*
X63287267Y-66459287D01*
X63459287Y-66287267D01*
X63594443Y-66084992D01*
X63687540Y-65860236D01*
X63735000Y-65621637D01*
X63735000Y-65378363D01*
X63687540Y-65139764D01*
X63594443Y-64915008D01*
X63459287Y-64712733D01*
X63287267Y-64540713D01*
X63084992Y-64405557D01*
X62860236Y-64312460D01*
X62621637Y-64265000D01*
X62378363Y-64265000D01*
X62139764Y-64312460D01*
X62012921Y-64365000D01*
X56388418Y-64365000D01*
X56386500Y-64362129D01*
X56137871Y-64113500D01*
X55845515Y-63918153D01*
X55833414Y-63913140D01*
X55959287Y-63787267D01*
X56094443Y-63584992D01*
X56187540Y-63360236D01*
X56235000Y-63121637D01*
X56235000Y-62878363D01*
X56187540Y-62639764D01*
X56094443Y-62415008D01*
X55959287Y-62212733D01*
X55833414Y-62086860D01*
X55845515Y-62081847D01*
X56137871Y-61886500D01*
X56386500Y-61637871D01*
X56559898Y-61378363D01*
X86765000Y-61378363D01*
X86765000Y-61621637D01*
X86812460Y-61860236D01*
X86905557Y-62084992D01*
X87040713Y-62287267D01*
X87212733Y-62459287D01*
X87415008Y-62594443D01*
X87639764Y-62687540D01*
X87780673Y-62715568D01*
X87782367Y-62717633D01*
X87936160Y-62843847D01*
X88108866Y-62936160D01*
X88111620Y-62937632D01*
X88302005Y-62995385D01*
X88500000Y-63014886D01*
X88549608Y-63010000D01*
X98061644Y-63010000D01*
X95288837Y-65782808D01*
X95139764Y-65812460D01*
X94915008Y-65905557D01*
X94712733Y-66040713D01*
X94540713Y-66212733D01*
X94405557Y-66415008D01*
X94312460Y-66639764D01*
X94265000Y-66878363D01*
X94265000Y-67121637D01*
X94312460Y-67360236D01*
X94405557Y-67584992D01*
X94540713Y-67787267D01*
X94712733Y-67959287D01*
X94915008Y-68094443D01*
X95139764Y-68187540D01*
X95378363Y-68235000D01*
X95621637Y-68235000D01*
X95860236Y-68187540D01*
X96084992Y-68094443D01*
X96287267Y-67959287D01*
X96459287Y-67787267D01*
X96594443Y-67584992D01*
X96687540Y-67360236D01*
X96717192Y-67211163D01*
X99418356Y-64510000D01*
X100189433Y-64510000D01*
X100187460Y-64514764D01*
X100140000Y-64753363D01*
X100140000Y-64996637D01*
X100187460Y-65235236D01*
X100280557Y-65459992D01*
X100415713Y-65662267D01*
X100587733Y-65834287D01*
X100790008Y-65969443D01*
X101014764Y-66062540D01*
X101253363Y-66110000D01*
X101496637Y-66110000D01*
X101735236Y-66062540D01*
X101959992Y-65969443D01*
X102086370Y-65885000D01*
X106075392Y-65885000D01*
X106125000Y-65889886D01*
X106322994Y-65870385D01*
X106356451Y-65860236D01*
X106513380Y-65812632D01*
X106688840Y-65718847D01*
X106842633Y-65592633D01*
X106874261Y-65554094D01*
X108679094Y-63749261D01*
X108717633Y-63717633D01*
X108843847Y-63563840D01*
X108937632Y-63388380D01*
X108995385Y-63197994D01*
X109010000Y-63049608D01*
X109010000Y-63049606D01*
X109014886Y-63000001D01*
X109010000Y-62950396D01*
X109010000Y-51211370D01*
X109094443Y-51084992D01*
X109187540Y-50860236D01*
X109235000Y-50621637D01*
X109235000Y-50378363D01*
X109187540Y-50139764D01*
X109094443Y-49915008D01*
X108959287Y-49712733D01*
X108787267Y-49540713D01*
X108584992Y-49405557D01*
X108360236Y-49312460D01*
X108121637Y-49265000D01*
X107878363Y-49265000D01*
X107639764Y-49312460D01*
X107415008Y-49405557D01*
X107212733Y-49540713D01*
X107040713Y-49712733D01*
X106905557Y-49915008D01*
X106812460Y-50139764D01*
X106765000Y-50378363D01*
X106765000Y-50621637D01*
X106812460Y-50860236D01*
X106905557Y-51084992D01*
X106990000Y-51211370D01*
X106990001Y-60866210D01*
X106860236Y-60812460D01*
X106621637Y-60765000D01*
X106378363Y-60765000D01*
X106139764Y-60812460D01*
X105915008Y-60905557D01*
X105788630Y-60990000D01*
X89125506Y-60990000D01*
X89094443Y-60915008D01*
X88959287Y-60712733D01*
X88787267Y-60540713D01*
X88584992Y-60405557D01*
X88360236Y-60312460D01*
X88121637Y-60265000D01*
X87878363Y-60265000D01*
X87639764Y-60312460D01*
X87415008Y-60405557D01*
X87212733Y-60540713D01*
X87040713Y-60712733D01*
X86905557Y-60915008D01*
X86812460Y-61139764D01*
X86765000Y-61378363D01*
X56559898Y-61378363D01*
X56581847Y-61345515D01*
X56716404Y-61020665D01*
X56785000Y-60675807D01*
X56785000Y-60324193D01*
X56716404Y-59979335D01*
X56581847Y-59654485D01*
X56386500Y-59362129D01*
X56224371Y-59200000D01*
X56386500Y-59037871D01*
X56388418Y-59035000D01*
X61912921Y-59035000D01*
X62039764Y-59087540D01*
X62278363Y-59135000D01*
X62521637Y-59135000D01*
X62760236Y-59087540D01*
X62984992Y-58994443D01*
X63187267Y-58859287D01*
X63359287Y-58687267D01*
X63494443Y-58484992D01*
X63587540Y-58260236D01*
X63635000Y-58021637D01*
X63635000Y-57778363D01*
X63587540Y-57539764D01*
X63494443Y-57315008D01*
X63359287Y-57112733D01*
X63187267Y-56940713D01*
X62984992Y-56805557D01*
X62760236Y-56712460D01*
X62521637Y-56665000D01*
X62278363Y-56665000D01*
X62039764Y-56712460D01*
X61912921Y-56765000D01*
X56388418Y-56765000D01*
X56386500Y-56762129D01*
X56137871Y-56513500D01*
X55935626Y-56378363D01*
X82265000Y-56378363D01*
X82265000Y-56621637D01*
X82312460Y-56860236D01*
X82405557Y-57084992D01*
X82540713Y-57287267D01*
X82712733Y-57459287D01*
X82915008Y-57594443D01*
X83139764Y-57687540D01*
X83378363Y-57735000D01*
X83621637Y-57735000D01*
X83860236Y-57687540D01*
X84084992Y-57594443D01*
X84211370Y-57510000D01*
X86950393Y-57510000D01*
X87000000Y-57514886D01*
X87049608Y-57510000D01*
X93288630Y-57510000D01*
X93415008Y-57594443D01*
X93639764Y-57687540D01*
X93878363Y-57735000D01*
X94121637Y-57735000D01*
X94360236Y-57687540D01*
X94584992Y-57594443D01*
X94787267Y-57459287D01*
X94959287Y-57287267D01*
X95094443Y-57084992D01*
X95187540Y-56860236D01*
X95235000Y-56621637D01*
X95235000Y-56378363D01*
X95187540Y-56139764D01*
X95094443Y-55915008D01*
X94959287Y-55712733D01*
X94787267Y-55540713D01*
X94584992Y-55405557D01*
X94360236Y-55312460D01*
X94121637Y-55265000D01*
X93878363Y-55265000D01*
X93639764Y-55312460D01*
X93415008Y-55405557D01*
X93288630Y-55490000D01*
X88010000Y-55490000D01*
X88010000Y-45366231D01*
X98313374Y-45366231D01*
X98395727Y-45619289D01*
X98666418Y-45749086D01*
X98957230Y-45823580D01*
X99256988Y-45839908D01*
X99554171Y-45797443D01*
X99837359Y-45697816D01*
X99984273Y-45619289D01*
X100066626Y-45366231D01*
X99190000Y-44489605D01*
X98313374Y-45366231D01*
X88010000Y-45366231D01*
X88010000Y-43827852D01*
X93351753Y-43827852D01*
X93480076Y-44119871D01*
X93815695Y-44287723D01*
X94177611Y-44386874D01*
X94551916Y-44413514D01*
X94841898Y-44376988D01*
X97660092Y-44376988D01*
X97702557Y-44674171D01*
X97802184Y-44957359D01*
X97880711Y-45104273D01*
X98133769Y-45186626D01*
X99010395Y-44310000D01*
X99369605Y-44310000D01*
X100246231Y-45186626D01*
X100499289Y-45104273D01*
X100629086Y-44833582D01*
X100703580Y-44542770D01*
X100719908Y-44243012D01*
X100677443Y-43945829D01*
X100577816Y-43662641D01*
X100499289Y-43515727D01*
X100246231Y-43433374D01*
X99369605Y-44310000D01*
X99010395Y-44310000D01*
X98133769Y-43433374D01*
X97880711Y-43515727D01*
X97750914Y-43786418D01*
X97676420Y-44077230D01*
X97660092Y-44376988D01*
X94841898Y-44376988D01*
X94924227Y-44366618D01*
X95280235Y-44247988D01*
X95519924Y-44119871D01*
X95648247Y-43827852D01*
X94500000Y-42679605D01*
X93351753Y-43827852D01*
X88010000Y-43827852D01*
X88010000Y-42551916D01*
X92586486Y-42551916D01*
X92633382Y-42924227D01*
X92752012Y-43280235D01*
X92880129Y-43519924D01*
X93172148Y-43648247D01*
X94320395Y-42500000D01*
X94679605Y-42500000D01*
X95827852Y-43648247D01*
X96119871Y-43519924D01*
X96287723Y-43184305D01*
X96385821Y-42826231D01*
X98313374Y-42826231D01*
X98382941Y-43040000D01*
X98313374Y-43253769D01*
X99190000Y-44130395D01*
X100066626Y-43253769D01*
X99997059Y-43040000D01*
X100066626Y-42826231D01*
X99190000Y-41949605D01*
X98313374Y-42826231D01*
X96385821Y-42826231D01*
X96386874Y-42822389D01*
X96413514Y-42448084D01*
X96366618Y-42075773D01*
X96287050Y-41836988D01*
X97660092Y-41836988D01*
X97702557Y-42134171D01*
X97802184Y-42417359D01*
X97880711Y-42564273D01*
X98133769Y-42646626D01*
X99010395Y-41770000D01*
X99369605Y-41770000D01*
X100246231Y-42646626D01*
X100499289Y-42564273D01*
X100629086Y-42293582D01*
X100703580Y-42002770D01*
X100719908Y-41703012D01*
X100677443Y-41405829D01*
X100577816Y-41122641D01*
X100499289Y-40975727D01*
X100246231Y-40893374D01*
X99369605Y-41770000D01*
X99010395Y-41770000D01*
X98133769Y-40893374D01*
X97880711Y-40975727D01*
X97750914Y-41246418D01*
X97676420Y-41537230D01*
X97660092Y-41836988D01*
X96287050Y-41836988D01*
X96247988Y-41719765D01*
X96119871Y-41480076D01*
X95827852Y-41351753D01*
X94679605Y-42500000D01*
X94320395Y-42500000D01*
X93172148Y-41351753D01*
X92880129Y-41480076D01*
X92712277Y-41815695D01*
X92613126Y-42177611D01*
X92586486Y-42551916D01*
X88010000Y-42551916D01*
X88010000Y-41172148D01*
X93351753Y-41172148D01*
X94500000Y-42320395D01*
X95648247Y-41172148D01*
X95519924Y-40880129D01*
X95187289Y-40713769D01*
X98313374Y-40713769D01*
X99190000Y-41590395D01*
X100066626Y-40713769D01*
X99984273Y-40460711D01*
X99713582Y-40330914D01*
X99422770Y-40256420D01*
X99123012Y-40240092D01*
X98825829Y-40282557D01*
X98542641Y-40382184D01*
X98395727Y-40460711D01*
X98313374Y-40713769D01*
X95187289Y-40713769D01*
X95184305Y-40712277D01*
X94822389Y-40613126D01*
X94448084Y-40586486D01*
X94075773Y-40633382D01*
X93719765Y-40752012D01*
X93480076Y-40880129D01*
X93351753Y-41172148D01*
X88010000Y-41172148D01*
X88010000Y-36230000D01*
X92591928Y-36230000D01*
X92591928Y-38770000D01*
X92604188Y-38894482D01*
X92640498Y-39014180D01*
X92699463Y-39124494D01*
X92778815Y-39221185D01*
X92875506Y-39300537D01*
X92985820Y-39359502D01*
X93105518Y-39395812D01*
X93230000Y-39408072D01*
X95770000Y-39408072D01*
X95894482Y-39395812D01*
X96014180Y-39359502D01*
X96124494Y-39300537D01*
X96221185Y-39221185D01*
X96300537Y-39124494D01*
X96359502Y-39014180D01*
X96395812Y-38894482D01*
X96408072Y-38770000D01*
X96408072Y-36539899D01*
X105286000Y-36539899D01*
X105286000Y-36840101D01*
X105344566Y-37134534D01*
X105459449Y-37411885D01*
X105626232Y-37661493D01*
X105838507Y-37873768D01*
X105967562Y-37960000D01*
X105838507Y-38046232D01*
X105626232Y-38258507D01*
X105459449Y-38508115D01*
X105344566Y-38785466D01*
X105286000Y-39079899D01*
X105286000Y-39380101D01*
X105344566Y-39674534D01*
X105459449Y-39951885D01*
X105626232Y-40201493D01*
X105838507Y-40413768D01*
X106088115Y-40580551D01*
X106365466Y-40695434D01*
X106659899Y-40754000D01*
X106960101Y-40754000D01*
X107254534Y-40695434D01*
X107531885Y-40580551D01*
X107781493Y-40413768D01*
X107993768Y-40201493D01*
X108160551Y-39951885D01*
X108275434Y-39674534D01*
X108334000Y-39380101D01*
X108334000Y-39079899D01*
X108275434Y-38785466D01*
X108160551Y-38508115D01*
X107993768Y-38258507D01*
X107781493Y-38046232D01*
X107652438Y-37960000D01*
X107781493Y-37873768D01*
X107993768Y-37661493D01*
X108160551Y-37411885D01*
X108275434Y-37134534D01*
X108334000Y-36840101D01*
X108334000Y-36539899D01*
X108275434Y-36245466D01*
X108239991Y-36159899D01*
X114286000Y-36159899D01*
X114286000Y-36460101D01*
X114344566Y-36754534D01*
X114459449Y-37031885D01*
X114626232Y-37281493D01*
X114838507Y-37493768D01*
X115088115Y-37660551D01*
X115365466Y-37775434D01*
X115659899Y-37834000D01*
X115960101Y-37834000D01*
X116254534Y-37775434D01*
X116531885Y-37660551D01*
X116781493Y-37493768D01*
X116993768Y-37281493D01*
X117160551Y-37031885D01*
X117275434Y-36754534D01*
X117334000Y-36460101D01*
X117334000Y-36389899D01*
X127476000Y-36389899D01*
X127476000Y-36690101D01*
X127534566Y-36984534D01*
X127649449Y-37261885D01*
X127816232Y-37511493D01*
X128028507Y-37723768D01*
X128157562Y-37810000D01*
X128028507Y-37896232D01*
X127816232Y-38108507D01*
X127649449Y-38358115D01*
X127534566Y-38635466D01*
X127476000Y-38929899D01*
X127476000Y-39230101D01*
X127534566Y-39524534D01*
X127649449Y-39801885D01*
X127816232Y-40051493D01*
X128028507Y-40263768D01*
X128278115Y-40430551D01*
X128555466Y-40545434D01*
X128849899Y-40604000D01*
X129150101Y-40604000D01*
X129444534Y-40545434D01*
X129721885Y-40430551D01*
X129971493Y-40263768D01*
X130183768Y-40051493D01*
X130350551Y-39801885D01*
X130465434Y-39524534D01*
X130524000Y-39230101D01*
X130524000Y-38929899D01*
X130465434Y-38635466D01*
X130350551Y-38358115D01*
X130183768Y-38108507D01*
X129971493Y-37896232D01*
X129842438Y-37810000D01*
X129971493Y-37723768D01*
X130183768Y-37511493D01*
X130350551Y-37261885D01*
X130465434Y-36984534D01*
X130524000Y-36690101D01*
X130524000Y-36389899D01*
X130465434Y-36095466D01*
X130350551Y-35818115D01*
X130183768Y-35568507D01*
X129971493Y-35356232D01*
X129813378Y-35250583D01*
X129876626Y-35056231D01*
X129000000Y-34179605D01*
X128123374Y-35056231D01*
X128186622Y-35250583D01*
X128028507Y-35356232D01*
X127816232Y-35568507D01*
X127649449Y-35818115D01*
X127534566Y-36095466D01*
X127476000Y-36389899D01*
X117334000Y-36389899D01*
X117334000Y-36159899D01*
X117275434Y-35865466D01*
X117160551Y-35588115D01*
X116993768Y-35338507D01*
X116781493Y-35126232D01*
X116531885Y-34959449D01*
X116254534Y-34844566D01*
X115960101Y-34786000D01*
X115659899Y-34786000D01*
X115365466Y-34844566D01*
X115088115Y-34959449D01*
X114838507Y-35126232D01*
X114626232Y-35338507D01*
X114459449Y-35588115D01*
X114344566Y-35865466D01*
X114286000Y-36159899D01*
X108239991Y-36159899D01*
X108160551Y-35968115D01*
X107993768Y-35718507D01*
X107781493Y-35506232D01*
X107531885Y-35339449D01*
X107254534Y-35224566D01*
X106960101Y-35166000D01*
X106659899Y-35166000D01*
X106365466Y-35224566D01*
X106088115Y-35339449D01*
X105838507Y-35506232D01*
X105626232Y-35718507D01*
X105459449Y-35968115D01*
X105344566Y-36245466D01*
X105286000Y-36539899D01*
X96408072Y-36539899D01*
X96408072Y-36230000D01*
X96395812Y-36105518D01*
X96359502Y-35985820D01*
X96300537Y-35875506D01*
X96221185Y-35778815D01*
X96124494Y-35699463D01*
X96014180Y-35640498D01*
X95894482Y-35604188D01*
X95770000Y-35591928D01*
X93230000Y-35591928D01*
X93105518Y-35604188D01*
X92985820Y-35640498D01*
X92875506Y-35699463D01*
X92778815Y-35778815D01*
X92699463Y-35875506D01*
X92640498Y-35985820D01*
X92604188Y-36105518D01*
X92591928Y-36230000D01*
X88010000Y-36230000D01*
X88010000Y-34066988D01*
X127470092Y-34066988D01*
X127512557Y-34364171D01*
X127612184Y-34647359D01*
X127690711Y-34794273D01*
X127943769Y-34876626D01*
X128820395Y-34000000D01*
X129179605Y-34000000D01*
X130056231Y-34876626D01*
X130309289Y-34794273D01*
X130439086Y-34523582D01*
X130513580Y-34232770D01*
X130529908Y-33933012D01*
X130487443Y-33635829D01*
X130387816Y-33352641D01*
X130309289Y-33205727D01*
X130056231Y-33123374D01*
X129179605Y-34000000D01*
X128820395Y-34000000D01*
X127943769Y-33123374D01*
X127690711Y-33205727D01*
X127560914Y-33476418D01*
X127486420Y-33767230D01*
X127470092Y-34066988D01*
X88010000Y-34066988D01*
X88010000Y-32943769D01*
X128123374Y-32943769D01*
X129000000Y-33820395D01*
X129876626Y-32943769D01*
X129794273Y-32690711D01*
X129523582Y-32560914D01*
X129232770Y-32486420D01*
X128933012Y-32470092D01*
X128635829Y-32512557D01*
X128352641Y-32612184D01*
X128205727Y-32690711D01*
X128123374Y-32943769D01*
X88010000Y-32943769D01*
X88010000Y-32918355D01*
X88918355Y-32010000D01*
X109288630Y-32010000D01*
X109415008Y-32094443D01*
X109639764Y-32187540D01*
X109878363Y-32235000D01*
X110121637Y-32235000D01*
X110360236Y-32187540D01*
X110584992Y-32094443D01*
X110787267Y-31959287D01*
X110959287Y-31787267D01*
X111094443Y-31584992D01*
X111187540Y-31360236D01*
X111235000Y-31121637D01*
X111235000Y-30878363D01*
X111187540Y-30639764D01*
X111094443Y-30415008D01*
X110959287Y-30212733D01*
X110787267Y-30040713D01*
X110584992Y-29905557D01*
X110360236Y-29812460D01*
X110121637Y-29765000D01*
X109878363Y-29765000D01*
X109639764Y-29812460D01*
X109415008Y-29905557D01*
X109288630Y-29990000D01*
X108987540Y-29990000D01*
X109161493Y-29873768D01*
X109373768Y-29661493D01*
X109540551Y-29411885D01*
X109655434Y-29134534D01*
X109714000Y-28840101D01*
X109714000Y-28539899D01*
X109655434Y-28245466D01*
X109540551Y-27968115D01*
X109373768Y-27718507D01*
X109161493Y-27506232D01*
X108911885Y-27339449D01*
X108634534Y-27224566D01*
X108340101Y-27166000D01*
X108039899Y-27166000D01*
X107745466Y-27224566D01*
X107468115Y-27339449D01*
X107218507Y-27506232D01*
X107006232Y-27718507D01*
X106839449Y-27968115D01*
X106724566Y-28245466D01*
X106666000Y-28539899D01*
X106666000Y-28840101D01*
X106724566Y-29134534D01*
X106839449Y-29411885D01*
X107006232Y-29661493D01*
X107218507Y-29873768D01*
X107392460Y-29990000D01*
X88549604Y-29990000D01*
X88499999Y-29985114D01*
X88450394Y-29990000D01*
X88450392Y-29990000D01*
X88302006Y-30004615D01*
X88111620Y-30062368D01*
X87936160Y-30156153D01*
X87782367Y-30282367D01*
X87750739Y-30320906D01*
X86320906Y-31750739D01*
X86282367Y-31782367D01*
X86156153Y-31936160D01*
X86115467Y-32012279D01*
X86062368Y-32111621D01*
X86004615Y-32302006D01*
X85985114Y-32500000D01*
X85990000Y-32549608D01*
X85990001Y-53450383D01*
X85990000Y-53450393D01*
X85990001Y-55490000D01*
X84211370Y-55490000D01*
X84084992Y-55405557D01*
X83860236Y-55312460D01*
X83621637Y-55265000D01*
X83378363Y-55265000D01*
X83139764Y-55312460D01*
X82915008Y-55405557D01*
X82712733Y-55540713D01*
X82540713Y-55712733D01*
X82405557Y-55915008D01*
X82312460Y-56139764D01*
X82265000Y-56378363D01*
X55935626Y-56378363D01*
X55845515Y-56318153D01*
X55520665Y-56183596D01*
X55175807Y-56115000D01*
X54824193Y-56115000D01*
X54479335Y-56183596D01*
X54154485Y-56318153D01*
X53862129Y-56513500D01*
X53613500Y-56762129D01*
X53418153Y-57054485D01*
X53283596Y-57379335D01*
X53215000Y-57724193D01*
X51204334Y-57724193D01*
X51187540Y-57639764D01*
X51094443Y-57415008D01*
X50959287Y-57212733D01*
X50787267Y-57040713D01*
X50584992Y-56905557D01*
X50360236Y-56812460D01*
X50121637Y-56765000D01*
X49878363Y-56765000D01*
X49639764Y-56812460D01*
X49415008Y-56905557D01*
X49212733Y-57040713D01*
X49040713Y-57212733D01*
X48905557Y-57415008D01*
X48812460Y-57639764D01*
X48765000Y-57878363D01*
X48735000Y-57878363D01*
X48687540Y-57639764D01*
X48594443Y-57415008D01*
X48459287Y-57212733D01*
X48287267Y-57040713D01*
X48084992Y-56905557D01*
X47860236Y-56812460D01*
X47621637Y-56765000D01*
X47378363Y-56765000D01*
X47139764Y-56812460D01*
X46915008Y-56905557D01*
X46712733Y-57040713D01*
X46540713Y-57212733D01*
X46405557Y-57415008D01*
X46312460Y-57639764D01*
X46265000Y-57878363D01*
X45185000Y-57878363D01*
X45185000Y-43939084D01*
X50257000Y-43939084D01*
X50257000Y-44380916D01*
X50343197Y-44814259D01*
X50512279Y-45222459D01*
X50757748Y-45589829D01*
X51070171Y-45902252D01*
X51437541Y-46147721D01*
X51845741Y-46316803D01*
X52279084Y-46403000D01*
X52720916Y-46403000D01*
X53154259Y-46316803D01*
X53562459Y-46147721D01*
X53929829Y-45902252D01*
X54242252Y-45589829D01*
X54391655Y-45366231D01*
X69123374Y-45366231D01*
X69205727Y-45619289D01*
X69476418Y-45749086D01*
X69767230Y-45823580D01*
X70066988Y-45839908D01*
X70364171Y-45797443D01*
X70647359Y-45697816D01*
X70794273Y-45619289D01*
X70876626Y-45366231D01*
X70000000Y-44489605D01*
X69123374Y-45366231D01*
X54391655Y-45366231D01*
X54487721Y-45222459D01*
X54656803Y-44814259D01*
X54743000Y-44380916D01*
X54743000Y-44376988D01*
X68470092Y-44376988D01*
X68512557Y-44674171D01*
X68612184Y-44957359D01*
X68690711Y-45104273D01*
X68943769Y-45186626D01*
X69820395Y-44310000D01*
X70179605Y-44310000D01*
X71056231Y-45186626D01*
X71309289Y-45104273D01*
X71439086Y-44833582D01*
X71513580Y-44542770D01*
X71529908Y-44243012D01*
X71487443Y-43945829D01*
X71445939Y-43827852D01*
X81351753Y-43827852D01*
X81480076Y-44119871D01*
X81815695Y-44287723D01*
X82177611Y-44386874D01*
X82551916Y-44413514D01*
X82924227Y-44366618D01*
X83280235Y-44247988D01*
X83519924Y-44119871D01*
X83648247Y-43827852D01*
X82500000Y-42679605D01*
X81351753Y-43827852D01*
X71445939Y-43827852D01*
X71387816Y-43662641D01*
X71309289Y-43515727D01*
X71056231Y-43433374D01*
X70179605Y-44310000D01*
X69820395Y-44310000D01*
X68943769Y-43433374D01*
X68690711Y-43515727D01*
X68560914Y-43786418D01*
X68486420Y-44077230D01*
X68470092Y-44376988D01*
X54743000Y-44376988D01*
X54743000Y-43939084D01*
X54656803Y-43505741D01*
X54487721Y-43097541D01*
X54242252Y-42730171D01*
X53929829Y-42417748D01*
X53562459Y-42172279D01*
X53154259Y-42003197D01*
X52867208Y-41946099D01*
X55678932Y-41946099D01*
X55686517Y-41995946D01*
X55783677Y-42230533D01*
X55924736Y-42441658D01*
X56104273Y-42621207D01*
X56315388Y-42762280D01*
X56549969Y-42859456D01*
X56799000Y-42909000D01*
X57453000Y-42909000D01*
X57453000Y-41747000D01*
X57707000Y-41747000D01*
X57707000Y-42909000D01*
X58361000Y-42909000D01*
X58610031Y-42859456D01*
X58690235Y-42826231D01*
X69123374Y-42826231D01*
X69192941Y-43040000D01*
X69123374Y-43253769D01*
X70000000Y-44130395D01*
X70876626Y-43253769D01*
X70807059Y-43040000D01*
X70876626Y-42826231D01*
X70000000Y-41949605D01*
X69123374Y-42826231D01*
X58690235Y-42826231D01*
X58844612Y-42762280D01*
X59055727Y-42621207D01*
X59235264Y-42441658D01*
X59376323Y-42230533D01*
X59473483Y-41995946D01*
X59481068Y-41946099D01*
X59413127Y-41836988D01*
X68470092Y-41836988D01*
X68512557Y-42134171D01*
X68612184Y-42417359D01*
X68690711Y-42564273D01*
X68943769Y-42646626D01*
X69820395Y-41770000D01*
X70179605Y-41770000D01*
X71056231Y-42646626D01*
X71309289Y-42564273D01*
X71315214Y-42551916D01*
X80586486Y-42551916D01*
X80633382Y-42924227D01*
X80752012Y-43280235D01*
X80880129Y-43519924D01*
X81172148Y-43648247D01*
X82320395Y-42500000D01*
X82679605Y-42500000D01*
X83827852Y-43648247D01*
X84119871Y-43519924D01*
X84287723Y-43184305D01*
X84386874Y-42822389D01*
X84413514Y-42448084D01*
X84366618Y-42075773D01*
X84247988Y-41719765D01*
X84119871Y-41480076D01*
X83827852Y-41351753D01*
X82679605Y-42500000D01*
X82320395Y-42500000D01*
X81172148Y-41351753D01*
X80880129Y-41480076D01*
X80712277Y-41815695D01*
X80613126Y-42177611D01*
X80586486Y-42551916D01*
X71315214Y-42551916D01*
X71439086Y-42293582D01*
X71513580Y-42002770D01*
X71529908Y-41703012D01*
X71487443Y-41405829D01*
X71405233Y-41172148D01*
X81351753Y-41172148D01*
X82500000Y-42320395D01*
X83648247Y-41172148D01*
X83519924Y-40880129D01*
X83184305Y-40712277D01*
X82822389Y-40613126D01*
X82448084Y-40586486D01*
X82075773Y-40633382D01*
X81719765Y-40752012D01*
X81480076Y-40880129D01*
X81351753Y-41172148D01*
X71405233Y-41172148D01*
X71387816Y-41122641D01*
X71309289Y-40975727D01*
X71056231Y-40893374D01*
X70179605Y-41770000D01*
X69820395Y-41770000D01*
X68943769Y-40893374D01*
X68690711Y-40975727D01*
X68560914Y-41246418D01*
X68486420Y-41537230D01*
X68470092Y-41836988D01*
X59413127Y-41836988D01*
X59357092Y-41747000D01*
X57707000Y-41747000D01*
X57453000Y-41747000D01*
X55802908Y-41747000D01*
X55678932Y-41946099D01*
X52867208Y-41946099D01*
X52720916Y-41917000D01*
X52279084Y-41917000D01*
X51845741Y-42003197D01*
X51437541Y-42172279D01*
X51070171Y-42417748D01*
X50757748Y-42730171D01*
X50512279Y-43097541D01*
X50343197Y-43505741D01*
X50257000Y-43939084D01*
X45185000Y-43939084D01*
X45185000Y-39080000D01*
X55630764Y-39080000D01*
X55655652Y-39332688D01*
X55729358Y-39575665D01*
X55849051Y-39799595D01*
X56010130Y-39995870D01*
X56206405Y-40156949D01*
X56430335Y-40276642D01*
X56673312Y-40350348D01*
X56692332Y-40352221D01*
X56549969Y-40380544D01*
X56315388Y-40477720D01*
X56104273Y-40618793D01*
X55924736Y-40798342D01*
X55783677Y-41009467D01*
X55686517Y-41244054D01*
X55678932Y-41293901D01*
X55802908Y-41493000D01*
X57453000Y-41493000D01*
X57453000Y-41473000D01*
X57707000Y-41473000D01*
X57707000Y-41493000D01*
X59357092Y-41493000D01*
X59481068Y-41293901D01*
X59473483Y-41244054D01*
X59376323Y-41009467D01*
X59235264Y-40798342D01*
X59150697Y-40713769D01*
X69123374Y-40713769D01*
X70000000Y-41590395D01*
X70876626Y-40713769D01*
X70794273Y-40460711D01*
X70523582Y-40330914D01*
X70232770Y-40256420D01*
X69933012Y-40240092D01*
X69635829Y-40282557D01*
X69352641Y-40382184D01*
X69205727Y-40460711D01*
X69123374Y-40713769D01*
X59150697Y-40713769D01*
X59055727Y-40618793D01*
X58844612Y-40477720D01*
X58610031Y-40380544D01*
X58467668Y-40352221D01*
X58486688Y-40350348D01*
X58729665Y-40276642D01*
X58953595Y-40156949D01*
X59035172Y-40090000D01*
X76361735Y-40090000D01*
X76436232Y-40201493D01*
X76648507Y-40413768D01*
X76898115Y-40580551D01*
X77175466Y-40695434D01*
X77469899Y-40754000D01*
X77770101Y-40754000D01*
X78064534Y-40695434D01*
X78341885Y-40580551D01*
X78591493Y-40413768D01*
X78803768Y-40201493D01*
X78970551Y-39951885D01*
X79085434Y-39674534D01*
X79144000Y-39380101D01*
X79144000Y-39079899D01*
X79085434Y-38785466D01*
X78970551Y-38508115D01*
X78803768Y-38258507D01*
X78591493Y-38046232D01*
X78462438Y-37960000D01*
X78591493Y-37873768D01*
X78803768Y-37661493D01*
X78970551Y-37411885D01*
X79085434Y-37134534D01*
X79144000Y-36840101D01*
X79144000Y-36539899D01*
X79085434Y-36245466D01*
X79079028Y-36230000D01*
X80591928Y-36230000D01*
X80591928Y-38770000D01*
X80604188Y-38894482D01*
X80640498Y-39014180D01*
X80699463Y-39124494D01*
X80778815Y-39221185D01*
X80875506Y-39300537D01*
X80985820Y-39359502D01*
X81105518Y-39395812D01*
X81230000Y-39408072D01*
X83770000Y-39408072D01*
X83894482Y-39395812D01*
X84014180Y-39359502D01*
X84124494Y-39300537D01*
X84221185Y-39221185D01*
X84300537Y-39124494D01*
X84359502Y-39014180D01*
X84395812Y-38894482D01*
X84408072Y-38770000D01*
X84408072Y-36230000D01*
X84395812Y-36105518D01*
X84359502Y-35985820D01*
X84300537Y-35875506D01*
X84221185Y-35778815D01*
X84124494Y-35699463D01*
X84014180Y-35640498D01*
X83894482Y-35604188D01*
X83770000Y-35591928D01*
X81230000Y-35591928D01*
X81105518Y-35604188D01*
X80985820Y-35640498D01*
X80875506Y-35699463D01*
X80778815Y-35778815D01*
X80699463Y-35875506D01*
X80640498Y-35985820D01*
X80604188Y-36105518D01*
X80591928Y-36230000D01*
X79079028Y-36230000D01*
X78970551Y-35968115D01*
X78803768Y-35718507D01*
X78591493Y-35506232D01*
X78341885Y-35339449D01*
X78064534Y-35224566D01*
X77770101Y-35166000D01*
X77469899Y-35166000D01*
X77175466Y-35224566D01*
X76898115Y-35339449D01*
X76648507Y-35506232D01*
X76436232Y-35718507D01*
X76269449Y-35968115D01*
X76154566Y-36245466D01*
X76096000Y-36539899D01*
X76096000Y-36840101D01*
X76154566Y-37134534D01*
X76269449Y-37411885D01*
X76436232Y-37661493D01*
X76648507Y-37873768D01*
X76777562Y-37960000D01*
X76648507Y-38046232D01*
X76624739Y-38070000D01*
X59035172Y-38070000D01*
X58953595Y-38003051D01*
X58729665Y-37883358D01*
X58486688Y-37809652D01*
X58297314Y-37791000D01*
X56862686Y-37791000D01*
X56673312Y-37809652D01*
X56430335Y-37883358D01*
X56206405Y-38003051D01*
X56010130Y-38164130D01*
X55849051Y-38360405D01*
X55729358Y-38584335D01*
X55655652Y-38827312D01*
X55630764Y-39080000D01*
X45185000Y-39080000D01*
X45185000Y-33779084D01*
X50257000Y-33779084D01*
X50257000Y-34220916D01*
X50343197Y-34654259D01*
X50512279Y-35062459D01*
X50757748Y-35429829D01*
X51070171Y-35742252D01*
X51437541Y-35987721D01*
X51845741Y-36156803D01*
X52279084Y-36243000D01*
X52720916Y-36243000D01*
X53154259Y-36156803D01*
X53562459Y-35987721D01*
X53929829Y-35742252D01*
X54242252Y-35429829D01*
X54487721Y-35062459D01*
X54656803Y-34654259D01*
X54743000Y-34220916D01*
X54743000Y-33779084D01*
X54656803Y-33345741D01*
X54487721Y-32937541D01*
X54242252Y-32570171D01*
X53929829Y-32257748D01*
X53562459Y-32012279D01*
X53154259Y-31843197D01*
X52720916Y-31757000D01*
X52279084Y-31757000D01*
X51845741Y-31843197D01*
X51437541Y-32012279D01*
X51070171Y-32257748D01*
X50757748Y-32570171D01*
X50512279Y-32937541D01*
X50343197Y-33345741D01*
X50257000Y-33779084D01*
X45185000Y-33779084D01*
X45185000Y-25685000D01*
X155815000Y-25685000D01*
X155815001Y-102815000D01*
M02*
