G04 #@! TF.GenerationSoftware,KiCad,Pcbnew,(5.1.5)-3*
G04 #@! TF.CreationDate,2022-10-29T16:27:40-04:00*
G04 #@! TF.ProjectId,Tayloe-Mixer-v3,5461796c-6f65-42d4-9d69-7865722d7633,rev?*
G04 #@! TF.SameCoordinates,Original*
G04 #@! TF.FileFunction,Legend,Bot*
G04 #@! TF.FilePolarity,Positive*
%FSLAX46Y46*%
G04 Gerber Fmt 4.6, Leading zero omitted, Abs format (unit mm)*
G04 Created by KiCad (PCBNEW (5.1.5)-3) date 2022-10-29 16:27:40*
%MOMM*%
%LPD*%
G04 APERTURE LIST*
%ADD10C,1.219200*%
%ADD11C,2.743200*%
%ADD12O,1.802000X1.802000*%
%ADD13R,1.802000X1.802000*%
%ADD14R,2.743200X2.743200*%
%ADD15C,1.981200*%
%ADD16O,2.819200X1.511200*%
%ADD17C,3.419200*%
%ADD18R,2.102000X2.102000*%
%ADD19C,2.102000*%
%ADD20R,2.102000X3.302000*%
%ADD21C,1.302000*%
%ADD22C,2.503200*%
G04 APERTURE END LIST*
%LPC*%
D10*
X55609600Y-65500000D02*
G75*
G03X55609600Y-65500000I-609600J0D01*
G01*
X55609600Y-57900000D02*
G75*
G03X55609600Y-57900000I-609600J0D01*
G01*
X55609600Y-68100000D02*
G75*
G03X55609600Y-68100000I-609600J0D01*
G01*
X50609600Y-63000000D02*
G75*
G03X50609600Y-63000000I-609600J0D01*
G01*
X55609600Y-60500000D02*
G75*
G03X55609600Y-60500000I-609600J0D01*
G01*
D11*
X147000000Y-66000000D03*
X147000000Y-71000000D03*
D12*
X63500000Y-77120000D03*
X63500000Y-74580000D03*
X63500000Y-72040000D03*
D13*
X63500000Y-69500000D03*
D12*
X104760000Y-97500000D03*
X107300000Y-97500000D03*
X109840000Y-97500000D03*
X112380000Y-97500000D03*
X114920000Y-97500000D03*
X117460000Y-97500000D03*
D13*
X120000000Y-97500000D03*
D14*
X94500000Y-37500000D03*
D11*
X94500000Y-42500000D03*
D14*
X82500000Y-37500000D03*
D11*
X82500000Y-42500000D03*
D12*
X149000000Y-47990000D03*
X149000000Y-42910000D03*
D13*
X149000000Y-37830000D03*
D12*
X149000000Y-45450000D03*
X149000000Y-50530000D03*
X149000000Y-40370000D03*
X149000000Y-53070000D03*
D15*
X121380000Y-44160000D03*
X121380000Y-46700000D03*
X129000000Y-36540000D03*
X121380000Y-41620000D03*
X129000000Y-34000000D03*
X129000000Y-39080000D03*
X106810000Y-39230000D03*
X99190000Y-44310000D03*
X106810000Y-36690000D03*
X99190000Y-41770000D03*
X77620000Y-39230000D03*
X70000000Y-44310000D03*
X77620000Y-36690000D03*
X70000000Y-41770000D03*
D16*
X57580000Y-39080000D03*
X57580000Y-41620000D03*
D17*
X52500000Y-44160000D03*
X52500000Y-34000000D03*
D18*
X51000000Y-96000000D03*
D19*
X53500000Y-96000000D03*
X56000000Y-96000000D03*
D20*
X47900000Y-88500000D03*
X59100000Y-88500000D03*
D19*
X51000000Y-81500000D03*
X56000000Y-81500000D03*
X102500000Y-83000000D03*
X107000000Y-83000000D03*
X102500000Y-89500000D03*
X107000000Y-89500000D03*
D15*
X108190000Y-28690000D03*
X115810000Y-36310000D03*
D21*
X47500000Y-58000000D03*
X50000000Y-58000000D03*
D22*
X55000000Y-57900000D03*
D21*
X55000000Y-63000000D03*
D22*
X50000000Y-63000000D03*
D21*
X50000000Y-68000000D03*
D22*
X55000000Y-68100000D03*
X55000000Y-65500000D03*
D21*
X47500000Y-68000000D03*
D22*
X55000000Y-60500000D03*
M02*
