M48
; DRILL file {KiCad 5.1.5+dfsg1-2build2} date Tue 18 Oct 2022 03:56:45 PM EDT
; FORMAT={-:-/ absolute / inch / decimal}
; #@! TF.CreationDate,2022-10-18T15:56:45-04:00
; #@! TF.GenerationSoftware,Kicad,Pcbnew,5.1.5+dfsg1-2build2
; #@! TF.FileFunction,Plated,1,2,PTH
FMAT,2
INCH
T1C0.0157
T2C0.0236
T3C0.0315
T4C0.0394
T5C0.0433
T6C0.0440
T7C0.0512
T8C0.0591
T9C0.0866
%
G90
G05
T1
X2.2638Y-3.6417
X2.4567Y-2.2795
X2.4606Y-2.5787
X2.5Y-3.7008
X2.5Y-3.7795
X2.7953Y-3.9173
X2.9921Y-3.9567
X3.2283Y-2.9724
X3.2874Y-2.2244
X3.2874Y-2.9134
X3.4646Y-2.4213
X3.5039Y-2.6772
X3.7008Y-2.2244
X3.7598Y-2.6378
X3.9911Y-2.5541
X4.0157Y-2.3425
X4.0551Y-2.5
X4.0748Y-2.7559
X4.1929Y-2.4409
X4.252Y-1.9882
X4.3307Y-1.2205
X4.3701Y-3.3858
X4.4685Y-2.297
X4.4882Y-2.397
X4.5079Y-2.4707
X4.5079Y-3.6811
X4.523Y-2.347
X4.5909Y-3.7445
X4.685Y-3.6811
X4.7835Y-2.0079
X4.8622Y-3.4843
X4.9213Y-2.2835
X4.9409Y-2.5
X4.9803Y-2.3228
X4.9803Y-2.7756
X4.9803Y-2.9134
X5.0Y-2.3819
X5.0984Y-3.3071
X5.4134Y-3.189
X5.748Y-1.6929
X5.8465Y-2.3031
T2
X3.9051Y-1.6445
X3.9051Y-1.7445
X4.2051Y-1.4445
X4.2051Y-1.5445
X4.7787Y-1.6386
X4.7787Y-1.7386
X4.7787Y-1.8386
X5.0787Y-1.3386
X5.0787Y-1.4386
X5.0787Y-1.5386
X4.2594Y-1.1295
X4.5594Y-1.4295
X2.8346Y-1.6445
X2.8346Y-1.7445
X3.1346Y-1.4445
X3.1346Y-1.5445
T3
X2.2669Y-1.5386
X2.2669Y-1.6386
T4
X2.0079Y-3.2087
X2.0079Y-3.7795
X2.1063Y-3.7795
X2.2047Y-3.2087
X2.2047Y-3.7795
X3.3071Y-1.4764
X3.3071Y-1.6732
X4.1244Y-3.8386
X4.2244Y-3.8386
X4.3244Y-3.8386
X4.4244Y-3.8386
X4.5244Y-3.8386
X4.6244Y-3.8386
X4.7244Y-3.8386
X5.8661Y-1.4894
X5.8661Y-1.5894
X5.8661Y-1.6894
X5.8661Y-1.7894
X5.8661Y-1.8894
X5.8661Y-1.9894
X5.8661Y-2.0894
X3.7795Y-1.4764
X3.7795Y-1.6732
X2.5Y-2.7362
X2.5Y-2.8362
X2.5Y-2.9362
X2.5Y-3.0362
T5
X4.0354Y-3.2677
X4.0354Y-3.5236
X4.2126Y-3.2677
X4.2126Y-3.5236
T6
X5.7874Y-2.5984
X5.7874Y-2.7953
T7
X1.9685Y-2.4803
X2.1654Y-2.2795
X2.1654Y-2.3819
X2.1654Y-2.5787
X2.1654Y-2.6811
T9
X2.0669Y-1.3386
X2.0669Y-1.7386
T8
G00X1.8858Y-3.5098
M15
G01X1.8858Y-3.4587
M16
G05
G00X2.3268Y-3.5098
M15
G01X2.3268Y-3.4587
M16
G05
T0
M30
