G04 #@! TF.GenerationSoftware,KiCad,Pcbnew,5.1.12-unknown-nightly-202202221509*
G04 #@! TF.CreationDate,2022-10-18T15:46:02-04:00*
G04 #@! TF.ProjectId,Tayloe-Mixer-v3,5461796c-6f65-42d4-9d69-7865722d7633,rev?*
G04 #@! TF.SameCoordinates,Original*
G04 #@! TF.FileFunction,Legend,Bot*
G04 #@! TF.FilePolarity,Positive*
%FSLAX46Y46*%
G04 Gerber Fmt 4.6, Leading zero omitted, Abs format (unit mm)*
G04 Created by KiCad (PCBNEW 5.1.12-unknown-nightly-202202221509) date 2022-10-18 15:46:02*
%MOMM*%
%LPD*%
G01*
G04 APERTURE LIST*
%ADD10C,1.219200*%
%ADD11C,2.743200*%
%ADD12O,1.802000X1.802000*%
%ADD13C,1.981200*%
%ADD14O,2.819200X1.511200*%
%ADD15C,3.419200*%
%ADD16C,2.102000*%
%ADD17C,1.302000*%
%ADD18C,2.503200*%
G04 APERTURE END LIST*
%LPC*%
D10*
X55609600Y-60500000D02*
G75*
G03*
X55609600Y-60500000I-609600J0D01*
G01*
X50609600Y-63000000D02*
G75*
G03*
X50609600Y-63000000I-609600J0D01*
G01*
X55609600Y-68100000D02*
G75*
G03*
X55609600Y-68100000I-609600J0D01*
G01*
X55609600Y-57900000D02*
G75*
G03*
X55609600Y-57900000I-609600J0D01*
G01*
X55609600Y-65500000D02*
G75*
G03*
X55609600Y-65500000I-609600J0D01*
G01*
D11*
X147000000Y-66000000D03*
X147000000Y-71000000D03*
D12*
X63500000Y-77120000D03*
X63500000Y-74580000D03*
X63500000Y-72040000D03*
G36*
G01*
X62599000Y-70350000D02*
X62599000Y-68650000D01*
G75*
G02*
X62650000Y-68599000I51000J0D01*
G01*
X64350000Y-68599000D01*
G75*
G02*
X64401000Y-68650000I0J-51000D01*
G01*
X64401000Y-70350000D01*
G75*
G02*
X64350000Y-70401000I-51000J0D01*
G01*
X62650000Y-70401000D01*
G75*
G02*
X62599000Y-70350000I0J51000D01*
G01*
G37*
X104760000Y-97500000D03*
X107300000Y-97500000D03*
X109840000Y-97500000D03*
X112380000Y-97500000D03*
X114920000Y-97500000D03*
X117460000Y-97500000D03*
G36*
G01*
X119150000Y-96599000D02*
X120850000Y-96599000D01*
G75*
G02*
X120901000Y-96650000I0J-51000D01*
G01*
X120901000Y-98350000D01*
G75*
G02*
X120850000Y-98401000I-51000J0D01*
G01*
X119150000Y-98401000D01*
G75*
G02*
X119099000Y-98350000I0J51000D01*
G01*
X119099000Y-96650000D01*
G75*
G02*
X119150000Y-96599000I51000J0D01*
G01*
G37*
G36*
G01*
X94628400Y-38770000D02*
X94628400Y-36230000D01*
G75*
G02*
X94730000Y-36128400I101600J0D01*
G01*
X97270000Y-36128400D01*
G75*
G02*
X97371600Y-36230000I0J-101600D01*
G01*
X97371600Y-38770000D01*
G75*
G02*
X97270000Y-38871600I-101600J0D01*
G01*
X94730000Y-38871600D01*
G75*
G02*
X94628400Y-38770000I0J101600D01*
G01*
G37*
D11*
X96000000Y-42500000D03*
G36*
G01*
X82628400Y-38770000D02*
X82628400Y-36230000D01*
G75*
G02*
X82730000Y-36128400I101600J0D01*
G01*
X85270000Y-36128400D01*
G75*
G02*
X85371600Y-36230000I0J-101600D01*
G01*
X85371600Y-38770000D01*
G75*
G02*
X85270000Y-38871600I-101600J0D01*
G01*
X82730000Y-38871600D01*
G75*
G02*
X82628400Y-38770000I0J101600D01*
G01*
G37*
X84000000Y-42500000D03*
D12*
X149000000Y-47990000D03*
X149000000Y-42910000D03*
G36*
G01*
X148099000Y-38680000D02*
X148099000Y-36980000D01*
G75*
G02*
X148150000Y-36929000I51000J0D01*
G01*
X149850000Y-36929000D01*
G75*
G02*
X149901000Y-36980000I0J-51000D01*
G01*
X149901000Y-38680000D01*
G75*
G02*
X149850000Y-38731000I-51000J0D01*
G01*
X148150000Y-38731000D01*
G75*
G02*
X148099000Y-38680000I0J51000D01*
G01*
G37*
X149000000Y-45450000D03*
X149000000Y-50530000D03*
X149000000Y-40370000D03*
X149000000Y-53070000D03*
D13*
X121380000Y-44160000D03*
X121380000Y-46700000D03*
X129000000Y-36540000D03*
X121380000Y-41620000D03*
X129000000Y-34000000D03*
X129000000Y-39080000D03*
X106810000Y-39230000D03*
X99190000Y-44310000D03*
X106810000Y-36690000D03*
X99190000Y-41770000D03*
X79620000Y-39230000D03*
X72000000Y-44310000D03*
X79620000Y-36690000D03*
X72000000Y-41770000D03*
D14*
X57580000Y-39080000D03*
X57580000Y-41620000D03*
D15*
X52500000Y-44160000D03*
X52500000Y-34000000D03*
G36*
G01*
X52000000Y-97051000D02*
X50000000Y-97051000D01*
G75*
G02*
X49949000Y-97000000I0J51000D01*
G01*
X49949000Y-95000000D01*
G75*
G02*
X50000000Y-94949000I51000J0D01*
G01*
X52000000Y-94949000D01*
G75*
G02*
X52051000Y-95000000I0J-51000D01*
G01*
X52051000Y-97000000D01*
G75*
G02*
X52000000Y-97051000I-51000J0D01*
G01*
G37*
D16*
X53500000Y-96000000D03*
X56000000Y-96000000D03*
G36*
G01*
X48900000Y-90151000D02*
X46900000Y-90151000D01*
G75*
G02*
X46849000Y-90100000I0J51000D01*
G01*
X46849000Y-86900000D01*
G75*
G02*
X46900000Y-86849000I51000J0D01*
G01*
X48900000Y-86849000D01*
G75*
G02*
X48951000Y-86900000I0J-51000D01*
G01*
X48951000Y-90100000D01*
G75*
G02*
X48900000Y-90151000I-51000J0D01*
G01*
G37*
G36*
G01*
X60100000Y-90151000D02*
X58100000Y-90151000D01*
G75*
G02*
X58049000Y-90100000I0J51000D01*
G01*
X58049000Y-86900000D01*
G75*
G02*
X58100000Y-86849000I51000J0D01*
G01*
X60100000Y-86849000D01*
G75*
G02*
X60151000Y-86900000I0J-51000D01*
G01*
X60151000Y-90100000D01*
G75*
G02*
X60100000Y-90151000I-51000J0D01*
G01*
G37*
X51000000Y-81500000D03*
X56000000Y-81500000D03*
X102500000Y-83000000D03*
X107000000Y-83000000D03*
X102500000Y-89500000D03*
X107000000Y-89500000D03*
D13*
X108190000Y-28690000D03*
X115810000Y-36310000D03*
D17*
X47500000Y-58000000D03*
X50000000Y-58000000D03*
D18*
X55000000Y-57900000D03*
D17*
X55000000Y-63000000D03*
D18*
X50000000Y-63000000D03*
D17*
X50000000Y-68000000D03*
D18*
X55000000Y-68100000D03*
X55000000Y-65500000D03*
D17*
X47500000Y-68000000D03*
D18*
X55000000Y-60500000D03*
M02*
