%FSLAX45Y45*%
G04 Gerber Fmt 4.5, Leading zero omitted, Abs format (unit mm)*
G04 Created by KiCad (PCBNEW 5.1.12-unknown-nightly-202202221509) date 2022-10-18 15:47:01*
%MOMM*%
%LPD*%
G01*
G04 APERTURE LIST*
%TA.AperFunction,Profile*%
%ADD10C,0.100000*%
%TD*%
%ADD11C,0.200000*%
%ADD12C,0.300000*%
G04 APERTURE END LIST*
D10*
X15550000Y-2600000D02*
X15550000Y-10250000D01*
X4650000Y-2600000D02*
X15550000Y-2600000D01*
X4650000Y-10250000D02*
X4650000Y-2600000D01*
X15550000Y-10250000D02*
X4650000Y-10250000D01*
D11*
X5730000Y-9230000D02*
X5770000Y-9270000D01*
X5770000Y-9230000D02*
X5730000Y-9270000D01*
X6220000Y-5770000D02*
X6260000Y-5810000D01*
X6260000Y-5770000D02*
X6220000Y-5810000D01*
X6230000Y-6530000D02*
X6270000Y-6570000D01*
X6270000Y-6530000D02*
X6230000Y-6570000D01*
X6330000Y-9380000D02*
X6370000Y-9420000D01*
X6370000Y-9380000D02*
X6330000Y-9420000D01*
X6330000Y-9580000D02*
X6370000Y-9620000D01*
X6370000Y-9580000D02*
X6330000Y-9620000D01*
X7080000Y-9930000D02*
X7120000Y-9970000D01*
X7120000Y-9930000D02*
X7080000Y-9970000D01*
X7580000Y-10030000D02*
X7620000Y-10070000D01*
X7620000Y-10030000D02*
X7580000Y-10070000D01*
X8180000Y-7530000D02*
X8220000Y-7570000D01*
X8220000Y-7530000D02*
X8180000Y-7570000D01*
X8330000Y-5630000D02*
X8370000Y-5670000D01*
X8370000Y-5630000D02*
X8330000Y-5670000D01*
X8330000Y-7380000D02*
X8370000Y-7420000D01*
X8370000Y-7380000D02*
X8330000Y-7420000D01*
X8780000Y-6130000D02*
X8820000Y-6170000D01*
X8820000Y-6130000D02*
X8780000Y-6170000D01*
X8880000Y-6780000D02*
X8920000Y-6820000D01*
X8920000Y-6780000D02*
X8880000Y-6820000D01*
X9380000Y-5630000D02*
X9420000Y-5670000D01*
X9420000Y-5630000D02*
X9380000Y-5670000D01*
X9530000Y-6680000D02*
X9570000Y-6720000D01*
X9570000Y-6680000D02*
X9530000Y-6720000D01*
X10117500Y-6467500D02*
X10157500Y-6507500D01*
X10157500Y-6467500D02*
X10117500Y-6507500D01*
X10180000Y-5930000D02*
X10220000Y-5970000D01*
X10220000Y-5930000D02*
X10180000Y-5970000D01*
X10280000Y-6330000D02*
X10320000Y-6370000D01*
X10320000Y-6330000D02*
X10280000Y-6370000D01*
X10330000Y-6980000D02*
X10370000Y-7020000D01*
X10370000Y-6980000D02*
X10330000Y-7020000D01*
X10630000Y-6180000D02*
X10670000Y-6220000D01*
X10670000Y-6180000D02*
X10630000Y-6220000D01*
X10780000Y-5030000D02*
X10820000Y-5070000D01*
X10820000Y-5030000D02*
X10780000Y-5070000D01*
X10980000Y-3080000D02*
X11020000Y-3120000D01*
X11020000Y-3080000D02*
X10980000Y-3120000D01*
X11080000Y-8580000D02*
X11120000Y-8620000D01*
X11120000Y-8580000D02*
X11080000Y-8620000D01*
X11330000Y-5814500D02*
X11370000Y-5854500D01*
X11370000Y-5814500D02*
X11330000Y-5854500D01*
X11380000Y-6068500D02*
X11420000Y-6108500D01*
X11420000Y-6068500D02*
X11380000Y-6108500D01*
X11430000Y-6255500D02*
X11470000Y-6295500D01*
X11470000Y-6255500D02*
X11430000Y-6295500D01*
X11430000Y-9330000D02*
X11470000Y-9370000D01*
X11470000Y-9330000D02*
X11430000Y-9370000D01*
X11468500Y-5941500D02*
X11508500Y-5981500D01*
X11508500Y-5941500D02*
X11468500Y-5981500D01*
X11641000Y-9491000D02*
X11681000Y-9531000D01*
X11681000Y-9491000D02*
X11641000Y-9531000D01*
X11880000Y-9330000D02*
X11920000Y-9370000D01*
X11920000Y-9330000D02*
X11880000Y-9370000D01*
X12130000Y-5080000D02*
X12170000Y-5120000D01*
X12170000Y-5080000D02*
X12130000Y-5120000D01*
X12330000Y-8830000D02*
X12370000Y-8870000D01*
X12370000Y-8830000D02*
X12330000Y-8870000D01*
X12480000Y-5780000D02*
X12520000Y-5820000D01*
X12520000Y-5780000D02*
X12480000Y-5820000D01*
X12530000Y-6330000D02*
X12570000Y-6370000D01*
X12570000Y-6330000D02*
X12530000Y-6370000D01*
X12630000Y-5880000D02*
X12670000Y-5920000D01*
X12670000Y-5880000D02*
X12630000Y-5920000D01*
X12630000Y-7030000D02*
X12670000Y-7070000D01*
X12670000Y-7030000D02*
X12630000Y-7070000D01*
X12630000Y-7380000D02*
X12670000Y-7420000D01*
X12670000Y-7380000D02*
X12630000Y-7420000D01*
X12680000Y-6030000D02*
X12720000Y-6070000D01*
X12720000Y-6030000D02*
X12680000Y-6070000D01*
X12930000Y-8380000D02*
X12970000Y-8420000D01*
X12970000Y-8380000D02*
X12930000Y-8420000D01*
X13730000Y-8080000D02*
X13770000Y-8120000D01*
X13770000Y-8080000D02*
X13730000Y-8120000D01*
X14580000Y-4280000D02*
X14620000Y-4320000D01*
X14620000Y-4280000D02*
X14580000Y-4320000D01*
X14830000Y-5830000D02*
X14870000Y-5870000D01*
X14870000Y-5830000D02*
X14830000Y-5870000D01*
X7230000Y-4177000D02*
G75*
G03*
X7230000Y-4177000I-30000J0D01*
G01*
X7230000Y-4431000D02*
G75*
G03*
X7230000Y-4431000I-30000J0D01*
G01*
X7992000Y-3669000D02*
G75*
G03*
X7992000Y-3669000I-30000J0D01*
G01*
X7992000Y-3923000D02*
G75*
G03*
X7992000Y-3923000I-30000J0D01*
G01*
X9949000Y-4177000D02*
G75*
G03*
X9949000Y-4177000I-30000J0D01*
G01*
X9949000Y-4431000D02*
G75*
G03*
X9949000Y-4431000I-30000J0D01*
G01*
X10711000Y-3669000D02*
G75*
G03*
X10711000Y-3669000I-30000J0D01*
G01*
X10711000Y-3923000D02*
G75*
G03*
X10711000Y-3923000I-30000J0D01*
G01*
X10849000Y-2869000D02*
G75*
G03*
X10849000Y-2869000I-30000J0D01*
G01*
X11611000Y-3631000D02*
G75*
G03*
X11611000Y-3631000I-30000J0D01*
G01*
X12168000Y-4162000D02*
G75*
G03*
X12168000Y-4162000I-30000J0D01*
G01*
X12168000Y-4416000D02*
G75*
G03*
X12168000Y-4416000I-30000J0D01*
G01*
X12168000Y-4670000D02*
G75*
G03*
X12168000Y-4670000I-30000J0D01*
G01*
X12930000Y-3400000D02*
G75*
G03*
X12930000Y-3400000I-30000J0D01*
G01*
X12930000Y-3654000D02*
G75*
G03*
X12930000Y-3654000I-30000J0D01*
G01*
X12930000Y-3908000D02*
G75*
G03*
X12930000Y-3908000I-30000J0D01*
G01*
X5758000Y-3868000D02*
X5758000Y-3948000D01*
X5718000Y-3908000D02*
X5798000Y-3908000D01*
X5758000Y-4122000D02*
X5758000Y-4202000D01*
X5718000Y-4162000D02*
X5798000Y-4162000D01*
X5135356Y-8185356D02*
X5135356Y-8114644D01*
X5064644Y-8114644D01*
X5064644Y-8185356D01*
X5135356Y-8185356D01*
X5135356Y-9635356D02*
X5135356Y-9564644D01*
X5064644Y-9564644D01*
X5064644Y-9635356D01*
X5135356Y-9635356D01*
X5385356Y-9635356D02*
X5385356Y-9564644D01*
X5314644Y-9564644D01*
X5314644Y-9635356D01*
X5385356Y-9635356D01*
X5635356Y-8185356D02*
X5635356Y-8114644D01*
X5564644Y-8114644D01*
X5564644Y-8185356D01*
X5635356Y-8185356D01*
X5635356Y-9635356D02*
X5635356Y-9564644D01*
X5564644Y-9564644D01*
X5564644Y-9635356D01*
X5635356Y-9635356D01*
X6385356Y-6985356D02*
X6385356Y-6914644D01*
X6314644Y-6914644D01*
X6314644Y-6985356D01*
X6385356Y-6985356D01*
X6385356Y-7239356D02*
X6385356Y-7168644D01*
X6314644Y-7168644D01*
X6314644Y-7239356D01*
X6385356Y-7239356D01*
X6385356Y-7493356D02*
X6385356Y-7422644D01*
X6314644Y-7422644D01*
X6314644Y-7493356D01*
X6385356Y-7493356D01*
X6385356Y-7747356D02*
X6385356Y-7676644D01*
X6314644Y-7676644D01*
X6314644Y-7747356D01*
X6385356Y-7747356D01*
X8435356Y-3785356D02*
X8435356Y-3714644D01*
X8364644Y-3714644D01*
X8364644Y-3785356D01*
X8435356Y-3785356D01*
X8435356Y-4285356D02*
X8435356Y-4214644D01*
X8364644Y-4214644D01*
X8364644Y-4285356D01*
X8435356Y-4285356D01*
X9635356Y-3785356D02*
X9635356Y-3714644D01*
X9564644Y-3714644D01*
X9564644Y-3785356D01*
X9635356Y-3785356D01*
X9635356Y-4285356D02*
X9635356Y-4214644D01*
X9564644Y-4214644D01*
X9564644Y-4285356D01*
X9635356Y-4285356D01*
X10511356Y-9785356D02*
X10511356Y-9714644D01*
X10440644Y-9714644D01*
X10440644Y-9785356D01*
X10511356Y-9785356D01*
X10765356Y-9785356D02*
X10765356Y-9714644D01*
X10694644Y-9714644D01*
X10694644Y-9785356D01*
X10765356Y-9785356D01*
X11019356Y-9785356D02*
X11019356Y-9714644D01*
X10948644Y-9714644D01*
X10948644Y-9785356D01*
X11019356Y-9785356D01*
X11273356Y-9785356D02*
X11273356Y-9714644D01*
X11202644Y-9714644D01*
X11202644Y-9785356D01*
X11273356Y-9785356D01*
X11527356Y-9785356D02*
X11527356Y-9714644D01*
X11456644Y-9714644D01*
X11456644Y-9785356D01*
X11527356Y-9785356D01*
X11781356Y-9785356D02*
X11781356Y-9714644D01*
X11710644Y-9714644D01*
X11710644Y-9785356D01*
X11781356Y-9785356D01*
X12035356Y-9785356D02*
X12035356Y-9714644D01*
X11964644Y-9714644D01*
X11964644Y-9785356D01*
X12035356Y-9785356D01*
X14935356Y-3818356D02*
X14935356Y-3747644D01*
X14864644Y-3747644D01*
X14864644Y-3818356D01*
X14935356Y-3818356D01*
X14935356Y-4072356D02*
X14935356Y-4001644D01*
X14864644Y-4001644D01*
X14864644Y-4072356D01*
X14935356Y-4072356D01*
X14935356Y-4326356D02*
X14935356Y-4255644D01*
X14864644Y-4255644D01*
X14864644Y-4326356D01*
X14935356Y-4326356D01*
X14935356Y-4580356D02*
X14935356Y-4509644D01*
X14864644Y-4509644D01*
X14864644Y-4580356D01*
X14935356Y-4580356D01*
X14935356Y-4834356D02*
X14935356Y-4763644D01*
X14864644Y-4763644D01*
X14864644Y-4834356D01*
X14935356Y-4834356D01*
X14935356Y-5088356D02*
X14935356Y-5017644D01*
X14864644Y-5017644D01*
X14864644Y-5088356D01*
X14935356Y-5088356D01*
X14935356Y-5342356D02*
X14935356Y-5271644D01*
X14864644Y-5271644D01*
X14864644Y-5342356D01*
X14935356Y-5342356D01*
X10250000Y-8355000D02*
X10305000Y-8300000D01*
X10250000Y-8245000D01*
X10195000Y-8300000D01*
X10250000Y-8355000D01*
X10250000Y-9005000D02*
X10305000Y-8950000D01*
X10250000Y-8895000D01*
X10195000Y-8950000D01*
X10250000Y-9005000D01*
X10700000Y-8355000D02*
X10755000Y-8300000D01*
X10700000Y-8245000D01*
X10645000Y-8300000D01*
X10700000Y-8355000D01*
X10700000Y-9005000D02*
X10755000Y-8950000D01*
X10700000Y-8895000D01*
X10645000Y-8950000D01*
X10700000Y-9005000D01*
X14644120Y-6544120D02*
X14755880Y-6655880D01*
X14755880Y-6544120D02*
X14644120Y-6655880D01*
X14755880Y-6600000D02*
G75*
G03*
X14755880Y-6600000I-55880J0D01*
G01*
X14644120Y-7044120D02*
X14755880Y-7155880D01*
X14755880Y-7044120D02*
X14644120Y-7155880D01*
X14755880Y-7100000D02*
G75*
G03*
X14755880Y-7100000I-55880J0D01*
G01*
X4935000Y-6235000D02*
X5065000Y-6365000D01*
X5065000Y-6235000D02*
X4935000Y-6365000D01*
X5000000Y-6235000D02*
X5000000Y-6365000D01*
X4935000Y-6300000D02*
X5065000Y-6300000D01*
X5435000Y-5725000D02*
X5565000Y-5855000D01*
X5565000Y-5725000D02*
X5435000Y-5855000D01*
X5500000Y-5725000D02*
X5500000Y-5855000D01*
X5435000Y-5790000D02*
X5565000Y-5790000D01*
X5435000Y-5985000D02*
X5565000Y-6115000D01*
X5565000Y-5985000D02*
X5435000Y-6115000D01*
X5500000Y-5985000D02*
X5500000Y-6115000D01*
X5435000Y-6050000D02*
X5565000Y-6050000D01*
X5435000Y-6485000D02*
X5565000Y-6615000D01*
X5565000Y-6485000D02*
X5435000Y-6615000D01*
X5500000Y-6485000D02*
X5500000Y-6615000D01*
X5435000Y-6550000D02*
X5565000Y-6550000D01*
X5435000Y-6745000D02*
X5565000Y-6875000D01*
X5565000Y-6745000D02*
X5435000Y-6875000D01*
X5500000Y-6745000D02*
X5500000Y-6875000D01*
X5435000Y-6810000D02*
X5565000Y-6810000D01*
X4715000Y-8775000D02*
X4865000Y-8925000D01*
X4865000Y-8775000D02*
X4715000Y-8925000D01*
X4843034Y-8903034D02*
X4843034Y-8796967D01*
X4736967Y-8796967D01*
X4736967Y-8903034D01*
X4843034Y-8903034D01*
X4855000Y-8915000D02*
X4855000Y-8785000D01*
X4725000Y-8915000D02*
X4725000Y-8785000D01*
X4855000Y-8785000D02*
G75*
G03*
X4725000Y-8785000I-65000J0D01*
G01*
X4725000Y-8915000D02*
G75*
G03*
X4855000Y-8915000I65000J0D01*
G01*
X5835000Y-8775000D02*
X5985000Y-8925000D01*
X5985000Y-8775000D02*
X5835000Y-8925000D01*
X5963033Y-8903034D02*
X5963033Y-8796967D01*
X5856966Y-8796967D01*
X5856966Y-8903034D01*
X5963033Y-8903034D01*
X5975000Y-8915000D02*
X5975000Y-8785000D01*
X5845000Y-8915000D02*
X5845000Y-8785000D01*
X5975000Y-8785000D02*
G75*
G03*
X5845000Y-8785000I-65000J0D01*
G01*
X5845000Y-8915000D02*
G75*
G03*
X5975000Y-8915000I65000J0D01*
G01*
X5140000Y-3290000D02*
X5360000Y-3510000D01*
X5360000Y-3290000D02*
X5140000Y-3510000D01*
X5250000Y-3510000D02*
X5360000Y-3400000D01*
X5250000Y-3290000D01*
X5140000Y-3400000D01*
X5250000Y-3510000D01*
X5140000Y-4306000D02*
X5360000Y-4526000D01*
X5360000Y-4306000D02*
X5140000Y-4526000D01*
X5250000Y-4526000D02*
X5360000Y-4416000D01*
X5250000Y-4306000D01*
X5140000Y-4416000D01*
X5250000Y-4526000D01*
D12*
X4931428Y-10720714D02*
X4931428Y-10420714D01*
X5002857Y-10420714D01*
X5045714Y-10435000D01*
X5074286Y-10463572D01*
X5088571Y-10492143D01*
X5102857Y-10549286D01*
X5102857Y-10592143D01*
X5088571Y-10649286D01*
X5074286Y-10677857D01*
X5045714Y-10706429D01*
X5002857Y-10720714D01*
X4931428Y-10720714D01*
X5231428Y-10720714D02*
X5231428Y-10520714D01*
X5231428Y-10577857D02*
X5245714Y-10549286D01*
X5260000Y-10535000D01*
X5288571Y-10520714D01*
X5317143Y-10520714D01*
X5417143Y-10720714D02*
X5417143Y-10520714D01*
X5417143Y-10420714D02*
X5402857Y-10435000D01*
X5417143Y-10449286D01*
X5431428Y-10435000D01*
X5417143Y-10420714D01*
X5417143Y-10449286D01*
X5602857Y-10720714D02*
X5574286Y-10706429D01*
X5560000Y-10677857D01*
X5560000Y-10420714D01*
X5760000Y-10720714D02*
X5731428Y-10706429D01*
X5717143Y-10677857D01*
X5717143Y-10420714D01*
X6102857Y-10720714D02*
X6102857Y-10420714D01*
X6202857Y-10635000D01*
X6302857Y-10420714D01*
X6302857Y-10720714D01*
X6574286Y-10720714D02*
X6574286Y-10563572D01*
X6560000Y-10535000D01*
X6531428Y-10520714D01*
X6474286Y-10520714D01*
X6445714Y-10535000D01*
X6574286Y-10706429D02*
X6545714Y-10720714D01*
X6474286Y-10720714D01*
X6445714Y-10706429D01*
X6431428Y-10677857D01*
X6431428Y-10649286D01*
X6445714Y-10620714D01*
X6474286Y-10606429D01*
X6545714Y-10606429D01*
X6574286Y-10592143D01*
X6717143Y-10520714D02*
X6717143Y-10820714D01*
X6717143Y-10535000D02*
X6745714Y-10520714D01*
X6802857Y-10520714D01*
X6831428Y-10535000D01*
X6845714Y-10549286D01*
X6860000Y-10577857D01*
X6860000Y-10663572D01*
X6845714Y-10692143D01*
X6831428Y-10706429D01*
X6802857Y-10720714D01*
X6745714Y-10720714D01*
X6717143Y-10706429D01*
X6988571Y-10692143D02*
X7002857Y-10706429D01*
X6988571Y-10720714D01*
X6974286Y-10706429D01*
X6988571Y-10692143D01*
X6988571Y-10720714D01*
X6988571Y-10535000D02*
X7002857Y-10549286D01*
X6988571Y-10563572D01*
X6974286Y-10549286D01*
X6988571Y-10535000D01*
X6988571Y-10563572D01*
X4605000Y-11195000D02*
X4645000Y-11235000D01*
X4645000Y-11195000D02*
X4605000Y-11235000D01*
X4988571Y-11050714D02*
X5017143Y-11050714D01*
X5045714Y-11065000D01*
X5060000Y-11079286D01*
X5074286Y-11107857D01*
X5088571Y-11165000D01*
X5088571Y-11236429D01*
X5074286Y-11293571D01*
X5060000Y-11322143D01*
X5045714Y-11336429D01*
X5017143Y-11350714D01*
X4988571Y-11350714D01*
X4960000Y-11336429D01*
X4945714Y-11322143D01*
X4931428Y-11293571D01*
X4917143Y-11236429D01*
X4917143Y-11165000D01*
X4931428Y-11107857D01*
X4945714Y-11079286D01*
X4960000Y-11065000D01*
X4988571Y-11050714D01*
X5217143Y-11322143D02*
X5231428Y-11336429D01*
X5217143Y-11350714D01*
X5202857Y-11336429D01*
X5217143Y-11322143D01*
X5217143Y-11350714D01*
X5488571Y-11150714D02*
X5488571Y-11350714D01*
X5417143Y-11036429D02*
X5345714Y-11250714D01*
X5531428Y-11250714D01*
X5702857Y-11050714D02*
X5731428Y-11050714D01*
X5760000Y-11065000D01*
X5774286Y-11079286D01*
X5788571Y-11107857D01*
X5802857Y-11165000D01*
X5802857Y-11236429D01*
X5788571Y-11293571D01*
X5774286Y-11322143D01*
X5760000Y-11336429D01*
X5731428Y-11350714D01*
X5702857Y-11350714D01*
X5674286Y-11336429D01*
X5660000Y-11322143D01*
X5645714Y-11293571D01*
X5631428Y-11236429D01*
X5631428Y-11165000D01*
X5645714Y-11107857D01*
X5660000Y-11079286D01*
X5674286Y-11065000D01*
X5702857Y-11050714D01*
X5988571Y-11050714D02*
X6017143Y-11050714D01*
X6045714Y-11065000D01*
X6060000Y-11079286D01*
X6074286Y-11107857D01*
X6088571Y-11165000D01*
X6088571Y-11236429D01*
X6074286Y-11293571D01*
X6060000Y-11322143D01*
X6045714Y-11336429D01*
X6017143Y-11350714D01*
X5988571Y-11350714D01*
X5960000Y-11336429D01*
X5945714Y-11322143D01*
X5931428Y-11293571D01*
X5917143Y-11236429D01*
X5917143Y-11165000D01*
X5931428Y-11107857D01*
X5945714Y-11079286D01*
X5960000Y-11065000D01*
X5988571Y-11050714D01*
X6217143Y-11350714D02*
X6217143Y-11150714D01*
X6217143Y-11179286D02*
X6231428Y-11165000D01*
X6260000Y-11150714D01*
X6302857Y-11150714D01*
X6331428Y-11165000D01*
X6345714Y-11193571D01*
X6345714Y-11350714D01*
X6345714Y-11193571D02*
X6360000Y-11165000D01*
X6388571Y-11150714D01*
X6431428Y-11150714D01*
X6460000Y-11165000D01*
X6474286Y-11193571D01*
X6474286Y-11350714D01*
X6617143Y-11350714D02*
X6617143Y-11150714D01*
X6617143Y-11179286D02*
X6631428Y-11165000D01*
X6660000Y-11150714D01*
X6702857Y-11150714D01*
X6731428Y-11165000D01*
X6745714Y-11193571D01*
X6745714Y-11350714D01*
X6745714Y-11193571D02*
X6760000Y-11165000D01*
X6788571Y-11150714D01*
X6831428Y-11150714D01*
X6860000Y-11165000D01*
X6874286Y-11193571D01*
X6874286Y-11350714D01*
X7460000Y-11036429D02*
X7202857Y-11422143D01*
X7845714Y-11050714D02*
X7874286Y-11050714D01*
X7902857Y-11065000D01*
X7917143Y-11079286D01*
X7931428Y-11107857D01*
X7945714Y-11165000D01*
X7945714Y-11236429D01*
X7931428Y-11293571D01*
X7917143Y-11322143D01*
X7902857Y-11336429D01*
X7874286Y-11350714D01*
X7845714Y-11350714D01*
X7817143Y-11336429D01*
X7802857Y-11322143D01*
X7788571Y-11293571D01*
X7774286Y-11236429D01*
X7774286Y-11165000D01*
X7788571Y-11107857D01*
X7802857Y-11079286D01*
X7817143Y-11065000D01*
X7845714Y-11050714D01*
X8074286Y-11322143D02*
X8088571Y-11336429D01*
X8074286Y-11350714D01*
X8060000Y-11336429D01*
X8074286Y-11322143D01*
X8074286Y-11350714D01*
X8274286Y-11050714D02*
X8302857Y-11050714D01*
X8331428Y-11065000D01*
X8345714Y-11079286D01*
X8360000Y-11107857D01*
X8374286Y-11165000D01*
X8374286Y-11236429D01*
X8360000Y-11293571D01*
X8345714Y-11322143D01*
X8331428Y-11336429D01*
X8302857Y-11350714D01*
X8274286Y-11350714D01*
X8245714Y-11336429D01*
X8231428Y-11322143D01*
X8217143Y-11293571D01*
X8202857Y-11236429D01*
X8202857Y-11165000D01*
X8217143Y-11107857D01*
X8231428Y-11079286D01*
X8245714Y-11065000D01*
X8274286Y-11050714D01*
X8660000Y-11350714D02*
X8488571Y-11350714D01*
X8574286Y-11350714D02*
X8574286Y-11050714D01*
X8545714Y-11093572D01*
X8517143Y-11122143D01*
X8488571Y-11136429D01*
X8931428Y-11050714D02*
X8788571Y-11050714D01*
X8774286Y-11193571D01*
X8788571Y-11179286D01*
X8817143Y-11165000D01*
X8888571Y-11165000D01*
X8917143Y-11179286D01*
X8931428Y-11193571D01*
X8945714Y-11222143D01*
X8945714Y-11293571D01*
X8931428Y-11322143D01*
X8917143Y-11336429D01*
X8888571Y-11350714D01*
X8817143Y-11350714D01*
X8788571Y-11336429D01*
X8774286Y-11322143D01*
X9045714Y-11050714D02*
X9245714Y-11050714D01*
X9117143Y-11350714D01*
X9345714Y-11050714D02*
X9345714Y-11107857D01*
X9460000Y-11050714D02*
X9460000Y-11107857D01*
X9902857Y-11465000D02*
X9888571Y-11450714D01*
X9860000Y-11407857D01*
X9845714Y-11379286D01*
X9831428Y-11336429D01*
X9817143Y-11265000D01*
X9817143Y-11207857D01*
X9831428Y-11136429D01*
X9845714Y-11093572D01*
X9860000Y-11065000D01*
X9888571Y-11022143D01*
X9902857Y-11007857D01*
X10145714Y-11150714D02*
X10145714Y-11350714D01*
X10074286Y-11036429D02*
X10002857Y-11250714D01*
X10188571Y-11250714D01*
X10460000Y-11350714D02*
X10288571Y-11350714D01*
X10374286Y-11350714D02*
X10374286Y-11050714D01*
X10345714Y-11093572D01*
X10317143Y-11122143D01*
X10288571Y-11136429D01*
X10817143Y-11350714D02*
X10817143Y-11050714D01*
X10945714Y-11350714D02*
X10945714Y-11193571D01*
X10931428Y-11165000D01*
X10902857Y-11150714D01*
X10860000Y-11150714D01*
X10831428Y-11165000D01*
X10817143Y-11179286D01*
X11131428Y-11350714D02*
X11102857Y-11336429D01*
X11088571Y-11322143D01*
X11074286Y-11293571D01*
X11074286Y-11207857D01*
X11088571Y-11179286D01*
X11102857Y-11165000D01*
X11131428Y-11150714D01*
X11174286Y-11150714D01*
X11202857Y-11165000D01*
X11217143Y-11179286D01*
X11231428Y-11207857D01*
X11231428Y-11293571D01*
X11217143Y-11322143D01*
X11202857Y-11336429D01*
X11174286Y-11350714D01*
X11131428Y-11350714D01*
X11402857Y-11350714D02*
X11374286Y-11336429D01*
X11360000Y-11307857D01*
X11360000Y-11050714D01*
X11631428Y-11336429D02*
X11602857Y-11350714D01*
X11545714Y-11350714D01*
X11517143Y-11336429D01*
X11502857Y-11307857D01*
X11502857Y-11193571D01*
X11517143Y-11165000D01*
X11545714Y-11150714D01*
X11602857Y-11150714D01*
X11631428Y-11165000D01*
X11645714Y-11193571D01*
X11645714Y-11222143D01*
X11502857Y-11250714D01*
X11760000Y-11336429D02*
X11788571Y-11350714D01*
X11845714Y-11350714D01*
X11874286Y-11336429D01*
X11888571Y-11307857D01*
X11888571Y-11293571D01*
X11874286Y-11265000D01*
X11845714Y-11250714D01*
X11802857Y-11250714D01*
X11774286Y-11236429D01*
X11760000Y-11207857D01*
X11760000Y-11193571D01*
X11774286Y-11165000D01*
X11802857Y-11150714D01*
X11845714Y-11150714D01*
X11874286Y-11165000D01*
X11988571Y-11465000D02*
X12002857Y-11450714D01*
X12031428Y-11407857D01*
X12045714Y-11379286D01*
X12060000Y-11336429D01*
X12074286Y-11265000D01*
X12074286Y-11207857D01*
X12060000Y-11136429D01*
X12045714Y-11093572D01*
X12031428Y-11065000D01*
X12002857Y-11022143D01*
X11988571Y-11007857D01*
X4645000Y-11611000D02*
G75*
G03*
X4645000Y-11611000I-30000J0D01*
G01*
X4988571Y-11446714D02*
X5017143Y-11446714D01*
X5045714Y-11461000D01*
X5060000Y-11475286D01*
X5074286Y-11503857D01*
X5088571Y-11561000D01*
X5088571Y-11632429D01*
X5074286Y-11689571D01*
X5060000Y-11718143D01*
X5045714Y-11732429D01*
X5017143Y-11746714D01*
X4988571Y-11746714D01*
X4960000Y-11732429D01*
X4945714Y-11718143D01*
X4931428Y-11689571D01*
X4917143Y-11632429D01*
X4917143Y-11561000D01*
X4931428Y-11503857D01*
X4945714Y-11475286D01*
X4960000Y-11461000D01*
X4988571Y-11446714D01*
X5217143Y-11718143D02*
X5231428Y-11732429D01*
X5217143Y-11746714D01*
X5202857Y-11732429D01*
X5217143Y-11718143D01*
X5217143Y-11746714D01*
X5488571Y-11446714D02*
X5431428Y-11446714D01*
X5402857Y-11461000D01*
X5388571Y-11475286D01*
X5360000Y-11518143D01*
X5345714Y-11575286D01*
X5345714Y-11689571D01*
X5360000Y-11718143D01*
X5374286Y-11732429D01*
X5402857Y-11746714D01*
X5460000Y-11746714D01*
X5488571Y-11732429D01*
X5502857Y-11718143D01*
X5517143Y-11689571D01*
X5517143Y-11618143D01*
X5502857Y-11589571D01*
X5488571Y-11575286D01*
X5460000Y-11561000D01*
X5402857Y-11561000D01*
X5374286Y-11575286D01*
X5360000Y-11589571D01*
X5345714Y-11618143D01*
X5702857Y-11446714D02*
X5731428Y-11446714D01*
X5760000Y-11461000D01*
X5774286Y-11475286D01*
X5788571Y-11503857D01*
X5802857Y-11561000D01*
X5802857Y-11632429D01*
X5788571Y-11689571D01*
X5774286Y-11718143D01*
X5760000Y-11732429D01*
X5731428Y-11746714D01*
X5702857Y-11746714D01*
X5674286Y-11732429D01*
X5660000Y-11718143D01*
X5645714Y-11689571D01*
X5631428Y-11632429D01*
X5631428Y-11561000D01*
X5645714Y-11503857D01*
X5660000Y-11475286D01*
X5674286Y-11461000D01*
X5702857Y-11446714D01*
X5988571Y-11446714D02*
X6017143Y-11446714D01*
X6045714Y-11461000D01*
X6060000Y-11475286D01*
X6074286Y-11503857D01*
X6088571Y-11561000D01*
X6088571Y-11632429D01*
X6074286Y-11689571D01*
X6060000Y-11718143D01*
X6045714Y-11732429D01*
X6017143Y-11746714D01*
X5988571Y-11746714D01*
X5960000Y-11732429D01*
X5945714Y-11718143D01*
X5931428Y-11689571D01*
X5917143Y-11632429D01*
X5917143Y-11561000D01*
X5931428Y-11503857D01*
X5945714Y-11475286D01*
X5960000Y-11461000D01*
X5988571Y-11446714D01*
X6217143Y-11746714D02*
X6217143Y-11546714D01*
X6217143Y-11575286D02*
X6231428Y-11561000D01*
X6260000Y-11546714D01*
X6302857Y-11546714D01*
X6331428Y-11561000D01*
X6345714Y-11589571D01*
X6345714Y-11746714D01*
X6345714Y-11589571D02*
X6360000Y-11561000D01*
X6388571Y-11546714D01*
X6431428Y-11546714D01*
X6460000Y-11561000D01*
X6474286Y-11589571D01*
X6474286Y-11746714D01*
X6617143Y-11746714D02*
X6617143Y-11546714D01*
X6617143Y-11575286D02*
X6631428Y-11561000D01*
X6660000Y-11546714D01*
X6702857Y-11546714D01*
X6731428Y-11561000D01*
X6745714Y-11589571D01*
X6745714Y-11746714D01*
X6745714Y-11589571D02*
X6760000Y-11561000D01*
X6788571Y-11546714D01*
X6831428Y-11546714D01*
X6860000Y-11561000D01*
X6874286Y-11589571D01*
X6874286Y-11746714D01*
X7460000Y-11432429D02*
X7202857Y-11818143D01*
X7845714Y-11446714D02*
X7874286Y-11446714D01*
X7902857Y-11461000D01*
X7917143Y-11475286D01*
X7931428Y-11503857D01*
X7945714Y-11561000D01*
X7945714Y-11632429D01*
X7931428Y-11689571D01*
X7917143Y-11718143D01*
X7902857Y-11732429D01*
X7874286Y-11746714D01*
X7845714Y-11746714D01*
X7817143Y-11732429D01*
X7802857Y-11718143D01*
X7788571Y-11689571D01*
X7774286Y-11632429D01*
X7774286Y-11561000D01*
X7788571Y-11503857D01*
X7802857Y-11475286D01*
X7817143Y-11461000D01*
X7845714Y-11446714D01*
X8074286Y-11718143D02*
X8088571Y-11732429D01*
X8074286Y-11746714D01*
X8060000Y-11732429D01*
X8074286Y-11718143D01*
X8074286Y-11746714D01*
X8274286Y-11446714D02*
X8302857Y-11446714D01*
X8331428Y-11461000D01*
X8345714Y-11475286D01*
X8360000Y-11503857D01*
X8374286Y-11561000D01*
X8374286Y-11632429D01*
X8360000Y-11689571D01*
X8345714Y-11718143D01*
X8331428Y-11732429D01*
X8302857Y-11746714D01*
X8274286Y-11746714D01*
X8245714Y-11732429D01*
X8231428Y-11718143D01*
X8217143Y-11689571D01*
X8202857Y-11632429D01*
X8202857Y-11561000D01*
X8217143Y-11503857D01*
X8231428Y-11475286D01*
X8245714Y-11461000D01*
X8274286Y-11446714D01*
X8488571Y-11475286D02*
X8502857Y-11461000D01*
X8531428Y-11446714D01*
X8602857Y-11446714D01*
X8631428Y-11461000D01*
X8645714Y-11475286D01*
X8660000Y-11503857D01*
X8660000Y-11532429D01*
X8645714Y-11575286D01*
X8474286Y-11746714D01*
X8660000Y-11746714D01*
X8760000Y-11446714D02*
X8945714Y-11446714D01*
X8845714Y-11561000D01*
X8888571Y-11561000D01*
X8917143Y-11575286D01*
X8931428Y-11589571D01*
X8945714Y-11618143D01*
X8945714Y-11689571D01*
X8931428Y-11718143D01*
X8917143Y-11732429D01*
X8888571Y-11746714D01*
X8802857Y-11746714D01*
X8774286Y-11732429D01*
X8760000Y-11718143D01*
X9202857Y-11446714D02*
X9145714Y-11446714D01*
X9117143Y-11461000D01*
X9102857Y-11475286D01*
X9074286Y-11518143D01*
X9060000Y-11575286D01*
X9060000Y-11689571D01*
X9074286Y-11718143D01*
X9088571Y-11732429D01*
X9117143Y-11746714D01*
X9174286Y-11746714D01*
X9202857Y-11732429D01*
X9217143Y-11718143D01*
X9231428Y-11689571D01*
X9231428Y-11618143D01*
X9217143Y-11589571D01*
X9202857Y-11575286D01*
X9174286Y-11561000D01*
X9117143Y-11561000D01*
X9088571Y-11575286D01*
X9074286Y-11589571D01*
X9060000Y-11618143D01*
X9345714Y-11446714D02*
X9345714Y-11503857D01*
X9460000Y-11446714D02*
X9460000Y-11503857D01*
X9902857Y-11861000D02*
X9888571Y-11846714D01*
X9860000Y-11803857D01*
X9845714Y-11775286D01*
X9831428Y-11732429D01*
X9817143Y-11661000D01*
X9817143Y-11603857D01*
X9831428Y-11532429D01*
X9845714Y-11489571D01*
X9860000Y-11461000D01*
X9888571Y-11418143D01*
X9902857Y-11403857D01*
X10174286Y-11746714D02*
X10002857Y-11746714D01*
X10088571Y-11746714D02*
X10088571Y-11446714D01*
X10060000Y-11489571D01*
X10031428Y-11518143D01*
X10002857Y-11532429D01*
X10431428Y-11446714D02*
X10374286Y-11446714D01*
X10345714Y-11461000D01*
X10331428Y-11475286D01*
X10302857Y-11518143D01*
X10288571Y-11575286D01*
X10288571Y-11689571D01*
X10302857Y-11718143D01*
X10317143Y-11732429D01*
X10345714Y-11746714D01*
X10402857Y-11746714D01*
X10431428Y-11732429D01*
X10445714Y-11718143D01*
X10460000Y-11689571D01*
X10460000Y-11618143D01*
X10445714Y-11589571D01*
X10431428Y-11575286D01*
X10402857Y-11561000D01*
X10345714Y-11561000D01*
X10317143Y-11575286D01*
X10302857Y-11589571D01*
X10288571Y-11618143D01*
X10817143Y-11746714D02*
X10817143Y-11446714D01*
X10945714Y-11746714D02*
X10945714Y-11589571D01*
X10931428Y-11561000D01*
X10902857Y-11546714D01*
X10860000Y-11546714D01*
X10831428Y-11561000D01*
X10817143Y-11575286D01*
X11131428Y-11746714D02*
X11102857Y-11732429D01*
X11088571Y-11718143D01*
X11074286Y-11689571D01*
X11074286Y-11603857D01*
X11088571Y-11575286D01*
X11102857Y-11561000D01*
X11131428Y-11546714D01*
X11174286Y-11546714D01*
X11202857Y-11561000D01*
X11217143Y-11575286D01*
X11231428Y-11603857D01*
X11231428Y-11689571D01*
X11217143Y-11718143D01*
X11202857Y-11732429D01*
X11174286Y-11746714D01*
X11131428Y-11746714D01*
X11402857Y-11746714D02*
X11374286Y-11732429D01*
X11360000Y-11703857D01*
X11360000Y-11446714D01*
X11631428Y-11732429D02*
X11602857Y-11746714D01*
X11545714Y-11746714D01*
X11517143Y-11732429D01*
X11502857Y-11703857D01*
X11502857Y-11589571D01*
X11517143Y-11561000D01*
X11545714Y-11546714D01*
X11602857Y-11546714D01*
X11631428Y-11561000D01*
X11645714Y-11589571D01*
X11645714Y-11618143D01*
X11502857Y-11646714D01*
X11760000Y-11732429D02*
X11788571Y-11746714D01*
X11845714Y-11746714D01*
X11874286Y-11732429D01*
X11888571Y-11703857D01*
X11888571Y-11689571D01*
X11874286Y-11661000D01*
X11845714Y-11646714D01*
X11802857Y-11646714D01*
X11774286Y-11632429D01*
X11760000Y-11603857D01*
X11760000Y-11589571D01*
X11774286Y-11561000D01*
X11802857Y-11546714D01*
X11845714Y-11546714D01*
X11874286Y-11561000D01*
X11988571Y-11861000D02*
X12002857Y-11846714D01*
X12031428Y-11803857D01*
X12045714Y-11775286D01*
X12060000Y-11732429D01*
X12074286Y-11661000D01*
X12074286Y-11603857D01*
X12060000Y-11532429D01*
X12045714Y-11489571D01*
X12031428Y-11461000D01*
X12002857Y-11418143D01*
X11988571Y-11403857D01*
X4605000Y-11967000D02*
X4605000Y-12047000D01*
X4565000Y-12007000D02*
X4645000Y-12007000D01*
X4988571Y-11842714D02*
X5017143Y-11842714D01*
X5045714Y-11857000D01*
X5060000Y-11871286D01*
X5074286Y-11899857D01*
X5088571Y-11957000D01*
X5088571Y-12028429D01*
X5074286Y-12085571D01*
X5060000Y-12114143D01*
X5045714Y-12128429D01*
X5017143Y-12142714D01*
X4988571Y-12142714D01*
X4960000Y-12128429D01*
X4945714Y-12114143D01*
X4931428Y-12085571D01*
X4917143Y-12028429D01*
X4917143Y-11957000D01*
X4931428Y-11899857D01*
X4945714Y-11871286D01*
X4960000Y-11857000D01*
X4988571Y-11842714D01*
X5217143Y-12114143D02*
X5231428Y-12128429D01*
X5217143Y-12142714D01*
X5202857Y-12128429D01*
X5217143Y-12114143D01*
X5217143Y-12142714D01*
X5402857Y-11971286D02*
X5374286Y-11957000D01*
X5360000Y-11942714D01*
X5345714Y-11914143D01*
X5345714Y-11899857D01*
X5360000Y-11871286D01*
X5374286Y-11857000D01*
X5402857Y-11842714D01*
X5460000Y-11842714D01*
X5488571Y-11857000D01*
X5502857Y-11871286D01*
X5517143Y-11899857D01*
X5517143Y-11914143D01*
X5502857Y-11942714D01*
X5488571Y-11957000D01*
X5460000Y-11971286D01*
X5402857Y-11971286D01*
X5374286Y-11985571D01*
X5360000Y-11999857D01*
X5345714Y-12028429D01*
X5345714Y-12085571D01*
X5360000Y-12114143D01*
X5374286Y-12128429D01*
X5402857Y-12142714D01*
X5460000Y-12142714D01*
X5488571Y-12128429D01*
X5502857Y-12114143D01*
X5517143Y-12085571D01*
X5517143Y-12028429D01*
X5502857Y-11999857D01*
X5488571Y-11985571D01*
X5460000Y-11971286D01*
X5702857Y-11842714D02*
X5731428Y-11842714D01*
X5760000Y-11857000D01*
X5774286Y-11871286D01*
X5788571Y-11899857D01*
X5802857Y-11957000D01*
X5802857Y-12028429D01*
X5788571Y-12085571D01*
X5774286Y-12114143D01*
X5760000Y-12128429D01*
X5731428Y-12142714D01*
X5702857Y-12142714D01*
X5674286Y-12128429D01*
X5660000Y-12114143D01*
X5645714Y-12085571D01*
X5631428Y-12028429D01*
X5631428Y-11957000D01*
X5645714Y-11899857D01*
X5660000Y-11871286D01*
X5674286Y-11857000D01*
X5702857Y-11842714D01*
X5988571Y-11842714D02*
X6017143Y-11842714D01*
X6045714Y-11857000D01*
X6060000Y-11871286D01*
X6074286Y-11899857D01*
X6088571Y-11957000D01*
X6088571Y-12028429D01*
X6074286Y-12085571D01*
X6060000Y-12114143D01*
X6045714Y-12128429D01*
X6017143Y-12142714D01*
X5988571Y-12142714D01*
X5960000Y-12128429D01*
X5945714Y-12114143D01*
X5931428Y-12085571D01*
X5917143Y-12028429D01*
X5917143Y-11957000D01*
X5931428Y-11899857D01*
X5945714Y-11871286D01*
X5960000Y-11857000D01*
X5988571Y-11842714D01*
X6217143Y-12142714D02*
X6217143Y-11942714D01*
X6217143Y-11971286D02*
X6231428Y-11957000D01*
X6260000Y-11942714D01*
X6302857Y-11942714D01*
X6331428Y-11957000D01*
X6345714Y-11985571D01*
X6345714Y-12142714D01*
X6345714Y-11985571D02*
X6360000Y-11957000D01*
X6388571Y-11942714D01*
X6431428Y-11942714D01*
X6460000Y-11957000D01*
X6474286Y-11985571D01*
X6474286Y-12142714D01*
X6617143Y-12142714D02*
X6617143Y-11942714D01*
X6617143Y-11971286D02*
X6631428Y-11957000D01*
X6660000Y-11942714D01*
X6702857Y-11942714D01*
X6731428Y-11957000D01*
X6745714Y-11985571D01*
X6745714Y-12142714D01*
X6745714Y-11985571D02*
X6760000Y-11957000D01*
X6788571Y-11942714D01*
X6831428Y-11942714D01*
X6860000Y-11957000D01*
X6874286Y-11985571D01*
X6874286Y-12142714D01*
X7460000Y-11828429D02*
X7202857Y-12214143D01*
X7845714Y-11842714D02*
X7874286Y-11842714D01*
X7902857Y-11857000D01*
X7917143Y-11871286D01*
X7931428Y-11899857D01*
X7945714Y-11957000D01*
X7945714Y-12028429D01*
X7931428Y-12085571D01*
X7917143Y-12114143D01*
X7902857Y-12128429D01*
X7874286Y-12142714D01*
X7845714Y-12142714D01*
X7817143Y-12128429D01*
X7802857Y-12114143D01*
X7788571Y-12085571D01*
X7774286Y-12028429D01*
X7774286Y-11957000D01*
X7788571Y-11899857D01*
X7802857Y-11871286D01*
X7817143Y-11857000D01*
X7845714Y-11842714D01*
X8074286Y-12114143D02*
X8088571Y-12128429D01*
X8074286Y-12142714D01*
X8060000Y-12128429D01*
X8074286Y-12114143D01*
X8074286Y-12142714D01*
X8274286Y-11842714D02*
X8302857Y-11842714D01*
X8331428Y-11857000D01*
X8345714Y-11871286D01*
X8360000Y-11899857D01*
X8374286Y-11957000D01*
X8374286Y-12028429D01*
X8360000Y-12085571D01*
X8345714Y-12114143D01*
X8331428Y-12128429D01*
X8302857Y-12142714D01*
X8274286Y-12142714D01*
X8245714Y-12128429D01*
X8231428Y-12114143D01*
X8217143Y-12085571D01*
X8202857Y-12028429D01*
X8202857Y-11957000D01*
X8217143Y-11899857D01*
X8231428Y-11871286D01*
X8245714Y-11857000D01*
X8274286Y-11842714D01*
X8474286Y-11842714D02*
X8660000Y-11842714D01*
X8560000Y-11957000D01*
X8602857Y-11957000D01*
X8631428Y-11971286D01*
X8645714Y-11985571D01*
X8660000Y-12014143D01*
X8660000Y-12085571D01*
X8645714Y-12114143D01*
X8631428Y-12128429D01*
X8602857Y-12142714D01*
X8517143Y-12142714D01*
X8488571Y-12128429D01*
X8474286Y-12114143D01*
X8945714Y-12142714D02*
X8774286Y-12142714D01*
X8860000Y-12142714D02*
X8860000Y-11842714D01*
X8831428Y-11885571D01*
X8802857Y-11914143D01*
X8774286Y-11928429D01*
X9217143Y-11842714D02*
X9074286Y-11842714D01*
X9060000Y-11985571D01*
X9074286Y-11971286D01*
X9102857Y-11957000D01*
X9174286Y-11957000D01*
X9202857Y-11971286D01*
X9217143Y-11985571D01*
X9231428Y-12014143D01*
X9231428Y-12085571D01*
X9217143Y-12114143D01*
X9202857Y-12128429D01*
X9174286Y-12142714D01*
X9102857Y-12142714D01*
X9074286Y-12128429D01*
X9060000Y-12114143D01*
X9345714Y-11842714D02*
X9345714Y-11899857D01*
X9460000Y-11842714D02*
X9460000Y-11899857D01*
X9902857Y-12257000D02*
X9888571Y-12242714D01*
X9860000Y-12199857D01*
X9845714Y-12171286D01*
X9831428Y-12128429D01*
X9817143Y-12057000D01*
X9817143Y-11999857D01*
X9831428Y-11928429D01*
X9845714Y-11885571D01*
X9860000Y-11857000D01*
X9888571Y-11814143D01*
X9902857Y-11799857D01*
X10002857Y-11871286D02*
X10017143Y-11857000D01*
X10045714Y-11842714D01*
X10117143Y-11842714D01*
X10145714Y-11857000D01*
X10160000Y-11871286D01*
X10174286Y-11899857D01*
X10174286Y-11928429D01*
X10160000Y-11971286D01*
X9988571Y-12142714D01*
X10174286Y-12142714D01*
X10531428Y-12142714D02*
X10531428Y-11842714D01*
X10660000Y-12142714D02*
X10660000Y-11985571D01*
X10645714Y-11957000D01*
X10617143Y-11942714D01*
X10574286Y-11942714D01*
X10545714Y-11957000D01*
X10531428Y-11971286D01*
X10845714Y-12142714D02*
X10817143Y-12128429D01*
X10802857Y-12114143D01*
X10788571Y-12085571D01*
X10788571Y-11999857D01*
X10802857Y-11971286D01*
X10817143Y-11957000D01*
X10845714Y-11942714D01*
X10888571Y-11942714D01*
X10917143Y-11957000D01*
X10931428Y-11971286D01*
X10945714Y-11999857D01*
X10945714Y-12085571D01*
X10931428Y-12114143D01*
X10917143Y-12128429D01*
X10888571Y-12142714D01*
X10845714Y-12142714D01*
X11117143Y-12142714D02*
X11088571Y-12128429D01*
X11074286Y-12099857D01*
X11074286Y-11842714D01*
X11345714Y-12128429D02*
X11317143Y-12142714D01*
X11260000Y-12142714D01*
X11231428Y-12128429D01*
X11217143Y-12099857D01*
X11217143Y-11985571D01*
X11231428Y-11957000D01*
X11260000Y-11942714D01*
X11317143Y-11942714D01*
X11345714Y-11957000D01*
X11360000Y-11985571D01*
X11360000Y-12014143D01*
X11217143Y-12042714D01*
X11474286Y-12128429D02*
X11502857Y-12142714D01*
X11560000Y-12142714D01*
X11588571Y-12128429D01*
X11602857Y-12099857D01*
X11602857Y-12085571D01*
X11588571Y-12057000D01*
X11560000Y-12042714D01*
X11517143Y-12042714D01*
X11488571Y-12028429D01*
X11474286Y-11999857D01*
X11474286Y-11985571D01*
X11488571Y-11957000D01*
X11517143Y-11942714D01*
X11560000Y-11942714D01*
X11588571Y-11957000D01*
X11702857Y-12257000D02*
X11717143Y-12242714D01*
X11745714Y-12199857D01*
X11760000Y-12171286D01*
X11774286Y-12128429D01*
X11788571Y-12057000D01*
X11788571Y-11999857D01*
X11774286Y-11928429D01*
X11760000Y-11885571D01*
X11745714Y-11857000D01*
X11717143Y-11814143D01*
X11702857Y-11799857D01*
X4630356Y-12438356D02*
X4630356Y-12367644D01*
X4559644Y-12367644D01*
X4559644Y-12438356D01*
X4630356Y-12438356D01*
X5088571Y-12538714D02*
X4917143Y-12538714D01*
X5002857Y-12538714D02*
X5002857Y-12238714D01*
X4974286Y-12281571D01*
X4945714Y-12310143D01*
X4917143Y-12324429D01*
X5217143Y-12510143D02*
X5231428Y-12524429D01*
X5217143Y-12538714D01*
X5202857Y-12524429D01*
X5217143Y-12510143D01*
X5217143Y-12538714D01*
X5417143Y-12238714D02*
X5445714Y-12238714D01*
X5474286Y-12253000D01*
X5488571Y-12267286D01*
X5502857Y-12295857D01*
X5517143Y-12353000D01*
X5517143Y-12424429D01*
X5502857Y-12481571D01*
X5488571Y-12510143D01*
X5474286Y-12524429D01*
X5445714Y-12538714D01*
X5417143Y-12538714D01*
X5388571Y-12524429D01*
X5374286Y-12510143D01*
X5360000Y-12481571D01*
X5345714Y-12424429D01*
X5345714Y-12353000D01*
X5360000Y-12295857D01*
X5374286Y-12267286D01*
X5388571Y-12253000D01*
X5417143Y-12238714D01*
X5702857Y-12238714D02*
X5731428Y-12238714D01*
X5760000Y-12253000D01*
X5774286Y-12267286D01*
X5788571Y-12295857D01*
X5802857Y-12353000D01*
X5802857Y-12424429D01*
X5788571Y-12481571D01*
X5774286Y-12510143D01*
X5760000Y-12524429D01*
X5731428Y-12538714D01*
X5702857Y-12538714D01*
X5674286Y-12524429D01*
X5660000Y-12510143D01*
X5645714Y-12481571D01*
X5631428Y-12424429D01*
X5631428Y-12353000D01*
X5645714Y-12295857D01*
X5660000Y-12267286D01*
X5674286Y-12253000D01*
X5702857Y-12238714D01*
X5988571Y-12238714D02*
X6017143Y-12238714D01*
X6045714Y-12253000D01*
X6060000Y-12267286D01*
X6074286Y-12295857D01*
X6088571Y-12353000D01*
X6088571Y-12424429D01*
X6074286Y-12481571D01*
X6060000Y-12510143D01*
X6045714Y-12524429D01*
X6017143Y-12538714D01*
X5988571Y-12538714D01*
X5960000Y-12524429D01*
X5945714Y-12510143D01*
X5931428Y-12481571D01*
X5917143Y-12424429D01*
X5917143Y-12353000D01*
X5931428Y-12295857D01*
X5945714Y-12267286D01*
X5960000Y-12253000D01*
X5988571Y-12238714D01*
X6217143Y-12538714D02*
X6217143Y-12338714D01*
X6217143Y-12367286D02*
X6231428Y-12353000D01*
X6260000Y-12338714D01*
X6302857Y-12338714D01*
X6331428Y-12353000D01*
X6345714Y-12381571D01*
X6345714Y-12538714D01*
X6345714Y-12381571D02*
X6360000Y-12353000D01*
X6388571Y-12338714D01*
X6431428Y-12338714D01*
X6460000Y-12353000D01*
X6474286Y-12381571D01*
X6474286Y-12538714D01*
X6617143Y-12538714D02*
X6617143Y-12338714D01*
X6617143Y-12367286D02*
X6631428Y-12353000D01*
X6660000Y-12338714D01*
X6702857Y-12338714D01*
X6731428Y-12353000D01*
X6745714Y-12381571D01*
X6745714Y-12538714D01*
X6745714Y-12381571D02*
X6760000Y-12353000D01*
X6788571Y-12338714D01*
X6831428Y-12338714D01*
X6860000Y-12353000D01*
X6874286Y-12381571D01*
X6874286Y-12538714D01*
X7460000Y-12224429D02*
X7202857Y-12610143D01*
X7845714Y-12238714D02*
X7874286Y-12238714D01*
X7902857Y-12253000D01*
X7917143Y-12267286D01*
X7931428Y-12295857D01*
X7945714Y-12353000D01*
X7945714Y-12424429D01*
X7931428Y-12481571D01*
X7917143Y-12510143D01*
X7902857Y-12524429D01*
X7874286Y-12538714D01*
X7845714Y-12538714D01*
X7817143Y-12524429D01*
X7802857Y-12510143D01*
X7788571Y-12481571D01*
X7774286Y-12424429D01*
X7774286Y-12353000D01*
X7788571Y-12295857D01*
X7802857Y-12267286D01*
X7817143Y-12253000D01*
X7845714Y-12238714D01*
X8074286Y-12510143D02*
X8088571Y-12524429D01*
X8074286Y-12538714D01*
X8060000Y-12524429D01*
X8074286Y-12510143D01*
X8074286Y-12538714D01*
X8274286Y-12238714D02*
X8302857Y-12238714D01*
X8331428Y-12253000D01*
X8345714Y-12267286D01*
X8360000Y-12295857D01*
X8374286Y-12353000D01*
X8374286Y-12424429D01*
X8360000Y-12481571D01*
X8345714Y-12510143D01*
X8331428Y-12524429D01*
X8302857Y-12538714D01*
X8274286Y-12538714D01*
X8245714Y-12524429D01*
X8231428Y-12510143D01*
X8217143Y-12481571D01*
X8202857Y-12424429D01*
X8202857Y-12353000D01*
X8217143Y-12295857D01*
X8231428Y-12267286D01*
X8245714Y-12253000D01*
X8274286Y-12238714D01*
X8474286Y-12238714D02*
X8660000Y-12238714D01*
X8560000Y-12353000D01*
X8602857Y-12353000D01*
X8631428Y-12367286D01*
X8645714Y-12381571D01*
X8660000Y-12410143D01*
X8660000Y-12481571D01*
X8645714Y-12510143D01*
X8631428Y-12524429D01*
X8602857Y-12538714D01*
X8517143Y-12538714D01*
X8488571Y-12524429D01*
X8474286Y-12510143D01*
X8802857Y-12538714D02*
X8860000Y-12538714D01*
X8888571Y-12524429D01*
X8902857Y-12510143D01*
X8931428Y-12467286D01*
X8945714Y-12410143D01*
X8945714Y-12295857D01*
X8931428Y-12267286D01*
X8917143Y-12253000D01*
X8888571Y-12238714D01*
X8831428Y-12238714D01*
X8802857Y-12253000D01*
X8788571Y-12267286D01*
X8774286Y-12295857D01*
X8774286Y-12367286D01*
X8788571Y-12395857D01*
X8802857Y-12410143D01*
X8831428Y-12424429D01*
X8888571Y-12424429D01*
X8917143Y-12410143D01*
X8931428Y-12395857D01*
X8945714Y-12367286D01*
X9202857Y-12338714D02*
X9202857Y-12538714D01*
X9131428Y-12224429D02*
X9060000Y-12438714D01*
X9245714Y-12438714D01*
X9345714Y-12238714D02*
X9345714Y-12295857D01*
X9460000Y-12238714D02*
X9460000Y-12295857D01*
X9902857Y-12653000D02*
X9888571Y-12638714D01*
X9860000Y-12595857D01*
X9845714Y-12567286D01*
X9831428Y-12524429D01*
X9817143Y-12453000D01*
X9817143Y-12395857D01*
X9831428Y-12324429D01*
X9845714Y-12281571D01*
X9860000Y-12253000D01*
X9888571Y-12210143D01*
X9902857Y-12195857D01*
X10002857Y-12267286D02*
X10017143Y-12253000D01*
X10045714Y-12238714D01*
X10117143Y-12238714D01*
X10145714Y-12253000D01*
X10160000Y-12267286D01*
X10174286Y-12295857D01*
X10174286Y-12324429D01*
X10160000Y-12367286D01*
X9988571Y-12538714D01*
X10174286Y-12538714D01*
X10274286Y-12238714D02*
X10474286Y-12238714D01*
X10345714Y-12538714D01*
X10817143Y-12538714D02*
X10817143Y-12238714D01*
X10945714Y-12538714D02*
X10945714Y-12381571D01*
X10931428Y-12353000D01*
X10902857Y-12338714D01*
X10860000Y-12338714D01*
X10831428Y-12353000D01*
X10817143Y-12367286D01*
X11131428Y-12538714D02*
X11102857Y-12524429D01*
X11088571Y-12510143D01*
X11074286Y-12481571D01*
X11074286Y-12395857D01*
X11088571Y-12367286D01*
X11102857Y-12353000D01*
X11131428Y-12338714D01*
X11174286Y-12338714D01*
X11202857Y-12353000D01*
X11217143Y-12367286D01*
X11231428Y-12395857D01*
X11231428Y-12481571D01*
X11217143Y-12510143D01*
X11202857Y-12524429D01*
X11174286Y-12538714D01*
X11131428Y-12538714D01*
X11402857Y-12538714D02*
X11374286Y-12524429D01*
X11360000Y-12495857D01*
X11360000Y-12238714D01*
X11631428Y-12524429D02*
X11602857Y-12538714D01*
X11545714Y-12538714D01*
X11517143Y-12524429D01*
X11502857Y-12495857D01*
X11502857Y-12381571D01*
X11517143Y-12353000D01*
X11545714Y-12338714D01*
X11602857Y-12338714D01*
X11631428Y-12353000D01*
X11645714Y-12381571D01*
X11645714Y-12410143D01*
X11502857Y-12438714D01*
X11760000Y-12524429D02*
X11788571Y-12538714D01*
X11845714Y-12538714D01*
X11874286Y-12524429D01*
X11888571Y-12495857D01*
X11888571Y-12481571D01*
X11874286Y-12453000D01*
X11845714Y-12438714D01*
X11802857Y-12438714D01*
X11774286Y-12424429D01*
X11760000Y-12395857D01*
X11760000Y-12381571D01*
X11774286Y-12353000D01*
X11802857Y-12338714D01*
X11845714Y-12338714D01*
X11874286Y-12353000D01*
X11988571Y-12653000D02*
X12002857Y-12638714D01*
X12031428Y-12595857D01*
X12045714Y-12567286D01*
X12060000Y-12524429D01*
X12074286Y-12453000D01*
X12074286Y-12395857D01*
X12060000Y-12324429D01*
X12045714Y-12281571D01*
X12031428Y-12253000D01*
X12002857Y-12210143D01*
X11988571Y-12195857D01*
X4590000Y-12854000D02*
X4645000Y-12799000D01*
X4590000Y-12744000D01*
X4535000Y-12799000D01*
X4590000Y-12854000D01*
X5088571Y-12934714D02*
X4917143Y-12934714D01*
X5002857Y-12934714D02*
X5002857Y-12634714D01*
X4974286Y-12677571D01*
X4945714Y-12706143D01*
X4917143Y-12720429D01*
X5217143Y-12906143D02*
X5231428Y-12920429D01*
X5217143Y-12934714D01*
X5202857Y-12920429D01*
X5217143Y-12906143D01*
X5217143Y-12934714D01*
X5517143Y-12934714D02*
X5345714Y-12934714D01*
X5431428Y-12934714D02*
X5431428Y-12634714D01*
X5402857Y-12677571D01*
X5374286Y-12706143D01*
X5345714Y-12720429D01*
X5702857Y-12634714D02*
X5731428Y-12634714D01*
X5760000Y-12649000D01*
X5774286Y-12663286D01*
X5788571Y-12691857D01*
X5802857Y-12749000D01*
X5802857Y-12820429D01*
X5788571Y-12877571D01*
X5774286Y-12906143D01*
X5760000Y-12920429D01*
X5731428Y-12934714D01*
X5702857Y-12934714D01*
X5674286Y-12920429D01*
X5660000Y-12906143D01*
X5645714Y-12877571D01*
X5631428Y-12820429D01*
X5631428Y-12749000D01*
X5645714Y-12691857D01*
X5660000Y-12663286D01*
X5674286Y-12649000D01*
X5702857Y-12634714D01*
X5988571Y-12634714D02*
X6017143Y-12634714D01*
X6045714Y-12649000D01*
X6060000Y-12663286D01*
X6074286Y-12691857D01*
X6088571Y-12749000D01*
X6088571Y-12820429D01*
X6074286Y-12877571D01*
X6060000Y-12906143D01*
X6045714Y-12920429D01*
X6017143Y-12934714D01*
X5988571Y-12934714D01*
X5960000Y-12920429D01*
X5945714Y-12906143D01*
X5931428Y-12877571D01*
X5917143Y-12820429D01*
X5917143Y-12749000D01*
X5931428Y-12691857D01*
X5945714Y-12663286D01*
X5960000Y-12649000D01*
X5988571Y-12634714D01*
X6217143Y-12934714D02*
X6217143Y-12734714D01*
X6217143Y-12763286D02*
X6231428Y-12749000D01*
X6260000Y-12734714D01*
X6302857Y-12734714D01*
X6331428Y-12749000D01*
X6345714Y-12777571D01*
X6345714Y-12934714D01*
X6345714Y-12777571D02*
X6360000Y-12749000D01*
X6388571Y-12734714D01*
X6431428Y-12734714D01*
X6460000Y-12749000D01*
X6474286Y-12777571D01*
X6474286Y-12934714D01*
X6617143Y-12934714D02*
X6617143Y-12734714D01*
X6617143Y-12763286D02*
X6631428Y-12749000D01*
X6660000Y-12734714D01*
X6702857Y-12734714D01*
X6731428Y-12749000D01*
X6745714Y-12777571D01*
X6745714Y-12934714D01*
X6745714Y-12777571D02*
X6760000Y-12749000D01*
X6788571Y-12734714D01*
X6831428Y-12734714D01*
X6860000Y-12749000D01*
X6874286Y-12777571D01*
X6874286Y-12934714D01*
X7460000Y-12620429D02*
X7202857Y-13006143D01*
X7845714Y-12634714D02*
X7874286Y-12634714D01*
X7902857Y-12649000D01*
X7917143Y-12663286D01*
X7931428Y-12691857D01*
X7945714Y-12749000D01*
X7945714Y-12820429D01*
X7931428Y-12877571D01*
X7917143Y-12906143D01*
X7902857Y-12920429D01*
X7874286Y-12934714D01*
X7845714Y-12934714D01*
X7817143Y-12920429D01*
X7802857Y-12906143D01*
X7788571Y-12877571D01*
X7774286Y-12820429D01*
X7774286Y-12749000D01*
X7788571Y-12691857D01*
X7802857Y-12663286D01*
X7817143Y-12649000D01*
X7845714Y-12634714D01*
X8074286Y-12906143D02*
X8088571Y-12920429D01*
X8074286Y-12934714D01*
X8060000Y-12920429D01*
X8074286Y-12906143D01*
X8074286Y-12934714D01*
X8274286Y-12634714D02*
X8302857Y-12634714D01*
X8331428Y-12649000D01*
X8345714Y-12663286D01*
X8360000Y-12691857D01*
X8374286Y-12749000D01*
X8374286Y-12820429D01*
X8360000Y-12877571D01*
X8345714Y-12906143D01*
X8331428Y-12920429D01*
X8302857Y-12934714D01*
X8274286Y-12934714D01*
X8245714Y-12920429D01*
X8231428Y-12906143D01*
X8217143Y-12877571D01*
X8202857Y-12820429D01*
X8202857Y-12749000D01*
X8217143Y-12691857D01*
X8231428Y-12663286D01*
X8245714Y-12649000D01*
X8274286Y-12634714D01*
X8631428Y-12734714D02*
X8631428Y-12934714D01*
X8560000Y-12620429D02*
X8488571Y-12834714D01*
X8674286Y-12834714D01*
X8760000Y-12634714D02*
X8945714Y-12634714D01*
X8845714Y-12749000D01*
X8888571Y-12749000D01*
X8917143Y-12763286D01*
X8931428Y-12777571D01*
X8945714Y-12806143D01*
X8945714Y-12877571D01*
X8931428Y-12906143D01*
X8917143Y-12920429D01*
X8888571Y-12934714D01*
X8802857Y-12934714D01*
X8774286Y-12920429D01*
X8760000Y-12906143D01*
X9045714Y-12634714D02*
X9231428Y-12634714D01*
X9131428Y-12749000D01*
X9174286Y-12749000D01*
X9202857Y-12763286D01*
X9217143Y-12777571D01*
X9231428Y-12806143D01*
X9231428Y-12877571D01*
X9217143Y-12906143D01*
X9202857Y-12920429D01*
X9174286Y-12934714D01*
X9088571Y-12934714D01*
X9060000Y-12920429D01*
X9045714Y-12906143D01*
X9345714Y-12634714D02*
X9345714Y-12691857D01*
X9460000Y-12634714D02*
X9460000Y-12691857D01*
X9902857Y-13049000D02*
X9888571Y-13034714D01*
X9860000Y-12991857D01*
X9845714Y-12963286D01*
X9831428Y-12920429D01*
X9817143Y-12849000D01*
X9817143Y-12791857D01*
X9831428Y-12720429D01*
X9845714Y-12677571D01*
X9860000Y-12649000D01*
X9888571Y-12606143D01*
X9902857Y-12591857D01*
X10145714Y-12734714D02*
X10145714Y-12934714D01*
X10074286Y-12620429D02*
X10002857Y-12834714D01*
X10188571Y-12834714D01*
X10531428Y-12934714D02*
X10531428Y-12634714D01*
X10660000Y-12934714D02*
X10660000Y-12777571D01*
X10645714Y-12749000D01*
X10617143Y-12734714D01*
X10574286Y-12734714D01*
X10545714Y-12749000D01*
X10531428Y-12763286D01*
X10845714Y-12934714D02*
X10817143Y-12920429D01*
X10802857Y-12906143D01*
X10788571Y-12877571D01*
X10788571Y-12791857D01*
X10802857Y-12763286D01*
X10817143Y-12749000D01*
X10845714Y-12734714D01*
X10888571Y-12734714D01*
X10917143Y-12749000D01*
X10931428Y-12763286D01*
X10945714Y-12791857D01*
X10945714Y-12877571D01*
X10931428Y-12906143D01*
X10917143Y-12920429D01*
X10888571Y-12934714D01*
X10845714Y-12934714D01*
X11117143Y-12934714D02*
X11088571Y-12920429D01*
X11074286Y-12891857D01*
X11074286Y-12634714D01*
X11345714Y-12920429D02*
X11317143Y-12934714D01*
X11260000Y-12934714D01*
X11231428Y-12920429D01*
X11217143Y-12891857D01*
X11217143Y-12777571D01*
X11231428Y-12749000D01*
X11260000Y-12734714D01*
X11317143Y-12734714D01*
X11345714Y-12749000D01*
X11360000Y-12777571D01*
X11360000Y-12806143D01*
X11217143Y-12834714D01*
X11474286Y-12920429D02*
X11502857Y-12934714D01*
X11560000Y-12934714D01*
X11588571Y-12920429D01*
X11602857Y-12891857D01*
X11602857Y-12877571D01*
X11588571Y-12849000D01*
X11560000Y-12834714D01*
X11517143Y-12834714D01*
X11488571Y-12820429D01*
X11474286Y-12791857D01*
X11474286Y-12777571D01*
X11488571Y-12749000D01*
X11517143Y-12734714D01*
X11560000Y-12734714D01*
X11588571Y-12749000D01*
X11702857Y-13049000D02*
X11717143Y-13034714D01*
X11745714Y-12991857D01*
X11760000Y-12963286D01*
X11774286Y-12920429D01*
X11788571Y-12849000D01*
X11788571Y-12791857D01*
X11774286Y-12720429D01*
X11760000Y-12677571D01*
X11745714Y-12649000D01*
X11717143Y-12606143D01*
X11702857Y-12591857D01*
X4533240Y-13139120D02*
X4645000Y-13250880D01*
X4645000Y-13139120D02*
X4533240Y-13250880D01*
X4645000Y-13195000D02*
G75*
G03*
X4645000Y-13195000I-55880J0D01*
G01*
X5088571Y-13330714D02*
X4917143Y-13330714D01*
X5002857Y-13330714D02*
X5002857Y-13030714D01*
X4974286Y-13073571D01*
X4945714Y-13102143D01*
X4917143Y-13116429D01*
X5217143Y-13302143D02*
X5231428Y-13316429D01*
X5217143Y-13330714D01*
X5202857Y-13316429D01*
X5217143Y-13302143D01*
X5217143Y-13330714D01*
X5517143Y-13330714D02*
X5345714Y-13330714D01*
X5431428Y-13330714D02*
X5431428Y-13030714D01*
X5402857Y-13073571D01*
X5374286Y-13102143D01*
X5345714Y-13116429D01*
X5802857Y-13330714D02*
X5631428Y-13330714D01*
X5717143Y-13330714D02*
X5717143Y-13030714D01*
X5688571Y-13073571D01*
X5660000Y-13102143D01*
X5631428Y-13116429D01*
X5974286Y-13159286D02*
X5945714Y-13145000D01*
X5931428Y-13130714D01*
X5917143Y-13102143D01*
X5917143Y-13087857D01*
X5931428Y-13059286D01*
X5945714Y-13045000D01*
X5974286Y-13030714D01*
X6031428Y-13030714D01*
X6060000Y-13045000D01*
X6074286Y-13059286D01*
X6088571Y-13087857D01*
X6088571Y-13102143D01*
X6074286Y-13130714D01*
X6060000Y-13145000D01*
X6031428Y-13159286D01*
X5974286Y-13159286D01*
X5945714Y-13173571D01*
X5931428Y-13187857D01*
X5917143Y-13216429D01*
X5917143Y-13273571D01*
X5931428Y-13302143D01*
X5945714Y-13316429D01*
X5974286Y-13330714D01*
X6031428Y-13330714D01*
X6060000Y-13316429D01*
X6074286Y-13302143D01*
X6088571Y-13273571D01*
X6088571Y-13216429D01*
X6074286Y-13187857D01*
X6060000Y-13173571D01*
X6031428Y-13159286D01*
X6217143Y-13330714D02*
X6217143Y-13130714D01*
X6217143Y-13159286D02*
X6231428Y-13145000D01*
X6260000Y-13130714D01*
X6302857Y-13130714D01*
X6331428Y-13145000D01*
X6345714Y-13173571D01*
X6345714Y-13330714D01*
X6345714Y-13173571D02*
X6360000Y-13145000D01*
X6388571Y-13130714D01*
X6431428Y-13130714D01*
X6460000Y-13145000D01*
X6474286Y-13173571D01*
X6474286Y-13330714D01*
X6617143Y-13330714D02*
X6617143Y-13130714D01*
X6617143Y-13159286D02*
X6631428Y-13145000D01*
X6660000Y-13130714D01*
X6702857Y-13130714D01*
X6731428Y-13145000D01*
X6745714Y-13173571D01*
X6745714Y-13330714D01*
X6745714Y-13173571D02*
X6760000Y-13145000D01*
X6788571Y-13130714D01*
X6831428Y-13130714D01*
X6860000Y-13145000D01*
X6874286Y-13173571D01*
X6874286Y-13330714D01*
X7460000Y-13016429D02*
X7202857Y-13402143D01*
X7845714Y-13030714D02*
X7874286Y-13030714D01*
X7902857Y-13045000D01*
X7917143Y-13059286D01*
X7931428Y-13087857D01*
X7945714Y-13145000D01*
X7945714Y-13216429D01*
X7931428Y-13273571D01*
X7917143Y-13302143D01*
X7902857Y-13316429D01*
X7874286Y-13330714D01*
X7845714Y-13330714D01*
X7817143Y-13316429D01*
X7802857Y-13302143D01*
X7788571Y-13273571D01*
X7774286Y-13216429D01*
X7774286Y-13145000D01*
X7788571Y-13087857D01*
X7802857Y-13059286D01*
X7817143Y-13045000D01*
X7845714Y-13030714D01*
X8074286Y-13302143D02*
X8088571Y-13316429D01*
X8074286Y-13330714D01*
X8060000Y-13316429D01*
X8074286Y-13302143D01*
X8074286Y-13330714D01*
X8274286Y-13030714D02*
X8302857Y-13030714D01*
X8331428Y-13045000D01*
X8345714Y-13059286D01*
X8360000Y-13087857D01*
X8374286Y-13145000D01*
X8374286Y-13216429D01*
X8360000Y-13273571D01*
X8345714Y-13302143D01*
X8331428Y-13316429D01*
X8302857Y-13330714D01*
X8274286Y-13330714D01*
X8245714Y-13316429D01*
X8231428Y-13302143D01*
X8217143Y-13273571D01*
X8202857Y-13216429D01*
X8202857Y-13145000D01*
X8217143Y-13087857D01*
X8231428Y-13059286D01*
X8245714Y-13045000D01*
X8274286Y-13030714D01*
X8631428Y-13130714D02*
X8631428Y-13330714D01*
X8560000Y-13016429D02*
X8488571Y-13230714D01*
X8674286Y-13230714D01*
X8917143Y-13130714D02*
X8917143Y-13330714D01*
X8845714Y-13016429D02*
X8774286Y-13230714D01*
X8960000Y-13230714D01*
X9131428Y-13030714D02*
X9160000Y-13030714D01*
X9188571Y-13045000D01*
X9202857Y-13059286D01*
X9217143Y-13087857D01*
X9231428Y-13145000D01*
X9231428Y-13216429D01*
X9217143Y-13273571D01*
X9202857Y-13302143D01*
X9188571Y-13316429D01*
X9160000Y-13330714D01*
X9131428Y-13330714D01*
X9102857Y-13316429D01*
X9088571Y-13302143D01*
X9074286Y-13273571D01*
X9060000Y-13216429D01*
X9060000Y-13145000D01*
X9074286Y-13087857D01*
X9088571Y-13059286D01*
X9102857Y-13045000D01*
X9131428Y-13030714D01*
X9345714Y-13030714D02*
X9345714Y-13087857D01*
X9460000Y-13030714D02*
X9460000Y-13087857D01*
X9902857Y-13445000D02*
X9888571Y-13430714D01*
X9860000Y-13387857D01*
X9845714Y-13359286D01*
X9831428Y-13316429D01*
X9817143Y-13245000D01*
X9817143Y-13187857D01*
X9831428Y-13116429D01*
X9845714Y-13073571D01*
X9860000Y-13045000D01*
X9888571Y-13002143D01*
X9902857Y-12987857D01*
X10002857Y-13059286D02*
X10017143Y-13045000D01*
X10045714Y-13030714D01*
X10117143Y-13030714D01*
X10145714Y-13045000D01*
X10160000Y-13059286D01*
X10174286Y-13087857D01*
X10174286Y-13116429D01*
X10160000Y-13159286D01*
X9988571Y-13330714D01*
X10174286Y-13330714D01*
X10531428Y-13330714D02*
X10531428Y-13030714D01*
X10660000Y-13330714D02*
X10660000Y-13173571D01*
X10645714Y-13145000D01*
X10617143Y-13130714D01*
X10574286Y-13130714D01*
X10545714Y-13145000D01*
X10531428Y-13159286D01*
X10845714Y-13330714D02*
X10817143Y-13316429D01*
X10802857Y-13302143D01*
X10788571Y-13273571D01*
X10788571Y-13187857D01*
X10802857Y-13159286D01*
X10817143Y-13145000D01*
X10845714Y-13130714D01*
X10888571Y-13130714D01*
X10917143Y-13145000D01*
X10931428Y-13159286D01*
X10945714Y-13187857D01*
X10945714Y-13273571D01*
X10931428Y-13302143D01*
X10917143Y-13316429D01*
X10888571Y-13330714D01*
X10845714Y-13330714D01*
X11117143Y-13330714D02*
X11088571Y-13316429D01*
X11074286Y-13287857D01*
X11074286Y-13030714D01*
X11345714Y-13316429D02*
X11317143Y-13330714D01*
X11260000Y-13330714D01*
X11231428Y-13316429D01*
X11217143Y-13287857D01*
X11217143Y-13173571D01*
X11231428Y-13145000D01*
X11260000Y-13130714D01*
X11317143Y-13130714D01*
X11345714Y-13145000D01*
X11360000Y-13173571D01*
X11360000Y-13202143D01*
X11217143Y-13230714D01*
X11474286Y-13316429D02*
X11502857Y-13330714D01*
X11560000Y-13330714D01*
X11588571Y-13316429D01*
X11602857Y-13287857D01*
X11602857Y-13273571D01*
X11588571Y-13245000D01*
X11560000Y-13230714D01*
X11517143Y-13230714D01*
X11488571Y-13216429D01*
X11474286Y-13187857D01*
X11474286Y-13173571D01*
X11488571Y-13145000D01*
X11517143Y-13130714D01*
X11560000Y-13130714D01*
X11588571Y-13145000D01*
X11702857Y-13445000D02*
X11717143Y-13430714D01*
X11745714Y-13387857D01*
X11760000Y-13359286D01*
X11774286Y-13316429D01*
X11788571Y-13245000D01*
X11788571Y-13187857D01*
X11774286Y-13116429D01*
X11760000Y-13073571D01*
X11745714Y-13045000D01*
X11717143Y-13002143D01*
X11702857Y-12987857D01*
X4515000Y-13526000D02*
X4645000Y-13656000D01*
X4645000Y-13526000D02*
X4515000Y-13656000D01*
X4580000Y-13526000D02*
X4580000Y-13656000D01*
X4515000Y-13591000D02*
X4645000Y-13591000D01*
X5088571Y-13726714D02*
X4917143Y-13726714D01*
X5002857Y-13726714D02*
X5002857Y-13426714D01*
X4974286Y-13469571D01*
X4945714Y-13498143D01*
X4917143Y-13512429D01*
X5217143Y-13698143D02*
X5231428Y-13712429D01*
X5217143Y-13726714D01*
X5202857Y-13712429D01*
X5217143Y-13698143D01*
X5217143Y-13726714D01*
X5331428Y-13426714D02*
X5517143Y-13426714D01*
X5417143Y-13541000D01*
X5460000Y-13541000D01*
X5488571Y-13555286D01*
X5502857Y-13569571D01*
X5517143Y-13598143D01*
X5517143Y-13669571D01*
X5502857Y-13698143D01*
X5488571Y-13712429D01*
X5460000Y-13726714D01*
X5374286Y-13726714D01*
X5345714Y-13712429D01*
X5331428Y-13698143D01*
X5702857Y-13426714D02*
X5731428Y-13426714D01*
X5760000Y-13441000D01*
X5774286Y-13455286D01*
X5788571Y-13483857D01*
X5802857Y-13541000D01*
X5802857Y-13612429D01*
X5788571Y-13669571D01*
X5774286Y-13698143D01*
X5760000Y-13712429D01*
X5731428Y-13726714D01*
X5702857Y-13726714D01*
X5674286Y-13712429D01*
X5660000Y-13698143D01*
X5645714Y-13669571D01*
X5631428Y-13612429D01*
X5631428Y-13541000D01*
X5645714Y-13483857D01*
X5660000Y-13455286D01*
X5674286Y-13441000D01*
X5702857Y-13426714D01*
X5988571Y-13426714D02*
X6017143Y-13426714D01*
X6045714Y-13441000D01*
X6060000Y-13455286D01*
X6074286Y-13483857D01*
X6088571Y-13541000D01*
X6088571Y-13612429D01*
X6074286Y-13669571D01*
X6060000Y-13698143D01*
X6045714Y-13712429D01*
X6017143Y-13726714D01*
X5988571Y-13726714D01*
X5960000Y-13712429D01*
X5945714Y-13698143D01*
X5931428Y-13669571D01*
X5917143Y-13612429D01*
X5917143Y-13541000D01*
X5931428Y-13483857D01*
X5945714Y-13455286D01*
X5960000Y-13441000D01*
X5988571Y-13426714D01*
X6217143Y-13726714D02*
X6217143Y-13526714D01*
X6217143Y-13555286D02*
X6231428Y-13541000D01*
X6260000Y-13526714D01*
X6302857Y-13526714D01*
X6331428Y-13541000D01*
X6345714Y-13569571D01*
X6345714Y-13726714D01*
X6345714Y-13569571D02*
X6360000Y-13541000D01*
X6388571Y-13526714D01*
X6431428Y-13526714D01*
X6460000Y-13541000D01*
X6474286Y-13569571D01*
X6474286Y-13726714D01*
X6617143Y-13726714D02*
X6617143Y-13526714D01*
X6617143Y-13555286D02*
X6631428Y-13541000D01*
X6660000Y-13526714D01*
X6702857Y-13526714D01*
X6731428Y-13541000D01*
X6745714Y-13569571D01*
X6745714Y-13726714D01*
X6745714Y-13569571D02*
X6760000Y-13541000D01*
X6788571Y-13526714D01*
X6831428Y-13526714D01*
X6860000Y-13541000D01*
X6874286Y-13569571D01*
X6874286Y-13726714D01*
X7460000Y-13412429D02*
X7202857Y-13798143D01*
X7845714Y-13426714D02*
X7874286Y-13426714D01*
X7902857Y-13441000D01*
X7917143Y-13455286D01*
X7931428Y-13483857D01*
X7945714Y-13541000D01*
X7945714Y-13612429D01*
X7931428Y-13669571D01*
X7917143Y-13698143D01*
X7902857Y-13712429D01*
X7874286Y-13726714D01*
X7845714Y-13726714D01*
X7817143Y-13712429D01*
X7802857Y-13698143D01*
X7788571Y-13669571D01*
X7774286Y-13612429D01*
X7774286Y-13541000D01*
X7788571Y-13483857D01*
X7802857Y-13455286D01*
X7817143Y-13441000D01*
X7845714Y-13426714D01*
X8074286Y-13698143D02*
X8088571Y-13712429D01*
X8074286Y-13726714D01*
X8060000Y-13712429D01*
X8074286Y-13698143D01*
X8074286Y-13726714D01*
X8274286Y-13426714D02*
X8302857Y-13426714D01*
X8331428Y-13441000D01*
X8345714Y-13455286D01*
X8360000Y-13483857D01*
X8374286Y-13541000D01*
X8374286Y-13612429D01*
X8360000Y-13669571D01*
X8345714Y-13698143D01*
X8331428Y-13712429D01*
X8302857Y-13726714D01*
X8274286Y-13726714D01*
X8245714Y-13712429D01*
X8231428Y-13698143D01*
X8217143Y-13669571D01*
X8202857Y-13612429D01*
X8202857Y-13541000D01*
X8217143Y-13483857D01*
X8231428Y-13455286D01*
X8245714Y-13441000D01*
X8274286Y-13426714D01*
X8645714Y-13426714D02*
X8502857Y-13426714D01*
X8488571Y-13569571D01*
X8502857Y-13555286D01*
X8531428Y-13541000D01*
X8602857Y-13541000D01*
X8631428Y-13555286D01*
X8645714Y-13569571D01*
X8660000Y-13598143D01*
X8660000Y-13669571D01*
X8645714Y-13698143D01*
X8631428Y-13712429D01*
X8602857Y-13726714D01*
X8531428Y-13726714D01*
X8502857Y-13712429D01*
X8488571Y-13698143D01*
X8945714Y-13726714D02*
X8774286Y-13726714D01*
X8860000Y-13726714D02*
X8860000Y-13426714D01*
X8831428Y-13469571D01*
X8802857Y-13498143D01*
X8774286Y-13512429D01*
X9060000Y-13455286D02*
X9074286Y-13441000D01*
X9102857Y-13426714D01*
X9174286Y-13426714D01*
X9202857Y-13441000D01*
X9217143Y-13455286D01*
X9231428Y-13483857D01*
X9231428Y-13512429D01*
X9217143Y-13555286D01*
X9045714Y-13726714D01*
X9231428Y-13726714D01*
X9345714Y-13426714D02*
X9345714Y-13483857D01*
X9460000Y-13426714D02*
X9460000Y-13483857D01*
X9902857Y-13841000D02*
X9888571Y-13826714D01*
X9860000Y-13783857D01*
X9845714Y-13755286D01*
X9831428Y-13712429D01*
X9817143Y-13641000D01*
X9817143Y-13583857D01*
X9831428Y-13512429D01*
X9845714Y-13469571D01*
X9860000Y-13441000D01*
X9888571Y-13398143D01*
X9902857Y-13383857D01*
X10160000Y-13426714D02*
X10017143Y-13426714D01*
X10002857Y-13569571D01*
X10017143Y-13555286D01*
X10045714Y-13541000D01*
X10117143Y-13541000D01*
X10145714Y-13555286D01*
X10160000Y-13569571D01*
X10174286Y-13598143D01*
X10174286Y-13669571D01*
X10160000Y-13698143D01*
X10145714Y-13712429D01*
X10117143Y-13726714D01*
X10045714Y-13726714D01*
X10017143Y-13712429D01*
X10002857Y-13698143D01*
X10531428Y-13726714D02*
X10531428Y-13426714D01*
X10660000Y-13726714D02*
X10660000Y-13569571D01*
X10645714Y-13541000D01*
X10617143Y-13526714D01*
X10574286Y-13526714D01*
X10545714Y-13541000D01*
X10531428Y-13555286D01*
X10845714Y-13726714D02*
X10817143Y-13712429D01*
X10802857Y-13698143D01*
X10788571Y-13669571D01*
X10788571Y-13583857D01*
X10802857Y-13555286D01*
X10817143Y-13541000D01*
X10845714Y-13526714D01*
X10888571Y-13526714D01*
X10917143Y-13541000D01*
X10931428Y-13555286D01*
X10945714Y-13583857D01*
X10945714Y-13669571D01*
X10931428Y-13698143D01*
X10917143Y-13712429D01*
X10888571Y-13726714D01*
X10845714Y-13726714D01*
X11117143Y-13726714D02*
X11088571Y-13712429D01*
X11074286Y-13683857D01*
X11074286Y-13426714D01*
X11345714Y-13712429D02*
X11317143Y-13726714D01*
X11260000Y-13726714D01*
X11231428Y-13712429D01*
X11217143Y-13683857D01*
X11217143Y-13569571D01*
X11231428Y-13541000D01*
X11260000Y-13526714D01*
X11317143Y-13526714D01*
X11345714Y-13541000D01*
X11360000Y-13569571D01*
X11360000Y-13598143D01*
X11217143Y-13626714D01*
X11474286Y-13712429D02*
X11502857Y-13726714D01*
X11560000Y-13726714D01*
X11588571Y-13712429D01*
X11602857Y-13683857D01*
X11602857Y-13669571D01*
X11588571Y-13641000D01*
X11560000Y-13626714D01*
X11517143Y-13626714D01*
X11488571Y-13612429D01*
X11474286Y-13583857D01*
X11474286Y-13569571D01*
X11488571Y-13541000D01*
X11517143Y-13526714D01*
X11560000Y-13526714D01*
X11588571Y-13541000D01*
X11702857Y-13841000D02*
X11717143Y-13826714D01*
X11745714Y-13783857D01*
X11760000Y-13755286D01*
X11774286Y-13712429D01*
X11788571Y-13641000D01*
X11788571Y-13583857D01*
X11774286Y-13512429D01*
X11760000Y-13469571D01*
X11745714Y-13441000D01*
X11717143Y-13398143D01*
X11702857Y-13383857D01*
X4495000Y-13912000D02*
X4645000Y-14062000D01*
X4645000Y-13912000D02*
X4495000Y-14062000D01*
X4623033Y-14040034D02*
X4623033Y-13933967D01*
X4516966Y-13933967D01*
X4516966Y-14040034D01*
X4623033Y-14040034D01*
X5088571Y-14122714D02*
X4917143Y-14122714D01*
X5002857Y-14122714D02*
X5002857Y-13822714D01*
X4974286Y-13865571D01*
X4945714Y-13894143D01*
X4917143Y-13908429D01*
X5217143Y-14094143D02*
X5231428Y-14108429D01*
X5217143Y-14122714D01*
X5202857Y-14108429D01*
X5217143Y-14094143D01*
X5217143Y-14122714D01*
X5502857Y-13822714D02*
X5360000Y-13822714D01*
X5345714Y-13965571D01*
X5360000Y-13951286D01*
X5388571Y-13937000D01*
X5460000Y-13937000D01*
X5488571Y-13951286D01*
X5502857Y-13965571D01*
X5517143Y-13994143D01*
X5517143Y-14065571D01*
X5502857Y-14094143D01*
X5488571Y-14108429D01*
X5460000Y-14122714D01*
X5388571Y-14122714D01*
X5360000Y-14108429D01*
X5345714Y-14094143D01*
X5702857Y-13822714D02*
X5731428Y-13822714D01*
X5760000Y-13837000D01*
X5774286Y-13851286D01*
X5788571Y-13879857D01*
X5802857Y-13937000D01*
X5802857Y-14008429D01*
X5788571Y-14065571D01*
X5774286Y-14094143D01*
X5760000Y-14108429D01*
X5731428Y-14122714D01*
X5702857Y-14122714D01*
X5674286Y-14108429D01*
X5660000Y-14094143D01*
X5645714Y-14065571D01*
X5631428Y-14008429D01*
X5631428Y-13937000D01*
X5645714Y-13879857D01*
X5660000Y-13851286D01*
X5674286Y-13837000D01*
X5702857Y-13822714D01*
X5988571Y-13822714D02*
X6017143Y-13822714D01*
X6045714Y-13837000D01*
X6060000Y-13851286D01*
X6074286Y-13879857D01*
X6088571Y-13937000D01*
X6088571Y-14008429D01*
X6074286Y-14065571D01*
X6060000Y-14094143D01*
X6045714Y-14108429D01*
X6017143Y-14122714D01*
X5988571Y-14122714D01*
X5960000Y-14108429D01*
X5945714Y-14094143D01*
X5931428Y-14065571D01*
X5917143Y-14008429D01*
X5917143Y-13937000D01*
X5931428Y-13879857D01*
X5945714Y-13851286D01*
X5960000Y-13837000D01*
X5988571Y-13822714D01*
X6217143Y-14122714D02*
X6217143Y-13922714D01*
X6217143Y-13951286D02*
X6231428Y-13937000D01*
X6260000Y-13922714D01*
X6302857Y-13922714D01*
X6331428Y-13937000D01*
X6345714Y-13965571D01*
X6345714Y-14122714D01*
X6345714Y-13965571D02*
X6360000Y-13937000D01*
X6388571Y-13922714D01*
X6431428Y-13922714D01*
X6460000Y-13937000D01*
X6474286Y-13965571D01*
X6474286Y-14122714D01*
X6617143Y-14122714D02*
X6617143Y-13922714D01*
X6617143Y-13951286D02*
X6631428Y-13937000D01*
X6660000Y-13922714D01*
X6702857Y-13922714D01*
X6731428Y-13937000D01*
X6745714Y-13965571D01*
X6745714Y-14122714D01*
X6745714Y-13965571D02*
X6760000Y-13937000D01*
X6788571Y-13922714D01*
X6831428Y-13922714D01*
X6860000Y-13937000D01*
X6874286Y-13965571D01*
X6874286Y-14122714D01*
X7460000Y-13808429D02*
X7202857Y-14194143D01*
X7845714Y-13822714D02*
X7874286Y-13822714D01*
X7902857Y-13837000D01*
X7917143Y-13851286D01*
X7931428Y-13879857D01*
X7945714Y-13937000D01*
X7945714Y-14008429D01*
X7931428Y-14065571D01*
X7917143Y-14094143D01*
X7902857Y-14108429D01*
X7874286Y-14122714D01*
X7845714Y-14122714D01*
X7817143Y-14108429D01*
X7802857Y-14094143D01*
X7788571Y-14065571D01*
X7774286Y-14008429D01*
X7774286Y-13937000D01*
X7788571Y-13879857D01*
X7802857Y-13851286D01*
X7817143Y-13837000D01*
X7845714Y-13822714D01*
X8074286Y-14094143D02*
X8088571Y-14108429D01*
X8074286Y-14122714D01*
X8060000Y-14108429D01*
X8074286Y-14094143D01*
X8074286Y-14122714D01*
X8274286Y-13822714D02*
X8302857Y-13822714D01*
X8331428Y-13837000D01*
X8345714Y-13851286D01*
X8360000Y-13879857D01*
X8374286Y-13937000D01*
X8374286Y-14008429D01*
X8360000Y-14065571D01*
X8345714Y-14094143D01*
X8331428Y-14108429D01*
X8302857Y-14122714D01*
X8274286Y-14122714D01*
X8245714Y-14108429D01*
X8231428Y-14094143D01*
X8217143Y-14065571D01*
X8202857Y-14008429D01*
X8202857Y-13937000D01*
X8217143Y-13879857D01*
X8231428Y-13851286D01*
X8245714Y-13837000D01*
X8274286Y-13822714D01*
X8645714Y-13822714D02*
X8502857Y-13822714D01*
X8488571Y-13965571D01*
X8502857Y-13951286D01*
X8531428Y-13937000D01*
X8602857Y-13937000D01*
X8631428Y-13951286D01*
X8645714Y-13965571D01*
X8660000Y-13994143D01*
X8660000Y-14065571D01*
X8645714Y-14094143D01*
X8631428Y-14108429D01*
X8602857Y-14122714D01*
X8531428Y-14122714D01*
X8502857Y-14108429D01*
X8488571Y-14094143D01*
X8802857Y-14122714D02*
X8860000Y-14122714D01*
X8888571Y-14108429D01*
X8902857Y-14094143D01*
X8931428Y-14051286D01*
X8945714Y-13994143D01*
X8945714Y-13879857D01*
X8931428Y-13851286D01*
X8917143Y-13837000D01*
X8888571Y-13822714D01*
X8831428Y-13822714D01*
X8802857Y-13837000D01*
X8788571Y-13851286D01*
X8774286Y-13879857D01*
X8774286Y-13951286D01*
X8788571Y-13979857D01*
X8802857Y-13994143D01*
X8831428Y-14008429D01*
X8888571Y-14008429D01*
X8917143Y-13994143D01*
X8931428Y-13979857D01*
X8945714Y-13951286D01*
X9231428Y-14122714D02*
X9060000Y-14122714D01*
X9145714Y-14122714D02*
X9145714Y-13822714D01*
X9117143Y-13865571D01*
X9088571Y-13894143D01*
X9060000Y-13908429D01*
X9345714Y-13822714D02*
X9345714Y-13879857D01*
X9460000Y-13822714D02*
X9460000Y-13879857D01*
X9902857Y-14237000D02*
X9888571Y-14222714D01*
X9860000Y-14179857D01*
X9845714Y-14151286D01*
X9831428Y-14108429D01*
X9817143Y-14037000D01*
X9817143Y-13979857D01*
X9831428Y-13908429D01*
X9845714Y-13865571D01*
X9860000Y-13837000D01*
X9888571Y-13794143D01*
X9902857Y-13779857D01*
X10074286Y-13822714D02*
X10102857Y-13822714D01*
X10131428Y-13837000D01*
X10145714Y-13851286D01*
X10160000Y-13879857D01*
X10174286Y-13937000D01*
X10174286Y-14008429D01*
X10160000Y-14065571D01*
X10145714Y-14094143D01*
X10131428Y-14108429D01*
X10102857Y-14122714D01*
X10074286Y-14122714D01*
X10045714Y-14108429D01*
X10031428Y-14094143D01*
X10017143Y-14065571D01*
X10002857Y-14008429D01*
X10002857Y-13937000D01*
X10017143Y-13879857D01*
X10031428Y-13851286D01*
X10045714Y-13837000D01*
X10074286Y-13822714D01*
X10531428Y-14122714D02*
X10531428Y-13822714D01*
X10660000Y-14122714D02*
X10660000Y-13965571D01*
X10645714Y-13937000D01*
X10617143Y-13922714D01*
X10574286Y-13922714D01*
X10545714Y-13937000D01*
X10531428Y-13951286D01*
X10845714Y-14122714D02*
X10817143Y-14108429D01*
X10802857Y-14094143D01*
X10788571Y-14065571D01*
X10788571Y-13979857D01*
X10802857Y-13951286D01*
X10817143Y-13937000D01*
X10845714Y-13922714D01*
X10888571Y-13922714D01*
X10917143Y-13937000D01*
X10931428Y-13951286D01*
X10945714Y-13979857D01*
X10945714Y-14065571D01*
X10931428Y-14094143D01*
X10917143Y-14108429D01*
X10888571Y-14122714D01*
X10845714Y-14122714D01*
X11117143Y-14122714D02*
X11088571Y-14108429D01*
X11074286Y-14079857D01*
X11074286Y-13822714D01*
X11345714Y-14108429D02*
X11317143Y-14122714D01*
X11260000Y-14122714D01*
X11231428Y-14108429D01*
X11217143Y-14079857D01*
X11217143Y-13965571D01*
X11231428Y-13937000D01*
X11260000Y-13922714D01*
X11317143Y-13922714D01*
X11345714Y-13937000D01*
X11360000Y-13965571D01*
X11360000Y-13994143D01*
X11217143Y-14022714D01*
X11474286Y-14108429D02*
X11502857Y-14122714D01*
X11560000Y-14122714D01*
X11588571Y-14108429D01*
X11602857Y-14079857D01*
X11602857Y-14065571D01*
X11588571Y-14037000D01*
X11560000Y-14022714D01*
X11517143Y-14022714D01*
X11488571Y-14008429D01*
X11474286Y-13979857D01*
X11474286Y-13965571D01*
X11488571Y-13937000D01*
X11517143Y-13922714D01*
X11560000Y-13922714D01*
X11588571Y-13937000D01*
X11960000Y-14008429D02*
X12188571Y-14008429D01*
X12074286Y-14122714D02*
X12074286Y-13894143D01*
X12545714Y-13851286D02*
X12560000Y-13837000D01*
X12588571Y-13822714D01*
X12660000Y-13822714D01*
X12688571Y-13837000D01*
X12702857Y-13851286D01*
X12717143Y-13879857D01*
X12717143Y-13908429D01*
X12702857Y-13951286D01*
X12531428Y-14122714D01*
X12717143Y-14122714D01*
X13060000Y-14108429D02*
X13088571Y-14122714D01*
X13145714Y-14122714D01*
X13174286Y-14108429D01*
X13188571Y-14079857D01*
X13188571Y-14065571D01*
X13174286Y-14037000D01*
X13145714Y-14022714D01*
X13102857Y-14022714D01*
X13074286Y-14008429D01*
X13060000Y-13979857D01*
X13060000Y-13965571D01*
X13074286Y-13937000D01*
X13102857Y-13922714D01*
X13145714Y-13922714D01*
X13174286Y-13937000D01*
X13360000Y-14122714D02*
X13331428Y-14108429D01*
X13317143Y-14079857D01*
X13317143Y-13822714D01*
X13517143Y-14122714D02*
X13488571Y-14108429D01*
X13474286Y-14094143D01*
X13460000Y-14065571D01*
X13460000Y-13979857D01*
X13474286Y-13951286D01*
X13488571Y-13937000D01*
X13517143Y-13922714D01*
X13560000Y-13922714D01*
X13588571Y-13937000D01*
X13602857Y-13951286D01*
X13617143Y-13979857D01*
X13617143Y-14065571D01*
X13602857Y-14094143D01*
X13588571Y-14108429D01*
X13560000Y-14122714D01*
X13517143Y-14122714D01*
X13702857Y-13922714D02*
X13817143Y-13922714D01*
X13745714Y-13822714D02*
X13745714Y-14079857D01*
X13760000Y-14108429D01*
X13788571Y-14122714D01*
X13817143Y-14122714D01*
X13902857Y-14108429D02*
X13931428Y-14122714D01*
X13988571Y-14122714D01*
X14017143Y-14108429D01*
X14031428Y-14079857D01*
X14031428Y-14065571D01*
X14017143Y-14037000D01*
X13988571Y-14022714D01*
X13945714Y-14022714D01*
X13917143Y-14008429D01*
X13902857Y-13979857D01*
X13902857Y-13965571D01*
X13917143Y-13937000D01*
X13945714Y-13922714D01*
X13988571Y-13922714D01*
X14017143Y-13937000D01*
X14131428Y-14237000D02*
X14145714Y-14222714D01*
X14174286Y-14179857D01*
X14188571Y-14151286D01*
X14202857Y-14108429D01*
X14217143Y-14037000D01*
X14217143Y-13979857D01*
X14202857Y-13908429D01*
X14188571Y-13865571D01*
X14174286Y-13837000D01*
X14145714Y-13794143D01*
X14131428Y-13779857D01*
X4425000Y-14273000D02*
X4645000Y-14493000D01*
X4645000Y-14273000D02*
X4425000Y-14493000D01*
X4535000Y-14493000D02*
X4645000Y-14383000D01*
X4535000Y-14273000D01*
X4425000Y-14383000D01*
X4535000Y-14493000D01*
X4917143Y-14247286D02*
X4931428Y-14233000D01*
X4960000Y-14218714D01*
X5031428Y-14218714D01*
X5060000Y-14233000D01*
X5074286Y-14247286D01*
X5088571Y-14275857D01*
X5088571Y-14304429D01*
X5074286Y-14347286D01*
X4902857Y-14518714D01*
X5088571Y-14518714D01*
X5217143Y-14490143D02*
X5231428Y-14504429D01*
X5217143Y-14518714D01*
X5202857Y-14504429D01*
X5217143Y-14490143D01*
X5217143Y-14518714D01*
X5345714Y-14247286D02*
X5360000Y-14233000D01*
X5388571Y-14218714D01*
X5460000Y-14218714D01*
X5488571Y-14233000D01*
X5502857Y-14247286D01*
X5517143Y-14275857D01*
X5517143Y-14304429D01*
X5502857Y-14347286D01*
X5331428Y-14518714D01*
X5517143Y-14518714D01*
X5702857Y-14218714D02*
X5731428Y-14218714D01*
X5760000Y-14233000D01*
X5774286Y-14247286D01*
X5788571Y-14275857D01*
X5802857Y-14333000D01*
X5802857Y-14404429D01*
X5788571Y-14461571D01*
X5774286Y-14490143D01*
X5760000Y-14504429D01*
X5731428Y-14518714D01*
X5702857Y-14518714D01*
X5674286Y-14504429D01*
X5660000Y-14490143D01*
X5645714Y-14461571D01*
X5631428Y-14404429D01*
X5631428Y-14333000D01*
X5645714Y-14275857D01*
X5660000Y-14247286D01*
X5674286Y-14233000D01*
X5702857Y-14218714D01*
X5988571Y-14218714D02*
X6017143Y-14218714D01*
X6045714Y-14233000D01*
X6060000Y-14247286D01*
X6074286Y-14275857D01*
X6088571Y-14333000D01*
X6088571Y-14404429D01*
X6074286Y-14461571D01*
X6060000Y-14490143D01*
X6045714Y-14504429D01*
X6017143Y-14518714D01*
X5988571Y-14518714D01*
X5960000Y-14504429D01*
X5945714Y-14490143D01*
X5931428Y-14461571D01*
X5917143Y-14404429D01*
X5917143Y-14333000D01*
X5931428Y-14275857D01*
X5945714Y-14247286D01*
X5960000Y-14233000D01*
X5988571Y-14218714D01*
X6217143Y-14518714D02*
X6217143Y-14318714D01*
X6217143Y-14347286D02*
X6231428Y-14333000D01*
X6260000Y-14318714D01*
X6302857Y-14318714D01*
X6331428Y-14333000D01*
X6345714Y-14361571D01*
X6345714Y-14518714D01*
X6345714Y-14361571D02*
X6360000Y-14333000D01*
X6388571Y-14318714D01*
X6431428Y-14318714D01*
X6460000Y-14333000D01*
X6474286Y-14361571D01*
X6474286Y-14518714D01*
X6617143Y-14518714D02*
X6617143Y-14318714D01*
X6617143Y-14347286D02*
X6631428Y-14333000D01*
X6660000Y-14318714D01*
X6702857Y-14318714D01*
X6731428Y-14333000D01*
X6745714Y-14361571D01*
X6745714Y-14518714D01*
X6745714Y-14361571D02*
X6760000Y-14333000D01*
X6788571Y-14318714D01*
X6831428Y-14318714D01*
X6860000Y-14333000D01*
X6874286Y-14361571D01*
X6874286Y-14518714D01*
X7460000Y-14204429D02*
X7202857Y-14590143D01*
X7845714Y-14218714D02*
X7874286Y-14218714D01*
X7902857Y-14233000D01*
X7917143Y-14247286D01*
X7931428Y-14275857D01*
X7945714Y-14333000D01*
X7945714Y-14404429D01*
X7931428Y-14461571D01*
X7917143Y-14490143D01*
X7902857Y-14504429D01*
X7874286Y-14518714D01*
X7845714Y-14518714D01*
X7817143Y-14504429D01*
X7802857Y-14490143D01*
X7788571Y-14461571D01*
X7774286Y-14404429D01*
X7774286Y-14333000D01*
X7788571Y-14275857D01*
X7802857Y-14247286D01*
X7817143Y-14233000D01*
X7845714Y-14218714D01*
X8074286Y-14490143D02*
X8088571Y-14504429D01*
X8074286Y-14518714D01*
X8060000Y-14504429D01*
X8074286Y-14490143D01*
X8074286Y-14518714D01*
X8274286Y-14218714D02*
X8302857Y-14218714D01*
X8331428Y-14233000D01*
X8345714Y-14247286D01*
X8360000Y-14275857D01*
X8374286Y-14333000D01*
X8374286Y-14404429D01*
X8360000Y-14461571D01*
X8345714Y-14490143D01*
X8331428Y-14504429D01*
X8302857Y-14518714D01*
X8274286Y-14518714D01*
X8245714Y-14504429D01*
X8231428Y-14490143D01*
X8217143Y-14461571D01*
X8202857Y-14404429D01*
X8202857Y-14333000D01*
X8217143Y-14275857D01*
X8231428Y-14247286D01*
X8245714Y-14233000D01*
X8274286Y-14218714D01*
X8545714Y-14347286D02*
X8517143Y-14333000D01*
X8502857Y-14318714D01*
X8488571Y-14290143D01*
X8488571Y-14275857D01*
X8502857Y-14247286D01*
X8517143Y-14233000D01*
X8545714Y-14218714D01*
X8602857Y-14218714D01*
X8631428Y-14233000D01*
X8645714Y-14247286D01*
X8660000Y-14275857D01*
X8660000Y-14290143D01*
X8645714Y-14318714D01*
X8631428Y-14333000D01*
X8602857Y-14347286D01*
X8545714Y-14347286D01*
X8517143Y-14361571D01*
X8502857Y-14375857D01*
X8488571Y-14404429D01*
X8488571Y-14461571D01*
X8502857Y-14490143D01*
X8517143Y-14504429D01*
X8545714Y-14518714D01*
X8602857Y-14518714D01*
X8631428Y-14504429D01*
X8645714Y-14490143D01*
X8660000Y-14461571D01*
X8660000Y-14404429D01*
X8645714Y-14375857D01*
X8631428Y-14361571D01*
X8602857Y-14347286D01*
X8917143Y-14218714D02*
X8860000Y-14218714D01*
X8831428Y-14233000D01*
X8817143Y-14247286D01*
X8788571Y-14290143D01*
X8774286Y-14347286D01*
X8774286Y-14461571D01*
X8788571Y-14490143D01*
X8802857Y-14504429D01*
X8831428Y-14518714D01*
X8888571Y-14518714D01*
X8917143Y-14504429D01*
X8931428Y-14490143D01*
X8945714Y-14461571D01*
X8945714Y-14390143D01*
X8931428Y-14361571D01*
X8917143Y-14347286D01*
X8888571Y-14333000D01*
X8831428Y-14333000D01*
X8802857Y-14347286D01*
X8788571Y-14361571D01*
X8774286Y-14390143D01*
X9202857Y-14218714D02*
X9145714Y-14218714D01*
X9117143Y-14233000D01*
X9102857Y-14247286D01*
X9074286Y-14290143D01*
X9060000Y-14347286D01*
X9060000Y-14461571D01*
X9074286Y-14490143D01*
X9088571Y-14504429D01*
X9117143Y-14518714D01*
X9174286Y-14518714D01*
X9202857Y-14504429D01*
X9217143Y-14490143D01*
X9231428Y-14461571D01*
X9231428Y-14390143D01*
X9217143Y-14361571D01*
X9202857Y-14347286D01*
X9174286Y-14333000D01*
X9117143Y-14333000D01*
X9088571Y-14347286D01*
X9074286Y-14361571D01*
X9060000Y-14390143D01*
X9345714Y-14218714D02*
X9345714Y-14275857D01*
X9460000Y-14218714D02*
X9460000Y-14275857D01*
X9902857Y-14633000D02*
X9888571Y-14618714D01*
X9860000Y-14575857D01*
X9845714Y-14547286D01*
X9831428Y-14504429D01*
X9817143Y-14433000D01*
X9817143Y-14375857D01*
X9831428Y-14304429D01*
X9845714Y-14261571D01*
X9860000Y-14233000D01*
X9888571Y-14190143D01*
X9902857Y-14175857D01*
X10002857Y-14247286D02*
X10017143Y-14233000D01*
X10045714Y-14218714D01*
X10117143Y-14218714D01*
X10145714Y-14233000D01*
X10160000Y-14247286D01*
X10174286Y-14275857D01*
X10174286Y-14304429D01*
X10160000Y-14347286D01*
X9988571Y-14518714D01*
X10174286Y-14518714D01*
X10531428Y-14518714D02*
X10531428Y-14218714D01*
X10660000Y-14518714D02*
X10660000Y-14361571D01*
X10645714Y-14333000D01*
X10617143Y-14318714D01*
X10574286Y-14318714D01*
X10545714Y-14333000D01*
X10531428Y-14347286D01*
X10845714Y-14518714D02*
X10817143Y-14504429D01*
X10802857Y-14490143D01*
X10788571Y-14461571D01*
X10788571Y-14375857D01*
X10802857Y-14347286D01*
X10817143Y-14333000D01*
X10845714Y-14318714D01*
X10888571Y-14318714D01*
X10917143Y-14333000D01*
X10931428Y-14347286D01*
X10945714Y-14375857D01*
X10945714Y-14461571D01*
X10931428Y-14490143D01*
X10917143Y-14504429D01*
X10888571Y-14518714D01*
X10845714Y-14518714D01*
X11117143Y-14518714D02*
X11088571Y-14504429D01*
X11074286Y-14475857D01*
X11074286Y-14218714D01*
X11345714Y-14504429D02*
X11317143Y-14518714D01*
X11260000Y-14518714D01*
X11231428Y-14504429D01*
X11217143Y-14475857D01*
X11217143Y-14361571D01*
X11231428Y-14333000D01*
X11260000Y-14318714D01*
X11317143Y-14318714D01*
X11345714Y-14333000D01*
X11360000Y-14361571D01*
X11360000Y-14390143D01*
X11217143Y-14418714D01*
X11474286Y-14504429D02*
X11502857Y-14518714D01*
X11560000Y-14518714D01*
X11588571Y-14504429D01*
X11602857Y-14475857D01*
X11602857Y-14461571D01*
X11588571Y-14433000D01*
X11560000Y-14418714D01*
X11517143Y-14418714D01*
X11488571Y-14404429D01*
X11474286Y-14375857D01*
X11474286Y-14361571D01*
X11488571Y-14333000D01*
X11517143Y-14318714D01*
X11560000Y-14318714D01*
X11588571Y-14333000D01*
X11702857Y-14633000D02*
X11717143Y-14618714D01*
X11745714Y-14575857D01*
X11760000Y-14547286D01*
X11774286Y-14504429D01*
X11788571Y-14433000D01*
X11788571Y-14375857D01*
X11774286Y-14304429D01*
X11760000Y-14261571D01*
X11745714Y-14233000D01*
X11717143Y-14190143D01*
X11702857Y-14175857D01*
M02*
