G04 #@! TF.GenerationSoftware,KiCad,Pcbnew,5.1.12-unknown-nightly-202202221509*
G04 #@! TF.CreationDate,2022-10-18T15:46:02-04:00*
G04 #@! TF.ProjectId,Tayloe-Mixer-v3,5461796c-6f65-42d4-9d69-7865722d7633,rev?*
G04 #@! TF.SameCoordinates,Original*
G04 #@! TF.FileFunction,Soldermask,Top*
G04 #@! TF.FilePolarity,Negative*
%FSLAX46Y46*%
G04 Gerber Fmt 4.6, Leading zero omitted, Abs format (unit mm)*
G04 Created by KiCad (PCBNEW 5.1.12-unknown-nightly-202202221509) date 2022-10-18 15:46:02*
%MOMM*%
%LPD*%
G01*
G04 APERTURE LIST*
%ADD10C,0.660400*%
%ADD11C,2.743200*%
%ADD12O,1.802000X1.802000*%
%ADD13C,1.981200*%
%ADD14O,2.819200X1.511200*%
%ADD15C,3.419200*%
%ADD16C,2.102000*%
%ADD17C,1.302000*%
%ADD18C,2.503200*%
%ADD19C,0.100000*%
G04 APERTURE END LIST*
D10*
X55330200Y-65500000D02*
G75*
G03*
X55330200Y-65500000I-330200J0D01*
G01*
X55330200Y-57900000D02*
G75*
G03*
X55330200Y-57900000I-330200J0D01*
G01*
X50330200Y-63000000D02*
G75*
G03*
X50330200Y-63000000I-330200J0D01*
G01*
X55330200Y-68100000D02*
G75*
G03*
X55330200Y-68100000I-330200J0D01*
G01*
X55330200Y-60500000D02*
G75*
G03*
X55330200Y-60500000I-330200J0D01*
G01*
X55330200Y-65500000D02*
G75*
G03*
X55330200Y-65500000I-330200J0D01*
G01*
X55330200Y-57900000D02*
G75*
G03*
X55330200Y-57900000I-330200J0D01*
G01*
X50330200Y-63000000D02*
G75*
G03*
X50330200Y-63000000I-330200J0D01*
G01*
X55330200Y-68100000D02*
G75*
G03*
X55330200Y-68100000I-330200J0D01*
G01*
X55330200Y-60500000D02*
G75*
G03*
X55330200Y-60500000I-330200J0D01*
G01*
D11*
X147000000Y-66000000D03*
X147000000Y-71000000D03*
D12*
X63500000Y-77120000D03*
X63500000Y-74580000D03*
X63500000Y-72040000D03*
G36*
G01*
X62599000Y-70350000D02*
X62599000Y-68650000D01*
G75*
G02*
X62650000Y-68599000I51000J0D01*
G01*
X64350000Y-68599000D01*
G75*
G02*
X64401000Y-68650000I0J-51000D01*
G01*
X64401000Y-70350000D01*
G75*
G02*
X64350000Y-70401000I-51000J0D01*
G01*
X62650000Y-70401000D01*
G75*
G02*
X62599000Y-70350000I0J51000D01*
G01*
G37*
G36*
G01*
X130950000Y-88351000D02*
X129450000Y-88351000D01*
G75*
G02*
X129399000Y-88300000I0J51000D01*
G01*
X129399000Y-86300000D01*
G75*
G02*
X129450000Y-86249000I51000J0D01*
G01*
X130950000Y-86249000D01*
G75*
G02*
X131001000Y-86300000I0J-51000D01*
G01*
X131001000Y-88300000D01*
G75*
G02*
X130950000Y-88351000I-51000J0D01*
G01*
G37*
G36*
G01*
X135550000Y-88351000D02*
X134050000Y-88351000D01*
G75*
G02*
X133999000Y-88300000I0J51000D01*
G01*
X133999000Y-86300000D01*
G75*
G02*
X134050000Y-86249000I51000J0D01*
G01*
X135550000Y-86249000D01*
G75*
G02*
X135601000Y-86300000I0J-51000D01*
G01*
X135601000Y-88300000D01*
G75*
G02*
X135550000Y-88351000I-51000J0D01*
G01*
G37*
G36*
G01*
X133250000Y-88351000D02*
X131750000Y-88351000D01*
G75*
G02*
X131699000Y-88300000I0J51000D01*
G01*
X131699000Y-86300000D01*
G75*
G02*
X131750000Y-86249000I51000J0D01*
G01*
X133250000Y-86249000D01*
G75*
G02*
X133301000Y-86300000I0J-51000D01*
G01*
X133301000Y-88300000D01*
G75*
G02*
X133250000Y-88351000I-51000J0D01*
G01*
G37*
G36*
G01*
X134400000Y-82051000D02*
X130600000Y-82051000D01*
G75*
G02*
X130549000Y-82000000I0J51000D01*
G01*
X130549000Y-80000000D01*
G75*
G02*
X130600000Y-79949000I51000J0D01*
G01*
X134400000Y-79949000D01*
G75*
G02*
X134451000Y-80000000I0J-51000D01*
G01*
X134451000Y-82000000D01*
G75*
G02*
X134400000Y-82051000I-51000J0D01*
G01*
G37*
X104760000Y-97500000D03*
X107300000Y-97500000D03*
X109840000Y-97500000D03*
X112380000Y-97500000D03*
X114920000Y-97500000D03*
X117460000Y-97500000D03*
G36*
G01*
X119150000Y-96599000D02*
X120850000Y-96599000D01*
G75*
G02*
X120901000Y-96650000I0J-51000D01*
G01*
X120901000Y-98350000D01*
G75*
G02*
X120850000Y-98401000I-51000J0D01*
G01*
X119150000Y-98401000D01*
G75*
G02*
X119099000Y-98350000I0J51000D01*
G01*
X119099000Y-96650000D01*
G75*
G02*
X119150000Y-96599000I51000J0D01*
G01*
G37*
G36*
G01*
X94628400Y-38770000D02*
X94628400Y-36230000D01*
G75*
G02*
X94730000Y-36128400I101600J0D01*
G01*
X97270000Y-36128400D01*
G75*
G02*
X97371600Y-36230000I0J-101600D01*
G01*
X97371600Y-38770000D01*
G75*
G02*
X97270000Y-38871600I-101600J0D01*
G01*
X94730000Y-38871600D01*
G75*
G02*
X94628400Y-38770000I0J101600D01*
G01*
G37*
D11*
X96000000Y-42500000D03*
G36*
G01*
X82628400Y-38770000D02*
X82628400Y-36230000D01*
G75*
G02*
X82730000Y-36128400I101600J0D01*
G01*
X85270000Y-36128400D01*
G75*
G02*
X85371600Y-36230000I0J-101600D01*
G01*
X85371600Y-38770000D01*
G75*
G02*
X85270000Y-38871600I-101600J0D01*
G01*
X82730000Y-38871600D01*
G75*
G02*
X82628400Y-38770000I0J101600D01*
G01*
G37*
X84000000Y-42500000D03*
D12*
X149000000Y-47990000D03*
X149000000Y-42910000D03*
G36*
G01*
X148099000Y-38680000D02*
X148099000Y-36980000D01*
G75*
G02*
X148150000Y-36929000I51000J0D01*
G01*
X149850000Y-36929000D01*
G75*
G02*
X149901000Y-36980000I0J-51000D01*
G01*
X149901000Y-38680000D01*
G75*
G02*
X149850000Y-38731000I-51000J0D01*
G01*
X148150000Y-38731000D01*
G75*
G02*
X148099000Y-38680000I0J51000D01*
G01*
G37*
X149000000Y-45450000D03*
X149000000Y-50530000D03*
X149000000Y-40370000D03*
X149000000Y-53070000D03*
G36*
G01*
X93974000Y-63215500D02*
X93974000Y-62864500D01*
G75*
G02*
X94149500Y-62689000I175500J0D01*
G01*
X95850500Y-62689000D01*
G75*
G02*
X96026000Y-62864500I0J-175500D01*
G01*
X96026000Y-63215500D01*
G75*
G02*
X95850500Y-63391000I-175500J0D01*
G01*
X94149500Y-63391000D01*
G75*
G02*
X93974000Y-63215500I0J175500D01*
G01*
G37*
G36*
G01*
X89024000Y-63215500D02*
X89024000Y-62864500D01*
G75*
G02*
X89199500Y-62689000I175500J0D01*
G01*
X90900500Y-62689000D01*
G75*
G02*
X91076000Y-62864500I0J-175500D01*
G01*
X91076000Y-63215500D01*
G75*
G02*
X90900500Y-63391000I-175500J0D01*
G01*
X89199500Y-63391000D01*
G75*
G02*
X89024000Y-63215500I0J175500D01*
G01*
G37*
G36*
G01*
X93974000Y-61945500D02*
X93974000Y-61594500D01*
G75*
G02*
X94149500Y-61419000I175500J0D01*
G01*
X95850500Y-61419000D01*
G75*
G02*
X96026000Y-61594500I0J-175500D01*
G01*
X96026000Y-61945500D01*
G75*
G02*
X95850500Y-62121000I-175500J0D01*
G01*
X94149500Y-62121000D01*
G75*
G02*
X93974000Y-61945500I0J175500D01*
G01*
G37*
G36*
G01*
X93974000Y-64485500D02*
X93974000Y-64134500D01*
G75*
G02*
X94149500Y-63959000I175500J0D01*
G01*
X95850500Y-63959000D01*
G75*
G02*
X96026000Y-64134500I0J-175500D01*
G01*
X96026000Y-64485500D01*
G75*
G02*
X95850500Y-64661000I-175500J0D01*
G01*
X94149500Y-64661000D01*
G75*
G02*
X93974000Y-64485500I0J175500D01*
G01*
G37*
G36*
G01*
X89024000Y-60675500D02*
X89024000Y-60324500D01*
G75*
G02*
X89199500Y-60149000I175500J0D01*
G01*
X90900500Y-60149000D01*
G75*
G02*
X91076000Y-60324500I0J-175500D01*
G01*
X91076000Y-60675500D01*
G75*
G02*
X90900500Y-60851000I-175500J0D01*
G01*
X89199500Y-60851000D01*
G75*
G02*
X89024000Y-60675500I0J175500D01*
G01*
G37*
G36*
G01*
X89024000Y-64485500D02*
X89024000Y-64134500D01*
G75*
G02*
X89199500Y-63959000I175500J0D01*
G01*
X90900500Y-63959000D01*
G75*
G02*
X91076000Y-64134500I0J-175500D01*
G01*
X91076000Y-64485500D01*
G75*
G02*
X90900500Y-64661000I-175500J0D01*
G01*
X89199500Y-64661000D01*
G75*
G02*
X89024000Y-64485500I0J175500D01*
G01*
G37*
G36*
G01*
X93974000Y-60675500D02*
X93974000Y-60324500D01*
G75*
G02*
X94149500Y-60149000I175500J0D01*
G01*
X95850500Y-60149000D01*
G75*
G02*
X96026000Y-60324500I0J-175500D01*
G01*
X96026000Y-60675500D01*
G75*
G02*
X95850500Y-60851000I-175500J0D01*
G01*
X94149500Y-60851000D01*
G75*
G02*
X93974000Y-60675500I0J175500D01*
G01*
G37*
G36*
G01*
X89024000Y-61945500D02*
X89024000Y-61594500D01*
G75*
G02*
X89199500Y-61419000I175500J0D01*
G01*
X90900500Y-61419000D01*
G75*
G02*
X91076000Y-61594500I0J-175500D01*
G01*
X91076000Y-61945500D01*
G75*
G02*
X90900500Y-62121000I-175500J0D01*
G01*
X89199500Y-62121000D01*
G75*
G02*
X89024000Y-61945500I0J175500D01*
G01*
G37*
G36*
G01*
X117050000Y-62556600D02*
X115850000Y-62556600D01*
G75*
G02*
X115748400Y-62455000I0J101600D01*
G01*
X115748400Y-61855000D01*
G75*
G02*
X115850000Y-61753400I101600J0D01*
G01*
X117050000Y-61753400D01*
G75*
G02*
X117151600Y-61855000I0J-101600D01*
G01*
X117151600Y-62455000D01*
G75*
G02*
X117050000Y-62556600I-101600J0D01*
G01*
G37*
G36*
G01*
X117050000Y-63826600D02*
X115850000Y-63826600D01*
G75*
G02*
X115748400Y-63725000I0J101600D01*
G01*
X115748400Y-63125000D01*
G75*
G02*
X115850000Y-63023400I101600J0D01*
G01*
X117050000Y-63023400D01*
G75*
G02*
X117151600Y-63125000I0J-101600D01*
G01*
X117151600Y-63725000D01*
G75*
G02*
X117050000Y-63826600I-101600J0D01*
G01*
G37*
G36*
G01*
X117050000Y-65096600D02*
X115850000Y-65096600D01*
G75*
G02*
X115748400Y-64995000I0J101600D01*
G01*
X115748400Y-64395000D01*
G75*
G02*
X115850000Y-64293400I101600J0D01*
G01*
X117050000Y-64293400D01*
G75*
G02*
X117151600Y-64395000I0J-101600D01*
G01*
X117151600Y-64995000D01*
G75*
G02*
X117050000Y-65096600I-101600J0D01*
G01*
G37*
G36*
G01*
X122650000Y-60016600D02*
X121450000Y-60016600D01*
G75*
G02*
X121348400Y-59915000I0J101600D01*
G01*
X121348400Y-59315000D01*
G75*
G02*
X121450000Y-59213400I101600J0D01*
G01*
X122650000Y-59213400D01*
G75*
G02*
X122751600Y-59315000I0J-101600D01*
G01*
X122751600Y-59915000D01*
G75*
G02*
X122650000Y-60016600I-101600J0D01*
G01*
G37*
G36*
G01*
X122650000Y-65096600D02*
X121450000Y-65096600D01*
G75*
G02*
X121348400Y-64995000I0J101600D01*
G01*
X121348400Y-64395000D01*
G75*
G02*
X121450000Y-64293400I101600J0D01*
G01*
X122650000Y-64293400D01*
G75*
G02*
X122751600Y-64395000I0J-101600D01*
G01*
X122751600Y-64995000D01*
G75*
G02*
X122650000Y-65096600I-101600J0D01*
G01*
G37*
G36*
G01*
X122650000Y-63826600D02*
X121450000Y-63826600D01*
G75*
G02*
X121348400Y-63725000I0J101600D01*
G01*
X121348400Y-63125000D01*
G75*
G02*
X121450000Y-63023400I101600J0D01*
G01*
X122650000Y-63023400D01*
G75*
G02*
X122751600Y-63125000I0J-101600D01*
G01*
X122751600Y-63725000D01*
G75*
G02*
X122650000Y-63826600I-101600J0D01*
G01*
G37*
G36*
G01*
X122650000Y-62556600D02*
X121450000Y-62556600D01*
G75*
G02*
X121348400Y-62455000I0J101600D01*
G01*
X121348400Y-61855000D01*
G75*
G02*
X121450000Y-61753400I101600J0D01*
G01*
X122650000Y-61753400D01*
G75*
G02*
X122751600Y-61855000I0J-101600D01*
G01*
X122751600Y-62455000D01*
G75*
G02*
X122650000Y-62556600I-101600J0D01*
G01*
G37*
G36*
G01*
X122650000Y-61286600D02*
X121450000Y-61286600D01*
G75*
G02*
X121348400Y-61185000I0J101600D01*
G01*
X121348400Y-60585000D01*
G75*
G02*
X121450000Y-60483400I101600J0D01*
G01*
X122650000Y-60483400D01*
G75*
G02*
X122751600Y-60585000I0J-101600D01*
G01*
X122751600Y-61185000D01*
G75*
G02*
X122650000Y-61286600I-101600J0D01*
G01*
G37*
G36*
G01*
X122650000Y-58746600D02*
X121450000Y-58746600D01*
G75*
G02*
X121348400Y-58645000I0J101600D01*
G01*
X121348400Y-58045000D01*
G75*
G02*
X121450000Y-57943400I101600J0D01*
G01*
X122650000Y-57943400D01*
G75*
G02*
X122751600Y-58045000I0J-101600D01*
G01*
X122751600Y-58645000D01*
G75*
G02*
X122650000Y-58746600I-101600J0D01*
G01*
G37*
G36*
G01*
X122650000Y-57476600D02*
X121450000Y-57476600D01*
G75*
G02*
X121348400Y-57375000I0J101600D01*
G01*
X121348400Y-56775000D01*
G75*
G02*
X121450000Y-56673400I101600J0D01*
G01*
X122650000Y-56673400D01*
G75*
G02*
X122751600Y-56775000I0J-101600D01*
G01*
X122751600Y-57375000D01*
G75*
G02*
X122650000Y-57476600I-101600J0D01*
G01*
G37*
G36*
G01*
X117050000Y-56206600D02*
X115850000Y-56206600D01*
G75*
G02*
X115748400Y-56105000I0J101600D01*
G01*
X115748400Y-55505000D01*
G75*
G02*
X115850000Y-55403400I101600J0D01*
G01*
X117050000Y-55403400D01*
G75*
G02*
X117151600Y-55505000I0J-101600D01*
G01*
X117151600Y-56105000D01*
G75*
G02*
X117050000Y-56206600I-101600J0D01*
G01*
G37*
G36*
G01*
X117050000Y-57476600D02*
X115850000Y-57476600D01*
G75*
G02*
X115748400Y-57375000I0J101600D01*
G01*
X115748400Y-56775000D01*
G75*
G02*
X115850000Y-56673400I101600J0D01*
G01*
X117050000Y-56673400D01*
G75*
G02*
X117151600Y-56775000I0J-101600D01*
G01*
X117151600Y-57375000D01*
G75*
G02*
X117050000Y-57476600I-101600J0D01*
G01*
G37*
G36*
G01*
X117050000Y-58746600D02*
X115850000Y-58746600D01*
G75*
G02*
X115748400Y-58645000I0J101600D01*
G01*
X115748400Y-58045000D01*
G75*
G02*
X115850000Y-57943400I101600J0D01*
G01*
X117050000Y-57943400D01*
G75*
G02*
X117151600Y-58045000I0J-101600D01*
G01*
X117151600Y-58645000D01*
G75*
G02*
X117050000Y-58746600I-101600J0D01*
G01*
G37*
G36*
G01*
X117050000Y-61286600D02*
X115850000Y-61286600D01*
G75*
G02*
X115748400Y-61185000I0J101600D01*
G01*
X115748400Y-60585000D01*
G75*
G02*
X115850000Y-60483400I101600J0D01*
G01*
X117050000Y-60483400D01*
G75*
G02*
X117151600Y-60585000I0J-101600D01*
G01*
X117151600Y-61185000D01*
G75*
G02*
X117050000Y-61286600I-101600J0D01*
G01*
G37*
G36*
G01*
X122650000Y-56206600D02*
X121450000Y-56206600D01*
G75*
G02*
X121348400Y-56105000I0J101600D01*
G01*
X121348400Y-55505000D01*
G75*
G02*
X121450000Y-55403400I101600J0D01*
G01*
X122650000Y-55403400D01*
G75*
G02*
X122751600Y-55505000I0J-101600D01*
G01*
X122751600Y-56105000D01*
G75*
G02*
X122650000Y-56206600I-101600J0D01*
G01*
G37*
G36*
G01*
X117050000Y-60016600D02*
X115850000Y-60016600D01*
G75*
G02*
X115748400Y-59915000I0J101600D01*
G01*
X115748400Y-59315000D01*
G75*
G02*
X115850000Y-59213400I101600J0D01*
G01*
X117050000Y-59213400D01*
G75*
G02*
X117151600Y-59315000I0J-101600D01*
G01*
X117151600Y-59915000D01*
G75*
G02*
X117050000Y-60016600I-101600J0D01*
G01*
G37*
D13*
X121380000Y-44160000D03*
X121380000Y-46700000D03*
X129000000Y-36540000D03*
X121380000Y-41620000D03*
X129000000Y-34000000D03*
X129000000Y-39080000D03*
X106810000Y-39230000D03*
X99190000Y-44310000D03*
X106810000Y-36690000D03*
X99190000Y-41770000D03*
X79620000Y-39230000D03*
X72000000Y-44310000D03*
X79620000Y-36690000D03*
X72000000Y-41770000D03*
G36*
G01*
X98981750Y-63538500D02*
X98018250Y-63538500D01*
G75*
G02*
X97749000Y-63269250I0J269250D01*
G01*
X97749000Y-62730750D01*
G75*
G02*
X98018250Y-62461500I269250J0D01*
G01*
X98981750Y-62461500D01*
G75*
G02*
X99251000Y-62730750I0J-269250D01*
G01*
X99251000Y-63269250D01*
G75*
G02*
X98981750Y-63538500I-269250J0D01*
G01*
G37*
G36*
G01*
X98981750Y-65413500D02*
X98018250Y-65413500D01*
G75*
G02*
X97749000Y-65144250I0J269250D01*
G01*
X97749000Y-64605750D01*
G75*
G02*
X98018250Y-64336500I269250J0D01*
G01*
X98981750Y-64336500D01*
G75*
G02*
X99251000Y-64605750I0J-269250D01*
G01*
X99251000Y-65144250D01*
G75*
G02*
X98981750Y-65413500I-269250J0D01*
G01*
G37*
G36*
G01*
X85018250Y-61461500D02*
X85981750Y-61461500D01*
G75*
G02*
X86251000Y-61730750I0J-269250D01*
G01*
X86251000Y-62269250D01*
G75*
G02*
X85981750Y-62538500I-269250J0D01*
G01*
X85018250Y-62538500D01*
G75*
G02*
X84749000Y-62269250I0J269250D01*
G01*
X84749000Y-61730750D01*
G75*
G02*
X85018250Y-61461500I269250J0D01*
G01*
G37*
G36*
G01*
X85018250Y-59586500D02*
X85981750Y-59586500D01*
G75*
G02*
X86251000Y-59855750I0J-269250D01*
G01*
X86251000Y-60394250D01*
G75*
G02*
X85981750Y-60663500I-269250J0D01*
G01*
X85018250Y-60663500D01*
G75*
G02*
X84749000Y-60394250I0J269250D01*
G01*
X84749000Y-59855750D01*
G75*
G02*
X85018250Y-59586500I269250J0D01*
G01*
G37*
G36*
G01*
X110163500Y-49518250D02*
X110163500Y-50481750D01*
G75*
G02*
X109894250Y-50751000I-269250J0D01*
G01*
X109355750Y-50751000D01*
G75*
G02*
X109086500Y-50481750I0J269250D01*
G01*
X109086500Y-49518250D01*
G75*
G02*
X109355750Y-49249000I269250J0D01*
G01*
X109894250Y-49249000D01*
G75*
G02*
X110163500Y-49518250I0J-269250D01*
G01*
G37*
G36*
G01*
X112038500Y-49518250D02*
X112038500Y-50481750D01*
G75*
G02*
X111769250Y-50751000I-269250J0D01*
G01*
X111230750Y-50751000D01*
G75*
G02*
X110961500Y-50481750I0J269250D01*
G01*
X110961500Y-49518250D01*
G75*
G02*
X111230750Y-49249000I269250J0D01*
G01*
X111769250Y-49249000D01*
G75*
G02*
X112038500Y-49518250I0J-269250D01*
G01*
G37*
G36*
G01*
X110101000Y-67478250D02*
X110101000Y-68441750D01*
G75*
G02*
X109831750Y-68711000I-269250J0D01*
G01*
X109293250Y-68711000D01*
G75*
G02*
X109024000Y-68441750I0J269250D01*
G01*
X109024000Y-67478250D01*
G75*
G02*
X109293250Y-67209000I269250J0D01*
G01*
X109831750Y-67209000D01*
G75*
G02*
X110101000Y-67478250I0J-269250D01*
G01*
G37*
G36*
G01*
X111976000Y-67478250D02*
X111976000Y-68441750D01*
G75*
G02*
X111706750Y-68711000I-269250J0D01*
G01*
X111168250Y-68711000D01*
G75*
G02*
X110899000Y-68441750I0J269250D01*
G01*
X110899000Y-67478250D01*
G75*
G02*
X111168250Y-67209000I269250J0D01*
G01*
X111706750Y-67209000D01*
G75*
G02*
X111976000Y-67478250I0J-269250D01*
G01*
G37*
G36*
G01*
X110101000Y-55478250D02*
X110101000Y-56441750D01*
G75*
G02*
X109831750Y-56711000I-269250J0D01*
G01*
X109293250Y-56711000D01*
G75*
G02*
X109024000Y-56441750I0J269250D01*
G01*
X109024000Y-55478250D01*
G75*
G02*
X109293250Y-55209000I269250J0D01*
G01*
X109831750Y-55209000D01*
G75*
G02*
X110101000Y-55478250I0J-269250D01*
G01*
G37*
G36*
G01*
X111976000Y-55478250D02*
X111976000Y-56441750D01*
G75*
G02*
X111706750Y-56711000I-269250J0D01*
G01*
X111168250Y-56711000D01*
G75*
G02*
X110899000Y-56441750I0J269250D01*
G01*
X110899000Y-55478250D01*
G75*
G02*
X111168250Y-55209000I269250J0D01*
G01*
X111706750Y-55209000D01*
G75*
G02*
X111976000Y-55478250I0J-269250D01*
G01*
G37*
G36*
G01*
X110163500Y-61518250D02*
X110163500Y-62481750D01*
G75*
G02*
X109894250Y-62751000I-269250J0D01*
G01*
X109355750Y-62751000D01*
G75*
G02*
X109086500Y-62481750I0J269250D01*
G01*
X109086500Y-61518250D01*
G75*
G02*
X109355750Y-61249000I269250J0D01*
G01*
X109894250Y-61249000D01*
G75*
G02*
X110163500Y-61518250I0J-269250D01*
G01*
G37*
G36*
G01*
X112038500Y-61518250D02*
X112038500Y-62481750D01*
G75*
G02*
X111769250Y-62751000I-269250J0D01*
G01*
X111230750Y-62751000D01*
G75*
G02*
X110961500Y-62481750I0J269250D01*
G01*
X110961500Y-61518250D01*
G75*
G02*
X111230750Y-61249000I269250J0D01*
G01*
X111769250Y-61249000D01*
G75*
G02*
X112038500Y-61518250I0J-269250D01*
G01*
G37*
G36*
G01*
X129018250Y-96461500D02*
X129981750Y-96461500D01*
G75*
G02*
X130251000Y-96730750I0J-269250D01*
G01*
X130251000Y-97269250D01*
G75*
G02*
X129981750Y-97538500I-269250J0D01*
G01*
X129018250Y-97538500D01*
G75*
G02*
X128749000Y-97269250I0J269250D01*
G01*
X128749000Y-96730750D01*
G75*
G02*
X129018250Y-96461500I269250J0D01*
G01*
G37*
G36*
G01*
X129018250Y-94586500D02*
X129981750Y-94586500D01*
G75*
G02*
X130251000Y-94855750I0J-269250D01*
G01*
X130251000Y-95394250D01*
G75*
G02*
X129981750Y-95663500I-269250J0D01*
G01*
X129018250Y-95663500D01*
G75*
G02*
X128749000Y-95394250I0J269250D01*
G01*
X128749000Y-94855750D01*
G75*
G02*
X129018250Y-94586500I269250J0D01*
G01*
G37*
G36*
G01*
X128978250Y-91899000D02*
X129941750Y-91899000D01*
G75*
G02*
X130211000Y-92168250I0J-269250D01*
G01*
X130211000Y-92706750D01*
G75*
G02*
X129941750Y-92976000I-269250J0D01*
G01*
X128978250Y-92976000D01*
G75*
G02*
X128709000Y-92706750I0J269250D01*
G01*
X128709000Y-92168250D01*
G75*
G02*
X128978250Y-91899000I269250J0D01*
G01*
G37*
G36*
G01*
X128978250Y-90024000D02*
X129941750Y-90024000D01*
G75*
G02*
X130211000Y-90293250I0J-269250D01*
G01*
X130211000Y-90831750D01*
G75*
G02*
X129941750Y-91101000I-269250J0D01*
G01*
X128978250Y-91101000D01*
G75*
G02*
X128709000Y-90831750I0J269250D01*
G01*
X128709000Y-90293250D01*
G75*
G02*
X128978250Y-90024000I269250J0D01*
G01*
G37*
D14*
X57580000Y-39080000D03*
X57580000Y-41620000D03*
D15*
X52500000Y-44160000D03*
X52500000Y-34000000D03*
G36*
G01*
X119844400Y-37624000D02*
X121155600Y-37624000D01*
G75*
G02*
X121426000Y-37894400I0J-270400D01*
G01*
X121426000Y-38705600D01*
G75*
G02*
X121155600Y-38976000I-270400J0D01*
G01*
X119844400Y-38976000D01*
G75*
G02*
X119574000Y-38705600I0J270400D01*
G01*
X119574000Y-37894400D01*
G75*
G02*
X119844400Y-37624000I270400J0D01*
G01*
G37*
G36*
G01*
X119844400Y-34824000D02*
X121155600Y-34824000D01*
G75*
G02*
X121426000Y-35094400I0J-270400D01*
G01*
X121426000Y-35905600D01*
G75*
G02*
X121155600Y-36176000I-270400J0D01*
G01*
X119844400Y-36176000D01*
G75*
G02*
X119574000Y-35905600I0J270400D01*
G01*
X119574000Y-35094400D01*
G75*
G02*
X119844400Y-34824000I270400J0D01*
G01*
G37*
G36*
G01*
X108844400Y-43824000D02*
X110155600Y-43824000D01*
G75*
G02*
X110426000Y-44094400I0J-270400D01*
G01*
X110426000Y-44905600D01*
G75*
G02*
X110155600Y-45176000I-270400J0D01*
G01*
X108844400Y-45176000D01*
G75*
G02*
X108574000Y-44905600I0J270400D01*
G01*
X108574000Y-44094400D01*
G75*
G02*
X108844400Y-43824000I270400J0D01*
G01*
G37*
G36*
G01*
X108844400Y-41024000D02*
X110155600Y-41024000D01*
G75*
G02*
X110426000Y-41294400I0J-270400D01*
G01*
X110426000Y-42105600D01*
G75*
G02*
X110155600Y-42376000I-270400J0D01*
G01*
X108844400Y-42376000D01*
G75*
G02*
X108574000Y-42105600I0J270400D01*
G01*
X108574000Y-41294400D01*
G75*
G02*
X108844400Y-41024000I270400J0D01*
G01*
G37*
G36*
G01*
X141176000Y-90844400D02*
X141176000Y-92155600D01*
G75*
G02*
X140905600Y-92426000I-270400J0D01*
G01*
X140094400Y-92426000D01*
G75*
G02*
X139824000Y-92155600I0J270400D01*
G01*
X139824000Y-90844400D01*
G75*
G02*
X140094400Y-90574000I270400J0D01*
G01*
X140905600Y-90574000D01*
G75*
G02*
X141176000Y-90844400I0J-270400D01*
G01*
G37*
G36*
G01*
X143976000Y-90844400D02*
X143976000Y-92155600D01*
G75*
G02*
X143705600Y-92426000I-270400J0D01*
G01*
X142894400Y-92426000D01*
G75*
G02*
X142624000Y-92155600I0J270400D01*
G01*
X142624000Y-90844400D01*
G75*
G02*
X142894400Y-90574000I270400J0D01*
G01*
X143705600Y-90574000D01*
G75*
G02*
X143976000Y-90844400I0J-270400D01*
G01*
G37*
G36*
G01*
X92038500Y-66518250D02*
X92038500Y-67481750D01*
G75*
G02*
X91769250Y-67751000I-269250J0D01*
G01*
X91230750Y-67751000D01*
G75*
G02*
X90961500Y-67481750I0J269250D01*
G01*
X90961500Y-66518250D01*
G75*
G02*
X91230750Y-66249000I269250J0D01*
G01*
X91769250Y-66249000D01*
G75*
G02*
X92038500Y-66518250I0J-269250D01*
G01*
G37*
G36*
G01*
X93913500Y-66518250D02*
X93913500Y-67481750D01*
G75*
G02*
X93644250Y-67751000I-269250J0D01*
G01*
X93105750Y-67751000D01*
G75*
G02*
X92836500Y-67481750I0J269250D01*
G01*
X92836500Y-66518250D01*
G75*
G02*
X93105750Y-66249000I269250J0D01*
G01*
X93644250Y-66249000D01*
G75*
G02*
X93913500Y-66518250I0J-269250D01*
G01*
G37*
G36*
G01*
X85018250Y-65461500D02*
X85981750Y-65461500D01*
G75*
G02*
X86251000Y-65730750I0J-269250D01*
G01*
X86251000Y-66269250D01*
G75*
G02*
X85981750Y-66538500I-269250J0D01*
G01*
X85018250Y-66538500D01*
G75*
G02*
X84749000Y-66269250I0J269250D01*
G01*
X84749000Y-65730750D01*
G75*
G02*
X85018250Y-65461500I269250J0D01*
G01*
G37*
G36*
G01*
X85018250Y-63586500D02*
X85981750Y-63586500D01*
G75*
G02*
X86251000Y-63855750I0J-269250D01*
G01*
X86251000Y-64394250D01*
G75*
G02*
X85981750Y-64663500I-269250J0D01*
G01*
X85018250Y-64663500D01*
G75*
G02*
X84749000Y-64394250I0J269250D01*
G01*
X84749000Y-63855750D01*
G75*
G02*
X85018250Y-63586500I269250J0D01*
G01*
G37*
G36*
G01*
X93344400Y-54124000D02*
X94655600Y-54124000D01*
G75*
G02*
X94926000Y-54394400I0J-270400D01*
G01*
X94926000Y-55205600D01*
G75*
G02*
X94655600Y-55476000I-270400J0D01*
G01*
X93344400Y-55476000D01*
G75*
G02*
X93074000Y-55205600I0J270400D01*
G01*
X93074000Y-54394400D01*
G75*
G02*
X93344400Y-54124000I270400J0D01*
G01*
G37*
G36*
G01*
X93344400Y-51324000D02*
X94655600Y-51324000D01*
G75*
G02*
X94926000Y-51594400I0J-270400D01*
G01*
X94926000Y-52405600D01*
G75*
G02*
X94655600Y-52676000I-270400J0D01*
G01*
X93344400Y-52676000D01*
G75*
G02*
X93074000Y-52405600I0J270400D01*
G01*
X93074000Y-51594400D01*
G75*
G02*
X93344400Y-51324000I270400J0D01*
G01*
G37*
G36*
G01*
X110961500Y-52981750D02*
X110961500Y-52018250D01*
G75*
G02*
X111230750Y-51749000I269250J0D01*
G01*
X111769250Y-51749000D01*
G75*
G02*
X112038500Y-52018250I0J-269250D01*
G01*
X112038500Y-52981750D01*
G75*
G02*
X111769250Y-53251000I-269250J0D01*
G01*
X111230750Y-53251000D01*
G75*
G02*
X110961500Y-52981750I0J269250D01*
G01*
G37*
G36*
G01*
X109086500Y-52981750D02*
X109086500Y-52018250D01*
G75*
G02*
X109355750Y-51749000I269250J0D01*
G01*
X109894250Y-51749000D01*
G75*
G02*
X110163500Y-52018250I0J-269250D01*
G01*
X110163500Y-52981750D01*
G75*
G02*
X109894250Y-53251000I-269250J0D01*
G01*
X109355750Y-53251000D01*
G75*
G02*
X109086500Y-52981750I0J269250D01*
G01*
G37*
G36*
G01*
X110961500Y-70981750D02*
X110961500Y-70018250D01*
G75*
G02*
X111230750Y-69749000I269250J0D01*
G01*
X111769250Y-69749000D01*
G75*
G02*
X112038500Y-70018250I0J-269250D01*
G01*
X112038500Y-70981750D01*
G75*
G02*
X111769250Y-71251000I-269250J0D01*
G01*
X111230750Y-71251000D01*
G75*
G02*
X110961500Y-70981750I0J269250D01*
G01*
G37*
G36*
G01*
X109086500Y-70981750D02*
X109086500Y-70018250D01*
G75*
G02*
X109355750Y-69749000I269250J0D01*
G01*
X109894250Y-69749000D01*
G75*
G02*
X110163500Y-70018250I0J-269250D01*
G01*
X110163500Y-70981750D01*
G75*
G02*
X109894250Y-71251000I-269250J0D01*
G01*
X109355750Y-71251000D01*
G75*
G02*
X109086500Y-70981750I0J269250D01*
G01*
G37*
G36*
G01*
X110961500Y-58981750D02*
X110961500Y-58018250D01*
G75*
G02*
X111230750Y-57749000I269250J0D01*
G01*
X111769250Y-57749000D01*
G75*
G02*
X112038500Y-58018250I0J-269250D01*
G01*
X112038500Y-58981750D01*
G75*
G02*
X111769250Y-59251000I-269250J0D01*
G01*
X111230750Y-59251000D01*
G75*
G02*
X110961500Y-58981750I0J269250D01*
G01*
G37*
G36*
G01*
X109086500Y-58981750D02*
X109086500Y-58018250D01*
G75*
G02*
X109355750Y-57749000I269250J0D01*
G01*
X109894250Y-57749000D01*
G75*
G02*
X110163500Y-58018250I0J-269250D01*
G01*
X110163500Y-58981750D01*
G75*
G02*
X109894250Y-59251000I-269250J0D01*
G01*
X109355750Y-59251000D01*
G75*
G02*
X109086500Y-58981750I0J269250D01*
G01*
G37*
G36*
G01*
X110899000Y-65021750D02*
X110899000Y-64058250D01*
G75*
G02*
X111168250Y-63789000I269250J0D01*
G01*
X111706750Y-63789000D01*
G75*
G02*
X111976000Y-64058250I0J-269250D01*
G01*
X111976000Y-65021750D01*
G75*
G02*
X111706750Y-65291000I-269250J0D01*
G01*
X111168250Y-65291000D01*
G75*
G02*
X110899000Y-65021750I0J269250D01*
G01*
G37*
G36*
G01*
X109024000Y-65021750D02*
X109024000Y-64058250D01*
G75*
G02*
X109293250Y-63789000I269250J0D01*
G01*
X109831750Y-63789000D01*
G75*
G02*
X110101000Y-64058250I0J-269250D01*
G01*
X110101000Y-65021750D01*
G75*
G02*
X109831750Y-65291000I-269250J0D01*
G01*
X109293250Y-65291000D01*
G75*
G02*
X109024000Y-65021750I0J269250D01*
G01*
G37*
G36*
G01*
X118676000Y-67344400D02*
X118676000Y-68655600D01*
G75*
G02*
X118405600Y-68926000I-270400J0D01*
G01*
X117594400Y-68926000D01*
G75*
G02*
X117324000Y-68655600I0J270400D01*
G01*
X117324000Y-67344400D01*
G75*
G02*
X117594400Y-67074000I270400J0D01*
G01*
X118405600Y-67074000D01*
G75*
G02*
X118676000Y-67344400I0J-270400D01*
G01*
G37*
G36*
G01*
X121476000Y-67344400D02*
X121476000Y-68655600D01*
G75*
G02*
X121205600Y-68926000I-270400J0D01*
G01*
X120394400Y-68926000D01*
G75*
G02*
X120124000Y-68655600I0J270400D01*
G01*
X120124000Y-67344400D01*
G75*
G02*
X120394400Y-67074000I270400J0D01*
G01*
X121205600Y-67074000D01*
G75*
G02*
X121476000Y-67344400I0J-270400D01*
G01*
G37*
G36*
G01*
X92155600Y-42676000D02*
X90844400Y-42676000D01*
G75*
G02*
X90574000Y-42405600I0J270400D01*
G01*
X90574000Y-41594400D01*
G75*
G02*
X90844400Y-41324000I270400J0D01*
G01*
X92155600Y-41324000D01*
G75*
G02*
X92426000Y-41594400I0J-270400D01*
G01*
X92426000Y-42405600D01*
G75*
G02*
X92155600Y-42676000I-270400J0D01*
G01*
G37*
G36*
G01*
X92155600Y-45476000D02*
X90844400Y-45476000D01*
G75*
G02*
X90574000Y-45205600I0J270400D01*
G01*
X90574000Y-44394400D01*
G75*
G02*
X90844400Y-44124000I270400J0D01*
G01*
X92155600Y-44124000D01*
G75*
G02*
X92426000Y-44394400I0J-270400D01*
G01*
X92426000Y-45205600D01*
G75*
G02*
X92155600Y-45476000I-270400J0D01*
G01*
G37*
G36*
G01*
X90824000Y-37155600D02*
X90824000Y-35844400D01*
G75*
G02*
X91094400Y-35574000I270400J0D01*
G01*
X91905600Y-35574000D01*
G75*
G02*
X92176000Y-35844400I0J-270400D01*
G01*
X92176000Y-37155600D01*
G75*
G02*
X91905600Y-37426000I-270400J0D01*
G01*
X91094400Y-37426000D01*
G75*
G02*
X90824000Y-37155600I0J270400D01*
G01*
G37*
G36*
G01*
X88024000Y-37155600D02*
X88024000Y-35844400D01*
G75*
G02*
X88294400Y-35574000I270400J0D01*
G01*
X89105600Y-35574000D01*
G75*
G02*
X89376000Y-35844400I0J-270400D01*
G01*
X89376000Y-37155600D01*
G75*
G02*
X89105600Y-37426000I-270400J0D01*
G01*
X88294400Y-37426000D01*
G75*
G02*
X88024000Y-37155600I0J270400D01*
G01*
G37*
G36*
G01*
X90824000Y-39655600D02*
X90824000Y-38344400D01*
G75*
G02*
X91094400Y-38074000I270400J0D01*
G01*
X91905600Y-38074000D01*
G75*
G02*
X92176000Y-38344400I0J-270400D01*
G01*
X92176000Y-39655600D01*
G75*
G02*
X91905600Y-39926000I-270400J0D01*
G01*
X91094400Y-39926000D01*
G75*
G02*
X90824000Y-39655600I0J270400D01*
G01*
G37*
G36*
G01*
X88024000Y-39655600D02*
X88024000Y-38344400D01*
G75*
G02*
X88294400Y-38074000I270400J0D01*
G01*
X89105600Y-38074000D01*
G75*
G02*
X89376000Y-38344400I0J-270400D01*
G01*
X89376000Y-39655600D01*
G75*
G02*
X89105600Y-39926000I-270400J0D01*
G01*
X88294400Y-39926000D01*
G75*
G02*
X88024000Y-39655600I0J270400D01*
G01*
G37*
G36*
G01*
X89155600Y-42676000D02*
X87844400Y-42676000D01*
G75*
G02*
X87574000Y-42405600I0J270400D01*
G01*
X87574000Y-41594400D01*
G75*
G02*
X87844400Y-41324000I270400J0D01*
G01*
X89155600Y-41324000D01*
G75*
G02*
X89426000Y-41594400I0J-270400D01*
G01*
X89426000Y-42405600D01*
G75*
G02*
X89155600Y-42676000I-270400J0D01*
G01*
G37*
G36*
G01*
X89155600Y-45476000D02*
X87844400Y-45476000D01*
G75*
G02*
X87574000Y-45205600I0J270400D01*
G01*
X87574000Y-44394400D01*
G75*
G02*
X87844400Y-44124000I270400J0D01*
G01*
X89155600Y-44124000D01*
G75*
G02*
X89426000Y-44394400I0J-270400D01*
G01*
X89426000Y-45205600D01*
G75*
G02*
X89155600Y-45476000I-270400J0D01*
G01*
G37*
G36*
G01*
X111949000Y-42375000D02*
X111949000Y-41625000D01*
G75*
G02*
X112000000Y-41574000I51000J0D01*
G01*
X114000000Y-41574000D01*
G75*
G02*
X114051000Y-41625000I0J-51000D01*
G01*
X114051000Y-42375000D01*
G75*
G02*
X114000000Y-42426000I-51000J0D01*
G01*
X112000000Y-42426000D01*
G75*
G02*
X111949000Y-42375000I0J51000D01*
G01*
G37*
G36*
G01*
X115949000Y-42375000D02*
X115949000Y-41625000D01*
G75*
G02*
X116000000Y-41574000I51000J0D01*
G01*
X118000000Y-41574000D01*
G75*
G02*
X118051000Y-41625000I0J-51000D01*
G01*
X118051000Y-42375000D01*
G75*
G02*
X118000000Y-42426000I-51000J0D01*
G01*
X116000000Y-42426000D01*
G75*
G02*
X115949000Y-42375000I0J51000D01*
G01*
G37*
G36*
G01*
X114625000Y-38949000D02*
X115375000Y-38949000D01*
G75*
G02*
X115426000Y-39000000I0J-51000D01*
G01*
X115426000Y-41000000D01*
G75*
G02*
X115375000Y-41051000I-51000J0D01*
G01*
X114625000Y-41051000D01*
G75*
G02*
X114574000Y-41000000I0J51000D01*
G01*
X114574000Y-39000000D01*
G75*
G02*
X114625000Y-38949000I51000J0D01*
G01*
G37*
G36*
G01*
X114625000Y-42949000D02*
X115375000Y-42949000D01*
G75*
G02*
X115426000Y-43000000I0J-51000D01*
G01*
X115426000Y-45000000D01*
G75*
G02*
X115375000Y-45051000I-51000J0D01*
G01*
X114625000Y-45051000D01*
G75*
G02*
X114574000Y-45000000I0J51000D01*
G01*
X114574000Y-43000000D01*
G75*
G02*
X114625000Y-42949000I51000J0D01*
G01*
G37*
G36*
G01*
X143849000Y-87925001D02*
X143849000Y-82124999D01*
G75*
G02*
X143899999Y-82074000I50999J0D01*
G01*
X150300001Y-82074000D01*
G75*
G02*
X150351000Y-82124999I0J-50999D01*
G01*
X150351000Y-87925001D01*
G75*
G02*
X150300001Y-87976000I-50999J0D01*
G01*
X143899999Y-87976000D01*
G75*
G02*
X143849000Y-87925001I0J50999D01*
G01*
G37*
G36*
G01*
X139649000Y-87905001D02*
X139649000Y-86704999D01*
G75*
G02*
X139699999Y-86654000I50999J0D01*
G01*
X141900001Y-86654000D01*
G75*
G02*
X141951000Y-86704999I0J-50999D01*
G01*
X141951000Y-87905001D01*
G75*
G02*
X141900001Y-87956000I-50999J0D01*
G01*
X139699999Y-87956000D01*
G75*
G02*
X139649000Y-87905001I0J50999D01*
G01*
G37*
G36*
G01*
X139649000Y-85625001D02*
X139649000Y-84424999D01*
G75*
G02*
X139699999Y-84374000I50999J0D01*
G01*
X141900001Y-84374000D01*
G75*
G02*
X141951000Y-84424999I0J-50999D01*
G01*
X141951000Y-85625001D01*
G75*
G02*
X141900001Y-85676000I-50999J0D01*
G01*
X139699999Y-85676000D01*
G75*
G02*
X139649000Y-85625001I0J50999D01*
G01*
G37*
G36*
G01*
X139649000Y-83345001D02*
X139649000Y-82144999D01*
G75*
G02*
X139699999Y-82094000I50999J0D01*
G01*
X141900001Y-82094000D01*
G75*
G02*
X141951000Y-82144999I0J-50999D01*
G01*
X141951000Y-83345001D01*
G75*
G02*
X141900001Y-83396000I-50999J0D01*
G01*
X139699999Y-83396000D01*
G75*
G02*
X139649000Y-83345001I0J50999D01*
G01*
G37*
G36*
G01*
X83617000Y-90045000D02*
X79817000Y-90045000D01*
G75*
G02*
X79766000Y-89994000I0J51000D01*
G01*
X79766000Y-86194000D01*
G75*
G02*
X79817000Y-86143000I51000J0D01*
G01*
X83617000Y-86143000D01*
G75*
G02*
X83668000Y-86194000I0J-51000D01*
G01*
X83668000Y-89994000D01*
G75*
G02*
X83617000Y-90045000I-51000J0D01*
G01*
G37*
G36*
G01*
X97950000Y-99442000D02*
X97050000Y-99442000D01*
G75*
G02*
X96999000Y-99391000I0J51000D01*
G01*
X96999000Y-97591000D01*
G75*
G02*
X97050000Y-97540000I51000J0D01*
G01*
X97950000Y-97540000D01*
G75*
G02*
X98001000Y-97591000I0J-51000D01*
G01*
X98001000Y-99391000D01*
G75*
G02*
X97950000Y-99442000I-51000J0D01*
G01*
G37*
G36*
G01*
X96680000Y-99442000D02*
X95780000Y-99442000D01*
G75*
G02*
X95729000Y-99391000I0J51000D01*
G01*
X95729000Y-97591000D01*
G75*
G02*
X95780000Y-97540000I51000J0D01*
G01*
X96680000Y-97540000D01*
G75*
G02*
X96731000Y-97591000I0J-51000D01*
G01*
X96731000Y-99391000D01*
G75*
G02*
X96680000Y-99442000I-51000J0D01*
G01*
G37*
G36*
G01*
X95410000Y-99442000D02*
X94510000Y-99442000D01*
G75*
G02*
X94459000Y-99391000I0J51000D01*
G01*
X94459000Y-97591000D01*
G75*
G02*
X94510000Y-97540000I51000J0D01*
G01*
X95410000Y-97540000D01*
G75*
G02*
X95461000Y-97591000I0J-51000D01*
G01*
X95461000Y-99391000D01*
G75*
G02*
X95410000Y-99442000I-51000J0D01*
G01*
G37*
G36*
G01*
X94140000Y-99442000D02*
X93240000Y-99442000D01*
G75*
G02*
X93189000Y-99391000I0J51000D01*
G01*
X93189000Y-97591000D01*
G75*
G02*
X93240000Y-97540000I51000J0D01*
G01*
X94140000Y-97540000D01*
G75*
G02*
X94191000Y-97591000I0J-51000D01*
G01*
X94191000Y-99391000D01*
G75*
G02*
X94140000Y-99442000I-51000J0D01*
G01*
G37*
G36*
G01*
X92870000Y-99442000D02*
X91970000Y-99442000D01*
G75*
G02*
X91919000Y-99391000I0J51000D01*
G01*
X91919000Y-97591000D01*
G75*
G02*
X91970000Y-97540000I51000J0D01*
G01*
X92870000Y-97540000D01*
G75*
G02*
X92921000Y-97591000I0J-51000D01*
G01*
X92921000Y-99391000D01*
G75*
G02*
X92870000Y-99442000I-51000J0D01*
G01*
G37*
G36*
G01*
X91600000Y-99442000D02*
X90700000Y-99442000D01*
G75*
G02*
X90649000Y-99391000I0J51000D01*
G01*
X90649000Y-97591000D01*
G75*
G02*
X90700000Y-97540000I51000J0D01*
G01*
X91600000Y-97540000D01*
G75*
G02*
X91651000Y-97591000I0J-51000D01*
G01*
X91651000Y-99391000D01*
G75*
G02*
X91600000Y-99442000I-51000J0D01*
G01*
G37*
G36*
G01*
X90330000Y-99442000D02*
X89430000Y-99442000D01*
G75*
G02*
X89379000Y-99391000I0J51000D01*
G01*
X89379000Y-97591000D01*
G75*
G02*
X89430000Y-97540000I51000J0D01*
G01*
X90330000Y-97540000D01*
G75*
G02*
X90381000Y-97591000I0J-51000D01*
G01*
X90381000Y-99391000D01*
G75*
G02*
X90330000Y-99442000I-51000J0D01*
G01*
G37*
G36*
G01*
X89060000Y-99442000D02*
X88160000Y-99442000D01*
G75*
G02*
X88109000Y-99391000I0J51000D01*
G01*
X88109000Y-97591000D01*
G75*
G02*
X88160000Y-97540000I51000J0D01*
G01*
X89060000Y-97540000D01*
G75*
G02*
X89111000Y-97591000I0J-51000D01*
G01*
X89111000Y-99391000D01*
G75*
G02*
X89060000Y-99442000I-51000J0D01*
G01*
G37*
G36*
G01*
X87790000Y-99442000D02*
X86890000Y-99442000D01*
G75*
G02*
X86839000Y-99391000I0J51000D01*
G01*
X86839000Y-97591000D01*
G75*
G02*
X86890000Y-97540000I51000J0D01*
G01*
X87790000Y-97540000D01*
G75*
G02*
X87841000Y-97591000I0J-51000D01*
G01*
X87841000Y-99391000D01*
G75*
G02*
X87790000Y-99442000I-51000J0D01*
G01*
G37*
G36*
G01*
X86520000Y-99442000D02*
X85620000Y-99442000D01*
G75*
G02*
X85569000Y-99391000I0J51000D01*
G01*
X85569000Y-97591000D01*
G75*
G02*
X85620000Y-97540000I51000J0D01*
G01*
X86520000Y-97540000D01*
G75*
G02*
X86571000Y-97591000I0J-51000D01*
G01*
X86571000Y-99391000D01*
G75*
G02*
X86520000Y-99442000I-51000J0D01*
G01*
G37*
G36*
G01*
X85250000Y-99442000D02*
X84350000Y-99442000D01*
G75*
G02*
X84299000Y-99391000I0J51000D01*
G01*
X84299000Y-97591000D01*
G75*
G02*
X84350000Y-97540000I51000J0D01*
G01*
X85250000Y-97540000D01*
G75*
G02*
X85301000Y-97591000I0J-51000D01*
G01*
X85301000Y-99391000D01*
G75*
G02*
X85250000Y-99442000I-51000J0D01*
G01*
G37*
G36*
G01*
X83980000Y-99442000D02*
X83080000Y-99442000D01*
G75*
G02*
X83029000Y-99391000I0J51000D01*
G01*
X83029000Y-97591000D01*
G75*
G02*
X83080000Y-97540000I51000J0D01*
G01*
X83980000Y-97540000D01*
G75*
G02*
X84031000Y-97591000I0J-51000D01*
G01*
X84031000Y-99391000D01*
G75*
G02*
X83980000Y-99442000I-51000J0D01*
G01*
G37*
G36*
G01*
X82710000Y-99442000D02*
X81810000Y-99442000D01*
G75*
G02*
X81759000Y-99391000I0J51000D01*
G01*
X81759000Y-97591000D01*
G75*
G02*
X81810000Y-97540000I51000J0D01*
G01*
X82710000Y-97540000D01*
G75*
G02*
X82761000Y-97591000I0J-51000D01*
G01*
X82761000Y-99391000D01*
G75*
G02*
X82710000Y-99442000I-51000J0D01*
G01*
G37*
G36*
G01*
X81440000Y-99442000D02*
X80540000Y-99442000D01*
G75*
G02*
X80489000Y-99391000I0J51000D01*
G01*
X80489000Y-97591000D01*
G75*
G02*
X80540000Y-97540000I51000J0D01*
G01*
X81440000Y-97540000D01*
G75*
G02*
X81491000Y-97591000I0J-51000D01*
G01*
X81491000Y-99391000D01*
G75*
G02*
X81440000Y-99442000I-51000J0D01*
G01*
G37*
G36*
G01*
X80170000Y-99442000D02*
X79270000Y-99442000D01*
G75*
G02*
X79219000Y-99391000I0J51000D01*
G01*
X79219000Y-97591000D01*
G75*
G02*
X79270000Y-97540000I51000J0D01*
G01*
X80170000Y-97540000D01*
G75*
G02*
X80221000Y-97591000I0J-51000D01*
G01*
X80221000Y-99391000D01*
G75*
G02*
X80170000Y-99442000I-51000J0D01*
G01*
G37*
G36*
G01*
X78900000Y-99442000D02*
X78000000Y-99442000D01*
G75*
G02*
X77949000Y-99391000I0J51000D01*
G01*
X77949000Y-97591000D01*
G75*
G02*
X78000000Y-97540000I51000J0D01*
G01*
X78900000Y-97540000D01*
G75*
G02*
X78951000Y-97591000I0J-51000D01*
G01*
X78951000Y-99391000D01*
G75*
G02*
X78900000Y-99442000I-51000J0D01*
G01*
G37*
G36*
G01*
X77630000Y-99442000D02*
X76730000Y-99442000D01*
G75*
G02*
X76679000Y-99391000I0J51000D01*
G01*
X76679000Y-97591000D01*
G75*
G02*
X76730000Y-97540000I51000J0D01*
G01*
X77630000Y-97540000D01*
G75*
G02*
X77681000Y-97591000I0J-51000D01*
G01*
X77681000Y-99391000D01*
G75*
G02*
X77630000Y-99442000I-51000J0D01*
G01*
G37*
G36*
G01*
X76360000Y-99442000D02*
X75460000Y-99442000D01*
G75*
G02*
X75409000Y-99391000I0J51000D01*
G01*
X75409000Y-97591000D01*
G75*
G02*
X75460000Y-97540000I51000J0D01*
G01*
X76360000Y-97540000D01*
G75*
G02*
X76411000Y-97591000I0J-51000D01*
G01*
X76411000Y-99391000D01*
G75*
G02*
X76360000Y-99442000I-51000J0D01*
G01*
G37*
G36*
G01*
X75090000Y-79668000D02*
X74190000Y-79668000D01*
G75*
G02*
X74139000Y-79617000I0J51000D01*
G01*
X74139000Y-77817000D01*
G75*
G02*
X74190000Y-77766000I51000J0D01*
G01*
X75090000Y-77766000D01*
G75*
G02*
X75141000Y-77817000I0J-51000D01*
G01*
X75141000Y-79617000D01*
G75*
G02*
X75090000Y-79668000I-51000J0D01*
G01*
G37*
G36*
G01*
X76360000Y-79668000D02*
X75460000Y-79668000D01*
G75*
G02*
X75409000Y-79617000I0J51000D01*
G01*
X75409000Y-77817000D01*
G75*
G02*
X75460000Y-77766000I51000J0D01*
G01*
X76360000Y-77766000D01*
G75*
G02*
X76411000Y-77817000I0J-51000D01*
G01*
X76411000Y-79617000D01*
G75*
G02*
X76360000Y-79668000I-51000J0D01*
G01*
G37*
G36*
G01*
X77630000Y-79668000D02*
X76730000Y-79668000D01*
G75*
G02*
X76679000Y-79617000I0J51000D01*
G01*
X76679000Y-77817000D01*
G75*
G02*
X76730000Y-77766000I51000J0D01*
G01*
X77630000Y-77766000D01*
G75*
G02*
X77681000Y-77817000I0J-51000D01*
G01*
X77681000Y-79617000D01*
G75*
G02*
X77630000Y-79668000I-51000J0D01*
G01*
G37*
G36*
G01*
X78900000Y-79668000D02*
X78000000Y-79668000D01*
G75*
G02*
X77949000Y-79617000I0J51000D01*
G01*
X77949000Y-77817000D01*
G75*
G02*
X78000000Y-77766000I51000J0D01*
G01*
X78900000Y-77766000D01*
G75*
G02*
X78951000Y-77817000I0J-51000D01*
G01*
X78951000Y-79617000D01*
G75*
G02*
X78900000Y-79668000I-51000J0D01*
G01*
G37*
G36*
G01*
X80170000Y-79668000D02*
X79270000Y-79668000D01*
G75*
G02*
X79219000Y-79617000I0J51000D01*
G01*
X79219000Y-77817000D01*
G75*
G02*
X79270000Y-77766000I51000J0D01*
G01*
X80170000Y-77766000D01*
G75*
G02*
X80221000Y-77817000I0J-51000D01*
G01*
X80221000Y-79617000D01*
G75*
G02*
X80170000Y-79668000I-51000J0D01*
G01*
G37*
G36*
G01*
X81440000Y-79668000D02*
X80540000Y-79668000D01*
G75*
G02*
X80489000Y-79617000I0J51000D01*
G01*
X80489000Y-77817000D01*
G75*
G02*
X80540000Y-77766000I51000J0D01*
G01*
X81440000Y-77766000D01*
G75*
G02*
X81491000Y-77817000I0J-51000D01*
G01*
X81491000Y-79617000D01*
G75*
G02*
X81440000Y-79668000I-51000J0D01*
G01*
G37*
G36*
G01*
X82710000Y-79668000D02*
X81810000Y-79668000D01*
G75*
G02*
X81759000Y-79617000I0J51000D01*
G01*
X81759000Y-77817000D01*
G75*
G02*
X81810000Y-77766000I51000J0D01*
G01*
X82710000Y-77766000D01*
G75*
G02*
X82761000Y-77817000I0J-51000D01*
G01*
X82761000Y-79617000D01*
G75*
G02*
X82710000Y-79668000I-51000J0D01*
G01*
G37*
G36*
G01*
X83980000Y-79668000D02*
X83080000Y-79668000D01*
G75*
G02*
X83029000Y-79617000I0J51000D01*
G01*
X83029000Y-77817000D01*
G75*
G02*
X83080000Y-77766000I51000J0D01*
G01*
X83980000Y-77766000D01*
G75*
G02*
X84031000Y-77817000I0J-51000D01*
G01*
X84031000Y-79617000D01*
G75*
G02*
X83980000Y-79668000I-51000J0D01*
G01*
G37*
G36*
G01*
X85250000Y-79668000D02*
X84350000Y-79668000D01*
G75*
G02*
X84299000Y-79617000I0J51000D01*
G01*
X84299000Y-77817000D01*
G75*
G02*
X84350000Y-77766000I51000J0D01*
G01*
X85250000Y-77766000D01*
G75*
G02*
X85301000Y-77817000I0J-51000D01*
G01*
X85301000Y-79617000D01*
G75*
G02*
X85250000Y-79668000I-51000J0D01*
G01*
G37*
G36*
G01*
X86520000Y-79668000D02*
X85620000Y-79668000D01*
G75*
G02*
X85569000Y-79617000I0J51000D01*
G01*
X85569000Y-77817000D01*
G75*
G02*
X85620000Y-77766000I51000J0D01*
G01*
X86520000Y-77766000D01*
G75*
G02*
X86571000Y-77817000I0J-51000D01*
G01*
X86571000Y-79617000D01*
G75*
G02*
X86520000Y-79668000I-51000J0D01*
G01*
G37*
G36*
G01*
X87790000Y-79668000D02*
X86890000Y-79668000D01*
G75*
G02*
X86839000Y-79617000I0J51000D01*
G01*
X86839000Y-77817000D01*
G75*
G02*
X86890000Y-77766000I51000J0D01*
G01*
X87790000Y-77766000D01*
G75*
G02*
X87841000Y-77817000I0J-51000D01*
G01*
X87841000Y-79617000D01*
G75*
G02*
X87790000Y-79668000I-51000J0D01*
G01*
G37*
G36*
G01*
X89060000Y-79668000D02*
X88160000Y-79668000D01*
G75*
G02*
X88109000Y-79617000I0J51000D01*
G01*
X88109000Y-77817000D01*
G75*
G02*
X88160000Y-77766000I51000J0D01*
G01*
X89060000Y-77766000D01*
G75*
G02*
X89111000Y-77817000I0J-51000D01*
G01*
X89111000Y-79617000D01*
G75*
G02*
X89060000Y-79668000I-51000J0D01*
G01*
G37*
G36*
G01*
X90330000Y-79668000D02*
X89430000Y-79668000D01*
G75*
G02*
X89379000Y-79617000I0J51000D01*
G01*
X89379000Y-77817000D01*
G75*
G02*
X89430000Y-77766000I51000J0D01*
G01*
X90330000Y-77766000D01*
G75*
G02*
X90381000Y-77817000I0J-51000D01*
G01*
X90381000Y-79617000D01*
G75*
G02*
X90330000Y-79668000I-51000J0D01*
G01*
G37*
G36*
G01*
X91600000Y-79668000D02*
X90700000Y-79668000D01*
G75*
G02*
X90649000Y-79617000I0J51000D01*
G01*
X90649000Y-77817000D01*
G75*
G02*
X90700000Y-77766000I51000J0D01*
G01*
X91600000Y-77766000D01*
G75*
G02*
X91651000Y-77817000I0J-51000D01*
G01*
X91651000Y-79617000D01*
G75*
G02*
X91600000Y-79668000I-51000J0D01*
G01*
G37*
G36*
G01*
X92870000Y-79668000D02*
X91970000Y-79668000D01*
G75*
G02*
X91919000Y-79617000I0J51000D01*
G01*
X91919000Y-77817000D01*
G75*
G02*
X91970000Y-77766000I51000J0D01*
G01*
X92870000Y-77766000D01*
G75*
G02*
X92921000Y-77817000I0J-51000D01*
G01*
X92921000Y-79617000D01*
G75*
G02*
X92870000Y-79668000I-51000J0D01*
G01*
G37*
G36*
G01*
X94140000Y-79668000D02*
X93240000Y-79668000D01*
G75*
G02*
X93189000Y-79617000I0J51000D01*
G01*
X93189000Y-77817000D01*
G75*
G02*
X93240000Y-77766000I51000J0D01*
G01*
X94140000Y-77766000D01*
G75*
G02*
X94191000Y-77817000I0J-51000D01*
G01*
X94191000Y-79617000D01*
G75*
G02*
X94140000Y-79668000I-51000J0D01*
G01*
G37*
G36*
G01*
X95410000Y-79668000D02*
X94510000Y-79668000D01*
G75*
G02*
X94459000Y-79617000I0J51000D01*
G01*
X94459000Y-77817000D01*
G75*
G02*
X94510000Y-77766000I51000J0D01*
G01*
X95410000Y-77766000D01*
G75*
G02*
X95461000Y-77817000I0J-51000D01*
G01*
X95461000Y-79617000D01*
G75*
G02*
X95410000Y-79668000I-51000J0D01*
G01*
G37*
G36*
G01*
X96680000Y-79668000D02*
X95780000Y-79668000D01*
G75*
G02*
X95729000Y-79617000I0J51000D01*
G01*
X95729000Y-77817000D01*
G75*
G02*
X95780000Y-77766000I51000J0D01*
G01*
X96680000Y-77766000D01*
G75*
G02*
X96731000Y-77817000I0J-51000D01*
G01*
X96731000Y-79617000D01*
G75*
G02*
X96680000Y-79668000I-51000J0D01*
G01*
G37*
G36*
G01*
X97950000Y-79668000D02*
X97050000Y-79668000D01*
G75*
G02*
X96999000Y-79617000I0J51000D01*
G01*
X96999000Y-77817000D01*
G75*
G02*
X97050000Y-77766000I51000J0D01*
G01*
X97950000Y-77766000D01*
G75*
G02*
X98001000Y-77817000I0J-51000D01*
G01*
X98001000Y-79617000D01*
G75*
G02*
X97950000Y-79668000I-51000J0D01*
G01*
G37*
G36*
G01*
X75090000Y-99442000D02*
X74190000Y-99442000D01*
G75*
G02*
X74139000Y-99391000I0J51000D01*
G01*
X74139000Y-97591000D01*
G75*
G02*
X74190000Y-97540000I51000J0D01*
G01*
X75090000Y-97540000D01*
G75*
G02*
X75141000Y-97591000I0J-51000D01*
G01*
X75141000Y-99391000D01*
G75*
G02*
X75090000Y-99442000I-51000J0D01*
G01*
G37*
G36*
G01*
X52000000Y-97051000D02*
X50000000Y-97051000D01*
G75*
G02*
X49949000Y-97000000I0J51000D01*
G01*
X49949000Y-95000000D01*
G75*
G02*
X50000000Y-94949000I51000J0D01*
G01*
X52000000Y-94949000D01*
G75*
G02*
X52051000Y-95000000I0J-51000D01*
G01*
X52051000Y-97000000D01*
G75*
G02*
X52000000Y-97051000I-51000J0D01*
G01*
G37*
D16*
X53500000Y-96000000D03*
X56000000Y-96000000D03*
G36*
G01*
X48900000Y-90151000D02*
X46900000Y-90151000D01*
G75*
G02*
X46849000Y-90100000I0J51000D01*
G01*
X46849000Y-86900000D01*
G75*
G02*
X46900000Y-86849000I51000J0D01*
G01*
X48900000Y-86849000D01*
G75*
G02*
X48951000Y-86900000I0J-51000D01*
G01*
X48951000Y-90100000D01*
G75*
G02*
X48900000Y-90151000I-51000J0D01*
G01*
G37*
G36*
G01*
X60100000Y-90151000D02*
X58100000Y-90151000D01*
G75*
G02*
X58049000Y-90100000I0J51000D01*
G01*
X58049000Y-86900000D01*
G75*
G02*
X58100000Y-86849000I51000J0D01*
G01*
X60100000Y-86849000D01*
G75*
G02*
X60151000Y-86900000I0J-51000D01*
G01*
X60151000Y-90100000D01*
G75*
G02*
X60100000Y-90151000I-51000J0D01*
G01*
G37*
X51000000Y-81500000D03*
X56000000Y-81500000D03*
X102500000Y-83000000D03*
X107000000Y-83000000D03*
X102500000Y-89500000D03*
X107000000Y-89500000D03*
G36*
G01*
X112403000Y-27467400D02*
X112403000Y-28778600D01*
G75*
G02*
X112132600Y-29049000I-270400J0D01*
G01*
X111321400Y-29049000D01*
G75*
G02*
X111051000Y-28778600I0J270400D01*
G01*
X111051000Y-27467400D01*
G75*
G02*
X111321400Y-27197000I270400J0D01*
G01*
X112132600Y-27197000D01*
G75*
G02*
X112403000Y-27467400I0J-270400D01*
G01*
G37*
G36*
G01*
X115203000Y-27467400D02*
X115203000Y-28778600D01*
G75*
G02*
X114932600Y-29049000I-270400J0D01*
G01*
X114121400Y-29049000D01*
G75*
G02*
X113851000Y-28778600I0J270400D01*
G01*
X113851000Y-27467400D01*
G75*
G02*
X114121400Y-27197000I270400J0D01*
G01*
X114932600Y-27197000D01*
G75*
G02*
X115203000Y-27467400I0J-270400D01*
G01*
G37*
G36*
G01*
X70961500Y-57981750D02*
X70961500Y-57018250D01*
G75*
G02*
X71230750Y-56749000I269250J0D01*
G01*
X71769250Y-56749000D01*
G75*
G02*
X72038500Y-57018250I0J-269250D01*
G01*
X72038500Y-57981750D01*
G75*
G02*
X71769250Y-58251000I-269250J0D01*
G01*
X71230750Y-58251000D01*
G75*
G02*
X70961500Y-57981750I0J269250D01*
G01*
G37*
G36*
G01*
X69086500Y-57981750D02*
X69086500Y-57018250D01*
G75*
G02*
X69355750Y-56749000I269250J0D01*
G01*
X69894250Y-56749000D01*
G75*
G02*
X70163500Y-57018250I0J-269250D01*
G01*
X70163500Y-57981750D01*
G75*
G02*
X69894250Y-58251000I-269250J0D01*
G01*
X69355750Y-58251000D01*
G75*
G02*
X69086500Y-57981750I0J269250D01*
G01*
G37*
G36*
G01*
X70961500Y-68481750D02*
X70961500Y-67518250D01*
G75*
G02*
X71230750Y-67249000I269250J0D01*
G01*
X71769250Y-67249000D01*
G75*
G02*
X72038500Y-67518250I0J-269250D01*
G01*
X72038500Y-68481750D01*
G75*
G02*
X71769250Y-68751000I-269250J0D01*
G01*
X71230750Y-68751000D01*
G75*
G02*
X70961500Y-68481750I0J269250D01*
G01*
G37*
G36*
G01*
X69086500Y-68481750D02*
X69086500Y-67518250D01*
G75*
G02*
X69355750Y-67249000I269250J0D01*
G01*
X69894250Y-67249000D01*
G75*
G02*
X70163500Y-67518250I0J-269250D01*
G01*
X70163500Y-68481750D01*
G75*
G02*
X69894250Y-68751000I-269250J0D01*
G01*
X69355750Y-68751000D01*
G75*
G02*
X69086500Y-68481750I0J269250D01*
G01*
G37*
G36*
G01*
X120461500Y-83919250D02*
X120461500Y-82955750D01*
G75*
G02*
X120730750Y-82686500I269250J0D01*
G01*
X121269250Y-82686500D01*
G75*
G02*
X121538500Y-82955750I0J-269250D01*
G01*
X121538500Y-83919250D01*
G75*
G02*
X121269250Y-84188500I-269250J0D01*
G01*
X120730750Y-84188500D01*
G75*
G02*
X120461500Y-83919250I0J269250D01*
G01*
G37*
G36*
G01*
X118586500Y-83919250D02*
X118586500Y-82955750D01*
G75*
G02*
X118855750Y-82686500I269250J0D01*
G01*
X119394250Y-82686500D01*
G75*
G02*
X119663500Y-82955750I0J-269250D01*
G01*
X119663500Y-83919250D01*
G75*
G02*
X119394250Y-84188500I-269250J0D01*
G01*
X118855750Y-84188500D01*
G75*
G02*
X118586500Y-83919250I0J269250D01*
G01*
G37*
G36*
G01*
X113538500Y-83018250D02*
X113538500Y-83981750D01*
G75*
G02*
X113269250Y-84251000I-269250J0D01*
G01*
X112730750Y-84251000D01*
G75*
G02*
X112461500Y-83981750I0J269250D01*
G01*
X112461500Y-83018250D01*
G75*
G02*
X112730750Y-82749000I269250J0D01*
G01*
X113269250Y-82749000D01*
G75*
G02*
X113538500Y-83018250I0J-269250D01*
G01*
G37*
G36*
G01*
X115413500Y-83018250D02*
X115413500Y-83981750D01*
G75*
G02*
X115144250Y-84251000I-269250J0D01*
G01*
X114605750Y-84251000D01*
G75*
G02*
X114336500Y-83981750I0J269250D01*
G01*
X114336500Y-83018250D01*
G75*
G02*
X114605750Y-82749000I269250J0D01*
G01*
X115144250Y-82749000D01*
G75*
G02*
X115413500Y-83018250I0J-269250D01*
G01*
G37*
G36*
G01*
X119600000Y-88499000D02*
X120400000Y-88499000D01*
G75*
G02*
X120451000Y-88550000I0J-51000D01*
G01*
X120451000Y-89450000D01*
G75*
G02*
X120400000Y-89501000I-51000J0D01*
G01*
X119600000Y-89501000D01*
G75*
G02*
X119549000Y-89450000I0J51000D01*
G01*
X119549000Y-88550000D01*
G75*
G02*
X119600000Y-88499000I51000J0D01*
G01*
G37*
G36*
G01*
X118650000Y-86499000D02*
X119450000Y-86499000D01*
G75*
G02*
X119501000Y-86550000I0J-51000D01*
G01*
X119501000Y-87450000D01*
G75*
G02*
X119450000Y-87501000I-51000J0D01*
G01*
X118650000Y-87501000D01*
G75*
G02*
X118599000Y-87450000I0J51000D01*
G01*
X118599000Y-86550000D01*
G75*
G02*
X118650000Y-86499000I51000J0D01*
G01*
G37*
G36*
G01*
X120550000Y-86499000D02*
X121350000Y-86499000D01*
G75*
G02*
X121401000Y-86550000I0J-51000D01*
G01*
X121401000Y-87450000D01*
G75*
G02*
X121350000Y-87501000I-51000J0D01*
G01*
X120550000Y-87501000D01*
G75*
G02*
X120499000Y-87450000I0J51000D01*
G01*
X120499000Y-86550000D01*
G75*
G02*
X120550000Y-86499000I51000J0D01*
G01*
G37*
G36*
G01*
X113600000Y-88499000D02*
X114400000Y-88499000D01*
G75*
G02*
X114451000Y-88550000I0J-51000D01*
G01*
X114451000Y-89450000D01*
G75*
G02*
X114400000Y-89501000I-51000J0D01*
G01*
X113600000Y-89501000D01*
G75*
G02*
X113549000Y-89450000I0J51000D01*
G01*
X113549000Y-88550000D01*
G75*
G02*
X113600000Y-88499000I51000J0D01*
G01*
G37*
G36*
G01*
X112650000Y-86499000D02*
X113450000Y-86499000D01*
G75*
G02*
X113501000Y-86550000I0J-51000D01*
G01*
X113501000Y-87450000D01*
G75*
G02*
X113450000Y-87501000I-51000J0D01*
G01*
X112650000Y-87501000D01*
G75*
G02*
X112599000Y-87450000I0J51000D01*
G01*
X112599000Y-86550000D01*
G75*
G02*
X112650000Y-86499000I51000J0D01*
G01*
G37*
G36*
G01*
X114550000Y-86499000D02*
X115350000Y-86499000D01*
G75*
G02*
X115401000Y-86550000I0J-51000D01*
G01*
X115401000Y-87450000D01*
G75*
G02*
X115350000Y-87501000I-51000J0D01*
G01*
X114550000Y-87501000D01*
G75*
G02*
X114499000Y-87450000I0J51000D01*
G01*
X114499000Y-86550000D01*
G75*
G02*
X114550000Y-86499000I51000J0D01*
G01*
G37*
D13*
X108190000Y-28690000D03*
X115810000Y-36310000D03*
D17*
X47500000Y-58000000D03*
X50000000Y-58000000D03*
D18*
X55000000Y-57900000D03*
D17*
X55000000Y-63000000D03*
D18*
X50000000Y-63000000D03*
D17*
X50000000Y-68000000D03*
D18*
X55000000Y-68100000D03*
X55000000Y-65500000D03*
D17*
X47500000Y-68000000D03*
D18*
X55000000Y-60500000D03*
G36*
G01*
X123149000Y-31585063D02*
X123149000Y-30414937D01*
G75*
G02*
X123414937Y-30149000I265937J0D01*
G01*
X125585063Y-30149000D01*
G75*
G02*
X125851000Y-30414937I0J-265937D01*
G01*
X125851000Y-31585063D01*
G75*
G02*
X125585063Y-31851000I-265937J0D01*
G01*
X123414937Y-31851000D01*
G75*
G02*
X123149000Y-31585063I0J265937D01*
G01*
G37*
G36*
G01*
X119549000Y-31585063D02*
X119549000Y-30414937D01*
G75*
G02*
X119814937Y-30149000I265937J0D01*
G01*
X121985063Y-30149000D01*
G75*
G02*
X122251000Y-30414937I0J-265937D01*
G01*
X122251000Y-31585063D01*
G75*
G02*
X121985063Y-31851000I-265937J0D01*
G01*
X119814937Y-31851000D01*
G75*
G02*
X119549000Y-31585063I0J265937D01*
G01*
G37*
G36*
G01*
X103844400Y-33124000D02*
X105155600Y-33124000D01*
G75*
G02*
X105426000Y-33394400I0J-270400D01*
G01*
X105426000Y-34205600D01*
G75*
G02*
X105155600Y-34476000I-270400J0D01*
G01*
X103844400Y-34476000D01*
G75*
G02*
X103574000Y-34205600I0J270400D01*
G01*
X103574000Y-33394400D01*
G75*
G02*
X103844400Y-33124000I270400J0D01*
G01*
G37*
G36*
G01*
X103844400Y-30324000D02*
X105155600Y-30324000D01*
G75*
G02*
X105426000Y-30594400I0J-270400D01*
G01*
X105426000Y-31405600D01*
G75*
G02*
X105155600Y-31676000I-270400J0D01*
G01*
X103844400Y-31676000D01*
G75*
G02*
X103574000Y-31405600I0J270400D01*
G01*
X103574000Y-30594400D01*
G75*
G02*
X103844400Y-30324000I270400J0D01*
G01*
G37*
G36*
G01*
X76251000Y-56914937D02*
X76251000Y-58085063D01*
G75*
G02*
X75985063Y-58351000I-265937J0D01*
G01*
X73814937Y-58351000D01*
G75*
G02*
X73549000Y-58085063I0J265937D01*
G01*
X73549000Y-56914937D01*
G75*
G02*
X73814937Y-56649000I265937J0D01*
G01*
X75985063Y-56649000D01*
G75*
G02*
X76251000Y-56914937I0J-265937D01*
G01*
G37*
G36*
G01*
X79851000Y-56914937D02*
X79851000Y-58085063D01*
G75*
G02*
X79585063Y-58351000I-265937J0D01*
G01*
X77414937Y-58351000D01*
G75*
G02*
X77149000Y-58085063I0J265937D01*
G01*
X77149000Y-56914937D01*
G75*
G02*
X77414937Y-56649000I265937J0D01*
G01*
X79585063Y-56649000D01*
G75*
G02*
X79851000Y-56914937I0J-265937D01*
G01*
G37*
G36*
G01*
X75851000Y-67414937D02*
X75851000Y-68585063D01*
G75*
G02*
X75585063Y-68851000I-265937J0D01*
G01*
X73414937Y-68851000D01*
G75*
G02*
X73149000Y-68585063I0J265937D01*
G01*
X73149000Y-67414937D01*
G75*
G02*
X73414937Y-67149000I265937J0D01*
G01*
X75585063Y-67149000D01*
G75*
G02*
X75851000Y-67414937I0J-265937D01*
G01*
G37*
G36*
G01*
X79451000Y-67414937D02*
X79451000Y-68585063D01*
G75*
G02*
X79185063Y-68851000I-265937J0D01*
G01*
X77014937Y-68851000D01*
G75*
G02*
X76749000Y-68585063I0J265937D01*
G01*
X76749000Y-67414937D01*
G75*
G02*
X77014937Y-67149000I265937J0D01*
G01*
X79185063Y-67149000D01*
G75*
G02*
X79451000Y-67414937I0J-265937D01*
G01*
G37*
G36*
G01*
X95344400Y-73324000D02*
X96655600Y-73324000D01*
G75*
G02*
X96926000Y-73594400I0J-270400D01*
G01*
X96926000Y-74405600D01*
G75*
G02*
X96655600Y-74676000I-270400J0D01*
G01*
X95344400Y-74676000D01*
G75*
G02*
X95074000Y-74405600I0J270400D01*
G01*
X95074000Y-73594400D01*
G75*
G02*
X95344400Y-73324000I270400J0D01*
G01*
G37*
G36*
G01*
X95344400Y-70524000D02*
X96655600Y-70524000D01*
G75*
G02*
X96926000Y-70794400I0J-270400D01*
G01*
X96926000Y-71605600D01*
G75*
G02*
X96655600Y-71876000I-270400J0D01*
G01*
X95344400Y-71876000D01*
G75*
G02*
X95074000Y-71605600I0J270400D01*
G01*
X95074000Y-70794400D01*
G75*
G02*
X95344400Y-70524000I270400J0D01*
G01*
G37*
G36*
G01*
X91844400Y-73324000D02*
X93155600Y-73324000D01*
G75*
G02*
X93426000Y-73594400I0J-270400D01*
G01*
X93426000Y-74405600D01*
G75*
G02*
X93155600Y-74676000I-270400J0D01*
G01*
X91844400Y-74676000D01*
G75*
G02*
X91574000Y-74405600I0J270400D01*
G01*
X91574000Y-73594400D01*
G75*
G02*
X91844400Y-73324000I270400J0D01*
G01*
G37*
G36*
G01*
X91844400Y-70524000D02*
X93155600Y-70524000D01*
G75*
G02*
X93426000Y-70794400I0J-270400D01*
G01*
X93426000Y-71605600D01*
G75*
G02*
X93155600Y-71876000I-270400J0D01*
G01*
X91844400Y-71876000D01*
G75*
G02*
X91574000Y-71605600I0J270400D01*
G01*
X91574000Y-70794400D01*
G75*
G02*
X91844400Y-70524000I270400J0D01*
G01*
G37*
G36*
G01*
X71824000Y-61155600D02*
X71824000Y-59844400D01*
G75*
G02*
X72094400Y-59574000I270400J0D01*
G01*
X72905600Y-59574000D01*
G75*
G02*
X73176000Y-59844400I0J-270400D01*
G01*
X73176000Y-61155600D01*
G75*
G02*
X72905600Y-61426000I-270400J0D01*
G01*
X72094400Y-61426000D01*
G75*
G02*
X71824000Y-61155600I0J270400D01*
G01*
G37*
G36*
G01*
X69024000Y-61155600D02*
X69024000Y-59844400D01*
G75*
G02*
X69294400Y-59574000I270400J0D01*
G01*
X70105600Y-59574000D01*
G75*
G02*
X70376000Y-59844400I0J-270400D01*
G01*
X70376000Y-61155600D01*
G75*
G02*
X70105600Y-61426000I-270400J0D01*
G01*
X69294400Y-61426000D01*
G75*
G02*
X69024000Y-61155600I0J270400D01*
G01*
G37*
G36*
G01*
X71624000Y-65655600D02*
X71624000Y-64344400D01*
G75*
G02*
X71894400Y-64074000I270400J0D01*
G01*
X72705600Y-64074000D01*
G75*
G02*
X72976000Y-64344400I0J-270400D01*
G01*
X72976000Y-65655600D01*
G75*
G02*
X72705600Y-65926000I-270400J0D01*
G01*
X71894400Y-65926000D01*
G75*
G02*
X71624000Y-65655600I0J270400D01*
G01*
G37*
G36*
G01*
X68824000Y-65655600D02*
X68824000Y-64344400D01*
G75*
G02*
X69094400Y-64074000I270400J0D01*
G01*
X69905600Y-64074000D01*
G75*
G02*
X70176000Y-64344400I0J-270400D01*
G01*
X70176000Y-65655600D01*
G75*
G02*
X69905600Y-65926000I-270400J0D01*
G01*
X69094400Y-65926000D01*
G75*
G02*
X68824000Y-65655600I0J270400D01*
G01*
G37*
G36*
G01*
X131801000Y-73914937D02*
X131801000Y-75085063D01*
G75*
G02*
X131535063Y-75351000I-265937J0D01*
G01*
X128464937Y-75351000D01*
G75*
G02*
X128199000Y-75085063I0J265937D01*
G01*
X128199000Y-73914937D01*
G75*
G02*
X128464937Y-73649000I265937J0D01*
G01*
X131535063Y-73649000D01*
G75*
G02*
X131801000Y-73914937I0J-265937D01*
G01*
G37*
G36*
G01*
X137401000Y-73914937D02*
X137401000Y-75085063D01*
G75*
G02*
X137135063Y-75351000I-265937J0D01*
G01*
X134064937Y-75351000D01*
G75*
G02*
X133799000Y-75085063I0J265937D01*
G01*
X133799000Y-73914937D01*
G75*
G02*
X134064937Y-73649000I265937J0D01*
G01*
X137135063Y-73649000D01*
G75*
G02*
X137401000Y-73914937I0J-265937D01*
G01*
G37*
G36*
G01*
X134914937Y-94649000D02*
X136085063Y-94649000D01*
G75*
G02*
X136351000Y-94914937I0J-265937D01*
G01*
X136351000Y-97085063D01*
G75*
G02*
X136085063Y-97351000I-265937J0D01*
G01*
X134914937Y-97351000D01*
G75*
G02*
X134649000Y-97085063I0J265937D01*
G01*
X134649000Y-94914937D01*
G75*
G02*
X134914937Y-94649000I265937J0D01*
G01*
G37*
G36*
G01*
X134914937Y-91049000D02*
X136085063Y-91049000D01*
G75*
G02*
X136351000Y-91314937I0J-265937D01*
G01*
X136351000Y-93485063D01*
G75*
G02*
X136085063Y-93751000I-265937J0D01*
G01*
X134914937Y-93751000D01*
G75*
G02*
X134649000Y-93485063I0J265937D01*
G01*
X134649000Y-91314937D01*
G75*
G02*
X134914937Y-91049000I265937J0D01*
G01*
G37*
D19*
G36*
X55389390Y-66685826D02*
G01*
X55390155Y-66687674D01*
X55389115Y-66689177D01*
X55373097Y-66697738D01*
X55354460Y-66713033D01*
X55339165Y-66731670D01*
X55327800Y-66752934D01*
X55320800Y-66776009D01*
X55318437Y-66800000D01*
X55320800Y-66823991D01*
X55327800Y-66847066D01*
X55339165Y-66868330D01*
X55354460Y-66886967D01*
X55373097Y-66902262D01*
X55389115Y-66910823D01*
X55390171Y-66912522D01*
X55389228Y-66914285D01*
X55387407Y-66914435D01*
X55362738Y-66904217D01*
X55122479Y-66856427D01*
X54877521Y-66856427D01*
X54637262Y-66904217D01*
X54612593Y-66914435D01*
X54610610Y-66914174D01*
X54609845Y-66912326D01*
X54610885Y-66910823D01*
X54626903Y-66902262D01*
X54645540Y-66886967D01*
X54660835Y-66868330D01*
X54672200Y-66847066D01*
X54679200Y-66823991D01*
X54681563Y-66800000D01*
X54679200Y-66776009D01*
X54672200Y-66752934D01*
X54660835Y-66731670D01*
X54645540Y-66713033D01*
X54626903Y-66697738D01*
X54610885Y-66689177D01*
X54609829Y-66687478D01*
X54610772Y-66685715D01*
X54612593Y-66685565D01*
X54637262Y-66695783D01*
X54877521Y-66743573D01*
X55122479Y-66743573D01*
X55362738Y-66695783D01*
X55387407Y-66685565D01*
X55389390Y-66685826D01*
G37*
G36*
X55389390Y-59085826D02*
G01*
X55390155Y-59087674D01*
X55389115Y-59089177D01*
X55373097Y-59097738D01*
X55354460Y-59113033D01*
X55339165Y-59131670D01*
X55327800Y-59152934D01*
X55320800Y-59176009D01*
X55318437Y-59200000D01*
X55320800Y-59223991D01*
X55327800Y-59247066D01*
X55339165Y-59268330D01*
X55354460Y-59286967D01*
X55373097Y-59302262D01*
X55389115Y-59310823D01*
X55390171Y-59312522D01*
X55389228Y-59314285D01*
X55387407Y-59314435D01*
X55362738Y-59304217D01*
X55122479Y-59256427D01*
X54877521Y-59256427D01*
X54637262Y-59304217D01*
X54612593Y-59314435D01*
X54610610Y-59314174D01*
X54609845Y-59312326D01*
X54610885Y-59310823D01*
X54626903Y-59302262D01*
X54645540Y-59286967D01*
X54660835Y-59268330D01*
X54672200Y-59247066D01*
X54679200Y-59223991D01*
X54681563Y-59200000D01*
X54679200Y-59176009D01*
X54672200Y-59152934D01*
X54660835Y-59131670D01*
X54645540Y-59113033D01*
X54626903Y-59097738D01*
X54610885Y-59089177D01*
X54609829Y-59087478D01*
X54610772Y-59085715D01*
X54612593Y-59085565D01*
X54637262Y-59095783D01*
X54877521Y-59143573D01*
X55122479Y-59143573D01*
X55362738Y-59095783D01*
X55387407Y-59085565D01*
X55389390Y-59085826D01*
G37*
M02*
