G04 #@! TF.GenerationSoftware,KiCad,Pcbnew,5.1.5+dfsg1-2build2*
G04 #@! TF.CreationDate,2022-10-18T15:56:32-04:00*
G04 #@! TF.ProjectId,Tayloe-Mixer-v3,5461796c-6f65-42d4-9d69-7865722d7633,rev?*
G04 #@! TF.SameCoordinates,Original*
G04 #@! TF.FileFunction,Paste,Top*
G04 #@! TF.FilePolarity,Positive*
%FSLAX46Y46*%
G04 Gerber Fmt 4.6, Leading zero omitted, Abs format (unit mm)*
G04 Created by KiCad (PCBNEW 5.1.5+dfsg1-2build2) date 2022-10-18 15:56:32*
%MOMM*%
%LPD*%
G04 APERTURE LIST*
%ADD10R,1.500000X2.000000*%
%ADD11R,3.800000X2.000000*%
%ADD12C,0.100000*%
%ADD13R,1.200000X0.600000*%
%ADD14R,2.000000X0.750000*%
%ADD15R,0.750000X2.000000*%
%ADD16R,3.050000X2.750000*%
%ADD17R,2.200000X1.200000*%
%ADD18R,3.800000X3.800000*%
%ADD19R,0.900000X1.800000*%
%ADD20R,0.800000X0.900000*%
G04 APERTURE END LIST*
D10*
X130200000Y-87300000D03*
X134800000Y-87300000D03*
X132500000Y-87300000D03*
D11*
X132500000Y-81000000D03*
D12*
G36*
X95839703Y-62740722D02*
G01*
X95854264Y-62742882D01*
X95868543Y-62746459D01*
X95882403Y-62751418D01*
X95895710Y-62757712D01*
X95908336Y-62765280D01*
X95920159Y-62774048D01*
X95931066Y-62783934D01*
X95940952Y-62794841D01*
X95949720Y-62806664D01*
X95957288Y-62819290D01*
X95963582Y-62832597D01*
X95968541Y-62846457D01*
X95972118Y-62860736D01*
X95974278Y-62875297D01*
X95975000Y-62890000D01*
X95975000Y-63190000D01*
X95974278Y-63204703D01*
X95972118Y-63219264D01*
X95968541Y-63233543D01*
X95963582Y-63247403D01*
X95957288Y-63260710D01*
X95949720Y-63273336D01*
X95940952Y-63285159D01*
X95931066Y-63296066D01*
X95920159Y-63305952D01*
X95908336Y-63314720D01*
X95895710Y-63322288D01*
X95882403Y-63328582D01*
X95868543Y-63333541D01*
X95854264Y-63337118D01*
X95839703Y-63339278D01*
X95825000Y-63340000D01*
X94175000Y-63340000D01*
X94160297Y-63339278D01*
X94145736Y-63337118D01*
X94131457Y-63333541D01*
X94117597Y-63328582D01*
X94104290Y-63322288D01*
X94091664Y-63314720D01*
X94079841Y-63305952D01*
X94068934Y-63296066D01*
X94059048Y-63285159D01*
X94050280Y-63273336D01*
X94042712Y-63260710D01*
X94036418Y-63247403D01*
X94031459Y-63233543D01*
X94027882Y-63219264D01*
X94025722Y-63204703D01*
X94025000Y-63190000D01*
X94025000Y-62890000D01*
X94025722Y-62875297D01*
X94027882Y-62860736D01*
X94031459Y-62846457D01*
X94036418Y-62832597D01*
X94042712Y-62819290D01*
X94050280Y-62806664D01*
X94059048Y-62794841D01*
X94068934Y-62783934D01*
X94079841Y-62774048D01*
X94091664Y-62765280D01*
X94104290Y-62757712D01*
X94117597Y-62751418D01*
X94131457Y-62746459D01*
X94145736Y-62742882D01*
X94160297Y-62740722D01*
X94175000Y-62740000D01*
X95825000Y-62740000D01*
X95839703Y-62740722D01*
G37*
G36*
X90889703Y-62740722D02*
G01*
X90904264Y-62742882D01*
X90918543Y-62746459D01*
X90932403Y-62751418D01*
X90945710Y-62757712D01*
X90958336Y-62765280D01*
X90970159Y-62774048D01*
X90981066Y-62783934D01*
X90990952Y-62794841D01*
X90999720Y-62806664D01*
X91007288Y-62819290D01*
X91013582Y-62832597D01*
X91018541Y-62846457D01*
X91022118Y-62860736D01*
X91024278Y-62875297D01*
X91025000Y-62890000D01*
X91025000Y-63190000D01*
X91024278Y-63204703D01*
X91022118Y-63219264D01*
X91018541Y-63233543D01*
X91013582Y-63247403D01*
X91007288Y-63260710D01*
X90999720Y-63273336D01*
X90990952Y-63285159D01*
X90981066Y-63296066D01*
X90970159Y-63305952D01*
X90958336Y-63314720D01*
X90945710Y-63322288D01*
X90932403Y-63328582D01*
X90918543Y-63333541D01*
X90904264Y-63337118D01*
X90889703Y-63339278D01*
X90875000Y-63340000D01*
X89225000Y-63340000D01*
X89210297Y-63339278D01*
X89195736Y-63337118D01*
X89181457Y-63333541D01*
X89167597Y-63328582D01*
X89154290Y-63322288D01*
X89141664Y-63314720D01*
X89129841Y-63305952D01*
X89118934Y-63296066D01*
X89109048Y-63285159D01*
X89100280Y-63273336D01*
X89092712Y-63260710D01*
X89086418Y-63247403D01*
X89081459Y-63233543D01*
X89077882Y-63219264D01*
X89075722Y-63204703D01*
X89075000Y-63190000D01*
X89075000Y-62890000D01*
X89075722Y-62875297D01*
X89077882Y-62860736D01*
X89081459Y-62846457D01*
X89086418Y-62832597D01*
X89092712Y-62819290D01*
X89100280Y-62806664D01*
X89109048Y-62794841D01*
X89118934Y-62783934D01*
X89129841Y-62774048D01*
X89141664Y-62765280D01*
X89154290Y-62757712D01*
X89167597Y-62751418D01*
X89181457Y-62746459D01*
X89195736Y-62742882D01*
X89210297Y-62740722D01*
X89225000Y-62740000D01*
X90875000Y-62740000D01*
X90889703Y-62740722D01*
G37*
G36*
X95839703Y-61470722D02*
G01*
X95854264Y-61472882D01*
X95868543Y-61476459D01*
X95882403Y-61481418D01*
X95895710Y-61487712D01*
X95908336Y-61495280D01*
X95920159Y-61504048D01*
X95931066Y-61513934D01*
X95940952Y-61524841D01*
X95949720Y-61536664D01*
X95957288Y-61549290D01*
X95963582Y-61562597D01*
X95968541Y-61576457D01*
X95972118Y-61590736D01*
X95974278Y-61605297D01*
X95975000Y-61620000D01*
X95975000Y-61920000D01*
X95974278Y-61934703D01*
X95972118Y-61949264D01*
X95968541Y-61963543D01*
X95963582Y-61977403D01*
X95957288Y-61990710D01*
X95949720Y-62003336D01*
X95940952Y-62015159D01*
X95931066Y-62026066D01*
X95920159Y-62035952D01*
X95908336Y-62044720D01*
X95895710Y-62052288D01*
X95882403Y-62058582D01*
X95868543Y-62063541D01*
X95854264Y-62067118D01*
X95839703Y-62069278D01*
X95825000Y-62070000D01*
X94175000Y-62070000D01*
X94160297Y-62069278D01*
X94145736Y-62067118D01*
X94131457Y-62063541D01*
X94117597Y-62058582D01*
X94104290Y-62052288D01*
X94091664Y-62044720D01*
X94079841Y-62035952D01*
X94068934Y-62026066D01*
X94059048Y-62015159D01*
X94050280Y-62003336D01*
X94042712Y-61990710D01*
X94036418Y-61977403D01*
X94031459Y-61963543D01*
X94027882Y-61949264D01*
X94025722Y-61934703D01*
X94025000Y-61920000D01*
X94025000Y-61620000D01*
X94025722Y-61605297D01*
X94027882Y-61590736D01*
X94031459Y-61576457D01*
X94036418Y-61562597D01*
X94042712Y-61549290D01*
X94050280Y-61536664D01*
X94059048Y-61524841D01*
X94068934Y-61513934D01*
X94079841Y-61504048D01*
X94091664Y-61495280D01*
X94104290Y-61487712D01*
X94117597Y-61481418D01*
X94131457Y-61476459D01*
X94145736Y-61472882D01*
X94160297Y-61470722D01*
X94175000Y-61470000D01*
X95825000Y-61470000D01*
X95839703Y-61470722D01*
G37*
G36*
X95839703Y-64010722D02*
G01*
X95854264Y-64012882D01*
X95868543Y-64016459D01*
X95882403Y-64021418D01*
X95895710Y-64027712D01*
X95908336Y-64035280D01*
X95920159Y-64044048D01*
X95931066Y-64053934D01*
X95940952Y-64064841D01*
X95949720Y-64076664D01*
X95957288Y-64089290D01*
X95963582Y-64102597D01*
X95968541Y-64116457D01*
X95972118Y-64130736D01*
X95974278Y-64145297D01*
X95975000Y-64160000D01*
X95975000Y-64460000D01*
X95974278Y-64474703D01*
X95972118Y-64489264D01*
X95968541Y-64503543D01*
X95963582Y-64517403D01*
X95957288Y-64530710D01*
X95949720Y-64543336D01*
X95940952Y-64555159D01*
X95931066Y-64566066D01*
X95920159Y-64575952D01*
X95908336Y-64584720D01*
X95895710Y-64592288D01*
X95882403Y-64598582D01*
X95868543Y-64603541D01*
X95854264Y-64607118D01*
X95839703Y-64609278D01*
X95825000Y-64610000D01*
X94175000Y-64610000D01*
X94160297Y-64609278D01*
X94145736Y-64607118D01*
X94131457Y-64603541D01*
X94117597Y-64598582D01*
X94104290Y-64592288D01*
X94091664Y-64584720D01*
X94079841Y-64575952D01*
X94068934Y-64566066D01*
X94059048Y-64555159D01*
X94050280Y-64543336D01*
X94042712Y-64530710D01*
X94036418Y-64517403D01*
X94031459Y-64503543D01*
X94027882Y-64489264D01*
X94025722Y-64474703D01*
X94025000Y-64460000D01*
X94025000Y-64160000D01*
X94025722Y-64145297D01*
X94027882Y-64130736D01*
X94031459Y-64116457D01*
X94036418Y-64102597D01*
X94042712Y-64089290D01*
X94050280Y-64076664D01*
X94059048Y-64064841D01*
X94068934Y-64053934D01*
X94079841Y-64044048D01*
X94091664Y-64035280D01*
X94104290Y-64027712D01*
X94117597Y-64021418D01*
X94131457Y-64016459D01*
X94145736Y-64012882D01*
X94160297Y-64010722D01*
X94175000Y-64010000D01*
X95825000Y-64010000D01*
X95839703Y-64010722D01*
G37*
G36*
X90889703Y-60200722D02*
G01*
X90904264Y-60202882D01*
X90918543Y-60206459D01*
X90932403Y-60211418D01*
X90945710Y-60217712D01*
X90958336Y-60225280D01*
X90970159Y-60234048D01*
X90981066Y-60243934D01*
X90990952Y-60254841D01*
X90999720Y-60266664D01*
X91007288Y-60279290D01*
X91013582Y-60292597D01*
X91018541Y-60306457D01*
X91022118Y-60320736D01*
X91024278Y-60335297D01*
X91025000Y-60350000D01*
X91025000Y-60650000D01*
X91024278Y-60664703D01*
X91022118Y-60679264D01*
X91018541Y-60693543D01*
X91013582Y-60707403D01*
X91007288Y-60720710D01*
X90999720Y-60733336D01*
X90990952Y-60745159D01*
X90981066Y-60756066D01*
X90970159Y-60765952D01*
X90958336Y-60774720D01*
X90945710Y-60782288D01*
X90932403Y-60788582D01*
X90918543Y-60793541D01*
X90904264Y-60797118D01*
X90889703Y-60799278D01*
X90875000Y-60800000D01*
X89225000Y-60800000D01*
X89210297Y-60799278D01*
X89195736Y-60797118D01*
X89181457Y-60793541D01*
X89167597Y-60788582D01*
X89154290Y-60782288D01*
X89141664Y-60774720D01*
X89129841Y-60765952D01*
X89118934Y-60756066D01*
X89109048Y-60745159D01*
X89100280Y-60733336D01*
X89092712Y-60720710D01*
X89086418Y-60707403D01*
X89081459Y-60693543D01*
X89077882Y-60679264D01*
X89075722Y-60664703D01*
X89075000Y-60650000D01*
X89075000Y-60350000D01*
X89075722Y-60335297D01*
X89077882Y-60320736D01*
X89081459Y-60306457D01*
X89086418Y-60292597D01*
X89092712Y-60279290D01*
X89100280Y-60266664D01*
X89109048Y-60254841D01*
X89118934Y-60243934D01*
X89129841Y-60234048D01*
X89141664Y-60225280D01*
X89154290Y-60217712D01*
X89167597Y-60211418D01*
X89181457Y-60206459D01*
X89195736Y-60202882D01*
X89210297Y-60200722D01*
X89225000Y-60200000D01*
X90875000Y-60200000D01*
X90889703Y-60200722D01*
G37*
G36*
X90889703Y-64010722D02*
G01*
X90904264Y-64012882D01*
X90918543Y-64016459D01*
X90932403Y-64021418D01*
X90945710Y-64027712D01*
X90958336Y-64035280D01*
X90970159Y-64044048D01*
X90981066Y-64053934D01*
X90990952Y-64064841D01*
X90999720Y-64076664D01*
X91007288Y-64089290D01*
X91013582Y-64102597D01*
X91018541Y-64116457D01*
X91022118Y-64130736D01*
X91024278Y-64145297D01*
X91025000Y-64160000D01*
X91025000Y-64460000D01*
X91024278Y-64474703D01*
X91022118Y-64489264D01*
X91018541Y-64503543D01*
X91013582Y-64517403D01*
X91007288Y-64530710D01*
X90999720Y-64543336D01*
X90990952Y-64555159D01*
X90981066Y-64566066D01*
X90970159Y-64575952D01*
X90958336Y-64584720D01*
X90945710Y-64592288D01*
X90932403Y-64598582D01*
X90918543Y-64603541D01*
X90904264Y-64607118D01*
X90889703Y-64609278D01*
X90875000Y-64610000D01*
X89225000Y-64610000D01*
X89210297Y-64609278D01*
X89195736Y-64607118D01*
X89181457Y-64603541D01*
X89167597Y-64598582D01*
X89154290Y-64592288D01*
X89141664Y-64584720D01*
X89129841Y-64575952D01*
X89118934Y-64566066D01*
X89109048Y-64555159D01*
X89100280Y-64543336D01*
X89092712Y-64530710D01*
X89086418Y-64517403D01*
X89081459Y-64503543D01*
X89077882Y-64489264D01*
X89075722Y-64474703D01*
X89075000Y-64460000D01*
X89075000Y-64160000D01*
X89075722Y-64145297D01*
X89077882Y-64130736D01*
X89081459Y-64116457D01*
X89086418Y-64102597D01*
X89092712Y-64089290D01*
X89100280Y-64076664D01*
X89109048Y-64064841D01*
X89118934Y-64053934D01*
X89129841Y-64044048D01*
X89141664Y-64035280D01*
X89154290Y-64027712D01*
X89167597Y-64021418D01*
X89181457Y-64016459D01*
X89195736Y-64012882D01*
X89210297Y-64010722D01*
X89225000Y-64010000D01*
X90875000Y-64010000D01*
X90889703Y-64010722D01*
G37*
G36*
X95839703Y-60200722D02*
G01*
X95854264Y-60202882D01*
X95868543Y-60206459D01*
X95882403Y-60211418D01*
X95895710Y-60217712D01*
X95908336Y-60225280D01*
X95920159Y-60234048D01*
X95931066Y-60243934D01*
X95940952Y-60254841D01*
X95949720Y-60266664D01*
X95957288Y-60279290D01*
X95963582Y-60292597D01*
X95968541Y-60306457D01*
X95972118Y-60320736D01*
X95974278Y-60335297D01*
X95975000Y-60350000D01*
X95975000Y-60650000D01*
X95974278Y-60664703D01*
X95972118Y-60679264D01*
X95968541Y-60693543D01*
X95963582Y-60707403D01*
X95957288Y-60720710D01*
X95949720Y-60733336D01*
X95940952Y-60745159D01*
X95931066Y-60756066D01*
X95920159Y-60765952D01*
X95908336Y-60774720D01*
X95895710Y-60782288D01*
X95882403Y-60788582D01*
X95868543Y-60793541D01*
X95854264Y-60797118D01*
X95839703Y-60799278D01*
X95825000Y-60800000D01*
X94175000Y-60800000D01*
X94160297Y-60799278D01*
X94145736Y-60797118D01*
X94131457Y-60793541D01*
X94117597Y-60788582D01*
X94104290Y-60782288D01*
X94091664Y-60774720D01*
X94079841Y-60765952D01*
X94068934Y-60756066D01*
X94059048Y-60745159D01*
X94050280Y-60733336D01*
X94042712Y-60720710D01*
X94036418Y-60707403D01*
X94031459Y-60693543D01*
X94027882Y-60679264D01*
X94025722Y-60664703D01*
X94025000Y-60650000D01*
X94025000Y-60350000D01*
X94025722Y-60335297D01*
X94027882Y-60320736D01*
X94031459Y-60306457D01*
X94036418Y-60292597D01*
X94042712Y-60279290D01*
X94050280Y-60266664D01*
X94059048Y-60254841D01*
X94068934Y-60243934D01*
X94079841Y-60234048D01*
X94091664Y-60225280D01*
X94104290Y-60217712D01*
X94117597Y-60211418D01*
X94131457Y-60206459D01*
X94145736Y-60202882D01*
X94160297Y-60200722D01*
X94175000Y-60200000D01*
X95825000Y-60200000D01*
X95839703Y-60200722D01*
G37*
G36*
X90889703Y-61470722D02*
G01*
X90904264Y-61472882D01*
X90918543Y-61476459D01*
X90932403Y-61481418D01*
X90945710Y-61487712D01*
X90958336Y-61495280D01*
X90970159Y-61504048D01*
X90981066Y-61513934D01*
X90990952Y-61524841D01*
X90999720Y-61536664D01*
X91007288Y-61549290D01*
X91013582Y-61562597D01*
X91018541Y-61576457D01*
X91022118Y-61590736D01*
X91024278Y-61605297D01*
X91025000Y-61620000D01*
X91025000Y-61920000D01*
X91024278Y-61934703D01*
X91022118Y-61949264D01*
X91018541Y-61963543D01*
X91013582Y-61977403D01*
X91007288Y-61990710D01*
X90999720Y-62003336D01*
X90990952Y-62015159D01*
X90981066Y-62026066D01*
X90970159Y-62035952D01*
X90958336Y-62044720D01*
X90945710Y-62052288D01*
X90932403Y-62058582D01*
X90918543Y-62063541D01*
X90904264Y-62067118D01*
X90889703Y-62069278D01*
X90875000Y-62070000D01*
X89225000Y-62070000D01*
X89210297Y-62069278D01*
X89195736Y-62067118D01*
X89181457Y-62063541D01*
X89167597Y-62058582D01*
X89154290Y-62052288D01*
X89141664Y-62044720D01*
X89129841Y-62035952D01*
X89118934Y-62026066D01*
X89109048Y-62015159D01*
X89100280Y-62003336D01*
X89092712Y-61990710D01*
X89086418Y-61977403D01*
X89081459Y-61963543D01*
X89077882Y-61949264D01*
X89075722Y-61934703D01*
X89075000Y-61920000D01*
X89075000Y-61620000D01*
X89075722Y-61605297D01*
X89077882Y-61590736D01*
X89081459Y-61576457D01*
X89086418Y-61562597D01*
X89092712Y-61549290D01*
X89100280Y-61536664D01*
X89109048Y-61524841D01*
X89118934Y-61513934D01*
X89129841Y-61504048D01*
X89141664Y-61495280D01*
X89154290Y-61487712D01*
X89167597Y-61481418D01*
X89181457Y-61476459D01*
X89195736Y-61472882D01*
X89210297Y-61470722D01*
X89225000Y-61470000D01*
X90875000Y-61470000D01*
X90889703Y-61470722D01*
G37*
D13*
X116450000Y-62155000D03*
X116450000Y-63425000D03*
X116450000Y-64695000D03*
X122050000Y-59615000D03*
X122050000Y-64695000D03*
X122050000Y-63425000D03*
X122050000Y-62155000D03*
X122050000Y-60885000D03*
X122050000Y-58345000D03*
X122050000Y-57075000D03*
X116450000Y-55805000D03*
X116450000Y-57075000D03*
X116450000Y-58345000D03*
X116450000Y-60885000D03*
X122050000Y-55805000D03*
X116450000Y-59615000D03*
D12*
G36*
X98980142Y-62513674D02*
G01*
X99003803Y-62517184D01*
X99027007Y-62522996D01*
X99049529Y-62531054D01*
X99071153Y-62541282D01*
X99091670Y-62553579D01*
X99110883Y-62567829D01*
X99128607Y-62583893D01*
X99144671Y-62601617D01*
X99158921Y-62620830D01*
X99171218Y-62641347D01*
X99181446Y-62662971D01*
X99189504Y-62685493D01*
X99195316Y-62708697D01*
X99198826Y-62732358D01*
X99200000Y-62756250D01*
X99200000Y-63243750D01*
X99198826Y-63267642D01*
X99195316Y-63291303D01*
X99189504Y-63314507D01*
X99181446Y-63337029D01*
X99171218Y-63358653D01*
X99158921Y-63379170D01*
X99144671Y-63398383D01*
X99128607Y-63416107D01*
X99110883Y-63432171D01*
X99091670Y-63446421D01*
X99071153Y-63458718D01*
X99049529Y-63468946D01*
X99027007Y-63477004D01*
X99003803Y-63482816D01*
X98980142Y-63486326D01*
X98956250Y-63487500D01*
X98043750Y-63487500D01*
X98019858Y-63486326D01*
X97996197Y-63482816D01*
X97972993Y-63477004D01*
X97950471Y-63468946D01*
X97928847Y-63458718D01*
X97908330Y-63446421D01*
X97889117Y-63432171D01*
X97871393Y-63416107D01*
X97855329Y-63398383D01*
X97841079Y-63379170D01*
X97828782Y-63358653D01*
X97818554Y-63337029D01*
X97810496Y-63314507D01*
X97804684Y-63291303D01*
X97801174Y-63267642D01*
X97800000Y-63243750D01*
X97800000Y-62756250D01*
X97801174Y-62732358D01*
X97804684Y-62708697D01*
X97810496Y-62685493D01*
X97818554Y-62662971D01*
X97828782Y-62641347D01*
X97841079Y-62620830D01*
X97855329Y-62601617D01*
X97871393Y-62583893D01*
X97889117Y-62567829D01*
X97908330Y-62553579D01*
X97928847Y-62541282D01*
X97950471Y-62531054D01*
X97972993Y-62522996D01*
X97996197Y-62517184D01*
X98019858Y-62513674D01*
X98043750Y-62512500D01*
X98956250Y-62512500D01*
X98980142Y-62513674D01*
G37*
G36*
X98980142Y-64388674D02*
G01*
X99003803Y-64392184D01*
X99027007Y-64397996D01*
X99049529Y-64406054D01*
X99071153Y-64416282D01*
X99091670Y-64428579D01*
X99110883Y-64442829D01*
X99128607Y-64458893D01*
X99144671Y-64476617D01*
X99158921Y-64495830D01*
X99171218Y-64516347D01*
X99181446Y-64537971D01*
X99189504Y-64560493D01*
X99195316Y-64583697D01*
X99198826Y-64607358D01*
X99200000Y-64631250D01*
X99200000Y-65118750D01*
X99198826Y-65142642D01*
X99195316Y-65166303D01*
X99189504Y-65189507D01*
X99181446Y-65212029D01*
X99171218Y-65233653D01*
X99158921Y-65254170D01*
X99144671Y-65273383D01*
X99128607Y-65291107D01*
X99110883Y-65307171D01*
X99091670Y-65321421D01*
X99071153Y-65333718D01*
X99049529Y-65343946D01*
X99027007Y-65352004D01*
X99003803Y-65357816D01*
X98980142Y-65361326D01*
X98956250Y-65362500D01*
X98043750Y-65362500D01*
X98019858Y-65361326D01*
X97996197Y-65357816D01*
X97972993Y-65352004D01*
X97950471Y-65343946D01*
X97928847Y-65333718D01*
X97908330Y-65321421D01*
X97889117Y-65307171D01*
X97871393Y-65291107D01*
X97855329Y-65273383D01*
X97841079Y-65254170D01*
X97828782Y-65233653D01*
X97818554Y-65212029D01*
X97810496Y-65189507D01*
X97804684Y-65166303D01*
X97801174Y-65142642D01*
X97800000Y-65118750D01*
X97800000Y-64631250D01*
X97801174Y-64607358D01*
X97804684Y-64583697D01*
X97810496Y-64560493D01*
X97818554Y-64537971D01*
X97828782Y-64516347D01*
X97841079Y-64495830D01*
X97855329Y-64476617D01*
X97871393Y-64458893D01*
X97889117Y-64442829D01*
X97908330Y-64428579D01*
X97928847Y-64416282D01*
X97950471Y-64406054D01*
X97972993Y-64397996D01*
X97996197Y-64392184D01*
X98019858Y-64388674D01*
X98043750Y-64387500D01*
X98956250Y-64387500D01*
X98980142Y-64388674D01*
G37*
G36*
X85980142Y-61513674D02*
G01*
X86003803Y-61517184D01*
X86027007Y-61522996D01*
X86049529Y-61531054D01*
X86071153Y-61541282D01*
X86091670Y-61553579D01*
X86110883Y-61567829D01*
X86128607Y-61583893D01*
X86144671Y-61601617D01*
X86158921Y-61620830D01*
X86171218Y-61641347D01*
X86181446Y-61662971D01*
X86189504Y-61685493D01*
X86195316Y-61708697D01*
X86198826Y-61732358D01*
X86200000Y-61756250D01*
X86200000Y-62243750D01*
X86198826Y-62267642D01*
X86195316Y-62291303D01*
X86189504Y-62314507D01*
X86181446Y-62337029D01*
X86171218Y-62358653D01*
X86158921Y-62379170D01*
X86144671Y-62398383D01*
X86128607Y-62416107D01*
X86110883Y-62432171D01*
X86091670Y-62446421D01*
X86071153Y-62458718D01*
X86049529Y-62468946D01*
X86027007Y-62477004D01*
X86003803Y-62482816D01*
X85980142Y-62486326D01*
X85956250Y-62487500D01*
X85043750Y-62487500D01*
X85019858Y-62486326D01*
X84996197Y-62482816D01*
X84972993Y-62477004D01*
X84950471Y-62468946D01*
X84928847Y-62458718D01*
X84908330Y-62446421D01*
X84889117Y-62432171D01*
X84871393Y-62416107D01*
X84855329Y-62398383D01*
X84841079Y-62379170D01*
X84828782Y-62358653D01*
X84818554Y-62337029D01*
X84810496Y-62314507D01*
X84804684Y-62291303D01*
X84801174Y-62267642D01*
X84800000Y-62243750D01*
X84800000Y-61756250D01*
X84801174Y-61732358D01*
X84804684Y-61708697D01*
X84810496Y-61685493D01*
X84818554Y-61662971D01*
X84828782Y-61641347D01*
X84841079Y-61620830D01*
X84855329Y-61601617D01*
X84871393Y-61583893D01*
X84889117Y-61567829D01*
X84908330Y-61553579D01*
X84928847Y-61541282D01*
X84950471Y-61531054D01*
X84972993Y-61522996D01*
X84996197Y-61517184D01*
X85019858Y-61513674D01*
X85043750Y-61512500D01*
X85956250Y-61512500D01*
X85980142Y-61513674D01*
G37*
G36*
X85980142Y-59638674D02*
G01*
X86003803Y-59642184D01*
X86027007Y-59647996D01*
X86049529Y-59656054D01*
X86071153Y-59666282D01*
X86091670Y-59678579D01*
X86110883Y-59692829D01*
X86128607Y-59708893D01*
X86144671Y-59726617D01*
X86158921Y-59745830D01*
X86171218Y-59766347D01*
X86181446Y-59787971D01*
X86189504Y-59810493D01*
X86195316Y-59833697D01*
X86198826Y-59857358D01*
X86200000Y-59881250D01*
X86200000Y-60368750D01*
X86198826Y-60392642D01*
X86195316Y-60416303D01*
X86189504Y-60439507D01*
X86181446Y-60462029D01*
X86171218Y-60483653D01*
X86158921Y-60504170D01*
X86144671Y-60523383D01*
X86128607Y-60541107D01*
X86110883Y-60557171D01*
X86091670Y-60571421D01*
X86071153Y-60583718D01*
X86049529Y-60593946D01*
X86027007Y-60602004D01*
X86003803Y-60607816D01*
X85980142Y-60611326D01*
X85956250Y-60612500D01*
X85043750Y-60612500D01*
X85019858Y-60611326D01*
X84996197Y-60607816D01*
X84972993Y-60602004D01*
X84950471Y-60593946D01*
X84928847Y-60583718D01*
X84908330Y-60571421D01*
X84889117Y-60557171D01*
X84871393Y-60541107D01*
X84855329Y-60523383D01*
X84841079Y-60504170D01*
X84828782Y-60483653D01*
X84818554Y-60462029D01*
X84810496Y-60439507D01*
X84804684Y-60416303D01*
X84801174Y-60392642D01*
X84800000Y-60368750D01*
X84800000Y-59881250D01*
X84801174Y-59857358D01*
X84804684Y-59833697D01*
X84810496Y-59810493D01*
X84818554Y-59787971D01*
X84828782Y-59766347D01*
X84841079Y-59745830D01*
X84855329Y-59726617D01*
X84871393Y-59708893D01*
X84889117Y-59692829D01*
X84908330Y-59678579D01*
X84928847Y-59666282D01*
X84950471Y-59656054D01*
X84972993Y-59647996D01*
X84996197Y-59642184D01*
X85019858Y-59638674D01*
X85043750Y-59637500D01*
X85956250Y-59637500D01*
X85980142Y-59638674D01*
G37*
G36*
X109892642Y-49301174D02*
G01*
X109916303Y-49304684D01*
X109939507Y-49310496D01*
X109962029Y-49318554D01*
X109983653Y-49328782D01*
X110004170Y-49341079D01*
X110023383Y-49355329D01*
X110041107Y-49371393D01*
X110057171Y-49389117D01*
X110071421Y-49408330D01*
X110083718Y-49428847D01*
X110093946Y-49450471D01*
X110102004Y-49472993D01*
X110107816Y-49496197D01*
X110111326Y-49519858D01*
X110112500Y-49543750D01*
X110112500Y-50456250D01*
X110111326Y-50480142D01*
X110107816Y-50503803D01*
X110102004Y-50527007D01*
X110093946Y-50549529D01*
X110083718Y-50571153D01*
X110071421Y-50591670D01*
X110057171Y-50610883D01*
X110041107Y-50628607D01*
X110023383Y-50644671D01*
X110004170Y-50658921D01*
X109983653Y-50671218D01*
X109962029Y-50681446D01*
X109939507Y-50689504D01*
X109916303Y-50695316D01*
X109892642Y-50698826D01*
X109868750Y-50700000D01*
X109381250Y-50700000D01*
X109357358Y-50698826D01*
X109333697Y-50695316D01*
X109310493Y-50689504D01*
X109287971Y-50681446D01*
X109266347Y-50671218D01*
X109245830Y-50658921D01*
X109226617Y-50644671D01*
X109208893Y-50628607D01*
X109192829Y-50610883D01*
X109178579Y-50591670D01*
X109166282Y-50571153D01*
X109156054Y-50549529D01*
X109147996Y-50527007D01*
X109142184Y-50503803D01*
X109138674Y-50480142D01*
X109137500Y-50456250D01*
X109137500Y-49543750D01*
X109138674Y-49519858D01*
X109142184Y-49496197D01*
X109147996Y-49472993D01*
X109156054Y-49450471D01*
X109166282Y-49428847D01*
X109178579Y-49408330D01*
X109192829Y-49389117D01*
X109208893Y-49371393D01*
X109226617Y-49355329D01*
X109245830Y-49341079D01*
X109266347Y-49328782D01*
X109287971Y-49318554D01*
X109310493Y-49310496D01*
X109333697Y-49304684D01*
X109357358Y-49301174D01*
X109381250Y-49300000D01*
X109868750Y-49300000D01*
X109892642Y-49301174D01*
G37*
G36*
X111767642Y-49301174D02*
G01*
X111791303Y-49304684D01*
X111814507Y-49310496D01*
X111837029Y-49318554D01*
X111858653Y-49328782D01*
X111879170Y-49341079D01*
X111898383Y-49355329D01*
X111916107Y-49371393D01*
X111932171Y-49389117D01*
X111946421Y-49408330D01*
X111958718Y-49428847D01*
X111968946Y-49450471D01*
X111977004Y-49472993D01*
X111982816Y-49496197D01*
X111986326Y-49519858D01*
X111987500Y-49543750D01*
X111987500Y-50456250D01*
X111986326Y-50480142D01*
X111982816Y-50503803D01*
X111977004Y-50527007D01*
X111968946Y-50549529D01*
X111958718Y-50571153D01*
X111946421Y-50591670D01*
X111932171Y-50610883D01*
X111916107Y-50628607D01*
X111898383Y-50644671D01*
X111879170Y-50658921D01*
X111858653Y-50671218D01*
X111837029Y-50681446D01*
X111814507Y-50689504D01*
X111791303Y-50695316D01*
X111767642Y-50698826D01*
X111743750Y-50700000D01*
X111256250Y-50700000D01*
X111232358Y-50698826D01*
X111208697Y-50695316D01*
X111185493Y-50689504D01*
X111162971Y-50681446D01*
X111141347Y-50671218D01*
X111120830Y-50658921D01*
X111101617Y-50644671D01*
X111083893Y-50628607D01*
X111067829Y-50610883D01*
X111053579Y-50591670D01*
X111041282Y-50571153D01*
X111031054Y-50549529D01*
X111022996Y-50527007D01*
X111017184Y-50503803D01*
X111013674Y-50480142D01*
X111012500Y-50456250D01*
X111012500Y-49543750D01*
X111013674Y-49519858D01*
X111017184Y-49496197D01*
X111022996Y-49472993D01*
X111031054Y-49450471D01*
X111041282Y-49428847D01*
X111053579Y-49408330D01*
X111067829Y-49389117D01*
X111083893Y-49371393D01*
X111101617Y-49355329D01*
X111120830Y-49341079D01*
X111141347Y-49328782D01*
X111162971Y-49318554D01*
X111185493Y-49310496D01*
X111208697Y-49304684D01*
X111232358Y-49301174D01*
X111256250Y-49300000D01*
X111743750Y-49300000D01*
X111767642Y-49301174D01*
G37*
G36*
X109830142Y-67261174D02*
G01*
X109853803Y-67264684D01*
X109877007Y-67270496D01*
X109899529Y-67278554D01*
X109921153Y-67288782D01*
X109941670Y-67301079D01*
X109960883Y-67315329D01*
X109978607Y-67331393D01*
X109994671Y-67349117D01*
X110008921Y-67368330D01*
X110021218Y-67388847D01*
X110031446Y-67410471D01*
X110039504Y-67432993D01*
X110045316Y-67456197D01*
X110048826Y-67479858D01*
X110050000Y-67503750D01*
X110050000Y-68416250D01*
X110048826Y-68440142D01*
X110045316Y-68463803D01*
X110039504Y-68487007D01*
X110031446Y-68509529D01*
X110021218Y-68531153D01*
X110008921Y-68551670D01*
X109994671Y-68570883D01*
X109978607Y-68588607D01*
X109960883Y-68604671D01*
X109941670Y-68618921D01*
X109921153Y-68631218D01*
X109899529Y-68641446D01*
X109877007Y-68649504D01*
X109853803Y-68655316D01*
X109830142Y-68658826D01*
X109806250Y-68660000D01*
X109318750Y-68660000D01*
X109294858Y-68658826D01*
X109271197Y-68655316D01*
X109247993Y-68649504D01*
X109225471Y-68641446D01*
X109203847Y-68631218D01*
X109183330Y-68618921D01*
X109164117Y-68604671D01*
X109146393Y-68588607D01*
X109130329Y-68570883D01*
X109116079Y-68551670D01*
X109103782Y-68531153D01*
X109093554Y-68509529D01*
X109085496Y-68487007D01*
X109079684Y-68463803D01*
X109076174Y-68440142D01*
X109075000Y-68416250D01*
X109075000Y-67503750D01*
X109076174Y-67479858D01*
X109079684Y-67456197D01*
X109085496Y-67432993D01*
X109093554Y-67410471D01*
X109103782Y-67388847D01*
X109116079Y-67368330D01*
X109130329Y-67349117D01*
X109146393Y-67331393D01*
X109164117Y-67315329D01*
X109183330Y-67301079D01*
X109203847Y-67288782D01*
X109225471Y-67278554D01*
X109247993Y-67270496D01*
X109271197Y-67264684D01*
X109294858Y-67261174D01*
X109318750Y-67260000D01*
X109806250Y-67260000D01*
X109830142Y-67261174D01*
G37*
G36*
X111705142Y-67261174D02*
G01*
X111728803Y-67264684D01*
X111752007Y-67270496D01*
X111774529Y-67278554D01*
X111796153Y-67288782D01*
X111816670Y-67301079D01*
X111835883Y-67315329D01*
X111853607Y-67331393D01*
X111869671Y-67349117D01*
X111883921Y-67368330D01*
X111896218Y-67388847D01*
X111906446Y-67410471D01*
X111914504Y-67432993D01*
X111920316Y-67456197D01*
X111923826Y-67479858D01*
X111925000Y-67503750D01*
X111925000Y-68416250D01*
X111923826Y-68440142D01*
X111920316Y-68463803D01*
X111914504Y-68487007D01*
X111906446Y-68509529D01*
X111896218Y-68531153D01*
X111883921Y-68551670D01*
X111869671Y-68570883D01*
X111853607Y-68588607D01*
X111835883Y-68604671D01*
X111816670Y-68618921D01*
X111796153Y-68631218D01*
X111774529Y-68641446D01*
X111752007Y-68649504D01*
X111728803Y-68655316D01*
X111705142Y-68658826D01*
X111681250Y-68660000D01*
X111193750Y-68660000D01*
X111169858Y-68658826D01*
X111146197Y-68655316D01*
X111122993Y-68649504D01*
X111100471Y-68641446D01*
X111078847Y-68631218D01*
X111058330Y-68618921D01*
X111039117Y-68604671D01*
X111021393Y-68588607D01*
X111005329Y-68570883D01*
X110991079Y-68551670D01*
X110978782Y-68531153D01*
X110968554Y-68509529D01*
X110960496Y-68487007D01*
X110954684Y-68463803D01*
X110951174Y-68440142D01*
X110950000Y-68416250D01*
X110950000Y-67503750D01*
X110951174Y-67479858D01*
X110954684Y-67456197D01*
X110960496Y-67432993D01*
X110968554Y-67410471D01*
X110978782Y-67388847D01*
X110991079Y-67368330D01*
X111005329Y-67349117D01*
X111021393Y-67331393D01*
X111039117Y-67315329D01*
X111058330Y-67301079D01*
X111078847Y-67288782D01*
X111100471Y-67278554D01*
X111122993Y-67270496D01*
X111146197Y-67264684D01*
X111169858Y-67261174D01*
X111193750Y-67260000D01*
X111681250Y-67260000D01*
X111705142Y-67261174D01*
G37*
G36*
X109830142Y-55261174D02*
G01*
X109853803Y-55264684D01*
X109877007Y-55270496D01*
X109899529Y-55278554D01*
X109921153Y-55288782D01*
X109941670Y-55301079D01*
X109960883Y-55315329D01*
X109978607Y-55331393D01*
X109994671Y-55349117D01*
X110008921Y-55368330D01*
X110021218Y-55388847D01*
X110031446Y-55410471D01*
X110039504Y-55432993D01*
X110045316Y-55456197D01*
X110048826Y-55479858D01*
X110050000Y-55503750D01*
X110050000Y-56416250D01*
X110048826Y-56440142D01*
X110045316Y-56463803D01*
X110039504Y-56487007D01*
X110031446Y-56509529D01*
X110021218Y-56531153D01*
X110008921Y-56551670D01*
X109994671Y-56570883D01*
X109978607Y-56588607D01*
X109960883Y-56604671D01*
X109941670Y-56618921D01*
X109921153Y-56631218D01*
X109899529Y-56641446D01*
X109877007Y-56649504D01*
X109853803Y-56655316D01*
X109830142Y-56658826D01*
X109806250Y-56660000D01*
X109318750Y-56660000D01*
X109294858Y-56658826D01*
X109271197Y-56655316D01*
X109247993Y-56649504D01*
X109225471Y-56641446D01*
X109203847Y-56631218D01*
X109183330Y-56618921D01*
X109164117Y-56604671D01*
X109146393Y-56588607D01*
X109130329Y-56570883D01*
X109116079Y-56551670D01*
X109103782Y-56531153D01*
X109093554Y-56509529D01*
X109085496Y-56487007D01*
X109079684Y-56463803D01*
X109076174Y-56440142D01*
X109075000Y-56416250D01*
X109075000Y-55503750D01*
X109076174Y-55479858D01*
X109079684Y-55456197D01*
X109085496Y-55432993D01*
X109093554Y-55410471D01*
X109103782Y-55388847D01*
X109116079Y-55368330D01*
X109130329Y-55349117D01*
X109146393Y-55331393D01*
X109164117Y-55315329D01*
X109183330Y-55301079D01*
X109203847Y-55288782D01*
X109225471Y-55278554D01*
X109247993Y-55270496D01*
X109271197Y-55264684D01*
X109294858Y-55261174D01*
X109318750Y-55260000D01*
X109806250Y-55260000D01*
X109830142Y-55261174D01*
G37*
G36*
X111705142Y-55261174D02*
G01*
X111728803Y-55264684D01*
X111752007Y-55270496D01*
X111774529Y-55278554D01*
X111796153Y-55288782D01*
X111816670Y-55301079D01*
X111835883Y-55315329D01*
X111853607Y-55331393D01*
X111869671Y-55349117D01*
X111883921Y-55368330D01*
X111896218Y-55388847D01*
X111906446Y-55410471D01*
X111914504Y-55432993D01*
X111920316Y-55456197D01*
X111923826Y-55479858D01*
X111925000Y-55503750D01*
X111925000Y-56416250D01*
X111923826Y-56440142D01*
X111920316Y-56463803D01*
X111914504Y-56487007D01*
X111906446Y-56509529D01*
X111896218Y-56531153D01*
X111883921Y-56551670D01*
X111869671Y-56570883D01*
X111853607Y-56588607D01*
X111835883Y-56604671D01*
X111816670Y-56618921D01*
X111796153Y-56631218D01*
X111774529Y-56641446D01*
X111752007Y-56649504D01*
X111728803Y-56655316D01*
X111705142Y-56658826D01*
X111681250Y-56660000D01*
X111193750Y-56660000D01*
X111169858Y-56658826D01*
X111146197Y-56655316D01*
X111122993Y-56649504D01*
X111100471Y-56641446D01*
X111078847Y-56631218D01*
X111058330Y-56618921D01*
X111039117Y-56604671D01*
X111021393Y-56588607D01*
X111005329Y-56570883D01*
X110991079Y-56551670D01*
X110978782Y-56531153D01*
X110968554Y-56509529D01*
X110960496Y-56487007D01*
X110954684Y-56463803D01*
X110951174Y-56440142D01*
X110950000Y-56416250D01*
X110950000Y-55503750D01*
X110951174Y-55479858D01*
X110954684Y-55456197D01*
X110960496Y-55432993D01*
X110968554Y-55410471D01*
X110978782Y-55388847D01*
X110991079Y-55368330D01*
X111005329Y-55349117D01*
X111021393Y-55331393D01*
X111039117Y-55315329D01*
X111058330Y-55301079D01*
X111078847Y-55288782D01*
X111100471Y-55278554D01*
X111122993Y-55270496D01*
X111146197Y-55264684D01*
X111169858Y-55261174D01*
X111193750Y-55260000D01*
X111681250Y-55260000D01*
X111705142Y-55261174D01*
G37*
G36*
X109892642Y-61301174D02*
G01*
X109916303Y-61304684D01*
X109939507Y-61310496D01*
X109962029Y-61318554D01*
X109983653Y-61328782D01*
X110004170Y-61341079D01*
X110023383Y-61355329D01*
X110041107Y-61371393D01*
X110057171Y-61389117D01*
X110071421Y-61408330D01*
X110083718Y-61428847D01*
X110093946Y-61450471D01*
X110102004Y-61472993D01*
X110107816Y-61496197D01*
X110111326Y-61519858D01*
X110112500Y-61543750D01*
X110112500Y-62456250D01*
X110111326Y-62480142D01*
X110107816Y-62503803D01*
X110102004Y-62527007D01*
X110093946Y-62549529D01*
X110083718Y-62571153D01*
X110071421Y-62591670D01*
X110057171Y-62610883D01*
X110041107Y-62628607D01*
X110023383Y-62644671D01*
X110004170Y-62658921D01*
X109983653Y-62671218D01*
X109962029Y-62681446D01*
X109939507Y-62689504D01*
X109916303Y-62695316D01*
X109892642Y-62698826D01*
X109868750Y-62700000D01*
X109381250Y-62700000D01*
X109357358Y-62698826D01*
X109333697Y-62695316D01*
X109310493Y-62689504D01*
X109287971Y-62681446D01*
X109266347Y-62671218D01*
X109245830Y-62658921D01*
X109226617Y-62644671D01*
X109208893Y-62628607D01*
X109192829Y-62610883D01*
X109178579Y-62591670D01*
X109166282Y-62571153D01*
X109156054Y-62549529D01*
X109147996Y-62527007D01*
X109142184Y-62503803D01*
X109138674Y-62480142D01*
X109137500Y-62456250D01*
X109137500Y-61543750D01*
X109138674Y-61519858D01*
X109142184Y-61496197D01*
X109147996Y-61472993D01*
X109156054Y-61450471D01*
X109166282Y-61428847D01*
X109178579Y-61408330D01*
X109192829Y-61389117D01*
X109208893Y-61371393D01*
X109226617Y-61355329D01*
X109245830Y-61341079D01*
X109266347Y-61328782D01*
X109287971Y-61318554D01*
X109310493Y-61310496D01*
X109333697Y-61304684D01*
X109357358Y-61301174D01*
X109381250Y-61300000D01*
X109868750Y-61300000D01*
X109892642Y-61301174D01*
G37*
G36*
X111767642Y-61301174D02*
G01*
X111791303Y-61304684D01*
X111814507Y-61310496D01*
X111837029Y-61318554D01*
X111858653Y-61328782D01*
X111879170Y-61341079D01*
X111898383Y-61355329D01*
X111916107Y-61371393D01*
X111932171Y-61389117D01*
X111946421Y-61408330D01*
X111958718Y-61428847D01*
X111968946Y-61450471D01*
X111977004Y-61472993D01*
X111982816Y-61496197D01*
X111986326Y-61519858D01*
X111987500Y-61543750D01*
X111987500Y-62456250D01*
X111986326Y-62480142D01*
X111982816Y-62503803D01*
X111977004Y-62527007D01*
X111968946Y-62549529D01*
X111958718Y-62571153D01*
X111946421Y-62591670D01*
X111932171Y-62610883D01*
X111916107Y-62628607D01*
X111898383Y-62644671D01*
X111879170Y-62658921D01*
X111858653Y-62671218D01*
X111837029Y-62681446D01*
X111814507Y-62689504D01*
X111791303Y-62695316D01*
X111767642Y-62698826D01*
X111743750Y-62700000D01*
X111256250Y-62700000D01*
X111232358Y-62698826D01*
X111208697Y-62695316D01*
X111185493Y-62689504D01*
X111162971Y-62681446D01*
X111141347Y-62671218D01*
X111120830Y-62658921D01*
X111101617Y-62644671D01*
X111083893Y-62628607D01*
X111067829Y-62610883D01*
X111053579Y-62591670D01*
X111041282Y-62571153D01*
X111031054Y-62549529D01*
X111022996Y-62527007D01*
X111017184Y-62503803D01*
X111013674Y-62480142D01*
X111012500Y-62456250D01*
X111012500Y-61543750D01*
X111013674Y-61519858D01*
X111017184Y-61496197D01*
X111022996Y-61472993D01*
X111031054Y-61450471D01*
X111041282Y-61428847D01*
X111053579Y-61408330D01*
X111067829Y-61389117D01*
X111083893Y-61371393D01*
X111101617Y-61355329D01*
X111120830Y-61341079D01*
X111141347Y-61328782D01*
X111162971Y-61318554D01*
X111185493Y-61310496D01*
X111208697Y-61304684D01*
X111232358Y-61301174D01*
X111256250Y-61300000D01*
X111743750Y-61300000D01*
X111767642Y-61301174D01*
G37*
G36*
X129980142Y-96513674D02*
G01*
X130003803Y-96517184D01*
X130027007Y-96522996D01*
X130049529Y-96531054D01*
X130071153Y-96541282D01*
X130091670Y-96553579D01*
X130110883Y-96567829D01*
X130128607Y-96583893D01*
X130144671Y-96601617D01*
X130158921Y-96620830D01*
X130171218Y-96641347D01*
X130181446Y-96662971D01*
X130189504Y-96685493D01*
X130195316Y-96708697D01*
X130198826Y-96732358D01*
X130200000Y-96756250D01*
X130200000Y-97243750D01*
X130198826Y-97267642D01*
X130195316Y-97291303D01*
X130189504Y-97314507D01*
X130181446Y-97337029D01*
X130171218Y-97358653D01*
X130158921Y-97379170D01*
X130144671Y-97398383D01*
X130128607Y-97416107D01*
X130110883Y-97432171D01*
X130091670Y-97446421D01*
X130071153Y-97458718D01*
X130049529Y-97468946D01*
X130027007Y-97477004D01*
X130003803Y-97482816D01*
X129980142Y-97486326D01*
X129956250Y-97487500D01*
X129043750Y-97487500D01*
X129019858Y-97486326D01*
X128996197Y-97482816D01*
X128972993Y-97477004D01*
X128950471Y-97468946D01*
X128928847Y-97458718D01*
X128908330Y-97446421D01*
X128889117Y-97432171D01*
X128871393Y-97416107D01*
X128855329Y-97398383D01*
X128841079Y-97379170D01*
X128828782Y-97358653D01*
X128818554Y-97337029D01*
X128810496Y-97314507D01*
X128804684Y-97291303D01*
X128801174Y-97267642D01*
X128800000Y-97243750D01*
X128800000Y-96756250D01*
X128801174Y-96732358D01*
X128804684Y-96708697D01*
X128810496Y-96685493D01*
X128818554Y-96662971D01*
X128828782Y-96641347D01*
X128841079Y-96620830D01*
X128855329Y-96601617D01*
X128871393Y-96583893D01*
X128889117Y-96567829D01*
X128908330Y-96553579D01*
X128928847Y-96541282D01*
X128950471Y-96531054D01*
X128972993Y-96522996D01*
X128996197Y-96517184D01*
X129019858Y-96513674D01*
X129043750Y-96512500D01*
X129956250Y-96512500D01*
X129980142Y-96513674D01*
G37*
G36*
X129980142Y-94638674D02*
G01*
X130003803Y-94642184D01*
X130027007Y-94647996D01*
X130049529Y-94656054D01*
X130071153Y-94666282D01*
X130091670Y-94678579D01*
X130110883Y-94692829D01*
X130128607Y-94708893D01*
X130144671Y-94726617D01*
X130158921Y-94745830D01*
X130171218Y-94766347D01*
X130181446Y-94787971D01*
X130189504Y-94810493D01*
X130195316Y-94833697D01*
X130198826Y-94857358D01*
X130200000Y-94881250D01*
X130200000Y-95368750D01*
X130198826Y-95392642D01*
X130195316Y-95416303D01*
X130189504Y-95439507D01*
X130181446Y-95462029D01*
X130171218Y-95483653D01*
X130158921Y-95504170D01*
X130144671Y-95523383D01*
X130128607Y-95541107D01*
X130110883Y-95557171D01*
X130091670Y-95571421D01*
X130071153Y-95583718D01*
X130049529Y-95593946D01*
X130027007Y-95602004D01*
X130003803Y-95607816D01*
X129980142Y-95611326D01*
X129956250Y-95612500D01*
X129043750Y-95612500D01*
X129019858Y-95611326D01*
X128996197Y-95607816D01*
X128972993Y-95602004D01*
X128950471Y-95593946D01*
X128928847Y-95583718D01*
X128908330Y-95571421D01*
X128889117Y-95557171D01*
X128871393Y-95541107D01*
X128855329Y-95523383D01*
X128841079Y-95504170D01*
X128828782Y-95483653D01*
X128818554Y-95462029D01*
X128810496Y-95439507D01*
X128804684Y-95416303D01*
X128801174Y-95392642D01*
X128800000Y-95368750D01*
X128800000Y-94881250D01*
X128801174Y-94857358D01*
X128804684Y-94833697D01*
X128810496Y-94810493D01*
X128818554Y-94787971D01*
X128828782Y-94766347D01*
X128841079Y-94745830D01*
X128855329Y-94726617D01*
X128871393Y-94708893D01*
X128889117Y-94692829D01*
X128908330Y-94678579D01*
X128928847Y-94666282D01*
X128950471Y-94656054D01*
X128972993Y-94647996D01*
X128996197Y-94642184D01*
X129019858Y-94638674D01*
X129043750Y-94637500D01*
X129956250Y-94637500D01*
X129980142Y-94638674D01*
G37*
G36*
X129940142Y-91951174D02*
G01*
X129963803Y-91954684D01*
X129987007Y-91960496D01*
X130009529Y-91968554D01*
X130031153Y-91978782D01*
X130051670Y-91991079D01*
X130070883Y-92005329D01*
X130088607Y-92021393D01*
X130104671Y-92039117D01*
X130118921Y-92058330D01*
X130131218Y-92078847D01*
X130141446Y-92100471D01*
X130149504Y-92122993D01*
X130155316Y-92146197D01*
X130158826Y-92169858D01*
X130160000Y-92193750D01*
X130160000Y-92681250D01*
X130158826Y-92705142D01*
X130155316Y-92728803D01*
X130149504Y-92752007D01*
X130141446Y-92774529D01*
X130131218Y-92796153D01*
X130118921Y-92816670D01*
X130104671Y-92835883D01*
X130088607Y-92853607D01*
X130070883Y-92869671D01*
X130051670Y-92883921D01*
X130031153Y-92896218D01*
X130009529Y-92906446D01*
X129987007Y-92914504D01*
X129963803Y-92920316D01*
X129940142Y-92923826D01*
X129916250Y-92925000D01*
X129003750Y-92925000D01*
X128979858Y-92923826D01*
X128956197Y-92920316D01*
X128932993Y-92914504D01*
X128910471Y-92906446D01*
X128888847Y-92896218D01*
X128868330Y-92883921D01*
X128849117Y-92869671D01*
X128831393Y-92853607D01*
X128815329Y-92835883D01*
X128801079Y-92816670D01*
X128788782Y-92796153D01*
X128778554Y-92774529D01*
X128770496Y-92752007D01*
X128764684Y-92728803D01*
X128761174Y-92705142D01*
X128760000Y-92681250D01*
X128760000Y-92193750D01*
X128761174Y-92169858D01*
X128764684Y-92146197D01*
X128770496Y-92122993D01*
X128778554Y-92100471D01*
X128788782Y-92078847D01*
X128801079Y-92058330D01*
X128815329Y-92039117D01*
X128831393Y-92021393D01*
X128849117Y-92005329D01*
X128868330Y-91991079D01*
X128888847Y-91978782D01*
X128910471Y-91968554D01*
X128932993Y-91960496D01*
X128956197Y-91954684D01*
X128979858Y-91951174D01*
X129003750Y-91950000D01*
X129916250Y-91950000D01*
X129940142Y-91951174D01*
G37*
G36*
X129940142Y-90076174D02*
G01*
X129963803Y-90079684D01*
X129987007Y-90085496D01*
X130009529Y-90093554D01*
X130031153Y-90103782D01*
X130051670Y-90116079D01*
X130070883Y-90130329D01*
X130088607Y-90146393D01*
X130104671Y-90164117D01*
X130118921Y-90183330D01*
X130131218Y-90203847D01*
X130141446Y-90225471D01*
X130149504Y-90247993D01*
X130155316Y-90271197D01*
X130158826Y-90294858D01*
X130160000Y-90318750D01*
X130160000Y-90806250D01*
X130158826Y-90830142D01*
X130155316Y-90853803D01*
X130149504Y-90877007D01*
X130141446Y-90899529D01*
X130131218Y-90921153D01*
X130118921Y-90941670D01*
X130104671Y-90960883D01*
X130088607Y-90978607D01*
X130070883Y-90994671D01*
X130051670Y-91008921D01*
X130031153Y-91021218D01*
X130009529Y-91031446D01*
X129987007Y-91039504D01*
X129963803Y-91045316D01*
X129940142Y-91048826D01*
X129916250Y-91050000D01*
X129003750Y-91050000D01*
X128979858Y-91048826D01*
X128956197Y-91045316D01*
X128932993Y-91039504D01*
X128910471Y-91031446D01*
X128888847Y-91021218D01*
X128868330Y-91008921D01*
X128849117Y-90994671D01*
X128831393Y-90978607D01*
X128815329Y-90960883D01*
X128801079Y-90941670D01*
X128788782Y-90921153D01*
X128778554Y-90899529D01*
X128770496Y-90877007D01*
X128764684Y-90853803D01*
X128761174Y-90830142D01*
X128760000Y-90806250D01*
X128760000Y-90318750D01*
X128761174Y-90294858D01*
X128764684Y-90271197D01*
X128770496Y-90247993D01*
X128778554Y-90225471D01*
X128788782Y-90203847D01*
X128801079Y-90183330D01*
X128815329Y-90164117D01*
X128831393Y-90146393D01*
X128849117Y-90130329D01*
X128868330Y-90116079D01*
X128888847Y-90103782D01*
X128910471Y-90093554D01*
X128932993Y-90085496D01*
X128956197Y-90079684D01*
X128979858Y-90076174D01*
X129003750Y-90075000D01*
X129916250Y-90075000D01*
X129940142Y-90076174D01*
G37*
G36*
X121149504Y-37676204D02*
G01*
X121173773Y-37679804D01*
X121197571Y-37685765D01*
X121220671Y-37694030D01*
X121242849Y-37704520D01*
X121263893Y-37717133D01*
X121283598Y-37731747D01*
X121301777Y-37748223D01*
X121318253Y-37766402D01*
X121332867Y-37786107D01*
X121345480Y-37807151D01*
X121355970Y-37829329D01*
X121364235Y-37852429D01*
X121370196Y-37876227D01*
X121373796Y-37900496D01*
X121375000Y-37925000D01*
X121375000Y-38675000D01*
X121373796Y-38699504D01*
X121370196Y-38723773D01*
X121364235Y-38747571D01*
X121355970Y-38770671D01*
X121345480Y-38792849D01*
X121332867Y-38813893D01*
X121318253Y-38833598D01*
X121301777Y-38851777D01*
X121283598Y-38868253D01*
X121263893Y-38882867D01*
X121242849Y-38895480D01*
X121220671Y-38905970D01*
X121197571Y-38914235D01*
X121173773Y-38920196D01*
X121149504Y-38923796D01*
X121125000Y-38925000D01*
X119875000Y-38925000D01*
X119850496Y-38923796D01*
X119826227Y-38920196D01*
X119802429Y-38914235D01*
X119779329Y-38905970D01*
X119757151Y-38895480D01*
X119736107Y-38882867D01*
X119716402Y-38868253D01*
X119698223Y-38851777D01*
X119681747Y-38833598D01*
X119667133Y-38813893D01*
X119654520Y-38792849D01*
X119644030Y-38770671D01*
X119635765Y-38747571D01*
X119629804Y-38723773D01*
X119626204Y-38699504D01*
X119625000Y-38675000D01*
X119625000Y-37925000D01*
X119626204Y-37900496D01*
X119629804Y-37876227D01*
X119635765Y-37852429D01*
X119644030Y-37829329D01*
X119654520Y-37807151D01*
X119667133Y-37786107D01*
X119681747Y-37766402D01*
X119698223Y-37748223D01*
X119716402Y-37731747D01*
X119736107Y-37717133D01*
X119757151Y-37704520D01*
X119779329Y-37694030D01*
X119802429Y-37685765D01*
X119826227Y-37679804D01*
X119850496Y-37676204D01*
X119875000Y-37675000D01*
X121125000Y-37675000D01*
X121149504Y-37676204D01*
G37*
G36*
X121149504Y-34876204D02*
G01*
X121173773Y-34879804D01*
X121197571Y-34885765D01*
X121220671Y-34894030D01*
X121242849Y-34904520D01*
X121263893Y-34917133D01*
X121283598Y-34931747D01*
X121301777Y-34948223D01*
X121318253Y-34966402D01*
X121332867Y-34986107D01*
X121345480Y-35007151D01*
X121355970Y-35029329D01*
X121364235Y-35052429D01*
X121370196Y-35076227D01*
X121373796Y-35100496D01*
X121375000Y-35125000D01*
X121375000Y-35875000D01*
X121373796Y-35899504D01*
X121370196Y-35923773D01*
X121364235Y-35947571D01*
X121355970Y-35970671D01*
X121345480Y-35992849D01*
X121332867Y-36013893D01*
X121318253Y-36033598D01*
X121301777Y-36051777D01*
X121283598Y-36068253D01*
X121263893Y-36082867D01*
X121242849Y-36095480D01*
X121220671Y-36105970D01*
X121197571Y-36114235D01*
X121173773Y-36120196D01*
X121149504Y-36123796D01*
X121125000Y-36125000D01*
X119875000Y-36125000D01*
X119850496Y-36123796D01*
X119826227Y-36120196D01*
X119802429Y-36114235D01*
X119779329Y-36105970D01*
X119757151Y-36095480D01*
X119736107Y-36082867D01*
X119716402Y-36068253D01*
X119698223Y-36051777D01*
X119681747Y-36033598D01*
X119667133Y-36013893D01*
X119654520Y-35992849D01*
X119644030Y-35970671D01*
X119635765Y-35947571D01*
X119629804Y-35923773D01*
X119626204Y-35899504D01*
X119625000Y-35875000D01*
X119625000Y-35125000D01*
X119626204Y-35100496D01*
X119629804Y-35076227D01*
X119635765Y-35052429D01*
X119644030Y-35029329D01*
X119654520Y-35007151D01*
X119667133Y-34986107D01*
X119681747Y-34966402D01*
X119698223Y-34948223D01*
X119716402Y-34931747D01*
X119736107Y-34917133D01*
X119757151Y-34904520D01*
X119779329Y-34894030D01*
X119802429Y-34885765D01*
X119826227Y-34879804D01*
X119850496Y-34876204D01*
X119875000Y-34875000D01*
X121125000Y-34875000D01*
X121149504Y-34876204D01*
G37*
G36*
X110149504Y-43876204D02*
G01*
X110173773Y-43879804D01*
X110197571Y-43885765D01*
X110220671Y-43894030D01*
X110242849Y-43904520D01*
X110263893Y-43917133D01*
X110283598Y-43931747D01*
X110301777Y-43948223D01*
X110318253Y-43966402D01*
X110332867Y-43986107D01*
X110345480Y-44007151D01*
X110355970Y-44029329D01*
X110364235Y-44052429D01*
X110370196Y-44076227D01*
X110373796Y-44100496D01*
X110375000Y-44125000D01*
X110375000Y-44875000D01*
X110373796Y-44899504D01*
X110370196Y-44923773D01*
X110364235Y-44947571D01*
X110355970Y-44970671D01*
X110345480Y-44992849D01*
X110332867Y-45013893D01*
X110318253Y-45033598D01*
X110301777Y-45051777D01*
X110283598Y-45068253D01*
X110263893Y-45082867D01*
X110242849Y-45095480D01*
X110220671Y-45105970D01*
X110197571Y-45114235D01*
X110173773Y-45120196D01*
X110149504Y-45123796D01*
X110125000Y-45125000D01*
X108875000Y-45125000D01*
X108850496Y-45123796D01*
X108826227Y-45120196D01*
X108802429Y-45114235D01*
X108779329Y-45105970D01*
X108757151Y-45095480D01*
X108736107Y-45082867D01*
X108716402Y-45068253D01*
X108698223Y-45051777D01*
X108681747Y-45033598D01*
X108667133Y-45013893D01*
X108654520Y-44992849D01*
X108644030Y-44970671D01*
X108635765Y-44947571D01*
X108629804Y-44923773D01*
X108626204Y-44899504D01*
X108625000Y-44875000D01*
X108625000Y-44125000D01*
X108626204Y-44100496D01*
X108629804Y-44076227D01*
X108635765Y-44052429D01*
X108644030Y-44029329D01*
X108654520Y-44007151D01*
X108667133Y-43986107D01*
X108681747Y-43966402D01*
X108698223Y-43948223D01*
X108716402Y-43931747D01*
X108736107Y-43917133D01*
X108757151Y-43904520D01*
X108779329Y-43894030D01*
X108802429Y-43885765D01*
X108826227Y-43879804D01*
X108850496Y-43876204D01*
X108875000Y-43875000D01*
X110125000Y-43875000D01*
X110149504Y-43876204D01*
G37*
G36*
X110149504Y-41076204D02*
G01*
X110173773Y-41079804D01*
X110197571Y-41085765D01*
X110220671Y-41094030D01*
X110242849Y-41104520D01*
X110263893Y-41117133D01*
X110283598Y-41131747D01*
X110301777Y-41148223D01*
X110318253Y-41166402D01*
X110332867Y-41186107D01*
X110345480Y-41207151D01*
X110355970Y-41229329D01*
X110364235Y-41252429D01*
X110370196Y-41276227D01*
X110373796Y-41300496D01*
X110375000Y-41325000D01*
X110375000Y-42075000D01*
X110373796Y-42099504D01*
X110370196Y-42123773D01*
X110364235Y-42147571D01*
X110355970Y-42170671D01*
X110345480Y-42192849D01*
X110332867Y-42213893D01*
X110318253Y-42233598D01*
X110301777Y-42251777D01*
X110283598Y-42268253D01*
X110263893Y-42282867D01*
X110242849Y-42295480D01*
X110220671Y-42305970D01*
X110197571Y-42314235D01*
X110173773Y-42320196D01*
X110149504Y-42323796D01*
X110125000Y-42325000D01*
X108875000Y-42325000D01*
X108850496Y-42323796D01*
X108826227Y-42320196D01*
X108802429Y-42314235D01*
X108779329Y-42305970D01*
X108757151Y-42295480D01*
X108736107Y-42282867D01*
X108716402Y-42268253D01*
X108698223Y-42251777D01*
X108681747Y-42233598D01*
X108667133Y-42213893D01*
X108654520Y-42192849D01*
X108644030Y-42170671D01*
X108635765Y-42147571D01*
X108629804Y-42123773D01*
X108626204Y-42099504D01*
X108625000Y-42075000D01*
X108625000Y-41325000D01*
X108626204Y-41300496D01*
X108629804Y-41276227D01*
X108635765Y-41252429D01*
X108644030Y-41229329D01*
X108654520Y-41207151D01*
X108667133Y-41186107D01*
X108681747Y-41166402D01*
X108698223Y-41148223D01*
X108716402Y-41131747D01*
X108736107Y-41117133D01*
X108757151Y-41104520D01*
X108779329Y-41094030D01*
X108802429Y-41085765D01*
X108826227Y-41079804D01*
X108850496Y-41076204D01*
X108875000Y-41075000D01*
X110125000Y-41075000D01*
X110149504Y-41076204D01*
G37*
G36*
X140899504Y-90626204D02*
G01*
X140923773Y-90629804D01*
X140947571Y-90635765D01*
X140970671Y-90644030D01*
X140992849Y-90654520D01*
X141013893Y-90667133D01*
X141033598Y-90681747D01*
X141051777Y-90698223D01*
X141068253Y-90716402D01*
X141082867Y-90736107D01*
X141095480Y-90757151D01*
X141105970Y-90779329D01*
X141114235Y-90802429D01*
X141120196Y-90826227D01*
X141123796Y-90850496D01*
X141125000Y-90875000D01*
X141125000Y-92125000D01*
X141123796Y-92149504D01*
X141120196Y-92173773D01*
X141114235Y-92197571D01*
X141105970Y-92220671D01*
X141095480Y-92242849D01*
X141082867Y-92263893D01*
X141068253Y-92283598D01*
X141051777Y-92301777D01*
X141033598Y-92318253D01*
X141013893Y-92332867D01*
X140992849Y-92345480D01*
X140970671Y-92355970D01*
X140947571Y-92364235D01*
X140923773Y-92370196D01*
X140899504Y-92373796D01*
X140875000Y-92375000D01*
X140125000Y-92375000D01*
X140100496Y-92373796D01*
X140076227Y-92370196D01*
X140052429Y-92364235D01*
X140029329Y-92355970D01*
X140007151Y-92345480D01*
X139986107Y-92332867D01*
X139966402Y-92318253D01*
X139948223Y-92301777D01*
X139931747Y-92283598D01*
X139917133Y-92263893D01*
X139904520Y-92242849D01*
X139894030Y-92220671D01*
X139885765Y-92197571D01*
X139879804Y-92173773D01*
X139876204Y-92149504D01*
X139875000Y-92125000D01*
X139875000Y-90875000D01*
X139876204Y-90850496D01*
X139879804Y-90826227D01*
X139885765Y-90802429D01*
X139894030Y-90779329D01*
X139904520Y-90757151D01*
X139917133Y-90736107D01*
X139931747Y-90716402D01*
X139948223Y-90698223D01*
X139966402Y-90681747D01*
X139986107Y-90667133D01*
X140007151Y-90654520D01*
X140029329Y-90644030D01*
X140052429Y-90635765D01*
X140076227Y-90629804D01*
X140100496Y-90626204D01*
X140125000Y-90625000D01*
X140875000Y-90625000D01*
X140899504Y-90626204D01*
G37*
G36*
X143699504Y-90626204D02*
G01*
X143723773Y-90629804D01*
X143747571Y-90635765D01*
X143770671Y-90644030D01*
X143792849Y-90654520D01*
X143813893Y-90667133D01*
X143833598Y-90681747D01*
X143851777Y-90698223D01*
X143868253Y-90716402D01*
X143882867Y-90736107D01*
X143895480Y-90757151D01*
X143905970Y-90779329D01*
X143914235Y-90802429D01*
X143920196Y-90826227D01*
X143923796Y-90850496D01*
X143925000Y-90875000D01*
X143925000Y-92125000D01*
X143923796Y-92149504D01*
X143920196Y-92173773D01*
X143914235Y-92197571D01*
X143905970Y-92220671D01*
X143895480Y-92242849D01*
X143882867Y-92263893D01*
X143868253Y-92283598D01*
X143851777Y-92301777D01*
X143833598Y-92318253D01*
X143813893Y-92332867D01*
X143792849Y-92345480D01*
X143770671Y-92355970D01*
X143747571Y-92364235D01*
X143723773Y-92370196D01*
X143699504Y-92373796D01*
X143675000Y-92375000D01*
X142925000Y-92375000D01*
X142900496Y-92373796D01*
X142876227Y-92370196D01*
X142852429Y-92364235D01*
X142829329Y-92355970D01*
X142807151Y-92345480D01*
X142786107Y-92332867D01*
X142766402Y-92318253D01*
X142748223Y-92301777D01*
X142731747Y-92283598D01*
X142717133Y-92263893D01*
X142704520Y-92242849D01*
X142694030Y-92220671D01*
X142685765Y-92197571D01*
X142679804Y-92173773D01*
X142676204Y-92149504D01*
X142675000Y-92125000D01*
X142675000Y-90875000D01*
X142676204Y-90850496D01*
X142679804Y-90826227D01*
X142685765Y-90802429D01*
X142694030Y-90779329D01*
X142704520Y-90757151D01*
X142717133Y-90736107D01*
X142731747Y-90716402D01*
X142748223Y-90698223D01*
X142766402Y-90681747D01*
X142786107Y-90667133D01*
X142807151Y-90654520D01*
X142829329Y-90644030D01*
X142852429Y-90635765D01*
X142876227Y-90629804D01*
X142900496Y-90626204D01*
X142925000Y-90625000D01*
X143675000Y-90625000D01*
X143699504Y-90626204D01*
G37*
G36*
X91767642Y-66301174D02*
G01*
X91791303Y-66304684D01*
X91814507Y-66310496D01*
X91837029Y-66318554D01*
X91858653Y-66328782D01*
X91879170Y-66341079D01*
X91898383Y-66355329D01*
X91916107Y-66371393D01*
X91932171Y-66389117D01*
X91946421Y-66408330D01*
X91958718Y-66428847D01*
X91968946Y-66450471D01*
X91977004Y-66472993D01*
X91982816Y-66496197D01*
X91986326Y-66519858D01*
X91987500Y-66543750D01*
X91987500Y-67456250D01*
X91986326Y-67480142D01*
X91982816Y-67503803D01*
X91977004Y-67527007D01*
X91968946Y-67549529D01*
X91958718Y-67571153D01*
X91946421Y-67591670D01*
X91932171Y-67610883D01*
X91916107Y-67628607D01*
X91898383Y-67644671D01*
X91879170Y-67658921D01*
X91858653Y-67671218D01*
X91837029Y-67681446D01*
X91814507Y-67689504D01*
X91791303Y-67695316D01*
X91767642Y-67698826D01*
X91743750Y-67700000D01*
X91256250Y-67700000D01*
X91232358Y-67698826D01*
X91208697Y-67695316D01*
X91185493Y-67689504D01*
X91162971Y-67681446D01*
X91141347Y-67671218D01*
X91120830Y-67658921D01*
X91101617Y-67644671D01*
X91083893Y-67628607D01*
X91067829Y-67610883D01*
X91053579Y-67591670D01*
X91041282Y-67571153D01*
X91031054Y-67549529D01*
X91022996Y-67527007D01*
X91017184Y-67503803D01*
X91013674Y-67480142D01*
X91012500Y-67456250D01*
X91012500Y-66543750D01*
X91013674Y-66519858D01*
X91017184Y-66496197D01*
X91022996Y-66472993D01*
X91031054Y-66450471D01*
X91041282Y-66428847D01*
X91053579Y-66408330D01*
X91067829Y-66389117D01*
X91083893Y-66371393D01*
X91101617Y-66355329D01*
X91120830Y-66341079D01*
X91141347Y-66328782D01*
X91162971Y-66318554D01*
X91185493Y-66310496D01*
X91208697Y-66304684D01*
X91232358Y-66301174D01*
X91256250Y-66300000D01*
X91743750Y-66300000D01*
X91767642Y-66301174D01*
G37*
G36*
X93642642Y-66301174D02*
G01*
X93666303Y-66304684D01*
X93689507Y-66310496D01*
X93712029Y-66318554D01*
X93733653Y-66328782D01*
X93754170Y-66341079D01*
X93773383Y-66355329D01*
X93791107Y-66371393D01*
X93807171Y-66389117D01*
X93821421Y-66408330D01*
X93833718Y-66428847D01*
X93843946Y-66450471D01*
X93852004Y-66472993D01*
X93857816Y-66496197D01*
X93861326Y-66519858D01*
X93862500Y-66543750D01*
X93862500Y-67456250D01*
X93861326Y-67480142D01*
X93857816Y-67503803D01*
X93852004Y-67527007D01*
X93843946Y-67549529D01*
X93833718Y-67571153D01*
X93821421Y-67591670D01*
X93807171Y-67610883D01*
X93791107Y-67628607D01*
X93773383Y-67644671D01*
X93754170Y-67658921D01*
X93733653Y-67671218D01*
X93712029Y-67681446D01*
X93689507Y-67689504D01*
X93666303Y-67695316D01*
X93642642Y-67698826D01*
X93618750Y-67700000D01*
X93131250Y-67700000D01*
X93107358Y-67698826D01*
X93083697Y-67695316D01*
X93060493Y-67689504D01*
X93037971Y-67681446D01*
X93016347Y-67671218D01*
X92995830Y-67658921D01*
X92976617Y-67644671D01*
X92958893Y-67628607D01*
X92942829Y-67610883D01*
X92928579Y-67591670D01*
X92916282Y-67571153D01*
X92906054Y-67549529D01*
X92897996Y-67527007D01*
X92892184Y-67503803D01*
X92888674Y-67480142D01*
X92887500Y-67456250D01*
X92887500Y-66543750D01*
X92888674Y-66519858D01*
X92892184Y-66496197D01*
X92897996Y-66472993D01*
X92906054Y-66450471D01*
X92916282Y-66428847D01*
X92928579Y-66408330D01*
X92942829Y-66389117D01*
X92958893Y-66371393D01*
X92976617Y-66355329D01*
X92995830Y-66341079D01*
X93016347Y-66328782D01*
X93037971Y-66318554D01*
X93060493Y-66310496D01*
X93083697Y-66304684D01*
X93107358Y-66301174D01*
X93131250Y-66300000D01*
X93618750Y-66300000D01*
X93642642Y-66301174D01*
G37*
G36*
X85980142Y-65513674D02*
G01*
X86003803Y-65517184D01*
X86027007Y-65522996D01*
X86049529Y-65531054D01*
X86071153Y-65541282D01*
X86091670Y-65553579D01*
X86110883Y-65567829D01*
X86128607Y-65583893D01*
X86144671Y-65601617D01*
X86158921Y-65620830D01*
X86171218Y-65641347D01*
X86181446Y-65662971D01*
X86189504Y-65685493D01*
X86195316Y-65708697D01*
X86198826Y-65732358D01*
X86200000Y-65756250D01*
X86200000Y-66243750D01*
X86198826Y-66267642D01*
X86195316Y-66291303D01*
X86189504Y-66314507D01*
X86181446Y-66337029D01*
X86171218Y-66358653D01*
X86158921Y-66379170D01*
X86144671Y-66398383D01*
X86128607Y-66416107D01*
X86110883Y-66432171D01*
X86091670Y-66446421D01*
X86071153Y-66458718D01*
X86049529Y-66468946D01*
X86027007Y-66477004D01*
X86003803Y-66482816D01*
X85980142Y-66486326D01*
X85956250Y-66487500D01*
X85043750Y-66487500D01*
X85019858Y-66486326D01*
X84996197Y-66482816D01*
X84972993Y-66477004D01*
X84950471Y-66468946D01*
X84928847Y-66458718D01*
X84908330Y-66446421D01*
X84889117Y-66432171D01*
X84871393Y-66416107D01*
X84855329Y-66398383D01*
X84841079Y-66379170D01*
X84828782Y-66358653D01*
X84818554Y-66337029D01*
X84810496Y-66314507D01*
X84804684Y-66291303D01*
X84801174Y-66267642D01*
X84800000Y-66243750D01*
X84800000Y-65756250D01*
X84801174Y-65732358D01*
X84804684Y-65708697D01*
X84810496Y-65685493D01*
X84818554Y-65662971D01*
X84828782Y-65641347D01*
X84841079Y-65620830D01*
X84855329Y-65601617D01*
X84871393Y-65583893D01*
X84889117Y-65567829D01*
X84908330Y-65553579D01*
X84928847Y-65541282D01*
X84950471Y-65531054D01*
X84972993Y-65522996D01*
X84996197Y-65517184D01*
X85019858Y-65513674D01*
X85043750Y-65512500D01*
X85956250Y-65512500D01*
X85980142Y-65513674D01*
G37*
G36*
X85980142Y-63638674D02*
G01*
X86003803Y-63642184D01*
X86027007Y-63647996D01*
X86049529Y-63656054D01*
X86071153Y-63666282D01*
X86091670Y-63678579D01*
X86110883Y-63692829D01*
X86128607Y-63708893D01*
X86144671Y-63726617D01*
X86158921Y-63745830D01*
X86171218Y-63766347D01*
X86181446Y-63787971D01*
X86189504Y-63810493D01*
X86195316Y-63833697D01*
X86198826Y-63857358D01*
X86200000Y-63881250D01*
X86200000Y-64368750D01*
X86198826Y-64392642D01*
X86195316Y-64416303D01*
X86189504Y-64439507D01*
X86181446Y-64462029D01*
X86171218Y-64483653D01*
X86158921Y-64504170D01*
X86144671Y-64523383D01*
X86128607Y-64541107D01*
X86110883Y-64557171D01*
X86091670Y-64571421D01*
X86071153Y-64583718D01*
X86049529Y-64593946D01*
X86027007Y-64602004D01*
X86003803Y-64607816D01*
X85980142Y-64611326D01*
X85956250Y-64612500D01*
X85043750Y-64612500D01*
X85019858Y-64611326D01*
X84996197Y-64607816D01*
X84972993Y-64602004D01*
X84950471Y-64593946D01*
X84928847Y-64583718D01*
X84908330Y-64571421D01*
X84889117Y-64557171D01*
X84871393Y-64541107D01*
X84855329Y-64523383D01*
X84841079Y-64504170D01*
X84828782Y-64483653D01*
X84818554Y-64462029D01*
X84810496Y-64439507D01*
X84804684Y-64416303D01*
X84801174Y-64392642D01*
X84800000Y-64368750D01*
X84800000Y-63881250D01*
X84801174Y-63857358D01*
X84804684Y-63833697D01*
X84810496Y-63810493D01*
X84818554Y-63787971D01*
X84828782Y-63766347D01*
X84841079Y-63745830D01*
X84855329Y-63726617D01*
X84871393Y-63708893D01*
X84889117Y-63692829D01*
X84908330Y-63678579D01*
X84928847Y-63666282D01*
X84950471Y-63656054D01*
X84972993Y-63647996D01*
X84996197Y-63642184D01*
X85019858Y-63638674D01*
X85043750Y-63637500D01*
X85956250Y-63637500D01*
X85980142Y-63638674D01*
G37*
G36*
X94649504Y-54176204D02*
G01*
X94673773Y-54179804D01*
X94697571Y-54185765D01*
X94720671Y-54194030D01*
X94742849Y-54204520D01*
X94763893Y-54217133D01*
X94783598Y-54231747D01*
X94801777Y-54248223D01*
X94818253Y-54266402D01*
X94832867Y-54286107D01*
X94845480Y-54307151D01*
X94855970Y-54329329D01*
X94864235Y-54352429D01*
X94870196Y-54376227D01*
X94873796Y-54400496D01*
X94875000Y-54425000D01*
X94875000Y-55175000D01*
X94873796Y-55199504D01*
X94870196Y-55223773D01*
X94864235Y-55247571D01*
X94855970Y-55270671D01*
X94845480Y-55292849D01*
X94832867Y-55313893D01*
X94818253Y-55333598D01*
X94801777Y-55351777D01*
X94783598Y-55368253D01*
X94763893Y-55382867D01*
X94742849Y-55395480D01*
X94720671Y-55405970D01*
X94697571Y-55414235D01*
X94673773Y-55420196D01*
X94649504Y-55423796D01*
X94625000Y-55425000D01*
X93375000Y-55425000D01*
X93350496Y-55423796D01*
X93326227Y-55420196D01*
X93302429Y-55414235D01*
X93279329Y-55405970D01*
X93257151Y-55395480D01*
X93236107Y-55382867D01*
X93216402Y-55368253D01*
X93198223Y-55351777D01*
X93181747Y-55333598D01*
X93167133Y-55313893D01*
X93154520Y-55292849D01*
X93144030Y-55270671D01*
X93135765Y-55247571D01*
X93129804Y-55223773D01*
X93126204Y-55199504D01*
X93125000Y-55175000D01*
X93125000Y-54425000D01*
X93126204Y-54400496D01*
X93129804Y-54376227D01*
X93135765Y-54352429D01*
X93144030Y-54329329D01*
X93154520Y-54307151D01*
X93167133Y-54286107D01*
X93181747Y-54266402D01*
X93198223Y-54248223D01*
X93216402Y-54231747D01*
X93236107Y-54217133D01*
X93257151Y-54204520D01*
X93279329Y-54194030D01*
X93302429Y-54185765D01*
X93326227Y-54179804D01*
X93350496Y-54176204D01*
X93375000Y-54175000D01*
X94625000Y-54175000D01*
X94649504Y-54176204D01*
G37*
G36*
X94649504Y-51376204D02*
G01*
X94673773Y-51379804D01*
X94697571Y-51385765D01*
X94720671Y-51394030D01*
X94742849Y-51404520D01*
X94763893Y-51417133D01*
X94783598Y-51431747D01*
X94801777Y-51448223D01*
X94818253Y-51466402D01*
X94832867Y-51486107D01*
X94845480Y-51507151D01*
X94855970Y-51529329D01*
X94864235Y-51552429D01*
X94870196Y-51576227D01*
X94873796Y-51600496D01*
X94875000Y-51625000D01*
X94875000Y-52375000D01*
X94873796Y-52399504D01*
X94870196Y-52423773D01*
X94864235Y-52447571D01*
X94855970Y-52470671D01*
X94845480Y-52492849D01*
X94832867Y-52513893D01*
X94818253Y-52533598D01*
X94801777Y-52551777D01*
X94783598Y-52568253D01*
X94763893Y-52582867D01*
X94742849Y-52595480D01*
X94720671Y-52605970D01*
X94697571Y-52614235D01*
X94673773Y-52620196D01*
X94649504Y-52623796D01*
X94625000Y-52625000D01*
X93375000Y-52625000D01*
X93350496Y-52623796D01*
X93326227Y-52620196D01*
X93302429Y-52614235D01*
X93279329Y-52605970D01*
X93257151Y-52595480D01*
X93236107Y-52582867D01*
X93216402Y-52568253D01*
X93198223Y-52551777D01*
X93181747Y-52533598D01*
X93167133Y-52513893D01*
X93154520Y-52492849D01*
X93144030Y-52470671D01*
X93135765Y-52447571D01*
X93129804Y-52423773D01*
X93126204Y-52399504D01*
X93125000Y-52375000D01*
X93125000Y-51625000D01*
X93126204Y-51600496D01*
X93129804Y-51576227D01*
X93135765Y-51552429D01*
X93144030Y-51529329D01*
X93154520Y-51507151D01*
X93167133Y-51486107D01*
X93181747Y-51466402D01*
X93198223Y-51448223D01*
X93216402Y-51431747D01*
X93236107Y-51417133D01*
X93257151Y-51404520D01*
X93279329Y-51394030D01*
X93302429Y-51385765D01*
X93326227Y-51379804D01*
X93350496Y-51376204D01*
X93375000Y-51375000D01*
X94625000Y-51375000D01*
X94649504Y-51376204D01*
G37*
G36*
X111767642Y-51801174D02*
G01*
X111791303Y-51804684D01*
X111814507Y-51810496D01*
X111837029Y-51818554D01*
X111858653Y-51828782D01*
X111879170Y-51841079D01*
X111898383Y-51855329D01*
X111916107Y-51871393D01*
X111932171Y-51889117D01*
X111946421Y-51908330D01*
X111958718Y-51928847D01*
X111968946Y-51950471D01*
X111977004Y-51972993D01*
X111982816Y-51996197D01*
X111986326Y-52019858D01*
X111987500Y-52043750D01*
X111987500Y-52956250D01*
X111986326Y-52980142D01*
X111982816Y-53003803D01*
X111977004Y-53027007D01*
X111968946Y-53049529D01*
X111958718Y-53071153D01*
X111946421Y-53091670D01*
X111932171Y-53110883D01*
X111916107Y-53128607D01*
X111898383Y-53144671D01*
X111879170Y-53158921D01*
X111858653Y-53171218D01*
X111837029Y-53181446D01*
X111814507Y-53189504D01*
X111791303Y-53195316D01*
X111767642Y-53198826D01*
X111743750Y-53200000D01*
X111256250Y-53200000D01*
X111232358Y-53198826D01*
X111208697Y-53195316D01*
X111185493Y-53189504D01*
X111162971Y-53181446D01*
X111141347Y-53171218D01*
X111120830Y-53158921D01*
X111101617Y-53144671D01*
X111083893Y-53128607D01*
X111067829Y-53110883D01*
X111053579Y-53091670D01*
X111041282Y-53071153D01*
X111031054Y-53049529D01*
X111022996Y-53027007D01*
X111017184Y-53003803D01*
X111013674Y-52980142D01*
X111012500Y-52956250D01*
X111012500Y-52043750D01*
X111013674Y-52019858D01*
X111017184Y-51996197D01*
X111022996Y-51972993D01*
X111031054Y-51950471D01*
X111041282Y-51928847D01*
X111053579Y-51908330D01*
X111067829Y-51889117D01*
X111083893Y-51871393D01*
X111101617Y-51855329D01*
X111120830Y-51841079D01*
X111141347Y-51828782D01*
X111162971Y-51818554D01*
X111185493Y-51810496D01*
X111208697Y-51804684D01*
X111232358Y-51801174D01*
X111256250Y-51800000D01*
X111743750Y-51800000D01*
X111767642Y-51801174D01*
G37*
G36*
X109892642Y-51801174D02*
G01*
X109916303Y-51804684D01*
X109939507Y-51810496D01*
X109962029Y-51818554D01*
X109983653Y-51828782D01*
X110004170Y-51841079D01*
X110023383Y-51855329D01*
X110041107Y-51871393D01*
X110057171Y-51889117D01*
X110071421Y-51908330D01*
X110083718Y-51928847D01*
X110093946Y-51950471D01*
X110102004Y-51972993D01*
X110107816Y-51996197D01*
X110111326Y-52019858D01*
X110112500Y-52043750D01*
X110112500Y-52956250D01*
X110111326Y-52980142D01*
X110107816Y-53003803D01*
X110102004Y-53027007D01*
X110093946Y-53049529D01*
X110083718Y-53071153D01*
X110071421Y-53091670D01*
X110057171Y-53110883D01*
X110041107Y-53128607D01*
X110023383Y-53144671D01*
X110004170Y-53158921D01*
X109983653Y-53171218D01*
X109962029Y-53181446D01*
X109939507Y-53189504D01*
X109916303Y-53195316D01*
X109892642Y-53198826D01*
X109868750Y-53200000D01*
X109381250Y-53200000D01*
X109357358Y-53198826D01*
X109333697Y-53195316D01*
X109310493Y-53189504D01*
X109287971Y-53181446D01*
X109266347Y-53171218D01*
X109245830Y-53158921D01*
X109226617Y-53144671D01*
X109208893Y-53128607D01*
X109192829Y-53110883D01*
X109178579Y-53091670D01*
X109166282Y-53071153D01*
X109156054Y-53049529D01*
X109147996Y-53027007D01*
X109142184Y-53003803D01*
X109138674Y-52980142D01*
X109137500Y-52956250D01*
X109137500Y-52043750D01*
X109138674Y-52019858D01*
X109142184Y-51996197D01*
X109147996Y-51972993D01*
X109156054Y-51950471D01*
X109166282Y-51928847D01*
X109178579Y-51908330D01*
X109192829Y-51889117D01*
X109208893Y-51871393D01*
X109226617Y-51855329D01*
X109245830Y-51841079D01*
X109266347Y-51828782D01*
X109287971Y-51818554D01*
X109310493Y-51810496D01*
X109333697Y-51804684D01*
X109357358Y-51801174D01*
X109381250Y-51800000D01*
X109868750Y-51800000D01*
X109892642Y-51801174D01*
G37*
G36*
X111767642Y-69801174D02*
G01*
X111791303Y-69804684D01*
X111814507Y-69810496D01*
X111837029Y-69818554D01*
X111858653Y-69828782D01*
X111879170Y-69841079D01*
X111898383Y-69855329D01*
X111916107Y-69871393D01*
X111932171Y-69889117D01*
X111946421Y-69908330D01*
X111958718Y-69928847D01*
X111968946Y-69950471D01*
X111977004Y-69972993D01*
X111982816Y-69996197D01*
X111986326Y-70019858D01*
X111987500Y-70043750D01*
X111987500Y-70956250D01*
X111986326Y-70980142D01*
X111982816Y-71003803D01*
X111977004Y-71027007D01*
X111968946Y-71049529D01*
X111958718Y-71071153D01*
X111946421Y-71091670D01*
X111932171Y-71110883D01*
X111916107Y-71128607D01*
X111898383Y-71144671D01*
X111879170Y-71158921D01*
X111858653Y-71171218D01*
X111837029Y-71181446D01*
X111814507Y-71189504D01*
X111791303Y-71195316D01*
X111767642Y-71198826D01*
X111743750Y-71200000D01*
X111256250Y-71200000D01*
X111232358Y-71198826D01*
X111208697Y-71195316D01*
X111185493Y-71189504D01*
X111162971Y-71181446D01*
X111141347Y-71171218D01*
X111120830Y-71158921D01*
X111101617Y-71144671D01*
X111083893Y-71128607D01*
X111067829Y-71110883D01*
X111053579Y-71091670D01*
X111041282Y-71071153D01*
X111031054Y-71049529D01*
X111022996Y-71027007D01*
X111017184Y-71003803D01*
X111013674Y-70980142D01*
X111012500Y-70956250D01*
X111012500Y-70043750D01*
X111013674Y-70019858D01*
X111017184Y-69996197D01*
X111022996Y-69972993D01*
X111031054Y-69950471D01*
X111041282Y-69928847D01*
X111053579Y-69908330D01*
X111067829Y-69889117D01*
X111083893Y-69871393D01*
X111101617Y-69855329D01*
X111120830Y-69841079D01*
X111141347Y-69828782D01*
X111162971Y-69818554D01*
X111185493Y-69810496D01*
X111208697Y-69804684D01*
X111232358Y-69801174D01*
X111256250Y-69800000D01*
X111743750Y-69800000D01*
X111767642Y-69801174D01*
G37*
G36*
X109892642Y-69801174D02*
G01*
X109916303Y-69804684D01*
X109939507Y-69810496D01*
X109962029Y-69818554D01*
X109983653Y-69828782D01*
X110004170Y-69841079D01*
X110023383Y-69855329D01*
X110041107Y-69871393D01*
X110057171Y-69889117D01*
X110071421Y-69908330D01*
X110083718Y-69928847D01*
X110093946Y-69950471D01*
X110102004Y-69972993D01*
X110107816Y-69996197D01*
X110111326Y-70019858D01*
X110112500Y-70043750D01*
X110112500Y-70956250D01*
X110111326Y-70980142D01*
X110107816Y-71003803D01*
X110102004Y-71027007D01*
X110093946Y-71049529D01*
X110083718Y-71071153D01*
X110071421Y-71091670D01*
X110057171Y-71110883D01*
X110041107Y-71128607D01*
X110023383Y-71144671D01*
X110004170Y-71158921D01*
X109983653Y-71171218D01*
X109962029Y-71181446D01*
X109939507Y-71189504D01*
X109916303Y-71195316D01*
X109892642Y-71198826D01*
X109868750Y-71200000D01*
X109381250Y-71200000D01*
X109357358Y-71198826D01*
X109333697Y-71195316D01*
X109310493Y-71189504D01*
X109287971Y-71181446D01*
X109266347Y-71171218D01*
X109245830Y-71158921D01*
X109226617Y-71144671D01*
X109208893Y-71128607D01*
X109192829Y-71110883D01*
X109178579Y-71091670D01*
X109166282Y-71071153D01*
X109156054Y-71049529D01*
X109147996Y-71027007D01*
X109142184Y-71003803D01*
X109138674Y-70980142D01*
X109137500Y-70956250D01*
X109137500Y-70043750D01*
X109138674Y-70019858D01*
X109142184Y-69996197D01*
X109147996Y-69972993D01*
X109156054Y-69950471D01*
X109166282Y-69928847D01*
X109178579Y-69908330D01*
X109192829Y-69889117D01*
X109208893Y-69871393D01*
X109226617Y-69855329D01*
X109245830Y-69841079D01*
X109266347Y-69828782D01*
X109287971Y-69818554D01*
X109310493Y-69810496D01*
X109333697Y-69804684D01*
X109357358Y-69801174D01*
X109381250Y-69800000D01*
X109868750Y-69800000D01*
X109892642Y-69801174D01*
G37*
G36*
X111767642Y-57801174D02*
G01*
X111791303Y-57804684D01*
X111814507Y-57810496D01*
X111837029Y-57818554D01*
X111858653Y-57828782D01*
X111879170Y-57841079D01*
X111898383Y-57855329D01*
X111916107Y-57871393D01*
X111932171Y-57889117D01*
X111946421Y-57908330D01*
X111958718Y-57928847D01*
X111968946Y-57950471D01*
X111977004Y-57972993D01*
X111982816Y-57996197D01*
X111986326Y-58019858D01*
X111987500Y-58043750D01*
X111987500Y-58956250D01*
X111986326Y-58980142D01*
X111982816Y-59003803D01*
X111977004Y-59027007D01*
X111968946Y-59049529D01*
X111958718Y-59071153D01*
X111946421Y-59091670D01*
X111932171Y-59110883D01*
X111916107Y-59128607D01*
X111898383Y-59144671D01*
X111879170Y-59158921D01*
X111858653Y-59171218D01*
X111837029Y-59181446D01*
X111814507Y-59189504D01*
X111791303Y-59195316D01*
X111767642Y-59198826D01*
X111743750Y-59200000D01*
X111256250Y-59200000D01*
X111232358Y-59198826D01*
X111208697Y-59195316D01*
X111185493Y-59189504D01*
X111162971Y-59181446D01*
X111141347Y-59171218D01*
X111120830Y-59158921D01*
X111101617Y-59144671D01*
X111083893Y-59128607D01*
X111067829Y-59110883D01*
X111053579Y-59091670D01*
X111041282Y-59071153D01*
X111031054Y-59049529D01*
X111022996Y-59027007D01*
X111017184Y-59003803D01*
X111013674Y-58980142D01*
X111012500Y-58956250D01*
X111012500Y-58043750D01*
X111013674Y-58019858D01*
X111017184Y-57996197D01*
X111022996Y-57972993D01*
X111031054Y-57950471D01*
X111041282Y-57928847D01*
X111053579Y-57908330D01*
X111067829Y-57889117D01*
X111083893Y-57871393D01*
X111101617Y-57855329D01*
X111120830Y-57841079D01*
X111141347Y-57828782D01*
X111162971Y-57818554D01*
X111185493Y-57810496D01*
X111208697Y-57804684D01*
X111232358Y-57801174D01*
X111256250Y-57800000D01*
X111743750Y-57800000D01*
X111767642Y-57801174D01*
G37*
G36*
X109892642Y-57801174D02*
G01*
X109916303Y-57804684D01*
X109939507Y-57810496D01*
X109962029Y-57818554D01*
X109983653Y-57828782D01*
X110004170Y-57841079D01*
X110023383Y-57855329D01*
X110041107Y-57871393D01*
X110057171Y-57889117D01*
X110071421Y-57908330D01*
X110083718Y-57928847D01*
X110093946Y-57950471D01*
X110102004Y-57972993D01*
X110107816Y-57996197D01*
X110111326Y-58019858D01*
X110112500Y-58043750D01*
X110112500Y-58956250D01*
X110111326Y-58980142D01*
X110107816Y-59003803D01*
X110102004Y-59027007D01*
X110093946Y-59049529D01*
X110083718Y-59071153D01*
X110071421Y-59091670D01*
X110057171Y-59110883D01*
X110041107Y-59128607D01*
X110023383Y-59144671D01*
X110004170Y-59158921D01*
X109983653Y-59171218D01*
X109962029Y-59181446D01*
X109939507Y-59189504D01*
X109916303Y-59195316D01*
X109892642Y-59198826D01*
X109868750Y-59200000D01*
X109381250Y-59200000D01*
X109357358Y-59198826D01*
X109333697Y-59195316D01*
X109310493Y-59189504D01*
X109287971Y-59181446D01*
X109266347Y-59171218D01*
X109245830Y-59158921D01*
X109226617Y-59144671D01*
X109208893Y-59128607D01*
X109192829Y-59110883D01*
X109178579Y-59091670D01*
X109166282Y-59071153D01*
X109156054Y-59049529D01*
X109147996Y-59027007D01*
X109142184Y-59003803D01*
X109138674Y-58980142D01*
X109137500Y-58956250D01*
X109137500Y-58043750D01*
X109138674Y-58019858D01*
X109142184Y-57996197D01*
X109147996Y-57972993D01*
X109156054Y-57950471D01*
X109166282Y-57928847D01*
X109178579Y-57908330D01*
X109192829Y-57889117D01*
X109208893Y-57871393D01*
X109226617Y-57855329D01*
X109245830Y-57841079D01*
X109266347Y-57828782D01*
X109287971Y-57818554D01*
X109310493Y-57810496D01*
X109333697Y-57804684D01*
X109357358Y-57801174D01*
X109381250Y-57800000D01*
X109868750Y-57800000D01*
X109892642Y-57801174D01*
G37*
G36*
X111705142Y-63841174D02*
G01*
X111728803Y-63844684D01*
X111752007Y-63850496D01*
X111774529Y-63858554D01*
X111796153Y-63868782D01*
X111816670Y-63881079D01*
X111835883Y-63895329D01*
X111853607Y-63911393D01*
X111869671Y-63929117D01*
X111883921Y-63948330D01*
X111896218Y-63968847D01*
X111906446Y-63990471D01*
X111914504Y-64012993D01*
X111920316Y-64036197D01*
X111923826Y-64059858D01*
X111925000Y-64083750D01*
X111925000Y-64996250D01*
X111923826Y-65020142D01*
X111920316Y-65043803D01*
X111914504Y-65067007D01*
X111906446Y-65089529D01*
X111896218Y-65111153D01*
X111883921Y-65131670D01*
X111869671Y-65150883D01*
X111853607Y-65168607D01*
X111835883Y-65184671D01*
X111816670Y-65198921D01*
X111796153Y-65211218D01*
X111774529Y-65221446D01*
X111752007Y-65229504D01*
X111728803Y-65235316D01*
X111705142Y-65238826D01*
X111681250Y-65240000D01*
X111193750Y-65240000D01*
X111169858Y-65238826D01*
X111146197Y-65235316D01*
X111122993Y-65229504D01*
X111100471Y-65221446D01*
X111078847Y-65211218D01*
X111058330Y-65198921D01*
X111039117Y-65184671D01*
X111021393Y-65168607D01*
X111005329Y-65150883D01*
X110991079Y-65131670D01*
X110978782Y-65111153D01*
X110968554Y-65089529D01*
X110960496Y-65067007D01*
X110954684Y-65043803D01*
X110951174Y-65020142D01*
X110950000Y-64996250D01*
X110950000Y-64083750D01*
X110951174Y-64059858D01*
X110954684Y-64036197D01*
X110960496Y-64012993D01*
X110968554Y-63990471D01*
X110978782Y-63968847D01*
X110991079Y-63948330D01*
X111005329Y-63929117D01*
X111021393Y-63911393D01*
X111039117Y-63895329D01*
X111058330Y-63881079D01*
X111078847Y-63868782D01*
X111100471Y-63858554D01*
X111122993Y-63850496D01*
X111146197Y-63844684D01*
X111169858Y-63841174D01*
X111193750Y-63840000D01*
X111681250Y-63840000D01*
X111705142Y-63841174D01*
G37*
G36*
X109830142Y-63841174D02*
G01*
X109853803Y-63844684D01*
X109877007Y-63850496D01*
X109899529Y-63858554D01*
X109921153Y-63868782D01*
X109941670Y-63881079D01*
X109960883Y-63895329D01*
X109978607Y-63911393D01*
X109994671Y-63929117D01*
X110008921Y-63948330D01*
X110021218Y-63968847D01*
X110031446Y-63990471D01*
X110039504Y-64012993D01*
X110045316Y-64036197D01*
X110048826Y-64059858D01*
X110050000Y-64083750D01*
X110050000Y-64996250D01*
X110048826Y-65020142D01*
X110045316Y-65043803D01*
X110039504Y-65067007D01*
X110031446Y-65089529D01*
X110021218Y-65111153D01*
X110008921Y-65131670D01*
X109994671Y-65150883D01*
X109978607Y-65168607D01*
X109960883Y-65184671D01*
X109941670Y-65198921D01*
X109921153Y-65211218D01*
X109899529Y-65221446D01*
X109877007Y-65229504D01*
X109853803Y-65235316D01*
X109830142Y-65238826D01*
X109806250Y-65240000D01*
X109318750Y-65240000D01*
X109294858Y-65238826D01*
X109271197Y-65235316D01*
X109247993Y-65229504D01*
X109225471Y-65221446D01*
X109203847Y-65211218D01*
X109183330Y-65198921D01*
X109164117Y-65184671D01*
X109146393Y-65168607D01*
X109130329Y-65150883D01*
X109116079Y-65131670D01*
X109103782Y-65111153D01*
X109093554Y-65089529D01*
X109085496Y-65067007D01*
X109079684Y-65043803D01*
X109076174Y-65020142D01*
X109075000Y-64996250D01*
X109075000Y-64083750D01*
X109076174Y-64059858D01*
X109079684Y-64036197D01*
X109085496Y-64012993D01*
X109093554Y-63990471D01*
X109103782Y-63968847D01*
X109116079Y-63948330D01*
X109130329Y-63929117D01*
X109146393Y-63911393D01*
X109164117Y-63895329D01*
X109183330Y-63881079D01*
X109203847Y-63868782D01*
X109225471Y-63858554D01*
X109247993Y-63850496D01*
X109271197Y-63844684D01*
X109294858Y-63841174D01*
X109318750Y-63840000D01*
X109806250Y-63840000D01*
X109830142Y-63841174D01*
G37*
G36*
X118399504Y-67126204D02*
G01*
X118423773Y-67129804D01*
X118447571Y-67135765D01*
X118470671Y-67144030D01*
X118492849Y-67154520D01*
X118513893Y-67167133D01*
X118533598Y-67181747D01*
X118551777Y-67198223D01*
X118568253Y-67216402D01*
X118582867Y-67236107D01*
X118595480Y-67257151D01*
X118605970Y-67279329D01*
X118614235Y-67302429D01*
X118620196Y-67326227D01*
X118623796Y-67350496D01*
X118625000Y-67375000D01*
X118625000Y-68625000D01*
X118623796Y-68649504D01*
X118620196Y-68673773D01*
X118614235Y-68697571D01*
X118605970Y-68720671D01*
X118595480Y-68742849D01*
X118582867Y-68763893D01*
X118568253Y-68783598D01*
X118551777Y-68801777D01*
X118533598Y-68818253D01*
X118513893Y-68832867D01*
X118492849Y-68845480D01*
X118470671Y-68855970D01*
X118447571Y-68864235D01*
X118423773Y-68870196D01*
X118399504Y-68873796D01*
X118375000Y-68875000D01*
X117625000Y-68875000D01*
X117600496Y-68873796D01*
X117576227Y-68870196D01*
X117552429Y-68864235D01*
X117529329Y-68855970D01*
X117507151Y-68845480D01*
X117486107Y-68832867D01*
X117466402Y-68818253D01*
X117448223Y-68801777D01*
X117431747Y-68783598D01*
X117417133Y-68763893D01*
X117404520Y-68742849D01*
X117394030Y-68720671D01*
X117385765Y-68697571D01*
X117379804Y-68673773D01*
X117376204Y-68649504D01*
X117375000Y-68625000D01*
X117375000Y-67375000D01*
X117376204Y-67350496D01*
X117379804Y-67326227D01*
X117385765Y-67302429D01*
X117394030Y-67279329D01*
X117404520Y-67257151D01*
X117417133Y-67236107D01*
X117431747Y-67216402D01*
X117448223Y-67198223D01*
X117466402Y-67181747D01*
X117486107Y-67167133D01*
X117507151Y-67154520D01*
X117529329Y-67144030D01*
X117552429Y-67135765D01*
X117576227Y-67129804D01*
X117600496Y-67126204D01*
X117625000Y-67125000D01*
X118375000Y-67125000D01*
X118399504Y-67126204D01*
G37*
G36*
X121199504Y-67126204D02*
G01*
X121223773Y-67129804D01*
X121247571Y-67135765D01*
X121270671Y-67144030D01*
X121292849Y-67154520D01*
X121313893Y-67167133D01*
X121333598Y-67181747D01*
X121351777Y-67198223D01*
X121368253Y-67216402D01*
X121382867Y-67236107D01*
X121395480Y-67257151D01*
X121405970Y-67279329D01*
X121414235Y-67302429D01*
X121420196Y-67326227D01*
X121423796Y-67350496D01*
X121425000Y-67375000D01*
X121425000Y-68625000D01*
X121423796Y-68649504D01*
X121420196Y-68673773D01*
X121414235Y-68697571D01*
X121405970Y-68720671D01*
X121395480Y-68742849D01*
X121382867Y-68763893D01*
X121368253Y-68783598D01*
X121351777Y-68801777D01*
X121333598Y-68818253D01*
X121313893Y-68832867D01*
X121292849Y-68845480D01*
X121270671Y-68855970D01*
X121247571Y-68864235D01*
X121223773Y-68870196D01*
X121199504Y-68873796D01*
X121175000Y-68875000D01*
X120425000Y-68875000D01*
X120400496Y-68873796D01*
X120376227Y-68870196D01*
X120352429Y-68864235D01*
X120329329Y-68855970D01*
X120307151Y-68845480D01*
X120286107Y-68832867D01*
X120266402Y-68818253D01*
X120248223Y-68801777D01*
X120231747Y-68783598D01*
X120217133Y-68763893D01*
X120204520Y-68742849D01*
X120194030Y-68720671D01*
X120185765Y-68697571D01*
X120179804Y-68673773D01*
X120176204Y-68649504D01*
X120175000Y-68625000D01*
X120175000Y-67375000D01*
X120176204Y-67350496D01*
X120179804Y-67326227D01*
X120185765Y-67302429D01*
X120194030Y-67279329D01*
X120204520Y-67257151D01*
X120217133Y-67236107D01*
X120231747Y-67216402D01*
X120248223Y-67198223D01*
X120266402Y-67181747D01*
X120286107Y-67167133D01*
X120307151Y-67154520D01*
X120329329Y-67144030D01*
X120352429Y-67135765D01*
X120376227Y-67129804D01*
X120400496Y-67126204D01*
X120425000Y-67125000D01*
X121175000Y-67125000D01*
X121199504Y-67126204D01*
G37*
G36*
X92149504Y-41376204D02*
G01*
X92173773Y-41379804D01*
X92197571Y-41385765D01*
X92220671Y-41394030D01*
X92242849Y-41404520D01*
X92263893Y-41417133D01*
X92283598Y-41431747D01*
X92301777Y-41448223D01*
X92318253Y-41466402D01*
X92332867Y-41486107D01*
X92345480Y-41507151D01*
X92355970Y-41529329D01*
X92364235Y-41552429D01*
X92370196Y-41576227D01*
X92373796Y-41600496D01*
X92375000Y-41625000D01*
X92375000Y-42375000D01*
X92373796Y-42399504D01*
X92370196Y-42423773D01*
X92364235Y-42447571D01*
X92355970Y-42470671D01*
X92345480Y-42492849D01*
X92332867Y-42513893D01*
X92318253Y-42533598D01*
X92301777Y-42551777D01*
X92283598Y-42568253D01*
X92263893Y-42582867D01*
X92242849Y-42595480D01*
X92220671Y-42605970D01*
X92197571Y-42614235D01*
X92173773Y-42620196D01*
X92149504Y-42623796D01*
X92125000Y-42625000D01*
X90875000Y-42625000D01*
X90850496Y-42623796D01*
X90826227Y-42620196D01*
X90802429Y-42614235D01*
X90779329Y-42605970D01*
X90757151Y-42595480D01*
X90736107Y-42582867D01*
X90716402Y-42568253D01*
X90698223Y-42551777D01*
X90681747Y-42533598D01*
X90667133Y-42513893D01*
X90654520Y-42492849D01*
X90644030Y-42470671D01*
X90635765Y-42447571D01*
X90629804Y-42423773D01*
X90626204Y-42399504D01*
X90625000Y-42375000D01*
X90625000Y-41625000D01*
X90626204Y-41600496D01*
X90629804Y-41576227D01*
X90635765Y-41552429D01*
X90644030Y-41529329D01*
X90654520Y-41507151D01*
X90667133Y-41486107D01*
X90681747Y-41466402D01*
X90698223Y-41448223D01*
X90716402Y-41431747D01*
X90736107Y-41417133D01*
X90757151Y-41404520D01*
X90779329Y-41394030D01*
X90802429Y-41385765D01*
X90826227Y-41379804D01*
X90850496Y-41376204D01*
X90875000Y-41375000D01*
X92125000Y-41375000D01*
X92149504Y-41376204D01*
G37*
G36*
X92149504Y-44176204D02*
G01*
X92173773Y-44179804D01*
X92197571Y-44185765D01*
X92220671Y-44194030D01*
X92242849Y-44204520D01*
X92263893Y-44217133D01*
X92283598Y-44231747D01*
X92301777Y-44248223D01*
X92318253Y-44266402D01*
X92332867Y-44286107D01*
X92345480Y-44307151D01*
X92355970Y-44329329D01*
X92364235Y-44352429D01*
X92370196Y-44376227D01*
X92373796Y-44400496D01*
X92375000Y-44425000D01*
X92375000Y-45175000D01*
X92373796Y-45199504D01*
X92370196Y-45223773D01*
X92364235Y-45247571D01*
X92355970Y-45270671D01*
X92345480Y-45292849D01*
X92332867Y-45313893D01*
X92318253Y-45333598D01*
X92301777Y-45351777D01*
X92283598Y-45368253D01*
X92263893Y-45382867D01*
X92242849Y-45395480D01*
X92220671Y-45405970D01*
X92197571Y-45414235D01*
X92173773Y-45420196D01*
X92149504Y-45423796D01*
X92125000Y-45425000D01*
X90875000Y-45425000D01*
X90850496Y-45423796D01*
X90826227Y-45420196D01*
X90802429Y-45414235D01*
X90779329Y-45405970D01*
X90757151Y-45395480D01*
X90736107Y-45382867D01*
X90716402Y-45368253D01*
X90698223Y-45351777D01*
X90681747Y-45333598D01*
X90667133Y-45313893D01*
X90654520Y-45292849D01*
X90644030Y-45270671D01*
X90635765Y-45247571D01*
X90629804Y-45223773D01*
X90626204Y-45199504D01*
X90625000Y-45175000D01*
X90625000Y-44425000D01*
X90626204Y-44400496D01*
X90629804Y-44376227D01*
X90635765Y-44352429D01*
X90644030Y-44329329D01*
X90654520Y-44307151D01*
X90667133Y-44286107D01*
X90681747Y-44266402D01*
X90698223Y-44248223D01*
X90716402Y-44231747D01*
X90736107Y-44217133D01*
X90757151Y-44204520D01*
X90779329Y-44194030D01*
X90802429Y-44185765D01*
X90826227Y-44179804D01*
X90850496Y-44176204D01*
X90875000Y-44175000D01*
X92125000Y-44175000D01*
X92149504Y-44176204D01*
G37*
G36*
X91899504Y-35626204D02*
G01*
X91923773Y-35629804D01*
X91947571Y-35635765D01*
X91970671Y-35644030D01*
X91992849Y-35654520D01*
X92013893Y-35667133D01*
X92033598Y-35681747D01*
X92051777Y-35698223D01*
X92068253Y-35716402D01*
X92082867Y-35736107D01*
X92095480Y-35757151D01*
X92105970Y-35779329D01*
X92114235Y-35802429D01*
X92120196Y-35826227D01*
X92123796Y-35850496D01*
X92125000Y-35875000D01*
X92125000Y-37125000D01*
X92123796Y-37149504D01*
X92120196Y-37173773D01*
X92114235Y-37197571D01*
X92105970Y-37220671D01*
X92095480Y-37242849D01*
X92082867Y-37263893D01*
X92068253Y-37283598D01*
X92051777Y-37301777D01*
X92033598Y-37318253D01*
X92013893Y-37332867D01*
X91992849Y-37345480D01*
X91970671Y-37355970D01*
X91947571Y-37364235D01*
X91923773Y-37370196D01*
X91899504Y-37373796D01*
X91875000Y-37375000D01*
X91125000Y-37375000D01*
X91100496Y-37373796D01*
X91076227Y-37370196D01*
X91052429Y-37364235D01*
X91029329Y-37355970D01*
X91007151Y-37345480D01*
X90986107Y-37332867D01*
X90966402Y-37318253D01*
X90948223Y-37301777D01*
X90931747Y-37283598D01*
X90917133Y-37263893D01*
X90904520Y-37242849D01*
X90894030Y-37220671D01*
X90885765Y-37197571D01*
X90879804Y-37173773D01*
X90876204Y-37149504D01*
X90875000Y-37125000D01*
X90875000Y-35875000D01*
X90876204Y-35850496D01*
X90879804Y-35826227D01*
X90885765Y-35802429D01*
X90894030Y-35779329D01*
X90904520Y-35757151D01*
X90917133Y-35736107D01*
X90931747Y-35716402D01*
X90948223Y-35698223D01*
X90966402Y-35681747D01*
X90986107Y-35667133D01*
X91007151Y-35654520D01*
X91029329Y-35644030D01*
X91052429Y-35635765D01*
X91076227Y-35629804D01*
X91100496Y-35626204D01*
X91125000Y-35625000D01*
X91875000Y-35625000D01*
X91899504Y-35626204D01*
G37*
G36*
X89099504Y-35626204D02*
G01*
X89123773Y-35629804D01*
X89147571Y-35635765D01*
X89170671Y-35644030D01*
X89192849Y-35654520D01*
X89213893Y-35667133D01*
X89233598Y-35681747D01*
X89251777Y-35698223D01*
X89268253Y-35716402D01*
X89282867Y-35736107D01*
X89295480Y-35757151D01*
X89305970Y-35779329D01*
X89314235Y-35802429D01*
X89320196Y-35826227D01*
X89323796Y-35850496D01*
X89325000Y-35875000D01*
X89325000Y-37125000D01*
X89323796Y-37149504D01*
X89320196Y-37173773D01*
X89314235Y-37197571D01*
X89305970Y-37220671D01*
X89295480Y-37242849D01*
X89282867Y-37263893D01*
X89268253Y-37283598D01*
X89251777Y-37301777D01*
X89233598Y-37318253D01*
X89213893Y-37332867D01*
X89192849Y-37345480D01*
X89170671Y-37355970D01*
X89147571Y-37364235D01*
X89123773Y-37370196D01*
X89099504Y-37373796D01*
X89075000Y-37375000D01*
X88325000Y-37375000D01*
X88300496Y-37373796D01*
X88276227Y-37370196D01*
X88252429Y-37364235D01*
X88229329Y-37355970D01*
X88207151Y-37345480D01*
X88186107Y-37332867D01*
X88166402Y-37318253D01*
X88148223Y-37301777D01*
X88131747Y-37283598D01*
X88117133Y-37263893D01*
X88104520Y-37242849D01*
X88094030Y-37220671D01*
X88085765Y-37197571D01*
X88079804Y-37173773D01*
X88076204Y-37149504D01*
X88075000Y-37125000D01*
X88075000Y-35875000D01*
X88076204Y-35850496D01*
X88079804Y-35826227D01*
X88085765Y-35802429D01*
X88094030Y-35779329D01*
X88104520Y-35757151D01*
X88117133Y-35736107D01*
X88131747Y-35716402D01*
X88148223Y-35698223D01*
X88166402Y-35681747D01*
X88186107Y-35667133D01*
X88207151Y-35654520D01*
X88229329Y-35644030D01*
X88252429Y-35635765D01*
X88276227Y-35629804D01*
X88300496Y-35626204D01*
X88325000Y-35625000D01*
X89075000Y-35625000D01*
X89099504Y-35626204D01*
G37*
G36*
X91899504Y-38126204D02*
G01*
X91923773Y-38129804D01*
X91947571Y-38135765D01*
X91970671Y-38144030D01*
X91992849Y-38154520D01*
X92013893Y-38167133D01*
X92033598Y-38181747D01*
X92051777Y-38198223D01*
X92068253Y-38216402D01*
X92082867Y-38236107D01*
X92095480Y-38257151D01*
X92105970Y-38279329D01*
X92114235Y-38302429D01*
X92120196Y-38326227D01*
X92123796Y-38350496D01*
X92125000Y-38375000D01*
X92125000Y-39625000D01*
X92123796Y-39649504D01*
X92120196Y-39673773D01*
X92114235Y-39697571D01*
X92105970Y-39720671D01*
X92095480Y-39742849D01*
X92082867Y-39763893D01*
X92068253Y-39783598D01*
X92051777Y-39801777D01*
X92033598Y-39818253D01*
X92013893Y-39832867D01*
X91992849Y-39845480D01*
X91970671Y-39855970D01*
X91947571Y-39864235D01*
X91923773Y-39870196D01*
X91899504Y-39873796D01*
X91875000Y-39875000D01*
X91125000Y-39875000D01*
X91100496Y-39873796D01*
X91076227Y-39870196D01*
X91052429Y-39864235D01*
X91029329Y-39855970D01*
X91007151Y-39845480D01*
X90986107Y-39832867D01*
X90966402Y-39818253D01*
X90948223Y-39801777D01*
X90931747Y-39783598D01*
X90917133Y-39763893D01*
X90904520Y-39742849D01*
X90894030Y-39720671D01*
X90885765Y-39697571D01*
X90879804Y-39673773D01*
X90876204Y-39649504D01*
X90875000Y-39625000D01*
X90875000Y-38375000D01*
X90876204Y-38350496D01*
X90879804Y-38326227D01*
X90885765Y-38302429D01*
X90894030Y-38279329D01*
X90904520Y-38257151D01*
X90917133Y-38236107D01*
X90931747Y-38216402D01*
X90948223Y-38198223D01*
X90966402Y-38181747D01*
X90986107Y-38167133D01*
X91007151Y-38154520D01*
X91029329Y-38144030D01*
X91052429Y-38135765D01*
X91076227Y-38129804D01*
X91100496Y-38126204D01*
X91125000Y-38125000D01*
X91875000Y-38125000D01*
X91899504Y-38126204D01*
G37*
G36*
X89099504Y-38126204D02*
G01*
X89123773Y-38129804D01*
X89147571Y-38135765D01*
X89170671Y-38144030D01*
X89192849Y-38154520D01*
X89213893Y-38167133D01*
X89233598Y-38181747D01*
X89251777Y-38198223D01*
X89268253Y-38216402D01*
X89282867Y-38236107D01*
X89295480Y-38257151D01*
X89305970Y-38279329D01*
X89314235Y-38302429D01*
X89320196Y-38326227D01*
X89323796Y-38350496D01*
X89325000Y-38375000D01*
X89325000Y-39625000D01*
X89323796Y-39649504D01*
X89320196Y-39673773D01*
X89314235Y-39697571D01*
X89305970Y-39720671D01*
X89295480Y-39742849D01*
X89282867Y-39763893D01*
X89268253Y-39783598D01*
X89251777Y-39801777D01*
X89233598Y-39818253D01*
X89213893Y-39832867D01*
X89192849Y-39845480D01*
X89170671Y-39855970D01*
X89147571Y-39864235D01*
X89123773Y-39870196D01*
X89099504Y-39873796D01*
X89075000Y-39875000D01*
X88325000Y-39875000D01*
X88300496Y-39873796D01*
X88276227Y-39870196D01*
X88252429Y-39864235D01*
X88229329Y-39855970D01*
X88207151Y-39845480D01*
X88186107Y-39832867D01*
X88166402Y-39818253D01*
X88148223Y-39801777D01*
X88131747Y-39783598D01*
X88117133Y-39763893D01*
X88104520Y-39742849D01*
X88094030Y-39720671D01*
X88085765Y-39697571D01*
X88079804Y-39673773D01*
X88076204Y-39649504D01*
X88075000Y-39625000D01*
X88075000Y-38375000D01*
X88076204Y-38350496D01*
X88079804Y-38326227D01*
X88085765Y-38302429D01*
X88094030Y-38279329D01*
X88104520Y-38257151D01*
X88117133Y-38236107D01*
X88131747Y-38216402D01*
X88148223Y-38198223D01*
X88166402Y-38181747D01*
X88186107Y-38167133D01*
X88207151Y-38154520D01*
X88229329Y-38144030D01*
X88252429Y-38135765D01*
X88276227Y-38129804D01*
X88300496Y-38126204D01*
X88325000Y-38125000D01*
X89075000Y-38125000D01*
X89099504Y-38126204D01*
G37*
G36*
X89149504Y-41376204D02*
G01*
X89173773Y-41379804D01*
X89197571Y-41385765D01*
X89220671Y-41394030D01*
X89242849Y-41404520D01*
X89263893Y-41417133D01*
X89283598Y-41431747D01*
X89301777Y-41448223D01*
X89318253Y-41466402D01*
X89332867Y-41486107D01*
X89345480Y-41507151D01*
X89355970Y-41529329D01*
X89364235Y-41552429D01*
X89370196Y-41576227D01*
X89373796Y-41600496D01*
X89375000Y-41625000D01*
X89375000Y-42375000D01*
X89373796Y-42399504D01*
X89370196Y-42423773D01*
X89364235Y-42447571D01*
X89355970Y-42470671D01*
X89345480Y-42492849D01*
X89332867Y-42513893D01*
X89318253Y-42533598D01*
X89301777Y-42551777D01*
X89283598Y-42568253D01*
X89263893Y-42582867D01*
X89242849Y-42595480D01*
X89220671Y-42605970D01*
X89197571Y-42614235D01*
X89173773Y-42620196D01*
X89149504Y-42623796D01*
X89125000Y-42625000D01*
X87875000Y-42625000D01*
X87850496Y-42623796D01*
X87826227Y-42620196D01*
X87802429Y-42614235D01*
X87779329Y-42605970D01*
X87757151Y-42595480D01*
X87736107Y-42582867D01*
X87716402Y-42568253D01*
X87698223Y-42551777D01*
X87681747Y-42533598D01*
X87667133Y-42513893D01*
X87654520Y-42492849D01*
X87644030Y-42470671D01*
X87635765Y-42447571D01*
X87629804Y-42423773D01*
X87626204Y-42399504D01*
X87625000Y-42375000D01*
X87625000Y-41625000D01*
X87626204Y-41600496D01*
X87629804Y-41576227D01*
X87635765Y-41552429D01*
X87644030Y-41529329D01*
X87654520Y-41507151D01*
X87667133Y-41486107D01*
X87681747Y-41466402D01*
X87698223Y-41448223D01*
X87716402Y-41431747D01*
X87736107Y-41417133D01*
X87757151Y-41404520D01*
X87779329Y-41394030D01*
X87802429Y-41385765D01*
X87826227Y-41379804D01*
X87850496Y-41376204D01*
X87875000Y-41375000D01*
X89125000Y-41375000D01*
X89149504Y-41376204D01*
G37*
G36*
X89149504Y-44176204D02*
G01*
X89173773Y-44179804D01*
X89197571Y-44185765D01*
X89220671Y-44194030D01*
X89242849Y-44204520D01*
X89263893Y-44217133D01*
X89283598Y-44231747D01*
X89301777Y-44248223D01*
X89318253Y-44266402D01*
X89332867Y-44286107D01*
X89345480Y-44307151D01*
X89355970Y-44329329D01*
X89364235Y-44352429D01*
X89370196Y-44376227D01*
X89373796Y-44400496D01*
X89375000Y-44425000D01*
X89375000Y-45175000D01*
X89373796Y-45199504D01*
X89370196Y-45223773D01*
X89364235Y-45247571D01*
X89355970Y-45270671D01*
X89345480Y-45292849D01*
X89332867Y-45313893D01*
X89318253Y-45333598D01*
X89301777Y-45351777D01*
X89283598Y-45368253D01*
X89263893Y-45382867D01*
X89242849Y-45395480D01*
X89220671Y-45405970D01*
X89197571Y-45414235D01*
X89173773Y-45420196D01*
X89149504Y-45423796D01*
X89125000Y-45425000D01*
X87875000Y-45425000D01*
X87850496Y-45423796D01*
X87826227Y-45420196D01*
X87802429Y-45414235D01*
X87779329Y-45405970D01*
X87757151Y-45395480D01*
X87736107Y-45382867D01*
X87716402Y-45368253D01*
X87698223Y-45351777D01*
X87681747Y-45333598D01*
X87667133Y-45313893D01*
X87654520Y-45292849D01*
X87644030Y-45270671D01*
X87635765Y-45247571D01*
X87629804Y-45223773D01*
X87626204Y-45199504D01*
X87625000Y-45175000D01*
X87625000Y-44425000D01*
X87626204Y-44400496D01*
X87629804Y-44376227D01*
X87635765Y-44352429D01*
X87644030Y-44329329D01*
X87654520Y-44307151D01*
X87667133Y-44286107D01*
X87681747Y-44266402D01*
X87698223Y-44248223D01*
X87716402Y-44231747D01*
X87736107Y-44217133D01*
X87757151Y-44204520D01*
X87779329Y-44194030D01*
X87802429Y-44185765D01*
X87826227Y-44179804D01*
X87850496Y-44176204D01*
X87875000Y-44175000D01*
X89125000Y-44175000D01*
X89149504Y-44176204D01*
G37*
D14*
X113000000Y-42000000D03*
X117000000Y-42000000D03*
D15*
X115000000Y-40000000D03*
X115000000Y-44000000D03*
D16*
X145425000Y-86550000D03*
X148775000Y-83500000D03*
X145425000Y-83500000D03*
X148775000Y-86550000D03*
D17*
X140800000Y-87305000D03*
X140800000Y-85025000D03*
X140800000Y-82745000D03*
D18*
X81717000Y-88094000D03*
D19*
X97500000Y-98491000D03*
X96230000Y-98491000D03*
X94960000Y-98491000D03*
X93690000Y-98491000D03*
X92420000Y-98491000D03*
X91150000Y-98491000D03*
X89880000Y-98491000D03*
X88610000Y-98491000D03*
X87340000Y-98491000D03*
X86070000Y-98491000D03*
X84800000Y-98491000D03*
X83530000Y-98491000D03*
X82260000Y-98491000D03*
X80990000Y-98491000D03*
X79720000Y-98491000D03*
X78450000Y-98491000D03*
X77180000Y-98491000D03*
X75910000Y-98491000D03*
X74640000Y-78717000D03*
X75910000Y-78717000D03*
X77180000Y-78717000D03*
X78450000Y-78717000D03*
X79720000Y-78717000D03*
X80990000Y-78717000D03*
X82260000Y-78717000D03*
X83530000Y-78717000D03*
X84800000Y-78717000D03*
X86070000Y-78717000D03*
X87340000Y-78717000D03*
X88610000Y-78717000D03*
X89880000Y-78717000D03*
X91150000Y-78717000D03*
X92420000Y-78717000D03*
X93690000Y-78717000D03*
X94960000Y-78717000D03*
X96230000Y-78717000D03*
X97500000Y-78717000D03*
X74640000Y-98491000D03*
D12*
G36*
X112126504Y-27249204D02*
G01*
X112150773Y-27252804D01*
X112174571Y-27258765D01*
X112197671Y-27267030D01*
X112219849Y-27277520D01*
X112240893Y-27290133D01*
X112260598Y-27304747D01*
X112278777Y-27321223D01*
X112295253Y-27339402D01*
X112309867Y-27359107D01*
X112322480Y-27380151D01*
X112332970Y-27402329D01*
X112341235Y-27425429D01*
X112347196Y-27449227D01*
X112350796Y-27473496D01*
X112352000Y-27498000D01*
X112352000Y-28748000D01*
X112350796Y-28772504D01*
X112347196Y-28796773D01*
X112341235Y-28820571D01*
X112332970Y-28843671D01*
X112322480Y-28865849D01*
X112309867Y-28886893D01*
X112295253Y-28906598D01*
X112278777Y-28924777D01*
X112260598Y-28941253D01*
X112240893Y-28955867D01*
X112219849Y-28968480D01*
X112197671Y-28978970D01*
X112174571Y-28987235D01*
X112150773Y-28993196D01*
X112126504Y-28996796D01*
X112102000Y-28998000D01*
X111352000Y-28998000D01*
X111327496Y-28996796D01*
X111303227Y-28993196D01*
X111279429Y-28987235D01*
X111256329Y-28978970D01*
X111234151Y-28968480D01*
X111213107Y-28955867D01*
X111193402Y-28941253D01*
X111175223Y-28924777D01*
X111158747Y-28906598D01*
X111144133Y-28886893D01*
X111131520Y-28865849D01*
X111121030Y-28843671D01*
X111112765Y-28820571D01*
X111106804Y-28796773D01*
X111103204Y-28772504D01*
X111102000Y-28748000D01*
X111102000Y-27498000D01*
X111103204Y-27473496D01*
X111106804Y-27449227D01*
X111112765Y-27425429D01*
X111121030Y-27402329D01*
X111131520Y-27380151D01*
X111144133Y-27359107D01*
X111158747Y-27339402D01*
X111175223Y-27321223D01*
X111193402Y-27304747D01*
X111213107Y-27290133D01*
X111234151Y-27277520D01*
X111256329Y-27267030D01*
X111279429Y-27258765D01*
X111303227Y-27252804D01*
X111327496Y-27249204D01*
X111352000Y-27248000D01*
X112102000Y-27248000D01*
X112126504Y-27249204D01*
G37*
G36*
X114926504Y-27249204D02*
G01*
X114950773Y-27252804D01*
X114974571Y-27258765D01*
X114997671Y-27267030D01*
X115019849Y-27277520D01*
X115040893Y-27290133D01*
X115060598Y-27304747D01*
X115078777Y-27321223D01*
X115095253Y-27339402D01*
X115109867Y-27359107D01*
X115122480Y-27380151D01*
X115132970Y-27402329D01*
X115141235Y-27425429D01*
X115147196Y-27449227D01*
X115150796Y-27473496D01*
X115152000Y-27498000D01*
X115152000Y-28748000D01*
X115150796Y-28772504D01*
X115147196Y-28796773D01*
X115141235Y-28820571D01*
X115132970Y-28843671D01*
X115122480Y-28865849D01*
X115109867Y-28886893D01*
X115095253Y-28906598D01*
X115078777Y-28924777D01*
X115060598Y-28941253D01*
X115040893Y-28955867D01*
X115019849Y-28968480D01*
X114997671Y-28978970D01*
X114974571Y-28987235D01*
X114950773Y-28993196D01*
X114926504Y-28996796D01*
X114902000Y-28998000D01*
X114152000Y-28998000D01*
X114127496Y-28996796D01*
X114103227Y-28993196D01*
X114079429Y-28987235D01*
X114056329Y-28978970D01*
X114034151Y-28968480D01*
X114013107Y-28955867D01*
X113993402Y-28941253D01*
X113975223Y-28924777D01*
X113958747Y-28906598D01*
X113944133Y-28886893D01*
X113931520Y-28865849D01*
X113921030Y-28843671D01*
X113912765Y-28820571D01*
X113906804Y-28796773D01*
X113903204Y-28772504D01*
X113902000Y-28748000D01*
X113902000Y-27498000D01*
X113903204Y-27473496D01*
X113906804Y-27449227D01*
X113912765Y-27425429D01*
X113921030Y-27402329D01*
X113931520Y-27380151D01*
X113944133Y-27359107D01*
X113958747Y-27339402D01*
X113975223Y-27321223D01*
X113993402Y-27304747D01*
X114013107Y-27290133D01*
X114034151Y-27277520D01*
X114056329Y-27267030D01*
X114079429Y-27258765D01*
X114103227Y-27252804D01*
X114127496Y-27249204D01*
X114152000Y-27248000D01*
X114902000Y-27248000D01*
X114926504Y-27249204D01*
G37*
G36*
X71767642Y-56801174D02*
G01*
X71791303Y-56804684D01*
X71814507Y-56810496D01*
X71837029Y-56818554D01*
X71858653Y-56828782D01*
X71879170Y-56841079D01*
X71898383Y-56855329D01*
X71916107Y-56871393D01*
X71932171Y-56889117D01*
X71946421Y-56908330D01*
X71958718Y-56928847D01*
X71968946Y-56950471D01*
X71977004Y-56972993D01*
X71982816Y-56996197D01*
X71986326Y-57019858D01*
X71987500Y-57043750D01*
X71987500Y-57956250D01*
X71986326Y-57980142D01*
X71982816Y-58003803D01*
X71977004Y-58027007D01*
X71968946Y-58049529D01*
X71958718Y-58071153D01*
X71946421Y-58091670D01*
X71932171Y-58110883D01*
X71916107Y-58128607D01*
X71898383Y-58144671D01*
X71879170Y-58158921D01*
X71858653Y-58171218D01*
X71837029Y-58181446D01*
X71814507Y-58189504D01*
X71791303Y-58195316D01*
X71767642Y-58198826D01*
X71743750Y-58200000D01*
X71256250Y-58200000D01*
X71232358Y-58198826D01*
X71208697Y-58195316D01*
X71185493Y-58189504D01*
X71162971Y-58181446D01*
X71141347Y-58171218D01*
X71120830Y-58158921D01*
X71101617Y-58144671D01*
X71083893Y-58128607D01*
X71067829Y-58110883D01*
X71053579Y-58091670D01*
X71041282Y-58071153D01*
X71031054Y-58049529D01*
X71022996Y-58027007D01*
X71017184Y-58003803D01*
X71013674Y-57980142D01*
X71012500Y-57956250D01*
X71012500Y-57043750D01*
X71013674Y-57019858D01*
X71017184Y-56996197D01*
X71022996Y-56972993D01*
X71031054Y-56950471D01*
X71041282Y-56928847D01*
X71053579Y-56908330D01*
X71067829Y-56889117D01*
X71083893Y-56871393D01*
X71101617Y-56855329D01*
X71120830Y-56841079D01*
X71141347Y-56828782D01*
X71162971Y-56818554D01*
X71185493Y-56810496D01*
X71208697Y-56804684D01*
X71232358Y-56801174D01*
X71256250Y-56800000D01*
X71743750Y-56800000D01*
X71767642Y-56801174D01*
G37*
G36*
X69892642Y-56801174D02*
G01*
X69916303Y-56804684D01*
X69939507Y-56810496D01*
X69962029Y-56818554D01*
X69983653Y-56828782D01*
X70004170Y-56841079D01*
X70023383Y-56855329D01*
X70041107Y-56871393D01*
X70057171Y-56889117D01*
X70071421Y-56908330D01*
X70083718Y-56928847D01*
X70093946Y-56950471D01*
X70102004Y-56972993D01*
X70107816Y-56996197D01*
X70111326Y-57019858D01*
X70112500Y-57043750D01*
X70112500Y-57956250D01*
X70111326Y-57980142D01*
X70107816Y-58003803D01*
X70102004Y-58027007D01*
X70093946Y-58049529D01*
X70083718Y-58071153D01*
X70071421Y-58091670D01*
X70057171Y-58110883D01*
X70041107Y-58128607D01*
X70023383Y-58144671D01*
X70004170Y-58158921D01*
X69983653Y-58171218D01*
X69962029Y-58181446D01*
X69939507Y-58189504D01*
X69916303Y-58195316D01*
X69892642Y-58198826D01*
X69868750Y-58200000D01*
X69381250Y-58200000D01*
X69357358Y-58198826D01*
X69333697Y-58195316D01*
X69310493Y-58189504D01*
X69287971Y-58181446D01*
X69266347Y-58171218D01*
X69245830Y-58158921D01*
X69226617Y-58144671D01*
X69208893Y-58128607D01*
X69192829Y-58110883D01*
X69178579Y-58091670D01*
X69166282Y-58071153D01*
X69156054Y-58049529D01*
X69147996Y-58027007D01*
X69142184Y-58003803D01*
X69138674Y-57980142D01*
X69137500Y-57956250D01*
X69137500Y-57043750D01*
X69138674Y-57019858D01*
X69142184Y-56996197D01*
X69147996Y-56972993D01*
X69156054Y-56950471D01*
X69166282Y-56928847D01*
X69178579Y-56908330D01*
X69192829Y-56889117D01*
X69208893Y-56871393D01*
X69226617Y-56855329D01*
X69245830Y-56841079D01*
X69266347Y-56828782D01*
X69287971Y-56818554D01*
X69310493Y-56810496D01*
X69333697Y-56804684D01*
X69357358Y-56801174D01*
X69381250Y-56800000D01*
X69868750Y-56800000D01*
X69892642Y-56801174D01*
G37*
G36*
X71767642Y-67301174D02*
G01*
X71791303Y-67304684D01*
X71814507Y-67310496D01*
X71837029Y-67318554D01*
X71858653Y-67328782D01*
X71879170Y-67341079D01*
X71898383Y-67355329D01*
X71916107Y-67371393D01*
X71932171Y-67389117D01*
X71946421Y-67408330D01*
X71958718Y-67428847D01*
X71968946Y-67450471D01*
X71977004Y-67472993D01*
X71982816Y-67496197D01*
X71986326Y-67519858D01*
X71987500Y-67543750D01*
X71987500Y-68456250D01*
X71986326Y-68480142D01*
X71982816Y-68503803D01*
X71977004Y-68527007D01*
X71968946Y-68549529D01*
X71958718Y-68571153D01*
X71946421Y-68591670D01*
X71932171Y-68610883D01*
X71916107Y-68628607D01*
X71898383Y-68644671D01*
X71879170Y-68658921D01*
X71858653Y-68671218D01*
X71837029Y-68681446D01*
X71814507Y-68689504D01*
X71791303Y-68695316D01*
X71767642Y-68698826D01*
X71743750Y-68700000D01*
X71256250Y-68700000D01*
X71232358Y-68698826D01*
X71208697Y-68695316D01*
X71185493Y-68689504D01*
X71162971Y-68681446D01*
X71141347Y-68671218D01*
X71120830Y-68658921D01*
X71101617Y-68644671D01*
X71083893Y-68628607D01*
X71067829Y-68610883D01*
X71053579Y-68591670D01*
X71041282Y-68571153D01*
X71031054Y-68549529D01*
X71022996Y-68527007D01*
X71017184Y-68503803D01*
X71013674Y-68480142D01*
X71012500Y-68456250D01*
X71012500Y-67543750D01*
X71013674Y-67519858D01*
X71017184Y-67496197D01*
X71022996Y-67472993D01*
X71031054Y-67450471D01*
X71041282Y-67428847D01*
X71053579Y-67408330D01*
X71067829Y-67389117D01*
X71083893Y-67371393D01*
X71101617Y-67355329D01*
X71120830Y-67341079D01*
X71141347Y-67328782D01*
X71162971Y-67318554D01*
X71185493Y-67310496D01*
X71208697Y-67304684D01*
X71232358Y-67301174D01*
X71256250Y-67300000D01*
X71743750Y-67300000D01*
X71767642Y-67301174D01*
G37*
G36*
X69892642Y-67301174D02*
G01*
X69916303Y-67304684D01*
X69939507Y-67310496D01*
X69962029Y-67318554D01*
X69983653Y-67328782D01*
X70004170Y-67341079D01*
X70023383Y-67355329D01*
X70041107Y-67371393D01*
X70057171Y-67389117D01*
X70071421Y-67408330D01*
X70083718Y-67428847D01*
X70093946Y-67450471D01*
X70102004Y-67472993D01*
X70107816Y-67496197D01*
X70111326Y-67519858D01*
X70112500Y-67543750D01*
X70112500Y-68456250D01*
X70111326Y-68480142D01*
X70107816Y-68503803D01*
X70102004Y-68527007D01*
X70093946Y-68549529D01*
X70083718Y-68571153D01*
X70071421Y-68591670D01*
X70057171Y-68610883D01*
X70041107Y-68628607D01*
X70023383Y-68644671D01*
X70004170Y-68658921D01*
X69983653Y-68671218D01*
X69962029Y-68681446D01*
X69939507Y-68689504D01*
X69916303Y-68695316D01*
X69892642Y-68698826D01*
X69868750Y-68700000D01*
X69381250Y-68700000D01*
X69357358Y-68698826D01*
X69333697Y-68695316D01*
X69310493Y-68689504D01*
X69287971Y-68681446D01*
X69266347Y-68671218D01*
X69245830Y-68658921D01*
X69226617Y-68644671D01*
X69208893Y-68628607D01*
X69192829Y-68610883D01*
X69178579Y-68591670D01*
X69166282Y-68571153D01*
X69156054Y-68549529D01*
X69147996Y-68527007D01*
X69142184Y-68503803D01*
X69138674Y-68480142D01*
X69137500Y-68456250D01*
X69137500Y-67543750D01*
X69138674Y-67519858D01*
X69142184Y-67496197D01*
X69147996Y-67472993D01*
X69156054Y-67450471D01*
X69166282Y-67428847D01*
X69178579Y-67408330D01*
X69192829Y-67389117D01*
X69208893Y-67371393D01*
X69226617Y-67355329D01*
X69245830Y-67341079D01*
X69266347Y-67328782D01*
X69287971Y-67318554D01*
X69310493Y-67310496D01*
X69333697Y-67304684D01*
X69357358Y-67301174D01*
X69381250Y-67300000D01*
X69868750Y-67300000D01*
X69892642Y-67301174D01*
G37*
G36*
X121267642Y-82738674D02*
G01*
X121291303Y-82742184D01*
X121314507Y-82747996D01*
X121337029Y-82756054D01*
X121358653Y-82766282D01*
X121379170Y-82778579D01*
X121398383Y-82792829D01*
X121416107Y-82808893D01*
X121432171Y-82826617D01*
X121446421Y-82845830D01*
X121458718Y-82866347D01*
X121468946Y-82887971D01*
X121477004Y-82910493D01*
X121482816Y-82933697D01*
X121486326Y-82957358D01*
X121487500Y-82981250D01*
X121487500Y-83893750D01*
X121486326Y-83917642D01*
X121482816Y-83941303D01*
X121477004Y-83964507D01*
X121468946Y-83987029D01*
X121458718Y-84008653D01*
X121446421Y-84029170D01*
X121432171Y-84048383D01*
X121416107Y-84066107D01*
X121398383Y-84082171D01*
X121379170Y-84096421D01*
X121358653Y-84108718D01*
X121337029Y-84118946D01*
X121314507Y-84127004D01*
X121291303Y-84132816D01*
X121267642Y-84136326D01*
X121243750Y-84137500D01*
X120756250Y-84137500D01*
X120732358Y-84136326D01*
X120708697Y-84132816D01*
X120685493Y-84127004D01*
X120662971Y-84118946D01*
X120641347Y-84108718D01*
X120620830Y-84096421D01*
X120601617Y-84082171D01*
X120583893Y-84066107D01*
X120567829Y-84048383D01*
X120553579Y-84029170D01*
X120541282Y-84008653D01*
X120531054Y-83987029D01*
X120522996Y-83964507D01*
X120517184Y-83941303D01*
X120513674Y-83917642D01*
X120512500Y-83893750D01*
X120512500Y-82981250D01*
X120513674Y-82957358D01*
X120517184Y-82933697D01*
X120522996Y-82910493D01*
X120531054Y-82887971D01*
X120541282Y-82866347D01*
X120553579Y-82845830D01*
X120567829Y-82826617D01*
X120583893Y-82808893D01*
X120601617Y-82792829D01*
X120620830Y-82778579D01*
X120641347Y-82766282D01*
X120662971Y-82756054D01*
X120685493Y-82747996D01*
X120708697Y-82742184D01*
X120732358Y-82738674D01*
X120756250Y-82737500D01*
X121243750Y-82737500D01*
X121267642Y-82738674D01*
G37*
G36*
X119392642Y-82738674D02*
G01*
X119416303Y-82742184D01*
X119439507Y-82747996D01*
X119462029Y-82756054D01*
X119483653Y-82766282D01*
X119504170Y-82778579D01*
X119523383Y-82792829D01*
X119541107Y-82808893D01*
X119557171Y-82826617D01*
X119571421Y-82845830D01*
X119583718Y-82866347D01*
X119593946Y-82887971D01*
X119602004Y-82910493D01*
X119607816Y-82933697D01*
X119611326Y-82957358D01*
X119612500Y-82981250D01*
X119612500Y-83893750D01*
X119611326Y-83917642D01*
X119607816Y-83941303D01*
X119602004Y-83964507D01*
X119593946Y-83987029D01*
X119583718Y-84008653D01*
X119571421Y-84029170D01*
X119557171Y-84048383D01*
X119541107Y-84066107D01*
X119523383Y-84082171D01*
X119504170Y-84096421D01*
X119483653Y-84108718D01*
X119462029Y-84118946D01*
X119439507Y-84127004D01*
X119416303Y-84132816D01*
X119392642Y-84136326D01*
X119368750Y-84137500D01*
X118881250Y-84137500D01*
X118857358Y-84136326D01*
X118833697Y-84132816D01*
X118810493Y-84127004D01*
X118787971Y-84118946D01*
X118766347Y-84108718D01*
X118745830Y-84096421D01*
X118726617Y-84082171D01*
X118708893Y-84066107D01*
X118692829Y-84048383D01*
X118678579Y-84029170D01*
X118666282Y-84008653D01*
X118656054Y-83987029D01*
X118647996Y-83964507D01*
X118642184Y-83941303D01*
X118638674Y-83917642D01*
X118637500Y-83893750D01*
X118637500Y-82981250D01*
X118638674Y-82957358D01*
X118642184Y-82933697D01*
X118647996Y-82910493D01*
X118656054Y-82887971D01*
X118666282Y-82866347D01*
X118678579Y-82845830D01*
X118692829Y-82826617D01*
X118708893Y-82808893D01*
X118726617Y-82792829D01*
X118745830Y-82778579D01*
X118766347Y-82766282D01*
X118787971Y-82756054D01*
X118810493Y-82747996D01*
X118833697Y-82742184D01*
X118857358Y-82738674D01*
X118881250Y-82737500D01*
X119368750Y-82737500D01*
X119392642Y-82738674D01*
G37*
G36*
X113267642Y-82801174D02*
G01*
X113291303Y-82804684D01*
X113314507Y-82810496D01*
X113337029Y-82818554D01*
X113358653Y-82828782D01*
X113379170Y-82841079D01*
X113398383Y-82855329D01*
X113416107Y-82871393D01*
X113432171Y-82889117D01*
X113446421Y-82908330D01*
X113458718Y-82928847D01*
X113468946Y-82950471D01*
X113477004Y-82972993D01*
X113482816Y-82996197D01*
X113486326Y-83019858D01*
X113487500Y-83043750D01*
X113487500Y-83956250D01*
X113486326Y-83980142D01*
X113482816Y-84003803D01*
X113477004Y-84027007D01*
X113468946Y-84049529D01*
X113458718Y-84071153D01*
X113446421Y-84091670D01*
X113432171Y-84110883D01*
X113416107Y-84128607D01*
X113398383Y-84144671D01*
X113379170Y-84158921D01*
X113358653Y-84171218D01*
X113337029Y-84181446D01*
X113314507Y-84189504D01*
X113291303Y-84195316D01*
X113267642Y-84198826D01*
X113243750Y-84200000D01*
X112756250Y-84200000D01*
X112732358Y-84198826D01*
X112708697Y-84195316D01*
X112685493Y-84189504D01*
X112662971Y-84181446D01*
X112641347Y-84171218D01*
X112620830Y-84158921D01*
X112601617Y-84144671D01*
X112583893Y-84128607D01*
X112567829Y-84110883D01*
X112553579Y-84091670D01*
X112541282Y-84071153D01*
X112531054Y-84049529D01*
X112522996Y-84027007D01*
X112517184Y-84003803D01*
X112513674Y-83980142D01*
X112512500Y-83956250D01*
X112512500Y-83043750D01*
X112513674Y-83019858D01*
X112517184Y-82996197D01*
X112522996Y-82972993D01*
X112531054Y-82950471D01*
X112541282Y-82928847D01*
X112553579Y-82908330D01*
X112567829Y-82889117D01*
X112583893Y-82871393D01*
X112601617Y-82855329D01*
X112620830Y-82841079D01*
X112641347Y-82828782D01*
X112662971Y-82818554D01*
X112685493Y-82810496D01*
X112708697Y-82804684D01*
X112732358Y-82801174D01*
X112756250Y-82800000D01*
X113243750Y-82800000D01*
X113267642Y-82801174D01*
G37*
G36*
X115142642Y-82801174D02*
G01*
X115166303Y-82804684D01*
X115189507Y-82810496D01*
X115212029Y-82818554D01*
X115233653Y-82828782D01*
X115254170Y-82841079D01*
X115273383Y-82855329D01*
X115291107Y-82871393D01*
X115307171Y-82889117D01*
X115321421Y-82908330D01*
X115333718Y-82928847D01*
X115343946Y-82950471D01*
X115352004Y-82972993D01*
X115357816Y-82996197D01*
X115361326Y-83019858D01*
X115362500Y-83043750D01*
X115362500Y-83956250D01*
X115361326Y-83980142D01*
X115357816Y-84003803D01*
X115352004Y-84027007D01*
X115343946Y-84049529D01*
X115333718Y-84071153D01*
X115321421Y-84091670D01*
X115307171Y-84110883D01*
X115291107Y-84128607D01*
X115273383Y-84144671D01*
X115254170Y-84158921D01*
X115233653Y-84171218D01*
X115212029Y-84181446D01*
X115189507Y-84189504D01*
X115166303Y-84195316D01*
X115142642Y-84198826D01*
X115118750Y-84200000D01*
X114631250Y-84200000D01*
X114607358Y-84198826D01*
X114583697Y-84195316D01*
X114560493Y-84189504D01*
X114537971Y-84181446D01*
X114516347Y-84171218D01*
X114495830Y-84158921D01*
X114476617Y-84144671D01*
X114458893Y-84128607D01*
X114442829Y-84110883D01*
X114428579Y-84091670D01*
X114416282Y-84071153D01*
X114406054Y-84049529D01*
X114397996Y-84027007D01*
X114392184Y-84003803D01*
X114388674Y-83980142D01*
X114387500Y-83956250D01*
X114387500Y-83043750D01*
X114388674Y-83019858D01*
X114392184Y-82996197D01*
X114397996Y-82972993D01*
X114406054Y-82950471D01*
X114416282Y-82928847D01*
X114428579Y-82908330D01*
X114442829Y-82889117D01*
X114458893Y-82871393D01*
X114476617Y-82855329D01*
X114495830Y-82841079D01*
X114516347Y-82828782D01*
X114537971Y-82818554D01*
X114560493Y-82810496D01*
X114583697Y-82804684D01*
X114607358Y-82801174D01*
X114631250Y-82800000D01*
X115118750Y-82800000D01*
X115142642Y-82801174D01*
G37*
D20*
X120000000Y-89000000D03*
X119050000Y-87000000D03*
X120950000Y-87000000D03*
X114000000Y-89000000D03*
X113050000Y-87000000D03*
X114950000Y-87000000D03*
D12*
G36*
X125574504Y-30201204D02*
G01*
X125598773Y-30204804D01*
X125622571Y-30210765D01*
X125645671Y-30219030D01*
X125667849Y-30229520D01*
X125688893Y-30242133D01*
X125708598Y-30256747D01*
X125726777Y-30273223D01*
X125743253Y-30291402D01*
X125757867Y-30311107D01*
X125770480Y-30332151D01*
X125780970Y-30354329D01*
X125789235Y-30377429D01*
X125795196Y-30401227D01*
X125798796Y-30425496D01*
X125800000Y-30450000D01*
X125800000Y-31550000D01*
X125798796Y-31574504D01*
X125795196Y-31598773D01*
X125789235Y-31622571D01*
X125780970Y-31645671D01*
X125770480Y-31667849D01*
X125757867Y-31688893D01*
X125743253Y-31708598D01*
X125726777Y-31726777D01*
X125708598Y-31743253D01*
X125688893Y-31757867D01*
X125667849Y-31770480D01*
X125645671Y-31780970D01*
X125622571Y-31789235D01*
X125598773Y-31795196D01*
X125574504Y-31798796D01*
X125550000Y-31800000D01*
X123450000Y-31800000D01*
X123425496Y-31798796D01*
X123401227Y-31795196D01*
X123377429Y-31789235D01*
X123354329Y-31780970D01*
X123332151Y-31770480D01*
X123311107Y-31757867D01*
X123291402Y-31743253D01*
X123273223Y-31726777D01*
X123256747Y-31708598D01*
X123242133Y-31688893D01*
X123229520Y-31667849D01*
X123219030Y-31645671D01*
X123210765Y-31622571D01*
X123204804Y-31598773D01*
X123201204Y-31574504D01*
X123200000Y-31550000D01*
X123200000Y-30450000D01*
X123201204Y-30425496D01*
X123204804Y-30401227D01*
X123210765Y-30377429D01*
X123219030Y-30354329D01*
X123229520Y-30332151D01*
X123242133Y-30311107D01*
X123256747Y-30291402D01*
X123273223Y-30273223D01*
X123291402Y-30256747D01*
X123311107Y-30242133D01*
X123332151Y-30229520D01*
X123354329Y-30219030D01*
X123377429Y-30210765D01*
X123401227Y-30204804D01*
X123425496Y-30201204D01*
X123450000Y-30200000D01*
X125550000Y-30200000D01*
X125574504Y-30201204D01*
G37*
G36*
X121974504Y-30201204D02*
G01*
X121998773Y-30204804D01*
X122022571Y-30210765D01*
X122045671Y-30219030D01*
X122067849Y-30229520D01*
X122088893Y-30242133D01*
X122108598Y-30256747D01*
X122126777Y-30273223D01*
X122143253Y-30291402D01*
X122157867Y-30311107D01*
X122170480Y-30332151D01*
X122180970Y-30354329D01*
X122189235Y-30377429D01*
X122195196Y-30401227D01*
X122198796Y-30425496D01*
X122200000Y-30450000D01*
X122200000Y-31550000D01*
X122198796Y-31574504D01*
X122195196Y-31598773D01*
X122189235Y-31622571D01*
X122180970Y-31645671D01*
X122170480Y-31667849D01*
X122157867Y-31688893D01*
X122143253Y-31708598D01*
X122126777Y-31726777D01*
X122108598Y-31743253D01*
X122088893Y-31757867D01*
X122067849Y-31770480D01*
X122045671Y-31780970D01*
X122022571Y-31789235D01*
X121998773Y-31795196D01*
X121974504Y-31798796D01*
X121950000Y-31800000D01*
X119850000Y-31800000D01*
X119825496Y-31798796D01*
X119801227Y-31795196D01*
X119777429Y-31789235D01*
X119754329Y-31780970D01*
X119732151Y-31770480D01*
X119711107Y-31757867D01*
X119691402Y-31743253D01*
X119673223Y-31726777D01*
X119656747Y-31708598D01*
X119642133Y-31688893D01*
X119629520Y-31667849D01*
X119619030Y-31645671D01*
X119610765Y-31622571D01*
X119604804Y-31598773D01*
X119601204Y-31574504D01*
X119600000Y-31550000D01*
X119600000Y-30450000D01*
X119601204Y-30425496D01*
X119604804Y-30401227D01*
X119610765Y-30377429D01*
X119619030Y-30354329D01*
X119629520Y-30332151D01*
X119642133Y-30311107D01*
X119656747Y-30291402D01*
X119673223Y-30273223D01*
X119691402Y-30256747D01*
X119711107Y-30242133D01*
X119732151Y-30229520D01*
X119754329Y-30219030D01*
X119777429Y-30210765D01*
X119801227Y-30204804D01*
X119825496Y-30201204D01*
X119850000Y-30200000D01*
X121950000Y-30200000D01*
X121974504Y-30201204D01*
G37*
G36*
X105149504Y-33176204D02*
G01*
X105173773Y-33179804D01*
X105197571Y-33185765D01*
X105220671Y-33194030D01*
X105242849Y-33204520D01*
X105263893Y-33217133D01*
X105283598Y-33231747D01*
X105301777Y-33248223D01*
X105318253Y-33266402D01*
X105332867Y-33286107D01*
X105345480Y-33307151D01*
X105355970Y-33329329D01*
X105364235Y-33352429D01*
X105370196Y-33376227D01*
X105373796Y-33400496D01*
X105375000Y-33425000D01*
X105375000Y-34175000D01*
X105373796Y-34199504D01*
X105370196Y-34223773D01*
X105364235Y-34247571D01*
X105355970Y-34270671D01*
X105345480Y-34292849D01*
X105332867Y-34313893D01*
X105318253Y-34333598D01*
X105301777Y-34351777D01*
X105283598Y-34368253D01*
X105263893Y-34382867D01*
X105242849Y-34395480D01*
X105220671Y-34405970D01*
X105197571Y-34414235D01*
X105173773Y-34420196D01*
X105149504Y-34423796D01*
X105125000Y-34425000D01*
X103875000Y-34425000D01*
X103850496Y-34423796D01*
X103826227Y-34420196D01*
X103802429Y-34414235D01*
X103779329Y-34405970D01*
X103757151Y-34395480D01*
X103736107Y-34382867D01*
X103716402Y-34368253D01*
X103698223Y-34351777D01*
X103681747Y-34333598D01*
X103667133Y-34313893D01*
X103654520Y-34292849D01*
X103644030Y-34270671D01*
X103635765Y-34247571D01*
X103629804Y-34223773D01*
X103626204Y-34199504D01*
X103625000Y-34175000D01*
X103625000Y-33425000D01*
X103626204Y-33400496D01*
X103629804Y-33376227D01*
X103635765Y-33352429D01*
X103644030Y-33329329D01*
X103654520Y-33307151D01*
X103667133Y-33286107D01*
X103681747Y-33266402D01*
X103698223Y-33248223D01*
X103716402Y-33231747D01*
X103736107Y-33217133D01*
X103757151Y-33204520D01*
X103779329Y-33194030D01*
X103802429Y-33185765D01*
X103826227Y-33179804D01*
X103850496Y-33176204D01*
X103875000Y-33175000D01*
X105125000Y-33175000D01*
X105149504Y-33176204D01*
G37*
G36*
X105149504Y-30376204D02*
G01*
X105173773Y-30379804D01*
X105197571Y-30385765D01*
X105220671Y-30394030D01*
X105242849Y-30404520D01*
X105263893Y-30417133D01*
X105283598Y-30431747D01*
X105301777Y-30448223D01*
X105318253Y-30466402D01*
X105332867Y-30486107D01*
X105345480Y-30507151D01*
X105355970Y-30529329D01*
X105364235Y-30552429D01*
X105370196Y-30576227D01*
X105373796Y-30600496D01*
X105375000Y-30625000D01*
X105375000Y-31375000D01*
X105373796Y-31399504D01*
X105370196Y-31423773D01*
X105364235Y-31447571D01*
X105355970Y-31470671D01*
X105345480Y-31492849D01*
X105332867Y-31513893D01*
X105318253Y-31533598D01*
X105301777Y-31551777D01*
X105283598Y-31568253D01*
X105263893Y-31582867D01*
X105242849Y-31595480D01*
X105220671Y-31605970D01*
X105197571Y-31614235D01*
X105173773Y-31620196D01*
X105149504Y-31623796D01*
X105125000Y-31625000D01*
X103875000Y-31625000D01*
X103850496Y-31623796D01*
X103826227Y-31620196D01*
X103802429Y-31614235D01*
X103779329Y-31605970D01*
X103757151Y-31595480D01*
X103736107Y-31582867D01*
X103716402Y-31568253D01*
X103698223Y-31551777D01*
X103681747Y-31533598D01*
X103667133Y-31513893D01*
X103654520Y-31492849D01*
X103644030Y-31470671D01*
X103635765Y-31447571D01*
X103629804Y-31423773D01*
X103626204Y-31399504D01*
X103625000Y-31375000D01*
X103625000Y-30625000D01*
X103626204Y-30600496D01*
X103629804Y-30576227D01*
X103635765Y-30552429D01*
X103644030Y-30529329D01*
X103654520Y-30507151D01*
X103667133Y-30486107D01*
X103681747Y-30466402D01*
X103698223Y-30448223D01*
X103716402Y-30431747D01*
X103736107Y-30417133D01*
X103757151Y-30404520D01*
X103779329Y-30394030D01*
X103802429Y-30385765D01*
X103826227Y-30379804D01*
X103850496Y-30376204D01*
X103875000Y-30375000D01*
X105125000Y-30375000D01*
X105149504Y-30376204D01*
G37*
G36*
X75974504Y-56701204D02*
G01*
X75998773Y-56704804D01*
X76022571Y-56710765D01*
X76045671Y-56719030D01*
X76067849Y-56729520D01*
X76088893Y-56742133D01*
X76108598Y-56756747D01*
X76126777Y-56773223D01*
X76143253Y-56791402D01*
X76157867Y-56811107D01*
X76170480Y-56832151D01*
X76180970Y-56854329D01*
X76189235Y-56877429D01*
X76195196Y-56901227D01*
X76198796Y-56925496D01*
X76200000Y-56950000D01*
X76200000Y-58050000D01*
X76198796Y-58074504D01*
X76195196Y-58098773D01*
X76189235Y-58122571D01*
X76180970Y-58145671D01*
X76170480Y-58167849D01*
X76157867Y-58188893D01*
X76143253Y-58208598D01*
X76126777Y-58226777D01*
X76108598Y-58243253D01*
X76088893Y-58257867D01*
X76067849Y-58270480D01*
X76045671Y-58280970D01*
X76022571Y-58289235D01*
X75998773Y-58295196D01*
X75974504Y-58298796D01*
X75950000Y-58300000D01*
X73850000Y-58300000D01*
X73825496Y-58298796D01*
X73801227Y-58295196D01*
X73777429Y-58289235D01*
X73754329Y-58280970D01*
X73732151Y-58270480D01*
X73711107Y-58257867D01*
X73691402Y-58243253D01*
X73673223Y-58226777D01*
X73656747Y-58208598D01*
X73642133Y-58188893D01*
X73629520Y-58167849D01*
X73619030Y-58145671D01*
X73610765Y-58122571D01*
X73604804Y-58098773D01*
X73601204Y-58074504D01*
X73600000Y-58050000D01*
X73600000Y-56950000D01*
X73601204Y-56925496D01*
X73604804Y-56901227D01*
X73610765Y-56877429D01*
X73619030Y-56854329D01*
X73629520Y-56832151D01*
X73642133Y-56811107D01*
X73656747Y-56791402D01*
X73673223Y-56773223D01*
X73691402Y-56756747D01*
X73711107Y-56742133D01*
X73732151Y-56729520D01*
X73754329Y-56719030D01*
X73777429Y-56710765D01*
X73801227Y-56704804D01*
X73825496Y-56701204D01*
X73850000Y-56700000D01*
X75950000Y-56700000D01*
X75974504Y-56701204D01*
G37*
G36*
X79574504Y-56701204D02*
G01*
X79598773Y-56704804D01*
X79622571Y-56710765D01*
X79645671Y-56719030D01*
X79667849Y-56729520D01*
X79688893Y-56742133D01*
X79708598Y-56756747D01*
X79726777Y-56773223D01*
X79743253Y-56791402D01*
X79757867Y-56811107D01*
X79770480Y-56832151D01*
X79780970Y-56854329D01*
X79789235Y-56877429D01*
X79795196Y-56901227D01*
X79798796Y-56925496D01*
X79800000Y-56950000D01*
X79800000Y-58050000D01*
X79798796Y-58074504D01*
X79795196Y-58098773D01*
X79789235Y-58122571D01*
X79780970Y-58145671D01*
X79770480Y-58167849D01*
X79757867Y-58188893D01*
X79743253Y-58208598D01*
X79726777Y-58226777D01*
X79708598Y-58243253D01*
X79688893Y-58257867D01*
X79667849Y-58270480D01*
X79645671Y-58280970D01*
X79622571Y-58289235D01*
X79598773Y-58295196D01*
X79574504Y-58298796D01*
X79550000Y-58300000D01*
X77450000Y-58300000D01*
X77425496Y-58298796D01*
X77401227Y-58295196D01*
X77377429Y-58289235D01*
X77354329Y-58280970D01*
X77332151Y-58270480D01*
X77311107Y-58257867D01*
X77291402Y-58243253D01*
X77273223Y-58226777D01*
X77256747Y-58208598D01*
X77242133Y-58188893D01*
X77229520Y-58167849D01*
X77219030Y-58145671D01*
X77210765Y-58122571D01*
X77204804Y-58098773D01*
X77201204Y-58074504D01*
X77200000Y-58050000D01*
X77200000Y-56950000D01*
X77201204Y-56925496D01*
X77204804Y-56901227D01*
X77210765Y-56877429D01*
X77219030Y-56854329D01*
X77229520Y-56832151D01*
X77242133Y-56811107D01*
X77256747Y-56791402D01*
X77273223Y-56773223D01*
X77291402Y-56756747D01*
X77311107Y-56742133D01*
X77332151Y-56729520D01*
X77354329Y-56719030D01*
X77377429Y-56710765D01*
X77401227Y-56704804D01*
X77425496Y-56701204D01*
X77450000Y-56700000D01*
X79550000Y-56700000D01*
X79574504Y-56701204D01*
G37*
G36*
X75574504Y-67201204D02*
G01*
X75598773Y-67204804D01*
X75622571Y-67210765D01*
X75645671Y-67219030D01*
X75667849Y-67229520D01*
X75688893Y-67242133D01*
X75708598Y-67256747D01*
X75726777Y-67273223D01*
X75743253Y-67291402D01*
X75757867Y-67311107D01*
X75770480Y-67332151D01*
X75780970Y-67354329D01*
X75789235Y-67377429D01*
X75795196Y-67401227D01*
X75798796Y-67425496D01*
X75800000Y-67450000D01*
X75800000Y-68550000D01*
X75798796Y-68574504D01*
X75795196Y-68598773D01*
X75789235Y-68622571D01*
X75780970Y-68645671D01*
X75770480Y-68667849D01*
X75757867Y-68688893D01*
X75743253Y-68708598D01*
X75726777Y-68726777D01*
X75708598Y-68743253D01*
X75688893Y-68757867D01*
X75667849Y-68770480D01*
X75645671Y-68780970D01*
X75622571Y-68789235D01*
X75598773Y-68795196D01*
X75574504Y-68798796D01*
X75550000Y-68800000D01*
X73450000Y-68800000D01*
X73425496Y-68798796D01*
X73401227Y-68795196D01*
X73377429Y-68789235D01*
X73354329Y-68780970D01*
X73332151Y-68770480D01*
X73311107Y-68757867D01*
X73291402Y-68743253D01*
X73273223Y-68726777D01*
X73256747Y-68708598D01*
X73242133Y-68688893D01*
X73229520Y-68667849D01*
X73219030Y-68645671D01*
X73210765Y-68622571D01*
X73204804Y-68598773D01*
X73201204Y-68574504D01*
X73200000Y-68550000D01*
X73200000Y-67450000D01*
X73201204Y-67425496D01*
X73204804Y-67401227D01*
X73210765Y-67377429D01*
X73219030Y-67354329D01*
X73229520Y-67332151D01*
X73242133Y-67311107D01*
X73256747Y-67291402D01*
X73273223Y-67273223D01*
X73291402Y-67256747D01*
X73311107Y-67242133D01*
X73332151Y-67229520D01*
X73354329Y-67219030D01*
X73377429Y-67210765D01*
X73401227Y-67204804D01*
X73425496Y-67201204D01*
X73450000Y-67200000D01*
X75550000Y-67200000D01*
X75574504Y-67201204D01*
G37*
G36*
X79174504Y-67201204D02*
G01*
X79198773Y-67204804D01*
X79222571Y-67210765D01*
X79245671Y-67219030D01*
X79267849Y-67229520D01*
X79288893Y-67242133D01*
X79308598Y-67256747D01*
X79326777Y-67273223D01*
X79343253Y-67291402D01*
X79357867Y-67311107D01*
X79370480Y-67332151D01*
X79380970Y-67354329D01*
X79389235Y-67377429D01*
X79395196Y-67401227D01*
X79398796Y-67425496D01*
X79400000Y-67450000D01*
X79400000Y-68550000D01*
X79398796Y-68574504D01*
X79395196Y-68598773D01*
X79389235Y-68622571D01*
X79380970Y-68645671D01*
X79370480Y-68667849D01*
X79357867Y-68688893D01*
X79343253Y-68708598D01*
X79326777Y-68726777D01*
X79308598Y-68743253D01*
X79288893Y-68757867D01*
X79267849Y-68770480D01*
X79245671Y-68780970D01*
X79222571Y-68789235D01*
X79198773Y-68795196D01*
X79174504Y-68798796D01*
X79150000Y-68800000D01*
X77050000Y-68800000D01*
X77025496Y-68798796D01*
X77001227Y-68795196D01*
X76977429Y-68789235D01*
X76954329Y-68780970D01*
X76932151Y-68770480D01*
X76911107Y-68757867D01*
X76891402Y-68743253D01*
X76873223Y-68726777D01*
X76856747Y-68708598D01*
X76842133Y-68688893D01*
X76829520Y-68667849D01*
X76819030Y-68645671D01*
X76810765Y-68622571D01*
X76804804Y-68598773D01*
X76801204Y-68574504D01*
X76800000Y-68550000D01*
X76800000Y-67450000D01*
X76801204Y-67425496D01*
X76804804Y-67401227D01*
X76810765Y-67377429D01*
X76819030Y-67354329D01*
X76829520Y-67332151D01*
X76842133Y-67311107D01*
X76856747Y-67291402D01*
X76873223Y-67273223D01*
X76891402Y-67256747D01*
X76911107Y-67242133D01*
X76932151Y-67229520D01*
X76954329Y-67219030D01*
X76977429Y-67210765D01*
X77001227Y-67204804D01*
X77025496Y-67201204D01*
X77050000Y-67200000D01*
X79150000Y-67200000D01*
X79174504Y-67201204D01*
G37*
G36*
X96649504Y-73376204D02*
G01*
X96673773Y-73379804D01*
X96697571Y-73385765D01*
X96720671Y-73394030D01*
X96742849Y-73404520D01*
X96763893Y-73417133D01*
X96783598Y-73431747D01*
X96801777Y-73448223D01*
X96818253Y-73466402D01*
X96832867Y-73486107D01*
X96845480Y-73507151D01*
X96855970Y-73529329D01*
X96864235Y-73552429D01*
X96870196Y-73576227D01*
X96873796Y-73600496D01*
X96875000Y-73625000D01*
X96875000Y-74375000D01*
X96873796Y-74399504D01*
X96870196Y-74423773D01*
X96864235Y-74447571D01*
X96855970Y-74470671D01*
X96845480Y-74492849D01*
X96832867Y-74513893D01*
X96818253Y-74533598D01*
X96801777Y-74551777D01*
X96783598Y-74568253D01*
X96763893Y-74582867D01*
X96742849Y-74595480D01*
X96720671Y-74605970D01*
X96697571Y-74614235D01*
X96673773Y-74620196D01*
X96649504Y-74623796D01*
X96625000Y-74625000D01*
X95375000Y-74625000D01*
X95350496Y-74623796D01*
X95326227Y-74620196D01*
X95302429Y-74614235D01*
X95279329Y-74605970D01*
X95257151Y-74595480D01*
X95236107Y-74582867D01*
X95216402Y-74568253D01*
X95198223Y-74551777D01*
X95181747Y-74533598D01*
X95167133Y-74513893D01*
X95154520Y-74492849D01*
X95144030Y-74470671D01*
X95135765Y-74447571D01*
X95129804Y-74423773D01*
X95126204Y-74399504D01*
X95125000Y-74375000D01*
X95125000Y-73625000D01*
X95126204Y-73600496D01*
X95129804Y-73576227D01*
X95135765Y-73552429D01*
X95144030Y-73529329D01*
X95154520Y-73507151D01*
X95167133Y-73486107D01*
X95181747Y-73466402D01*
X95198223Y-73448223D01*
X95216402Y-73431747D01*
X95236107Y-73417133D01*
X95257151Y-73404520D01*
X95279329Y-73394030D01*
X95302429Y-73385765D01*
X95326227Y-73379804D01*
X95350496Y-73376204D01*
X95375000Y-73375000D01*
X96625000Y-73375000D01*
X96649504Y-73376204D01*
G37*
G36*
X96649504Y-70576204D02*
G01*
X96673773Y-70579804D01*
X96697571Y-70585765D01*
X96720671Y-70594030D01*
X96742849Y-70604520D01*
X96763893Y-70617133D01*
X96783598Y-70631747D01*
X96801777Y-70648223D01*
X96818253Y-70666402D01*
X96832867Y-70686107D01*
X96845480Y-70707151D01*
X96855970Y-70729329D01*
X96864235Y-70752429D01*
X96870196Y-70776227D01*
X96873796Y-70800496D01*
X96875000Y-70825000D01*
X96875000Y-71575000D01*
X96873796Y-71599504D01*
X96870196Y-71623773D01*
X96864235Y-71647571D01*
X96855970Y-71670671D01*
X96845480Y-71692849D01*
X96832867Y-71713893D01*
X96818253Y-71733598D01*
X96801777Y-71751777D01*
X96783598Y-71768253D01*
X96763893Y-71782867D01*
X96742849Y-71795480D01*
X96720671Y-71805970D01*
X96697571Y-71814235D01*
X96673773Y-71820196D01*
X96649504Y-71823796D01*
X96625000Y-71825000D01*
X95375000Y-71825000D01*
X95350496Y-71823796D01*
X95326227Y-71820196D01*
X95302429Y-71814235D01*
X95279329Y-71805970D01*
X95257151Y-71795480D01*
X95236107Y-71782867D01*
X95216402Y-71768253D01*
X95198223Y-71751777D01*
X95181747Y-71733598D01*
X95167133Y-71713893D01*
X95154520Y-71692849D01*
X95144030Y-71670671D01*
X95135765Y-71647571D01*
X95129804Y-71623773D01*
X95126204Y-71599504D01*
X95125000Y-71575000D01*
X95125000Y-70825000D01*
X95126204Y-70800496D01*
X95129804Y-70776227D01*
X95135765Y-70752429D01*
X95144030Y-70729329D01*
X95154520Y-70707151D01*
X95167133Y-70686107D01*
X95181747Y-70666402D01*
X95198223Y-70648223D01*
X95216402Y-70631747D01*
X95236107Y-70617133D01*
X95257151Y-70604520D01*
X95279329Y-70594030D01*
X95302429Y-70585765D01*
X95326227Y-70579804D01*
X95350496Y-70576204D01*
X95375000Y-70575000D01*
X96625000Y-70575000D01*
X96649504Y-70576204D01*
G37*
G36*
X93149504Y-73376204D02*
G01*
X93173773Y-73379804D01*
X93197571Y-73385765D01*
X93220671Y-73394030D01*
X93242849Y-73404520D01*
X93263893Y-73417133D01*
X93283598Y-73431747D01*
X93301777Y-73448223D01*
X93318253Y-73466402D01*
X93332867Y-73486107D01*
X93345480Y-73507151D01*
X93355970Y-73529329D01*
X93364235Y-73552429D01*
X93370196Y-73576227D01*
X93373796Y-73600496D01*
X93375000Y-73625000D01*
X93375000Y-74375000D01*
X93373796Y-74399504D01*
X93370196Y-74423773D01*
X93364235Y-74447571D01*
X93355970Y-74470671D01*
X93345480Y-74492849D01*
X93332867Y-74513893D01*
X93318253Y-74533598D01*
X93301777Y-74551777D01*
X93283598Y-74568253D01*
X93263893Y-74582867D01*
X93242849Y-74595480D01*
X93220671Y-74605970D01*
X93197571Y-74614235D01*
X93173773Y-74620196D01*
X93149504Y-74623796D01*
X93125000Y-74625000D01*
X91875000Y-74625000D01*
X91850496Y-74623796D01*
X91826227Y-74620196D01*
X91802429Y-74614235D01*
X91779329Y-74605970D01*
X91757151Y-74595480D01*
X91736107Y-74582867D01*
X91716402Y-74568253D01*
X91698223Y-74551777D01*
X91681747Y-74533598D01*
X91667133Y-74513893D01*
X91654520Y-74492849D01*
X91644030Y-74470671D01*
X91635765Y-74447571D01*
X91629804Y-74423773D01*
X91626204Y-74399504D01*
X91625000Y-74375000D01*
X91625000Y-73625000D01*
X91626204Y-73600496D01*
X91629804Y-73576227D01*
X91635765Y-73552429D01*
X91644030Y-73529329D01*
X91654520Y-73507151D01*
X91667133Y-73486107D01*
X91681747Y-73466402D01*
X91698223Y-73448223D01*
X91716402Y-73431747D01*
X91736107Y-73417133D01*
X91757151Y-73404520D01*
X91779329Y-73394030D01*
X91802429Y-73385765D01*
X91826227Y-73379804D01*
X91850496Y-73376204D01*
X91875000Y-73375000D01*
X93125000Y-73375000D01*
X93149504Y-73376204D01*
G37*
G36*
X93149504Y-70576204D02*
G01*
X93173773Y-70579804D01*
X93197571Y-70585765D01*
X93220671Y-70594030D01*
X93242849Y-70604520D01*
X93263893Y-70617133D01*
X93283598Y-70631747D01*
X93301777Y-70648223D01*
X93318253Y-70666402D01*
X93332867Y-70686107D01*
X93345480Y-70707151D01*
X93355970Y-70729329D01*
X93364235Y-70752429D01*
X93370196Y-70776227D01*
X93373796Y-70800496D01*
X93375000Y-70825000D01*
X93375000Y-71575000D01*
X93373796Y-71599504D01*
X93370196Y-71623773D01*
X93364235Y-71647571D01*
X93355970Y-71670671D01*
X93345480Y-71692849D01*
X93332867Y-71713893D01*
X93318253Y-71733598D01*
X93301777Y-71751777D01*
X93283598Y-71768253D01*
X93263893Y-71782867D01*
X93242849Y-71795480D01*
X93220671Y-71805970D01*
X93197571Y-71814235D01*
X93173773Y-71820196D01*
X93149504Y-71823796D01*
X93125000Y-71825000D01*
X91875000Y-71825000D01*
X91850496Y-71823796D01*
X91826227Y-71820196D01*
X91802429Y-71814235D01*
X91779329Y-71805970D01*
X91757151Y-71795480D01*
X91736107Y-71782867D01*
X91716402Y-71768253D01*
X91698223Y-71751777D01*
X91681747Y-71733598D01*
X91667133Y-71713893D01*
X91654520Y-71692849D01*
X91644030Y-71670671D01*
X91635765Y-71647571D01*
X91629804Y-71623773D01*
X91626204Y-71599504D01*
X91625000Y-71575000D01*
X91625000Y-70825000D01*
X91626204Y-70800496D01*
X91629804Y-70776227D01*
X91635765Y-70752429D01*
X91644030Y-70729329D01*
X91654520Y-70707151D01*
X91667133Y-70686107D01*
X91681747Y-70666402D01*
X91698223Y-70648223D01*
X91716402Y-70631747D01*
X91736107Y-70617133D01*
X91757151Y-70604520D01*
X91779329Y-70594030D01*
X91802429Y-70585765D01*
X91826227Y-70579804D01*
X91850496Y-70576204D01*
X91875000Y-70575000D01*
X93125000Y-70575000D01*
X93149504Y-70576204D01*
G37*
G36*
X72899504Y-59626204D02*
G01*
X72923773Y-59629804D01*
X72947571Y-59635765D01*
X72970671Y-59644030D01*
X72992849Y-59654520D01*
X73013893Y-59667133D01*
X73033598Y-59681747D01*
X73051777Y-59698223D01*
X73068253Y-59716402D01*
X73082867Y-59736107D01*
X73095480Y-59757151D01*
X73105970Y-59779329D01*
X73114235Y-59802429D01*
X73120196Y-59826227D01*
X73123796Y-59850496D01*
X73125000Y-59875000D01*
X73125000Y-61125000D01*
X73123796Y-61149504D01*
X73120196Y-61173773D01*
X73114235Y-61197571D01*
X73105970Y-61220671D01*
X73095480Y-61242849D01*
X73082867Y-61263893D01*
X73068253Y-61283598D01*
X73051777Y-61301777D01*
X73033598Y-61318253D01*
X73013893Y-61332867D01*
X72992849Y-61345480D01*
X72970671Y-61355970D01*
X72947571Y-61364235D01*
X72923773Y-61370196D01*
X72899504Y-61373796D01*
X72875000Y-61375000D01*
X72125000Y-61375000D01*
X72100496Y-61373796D01*
X72076227Y-61370196D01*
X72052429Y-61364235D01*
X72029329Y-61355970D01*
X72007151Y-61345480D01*
X71986107Y-61332867D01*
X71966402Y-61318253D01*
X71948223Y-61301777D01*
X71931747Y-61283598D01*
X71917133Y-61263893D01*
X71904520Y-61242849D01*
X71894030Y-61220671D01*
X71885765Y-61197571D01*
X71879804Y-61173773D01*
X71876204Y-61149504D01*
X71875000Y-61125000D01*
X71875000Y-59875000D01*
X71876204Y-59850496D01*
X71879804Y-59826227D01*
X71885765Y-59802429D01*
X71894030Y-59779329D01*
X71904520Y-59757151D01*
X71917133Y-59736107D01*
X71931747Y-59716402D01*
X71948223Y-59698223D01*
X71966402Y-59681747D01*
X71986107Y-59667133D01*
X72007151Y-59654520D01*
X72029329Y-59644030D01*
X72052429Y-59635765D01*
X72076227Y-59629804D01*
X72100496Y-59626204D01*
X72125000Y-59625000D01*
X72875000Y-59625000D01*
X72899504Y-59626204D01*
G37*
G36*
X70099504Y-59626204D02*
G01*
X70123773Y-59629804D01*
X70147571Y-59635765D01*
X70170671Y-59644030D01*
X70192849Y-59654520D01*
X70213893Y-59667133D01*
X70233598Y-59681747D01*
X70251777Y-59698223D01*
X70268253Y-59716402D01*
X70282867Y-59736107D01*
X70295480Y-59757151D01*
X70305970Y-59779329D01*
X70314235Y-59802429D01*
X70320196Y-59826227D01*
X70323796Y-59850496D01*
X70325000Y-59875000D01*
X70325000Y-61125000D01*
X70323796Y-61149504D01*
X70320196Y-61173773D01*
X70314235Y-61197571D01*
X70305970Y-61220671D01*
X70295480Y-61242849D01*
X70282867Y-61263893D01*
X70268253Y-61283598D01*
X70251777Y-61301777D01*
X70233598Y-61318253D01*
X70213893Y-61332867D01*
X70192849Y-61345480D01*
X70170671Y-61355970D01*
X70147571Y-61364235D01*
X70123773Y-61370196D01*
X70099504Y-61373796D01*
X70075000Y-61375000D01*
X69325000Y-61375000D01*
X69300496Y-61373796D01*
X69276227Y-61370196D01*
X69252429Y-61364235D01*
X69229329Y-61355970D01*
X69207151Y-61345480D01*
X69186107Y-61332867D01*
X69166402Y-61318253D01*
X69148223Y-61301777D01*
X69131747Y-61283598D01*
X69117133Y-61263893D01*
X69104520Y-61242849D01*
X69094030Y-61220671D01*
X69085765Y-61197571D01*
X69079804Y-61173773D01*
X69076204Y-61149504D01*
X69075000Y-61125000D01*
X69075000Y-59875000D01*
X69076204Y-59850496D01*
X69079804Y-59826227D01*
X69085765Y-59802429D01*
X69094030Y-59779329D01*
X69104520Y-59757151D01*
X69117133Y-59736107D01*
X69131747Y-59716402D01*
X69148223Y-59698223D01*
X69166402Y-59681747D01*
X69186107Y-59667133D01*
X69207151Y-59654520D01*
X69229329Y-59644030D01*
X69252429Y-59635765D01*
X69276227Y-59629804D01*
X69300496Y-59626204D01*
X69325000Y-59625000D01*
X70075000Y-59625000D01*
X70099504Y-59626204D01*
G37*
G36*
X72699504Y-64126204D02*
G01*
X72723773Y-64129804D01*
X72747571Y-64135765D01*
X72770671Y-64144030D01*
X72792849Y-64154520D01*
X72813893Y-64167133D01*
X72833598Y-64181747D01*
X72851777Y-64198223D01*
X72868253Y-64216402D01*
X72882867Y-64236107D01*
X72895480Y-64257151D01*
X72905970Y-64279329D01*
X72914235Y-64302429D01*
X72920196Y-64326227D01*
X72923796Y-64350496D01*
X72925000Y-64375000D01*
X72925000Y-65625000D01*
X72923796Y-65649504D01*
X72920196Y-65673773D01*
X72914235Y-65697571D01*
X72905970Y-65720671D01*
X72895480Y-65742849D01*
X72882867Y-65763893D01*
X72868253Y-65783598D01*
X72851777Y-65801777D01*
X72833598Y-65818253D01*
X72813893Y-65832867D01*
X72792849Y-65845480D01*
X72770671Y-65855970D01*
X72747571Y-65864235D01*
X72723773Y-65870196D01*
X72699504Y-65873796D01*
X72675000Y-65875000D01*
X71925000Y-65875000D01*
X71900496Y-65873796D01*
X71876227Y-65870196D01*
X71852429Y-65864235D01*
X71829329Y-65855970D01*
X71807151Y-65845480D01*
X71786107Y-65832867D01*
X71766402Y-65818253D01*
X71748223Y-65801777D01*
X71731747Y-65783598D01*
X71717133Y-65763893D01*
X71704520Y-65742849D01*
X71694030Y-65720671D01*
X71685765Y-65697571D01*
X71679804Y-65673773D01*
X71676204Y-65649504D01*
X71675000Y-65625000D01*
X71675000Y-64375000D01*
X71676204Y-64350496D01*
X71679804Y-64326227D01*
X71685765Y-64302429D01*
X71694030Y-64279329D01*
X71704520Y-64257151D01*
X71717133Y-64236107D01*
X71731747Y-64216402D01*
X71748223Y-64198223D01*
X71766402Y-64181747D01*
X71786107Y-64167133D01*
X71807151Y-64154520D01*
X71829329Y-64144030D01*
X71852429Y-64135765D01*
X71876227Y-64129804D01*
X71900496Y-64126204D01*
X71925000Y-64125000D01*
X72675000Y-64125000D01*
X72699504Y-64126204D01*
G37*
G36*
X69899504Y-64126204D02*
G01*
X69923773Y-64129804D01*
X69947571Y-64135765D01*
X69970671Y-64144030D01*
X69992849Y-64154520D01*
X70013893Y-64167133D01*
X70033598Y-64181747D01*
X70051777Y-64198223D01*
X70068253Y-64216402D01*
X70082867Y-64236107D01*
X70095480Y-64257151D01*
X70105970Y-64279329D01*
X70114235Y-64302429D01*
X70120196Y-64326227D01*
X70123796Y-64350496D01*
X70125000Y-64375000D01*
X70125000Y-65625000D01*
X70123796Y-65649504D01*
X70120196Y-65673773D01*
X70114235Y-65697571D01*
X70105970Y-65720671D01*
X70095480Y-65742849D01*
X70082867Y-65763893D01*
X70068253Y-65783598D01*
X70051777Y-65801777D01*
X70033598Y-65818253D01*
X70013893Y-65832867D01*
X69992849Y-65845480D01*
X69970671Y-65855970D01*
X69947571Y-65864235D01*
X69923773Y-65870196D01*
X69899504Y-65873796D01*
X69875000Y-65875000D01*
X69125000Y-65875000D01*
X69100496Y-65873796D01*
X69076227Y-65870196D01*
X69052429Y-65864235D01*
X69029329Y-65855970D01*
X69007151Y-65845480D01*
X68986107Y-65832867D01*
X68966402Y-65818253D01*
X68948223Y-65801777D01*
X68931747Y-65783598D01*
X68917133Y-65763893D01*
X68904520Y-65742849D01*
X68894030Y-65720671D01*
X68885765Y-65697571D01*
X68879804Y-65673773D01*
X68876204Y-65649504D01*
X68875000Y-65625000D01*
X68875000Y-64375000D01*
X68876204Y-64350496D01*
X68879804Y-64326227D01*
X68885765Y-64302429D01*
X68894030Y-64279329D01*
X68904520Y-64257151D01*
X68917133Y-64236107D01*
X68931747Y-64216402D01*
X68948223Y-64198223D01*
X68966402Y-64181747D01*
X68986107Y-64167133D01*
X69007151Y-64154520D01*
X69029329Y-64144030D01*
X69052429Y-64135765D01*
X69076227Y-64129804D01*
X69100496Y-64126204D01*
X69125000Y-64125000D01*
X69875000Y-64125000D01*
X69899504Y-64126204D01*
G37*
G36*
X131524504Y-73701204D02*
G01*
X131548773Y-73704804D01*
X131572571Y-73710765D01*
X131595671Y-73719030D01*
X131617849Y-73729520D01*
X131638893Y-73742133D01*
X131658598Y-73756747D01*
X131676777Y-73773223D01*
X131693253Y-73791402D01*
X131707867Y-73811107D01*
X131720480Y-73832151D01*
X131730970Y-73854329D01*
X131739235Y-73877429D01*
X131745196Y-73901227D01*
X131748796Y-73925496D01*
X131750000Y-73950000D01*
X131750000Y-75050000D01*
X131748796Y-75074504D01*
X131745196Y-75098773D01*
X131739235Y-75122571D01*
X131730970Y-75145671D01*
X131720480Y-75167849D01*
X131707867Y-75188893D01*
X131693253Y-75208598D01*
X131676777Y-75226777D01*
X131658598Y-75243253D01*
X131638893Y-75257867D01*
X131617849Y-75270480D01*
X131595671Y-75280970D01*
X131572571Y-75289235D01*
X131548773Y-75295196D01*
X131524504Y-75298796D01*
X131500000Y-75300000D01*
X128500000Y-75300000D01*
X128475496Y-75298796D01*
X128451227Y-75295196D01*
X128427429Y-75289235D01*
X128404329Y-75280970D01*
X128382151Y-75270480D01*
X128361107Y-75257867D01*
X128341402Y-75243253D01*
X128323223Y-75226777D01*
X128306747Y-75208598D01*
X128292133Y-75188893D01*
X128279520Y-75167849D01*
X128269030Y-75145671D01*
X128260765Y-75122571D01*
X128254804Y-75098773D01*
X128251204Y-75074504D01*
X128250000Y-75050000D01*
X128250000Y-73950000D01*
X128251204Y-73925496D01*
X128254804Y-73901227D01*
X128260765Y-73877429D01*
X128269030Y-73854329D01*
X128279520Y-73832151D01*
X128292133Y-73811107D01*
X128306747Y-73791402D01*
X128323223Y-73773223D01*
X128341402Y-73756747D01*
X128361107Y-73742133D01*
X128382151Y-73729520D01*
X128404329Y-73719030D01*
X128427429Y-73710765D01*
X128451227Y-73704804D01*
X128475496Y-73701204D01*
X128500000Y-73700000D01*
X131500000Y-73700000D01*
X131524504Y-73701204D01*
G37*
G36*
X137124504Y-73701204D02*
G01*
X137148773Y-73704804D01*
X137172571Y-73710765D01*
X137195671Y-73719030D01*
X137217849Y-73729520D01*
X137238893Y-73742133D01*
X137258598Y-73756747D01*
X137276777Y-73773223D01*
X137293253Y-73791402D01*
X137307867Y-73811107D01*
X137320480Y-73832151D01*
X137330970Y-73854329D01*
X137339235Y-73877429D01*
X137345196Y-73901227D01*
X137348796Y-73925496D01*
X137350000Y-73950000D01*
X137350000Y-75050000D01*
X137348796Y-75074504D01*
X137345196Y-75098773D01*
X137339235Y-75122571D01*
X137330970Y-75145671D01*
X137320480Y-75167849D01*
X137307867Y-75188893D01*
X137293253Y-75208598D01*
X137276777Y-75226777D01*
X137258598Y-75243253D01*
X137238893Y-75257867D01*
X137217849Y-75270480D01*
X137195671Y-75280970D01*
X137172571Y-75289235D01*
X137148773Y-75295196D01*
X137124504Y-75298796D01*
X137100000Y-75300000D01*
X134100000Y-75300000D01*
X134075496Y-75298796D01*
X134051227Y-75295196D01*
X134027429Y-75289235D01*
X134004329Y-75280970D01*
X133982151Y-75270480D01*
X133961107Y-75257867D01*
X133941402Y-75243253D01*
X133923223Y-75226777D01*
X133906747Y-75208598D01*
X133892133Y-75188893D01*
X133879520Y-75167849D01*
X133869030Y-75145671D01*
X133860765Y-75122571D01*
X133854804Y-75098773D01*
X133851204Y-75074504D01*
X133850000Y-75050000D01*
X133850000Y-73950000D01*
X133851204Y-73925496D01*
X133854804Y-73901227D01*
X133860765Y-73877429D01*
X133869030Y-73854329D01*
X133879520Y-73832151D01*
X133892133Y-73811107D01*
X133906747Y-73791402D01*
X133923223Y-73773223D01*
X133941402Y-73756747D01*
X133961107Y-73742133D01*
X133982151Y-73729520D01*
X134004329Y-73719030D01*
X134027429Y-73710765D01*
X134051227Y-73704804D01*
X134075496Y-73701204D01*
X134100000Y-73700000D01*
X137100000Y-73700000D01*
X137124504Y-73701204D01*
G37*
G36*
X136074504Y-94701204D02*
G01*
X136098773Y-94704804D01*
X136122571Y-94710765D01*
X136145671Y-94719030D01*
X136167849Y-94729520D01*
X136188893Y-94742133D01*
X136208598Y-94756747D01*
X136226777Y-94773223D01*
X136243253Y-94791402D01*
X136257867Y-94811107D01*
X136270480Y-94832151D01*
X136280970Y-94854329D01*
X136289235Y-94877429D01*
X136295196Y-94901227D01*
X136298796Y-94925496D01*
X136300000Y-94950000D01*
X136300000Y-97050000D01*
X136298796Y-97074504D01*
X136295196Y-97098773D01*
X136289235Y-97122571D01*
X136280970Y-97145671D01*
X136270480Y-97167849D01*
X136257867Y-97188893D01*
X136243253Y-97208598D01*
X136226777Y-97226777D01*
X136208598Y-97243253D01*
X136188893Y-97257867D01*
X136167849Y-97270480D01*
X136145671Y-97280970D01*
X136122571Y-97289235D01*
X136098773Y-97295196D01*
X136074504Y-97298796D01*
X136050000Y-97300000D01*
X134950000Y-97300000D01*
X134925496Y-97298796D01*
X134901227Y-97295196D01*
X134877429Y-97289235D01*
X134854329Y-97280970D01*
X134832151Y-97270480D01*
X134811107Y-97257867D01*
X134791402Y-97243253D01*
X134773223Y-97226777D01*
X134756747Y-97208598D01*
X134742133Y-97188893D01*
X134729520Y-97167849D01*
X134719030Y-97145671D01*
X134710765Y-97122571D01*
X134704804Y-97098773D01*
X134701204Y-97074504D01*
X134700000Y-97050000D01*
X134700000Y-94950000D01*
X134701204Y-94925496D01*
X134704804Y-94901227D01*
X134710765Y-94877429D01*
X134719030Y-94854329D01*
X134729520Y-94832151D01*
X134742133Y-94811107D01*
X134756747Y-94791402D01*
X134773223Y-94773223D01*
X134791402Y-94756747D01*
X134811107Y-94742133D01*
X134832151Y-94729520D01*
X134854329Y-94719030D01*
X134877429Y-94710765D01*
X134901227Y-94704804D01*
X134925496Y-94701204D01*
X134950000Y-94700000D01*
X136050000Y-94700000D01*
X136074504Y-94701204D01*
G37*
G36*
X136074504Y-91101204D02*
G01*
X136098773Y-91104804D01*
X136122571Y-91110765D01*
X136145671Y-91119030D01*
X136167849Y-91129520D01*
X136188893Y-91142133D01*
X136208598Y-91156747D01*
X136226777Y-91173223D01*
X136243253Y-91191402D01*
X136257867Y-91211107D01*
X136270480Y-91232151D01*
X136280970Y-91254329D01*
X136289235Y-91277429D01*
X136295196Y-91301227D01*
X136298796Y-91325496D01*
X136300000Y-91350000D01*
X136300000Y-93450000D01*
X136298796Y-93474504D01*
X136295196Y-93498773D01*
X136289235Y-93522571D01*
X136280970Y-93545671D01*
X136270480Y-93567849D01*
X136257867Y-93588893D01*
X136243253Y-93608598D01*
X136226777Y-93626777D01*
X136208598Y-93643253D01*
X136188893Y-93657867D01*
X136167849Y-93670480D01*
X136145671Y-93680970D01*
X136122571Y-93689235D01*
X136098773Y-93695196D01*
X136074504Y-93698796D01*
X136050000Y-93700000D01*
X134950000Y-93700000D01*
X134925496Y-93698796D01*
X134901227Y-93695196D01*
X134877429Y-93689235D01*
X134854329Y-93680970D01*
X134832151Y-93670480D01*
X134811107Y-93657867D01*
X134791402Y-93643253D01*
X134773223Y-93626777D01*
X134756747Y-93608598D01*
X134742133Y-93588893D01*
X134729520Y-93567849D01*
X134719030Y-93545671D01*
X134710765Y-93522571D01*
X134704804Y-93498773D01*
X134701204Y-93474504D01*
X134700000Y-93450000D01*
X134700000Y-91350000D01*
X134701204Y-91325496D01*
X134704804Y-91301227D01*
X134710765Y-91277429D01*
X134719030Y-91254329D01*
X134729520Y-91232151D01*
X134742133Y-91211107D01*
X134756747Y-91191402D01*
X134773223Y-91173223D01*
X134791402Y-91156747D01*
X134811107Y-91142133D01*
X134832151Y-91129520D01*
X134854329Y-91119030D01*
X134877429Y-91110765D01*
X134901227Y-91104804D01*
X134925496Y-91101204D01*
X134950000Y-91100000D01*
X136050000Y-91100000D01*
X136074504Y-91101204D01*
G37*
M02*
